G04 #@! TF.GenerationSoftware,KiCad,Pcbnew,10.0.5-10.0.5~ubuntu24.04.1*
G04 #@! TF.CreationDate,2026-07-28T05:12:48+02:00*
G04 #@! TF.ProjectId,carrier,63617272-6965-4722-9e6b-696361645f70,rev?*
G04 #@! TF.SameCoordinates,Original*
G04 #@! TF.FileFunction,Legend,Top*
G04 #@! TF.FilePolarity,Positive*
%FSLAX46Y46*%
G04 Gerber Fmt 4.6, Leading zero omitted, Abs format (unit mm)*
G04 Created by KiCad (PCBNEW 10.0.5-10.0.5~ubuntu24.04.1) date 2026-07-28 05:12:48*
%MOMM*%
%LPD*%
G01*
G04 APERTURE LIST*
%ADD10C,0.150000*%
%ADD11C,0.220000*%
%ADD12C,0.120000*%
%ADD13C,0.300000*%
G04 APERTURE END LIST*
D10*
X23597555Y-6223533D02*
X26097555Y-6223533D01*
X23597555Y-23590197D02*
X26097555Y-23590197D01*
X43910783Y-24583744D02*
X46410783Y-24583744D01*
X43910783Y-42037389D02*
X46410783Y-42037389D01*
X55619293Y-23590197D02*
X55619293Y-21090197D01*
X3435714Y-27333723D02*
X3816667Y-27333723D01*
X3359524Y-27562295D02*
X3626191Y-26762295D01*
X3626191Y-26762295D02*
X3892857Y-27562295D01*
X4159524Y-27562295D02*
X4159524Y-26762295D01*
X4159524Y-26762295D02*
X4616667Y-27562295D01*
X4616667Y-27562295D02*
X4616667Y-26762295D01*
X4883333Y-26762295D02*
X5340476Y-26762295D01*
X5111904Y-27562295D02*
X5111904Y-26762295D01*
X10274762Y-43866045D02*
X10274762Y-43066045D01*
X10274762Y-43066045D02*
X10731905Y-43866045D01*
X10731905Y-43866045D02*
X10731905Y-43066045D01*
X11112857Y-43446997D02*
X11379523Y-43446997D01*
X11493809Y-43866045D02*
X11112857Y-43866045D01*
X11112857Y-43866045D02*
X11112857Y-43066045D01*
X11112857Y-43066045D02*
X11493809Y-43066045D01*
X11722381Y-43066045D02*
X12179524Y-43066045D01*
X11950952Y-43866045D02*
X11950952Y-43066045D01*
X16857381Y-44097295D02*
X16857381Y-43297295D01*
X16857381Y-43297295D02*
X17124047Y-43868723D01*
X17124047Y-43868723D02*
X17390714Y-43297295D01*
X17390714Y-43297295D02*
X17390714Y-44097295D01*
X17924048Y-43297295D02*
X18076429Y-43297295D01*
X18076429Y-43297295D02*
X18152619Y-43335390D01*
X18152619Y-43335390D02*
X18228810Y-43411580D01*
X18228810Y-43411580D02*
X18266905Y-43563961D01*
X18266905Y-43563961D02*
X18266905Y-43830628D01*
X18266905Y-43830628D02*
X18228810Y-43983009D01*
X18228810Y-43983009D02*
X18152619Y-44059200D01*
X18152619Y-44059200D02*
X18076429Y-44097295D01*
X18076429Y-44097295D02*
X17924048Y-44097295D01*
X17924048Y-44097295D02*
X17847857Y-44059200D01*
X17847857Y-44059200D02*
X17771667Y-43983009D01*
X17771667Y-43983009D02*
X17733571Y-43830628D01*
X17733571Y-43830628D02*
X17733571Y-43563961D01*
X17733571Y-43563961D02*
X17771667Y-43411580D01*
X17771667Y-43411580D02*
X17847857Y-43335390D01*
X17847857Y-43335390D02*
X17924048Y-43297295D01*
X18609762Y-44097295D02*
X18609762Y-43297295D01*
X18609762Y-43297295D02*
X18800238Y-43297295D01*
X18800238Y-43297295D02*
X18914524Y-43335390D01*
X18914524Y-43335390D02*
X18990714Y-43411580D01*
X18990714Y-43411580D02*
X19028809Y-43487771D01*
X19028809Y-43487771D02*
X19066905Y-43640152D01*
X19066905Y-43640152D02*
X19066905Y-43754438D01*
X19066905Y-43754438D02*
X19028809Y-43906819D01*
X19028809Y-43906819D02*
X18990714Y-43983009D01*
X18990714Y-43983009D02*
X18914524Y-44059200D01*
X18914524Y-44059200D02*
X18800238Y-44097295D01*
X18800238Y-44097295D02*
X18609762Y-44097295D01*
X19409762Y-43678247D02*
X19676428Y-43678247D01*
X19790714Y-44097295D02*
X19409762Y-44097295D01*
X19409762Y-44097295D02*
X19409762Y-43297295D01*
X19409762Y-43297295D02*
X19790714Y-43297295D01*
X22159523Y-40586044D02*
X22159523Y-39786044D01*
X22159523Y-39786044D02*
X22426189Y-40357472D01*
X22426189Y-40357472D02*
X22692856Y-39786044D01*
X22692856Y-39786044D02*
X22692856Y-40586044D01*
X23226190Y-39786044D02*
X23378571Y-39786044D01*
X23378571Y-39786044D02*
X23454761Y-39824139D01*
X23454761Y-39824139D02*
X23530952Y-39900329D01*
X23530952Y-39900329D02*
X23569047Y-40052710D01*
X23569047Y-40052710D02*
X23569047Y-40319377D01*
X23569047Y-40319377D02*
X23530952Y-40471758D01*
X23530952Y-40471758D02*
X23454761Y-40547949D01*
X23454761Y-40547949D02*
X23378571Y-40586044D01*
X23378571Y-40586044D02*
X23226190Y-40586044D01*
X23226190Y-40586044D02*
X23149999Y-40547949D01*
X23149999Y-40547949D02*
X23073809Y-40471758D01*
X23073809Y-40471758D02*
X23035713Y-40319377D01*
X23035713Y-40319377D02*
X23035713Y-40052710D01*
X23035713Y-40052710D02*
X23073809Y-39900329D01*
X23073809Y-39900329D02*
X23149999Y-39824139D01*
X23149999Y-39824139D02*
X23226190Y-39786044D01*
X23911904Y-40586044D02*
X23911904Y-39786044D01*
X23911904Y-39786044D02*
X24102380Y-39786044D01*
X24102380Y-39786044D02*
X24216666Y-39824139D01*
X24216666Y-39824139D02*
X24292856Y-39900329D01*
X24292856Y-39900329D02*
X24330951Y-39976520D01*
X24330951Y-39976520D02*
X24369047Y-40128901D01*
X24369047Y-40128901D02*
X24369047Y-40243187D01*
X24369047Y-40243187D02*
X24330951Y-40395568D01*
X24330951Y-40395568D02*
X24292856Y-40471758D01*
X24292856Y-40471758D02*
X24216666Y-40547949D01*
X24216666Y-40547949D02*
X24102380Y-40586044D01*
X24102380Y-40586044D02*
X23911904Y-40586044D01*
X24711904Y-40166996D02*
X24978570Y-40166996D01*
X25092856Y-40586044D02*
X24711904Y-40586044D01*
X24711904Y-40586044D02*
X24711904Y-39786044D01*
X24711904Y-39786044D02*
X25092856Y-39786044D01*
X26007142Y-40547949D02*
X26121428Y-40586044D01*
X26121428Y-40586044D02*
X26311904Y-40586044D01*
X26311904Y-40586044D02*
X26388095Y-40547949D01*
X26388095Y-40547949D02*
X26426190Y-40509853D01*
X26426190Y-40509853D02*
X26464285Y-40433663D01*
X26464285Y-40433663D02*
X26464285Y-40357472D01*
X26464285Y-40357472D02*
X26426190Y-40281282D01*
X26426190Y-40281282D02*
X26388095Y-40243187D01*
X26388095Y-40243187D02*
X26311904Y-40205091D01*
X26311904Y-40205091D02*
X26159523Y-40166996D01*
X26159523Y-40166996D02*
X26083333Y-40128901D01*
X26083333Y-40128901D02*
X26045238Y-40090806D01*
X26045238Y-40090806D02*
X26007142Y-40014615D01*
X26007142Y-40014615D02*
X26007142Y-39938425D01*
X26007142Y-39938425D02*
X26045238Y-39862234D01*
X26045238Y-39862234D02*
X26083333Y-39824139D01*
X26083333Y-39824139D02*
X26159523Y-39786044D01*
X26159523Y-39786044D02*
X26350000Y-39786044D01*
X26350000Y-39786044D02*
X26464285Y-39824139D01*
X26730952Y-39786044D02*
X26921428Y-40586044D01*
X26921428Y-40586044D02*
X27073809Y-40014615D01*
X27073809Y-40014615D02*
X27226190Y-40586044D01*
X27226190Y-40586044D02*
X27416667Y-39786044D01*
X23876191Y-37018318D02*
X23876191Y-36218318D01*
X23876191Y-36599270D02*
X24333334Y-36599270D01*
X24333334Y-37018318D02*
X24333334Y-36218318D01*
X24866667Y-36637365D02*
X24866667Y-37018318D01*
X24600000Y-36218318D02*
X24866667Y-36637365D01*
X24866667Y-36637365D02*
X25133333Y-36218318D01*
X25400000Y-37018318D02*
X25400000Y-36218318D01*
X25400000Y-36218318D02*
X25704762Y-36218318D01*
X25704762Y-36218318D02*
X25780952Y-36256413D01*
X25780952Y-36256413D02*
X25819047Y-36294508D01*
X25819047Y-36294508D02*
X25857143Y-36370699D01*
X25857143Y-36370699D02*
X25857143Y-36484984D01*
X25857143Y-36484984D02*
X25819047Y-36561175D01*
X25819047Y-36561175D02*
X25780952Y-36599270D01*
X25780952Y-36599270D02*
X25704762Y-36637365D01*
X25704762Y-36637365D02*
X25400000Y-36637365D01*
X26200000Y-36599270D02*
X26466666Y-36599270D01*
X26580952Y-37018318D02*
X26200000Y-37018318D01*
X26200000Y-37018318D02*
X26200000Y-36218318D01*
X26200000Y-36218318D02*
X26580952Y-36218318D01*
X27380953Y-37018318D02*
X27114286Y-36637365D01*
X26923810Y-37018318D02*
X26923810Y-36218318D01*
X26923810Y-36218318D02*
X27228572Y-36218318D01*
X27228572Y-36218318D02*
X27304762Y-36256413D01*
X27304762Y-36256413D02*
X27342857Y-36294508D01*
X27342857Y-36294508D02*
X27380953Y-36370699D01*
X27380953Y-36370699D02*
X27380953Y-36484984D01*
X27380953Y-36484984D02*
X27342857Y-36561175D01*
X27342857Y-36561175D02*
X27304762Y-36599270D01*
X27304762Y-36599270D02*
X27228572Y-36637365D01*
X27228572Y-36637365D02*
X26923810Y-36637365D01*
X27876191Y-36218318D02*
X28028572Y-36218318D01*
X28028572Y-36218318D02*
X28104762Y-36256413D01*
X28104762Y-36256413D02*
X28180953Y-36332603D01*
X28180953Y-36332603D02*
X28219048Y-36484984D01*
X28219048Y-36484984D02*
X28219048Y-36751651D01*
X28219048Y-36751651D02*
X28180953Y-36904032D01*
X28180953Y-36904032D02*
X28104762Y-36980223D01*
X28104762Y-36980223D02*
X28028572Y-37018318D01*
X28028572Y-37018318D02*
X27876191Y-37018318D01*
X27876191Y-37018318D02*
X27800000Y-36980223D01*
X27800000Y-36980223D02*
X27723810Y-36904032D01*
X27723810Y-36904032D02*
X27685714Y-36751651D01*
X27685714Y-36751651D02*
X27685714Y-36484984D01*
X27685714Y-36484984D02*
X27723810Y-36332603D01*
X27723810Y-36332603D02*
X27800000Y-36256413D01*
X27800000Y-36256413D02*
X27876191Y-36218318D01*
X28523809Y-36980223D02*
X28638095Y-37018318D01*
X28638095Y-37018318D02*
X28828571Y-37018318D01*
X28828571Y-37018318D02*
X28904762Y-36980223D01*
X28904762Y-36980223D02*
X28942857Y-36942127D01*
X28942857Y-36942127D02*
X28980952Y-36865937D01*
X28980952Y-36865937D02*
X28980952Y-36789746D01*
X28980952Y-36789746D02*
X28942857Y-36713556D01*
X28942857Y-36713556D02*
X28904762Y-36675461D01*
X28904762Y-36675461D02*
X28828571Y-36637365D01*
X28828571Y-36637365D02*
X28676190Y-36599270D01*
X28676190Y-36599270D02*
X28600000Y-36561175D01*
X28600000Y-36561175D02*
X28561905Y-36523080D01*
X28561905Y-36523080D02*
X28523809Y-36446889D01*
X28523809Y-36446889D02*
X28523809Y-36370699D01*
X28523809Y-36370699D02*
X28561905Y-36294508D01*
X28561905Y-36294508D02*
X28600000Y-36256413D01*
X28600000Y-36256413D02*
X28676190Y-36218318D01*
X28676190Y-36218318D02*
X28866667Y-36218318D01*
X28866667Y-36218318D02*
X28980952Y-36256413D01*
X29780953Y-36942127D02*
X29742857Y-36980223D01*
X29742857Y-36980223D02*
X29628572Y-37018318D01*
X29628572Y-37018318D02*
X29552381Y-37018318D01*
X29552381Y-37018318D02*
X29438095Y-36980223D01*
X29438095Y-36980223D02*
X29361905Y-36904032D01*
X29361905Y-36904032D02*
X29323810Y-36827842D01*
X29323810Y-36827842D02*
X29285714Y-36675461D01*
X29285714Y-36675461D02*
X29285714Y-36561175D01*
X29285714Y-36561175D02*
X29323810Y-36408794D01*
X29323810Y-36408794D02*
X29361905Y-36332603D01*
X29361905Y-36332603D02*
X29438095Y-36256413D01*
X29438095Y-36256413D02*
X29552381Y-36218318D01*
X29552381Y-36218318D02*
X29628572Y-36218318D01*
X29628572Y-36218318D02*
X29742857Y-36256413D01*
X29742857Y-36256413D02*
X29780953Y-36294508D01*
X30123810Y-37018318D02*
X30123810Y-36218318D01*
X23990476Y-38268178D02*
X23914285Y-38306273D01*
X23914285Y-38306273D02*
X23761904Y-38306273D01*
X23761904Y-38306273D02*
X23685714Y-38268178D01*
X23685714Y-38268178D02*
X23647619Y-38230082D01*
X23647619Y-38230082D02*
X23609523Y-38153892D01*
X23609523Y-38153892D02*
X23609523Y-37925320D01*
X23609523Y-37925320D02*
X23647619Y-37849130D01*
X23647619Y-37849130D02*
X23685714Y-37811035D01*
X23685714Y-37811035D02*
X23761904Y-37772939D01*
X23761904Y-37772939D02*
X23914285Y-37772939D01*
X23914285Y-37772939D02*
X23990476Y-37811035D01*
X24676190Y-38306273D02*
X24676190Y-37887225D01*
X24676190Y-37887225D02*
X24638095Y-37811035D01*
X24638095Y-37811035D02*
X24561904Y-37772939D01*
X24561904Y-37772939D02*
X24409523Y-37772939D01*
X24409523Y-37772939D02*
X24333333Y-37811035D01*
X24676190Y-38268178D02*
X24599999Y-38306273D01*
X24599999Y-38306273D02*
X24409523Y-38306273D01*
X24409523Y-38306273D02*
X24333333Y-38268178D01*
X24333333Y-38268178D02*
X24295237Y-38191987D01*
X24295237Y-38191987D02*
X24295237Y-38115797D01*
X24295237Y-38115797D02*
X24333333Y-38039606D01*
X24333333Y-38039606D02*
X24409523Y-38001511D01*
X24409523Y-38001511D02*
X24599999Y-38001511D01*
X24599999Y-38001511D02*
X24676190Y-37963416D01*
X25057143Y-38306273D02*
X25057143Y-37772939D01*
X25057143Y-37925320D02*
X25095238Y-37849130D01*
X25095238Y-37849130D02*
X25133333Y-37811035D01*
X25133333Y-37811035D02*
X25209524Y-37772939D01*
X25209524Y-37772939D02*
X25285714Y-37772939D01*
X25552381Y-38306273D02*
X25552381Y-37772939D01*
X25552381Y-37925320D02*
X25590476Y-37849130D01*
X25590476Y-37849130D02*
X25628571Y-37811035D01*
X25628571Y-37811035D02*
X25704762Y-37772939D01*
X25704762Y-37772939D02*
X25780952Y-37772939D01*
X26047619Y-38306273D02*
X26047619Y-37772939D01*
X26047619Y-37506273D02*
X26009523Y-37544368D01*
X26009523Y-37544368D02*
X26047619Y-37582463D01*
X26047619Y-37582463D02*
X26085714Y-37544368D01*
X26085714Y-37544368D02*
X26047619Y-37506273D01*
X26047619Y-37506273D02*
X26047619Y-37582463D01*
X26733333Y-38268178D02*
X26657142Y-38306273D01*
X26657142Y-38306273D02*
X26504761Y-38306273D01*
X26504761Y-38306273D02*
X26428571Y-38268178D01*
X26428571Y-38268178D02*
X26390475Y-38191987D01*
X26390475Y-38191987D02*
X26390475Y-37887225D01*
X26390475Y-37887225D02*
X26428571Y-37811035D01*
X26428571Y-37811035D02*
X26504761Y-37772939D01*
X26504761Y-37772939D02*
X26657142Y-37772939D01*
X26657142Y-37772939D02*
X26733333Y-37811035D01*
X26733333Y-37811035D02*
X26771428Y-37887225D01*
X26771428Y-37887225D02*
X26771428Y-37963416D01*
X26771428Y-37963416D02*
X26390475Y-38039606D01*
X27114285Y-38306273D02*
X27114285Y-37772939D01*
X27114285Y-37925320D02*
X27152380Y-37849130D01*
X27152380Y-37849130D02*
X27190475Y-37811035D01*
X27190475Y-37811035D02*
X27266666Y-37772939D01*
X27266666Y-37772939D02*
X27342856Y-37772939D01*
X28142856Y-37772939D02*
X28333332Y-38306273D01*
X28333332Y-38306273D02*
X28523809Y-37772939D01*
X29247618Y-38306273D02*
X28790475Y-38306273D01*
X29019047Y-38306273D02*
X29019047Y-37506273D01*
X29019047Y-37506273D02*
X28942856Y-37620558D01*
X28942856Y-37620558D02*
X28866666Y-37696749D01*
X28866666Y-37696749D02*
X28790475Y-37734844D01*
X29590476Y-38230082D02*
X29628571Y-38268178D01*
X29628571Y-38268178D02*
X29590476Y-38306273D01*
X29590476Y-38306273D02*
X29552380Y-38268178D01*
X29552380Y-38268178D02*
X29590476Y-38230082D01*
X29590476Y-38230082D02*
X29590476Y-38306273D01*
X30390475Y-38306273D02*
X29933332Y-38306273D01*
X30161904Y-38306273D02*
X30161904Y-37506273D01*
X30161904Y-37506273D02*
X30085713Y-37620558D01*
X30085713Y-37620558D02*
X30009523Y-37696749D01*
X30009523Y-37696749D02*
X29933332Y-37734844D01*
X39178333Y-35709854D02*
X39140237Y-35747950D01*
X39140237Y-35747950D02*
X39025952Y-35786045D01*
X39025952Y-35786045D02*
X38949761Y-35786045D01*
X38949761Y-35786045D02*
X38835475Y-35747950D01*
X38835475Y-35747950D02*
X38759285Y-35671759D01*
X38759285Y-35671759D02*
X38721190Y-35595569D01*
X38721190Y-35595569D02*
X38683094Y-35443188D01*
X38683094Y-35443188D02*
X38683094Y-35328902D01*
X38683094Y-35328902D02*
X38721190Y-35176521D01*
X38721190Y-35176521D02*
X38759285Y-35100330D01*
X38759285Y-35100330D02*
X38835475Y-35024140D01*
X38835475Y-35024140D02*
X38949761Y-34986045D01*
X38949761Y-34986045D02*
X39025952Y-34986045D01*
X39025952Y-34986045D02*
X39140237Y-35024140D01*
X39140237Y-35024140D02*
X39178333Y-35062235D01*
X39521190Y-34986045D02*
X39521190Y-35633664D01*
X39521190Y-35633664D02*
X39559285Y-35709854D01*
X39559285Y-35709854D02*
X39597380Y-35747950D01*
X39597380Y-35747950D02*
X39673571Y-35786045D01*
X39673571Y-35786045D02*
X39825952Y-35786045D01*
X39825952Y-35786045D02*
X39902142Y-35747950D01*
X39902142Y-35747950D02*
X39940237Y-35709854D01*
X39940237Y-35709854D02*
X39978333Y-35633664D01*
X39978333Y-35633664D02*
X39978333Y-34986045D01*
X40244999Y-34986045D02*
X40702142Y-34986045D01*
X40473570Y-35786045D02*
X40473570Y-34986045D01*
X41121190Y-34986045D02*
X41273571Y-34986045D01*
X41273571Y-34986045D02*
X41349761Y-35024140D01*
X41349761Y-35024140D02*
X41425952Y-35100330D01*
X41425952Y-35100330D02*
X41464047Y-35252711D01*
X41464047Y-35252711D02*
X41464047Y-35519378D01*
X41464047Y-35519378D02*
X41425952Y-35671759D01*
X41425952Y-35671759D02*
X41349761Y-35747950D01*
X41349761Y-35747950D02*
X41273571Y-35786045D01*
X41273571Y-35786045D02*
X41121190Y-35786045D01*
X41121190Y-35786045D02*
X41044999Y-35747950D01*
X41044999Y-35747950D02*
X40968809Y-35671759D01*
X40968809Y-35671759D02*
X40930713Y-35519378D01*
X40930713Y-35519378D02*
X40930713Y-35252711D01*
X40930713Y-35252711D02*
X40968809Y-35100330D01*
X40968809Y-35100330D02*
X41044999Y-35024140D01*
X41044999Y-35024140D02*
X41121190Y-34986045D01*
X42073570Y-35366997D02*
X41806904Y-35366997D01*
X41806904Y-35786045D02*
X41806904Y-34986045D01*
X41806904Y-34986045D02*
X42187856Y-34986045D01*
X42759284Y-35366997D02*
X42492618Y-35366997D01*
X42492618Y-35786045D02*
X42492618Y-34986045D01*
X42492618Y-34986045D02*
X42873570Y-34986045D01*
X41141666Y-25962295D02*
X41294047Y-25962295D01*
X41294047Y-25962295D02*
X41370237Y-26000390D01*
X41370237Y-26000390D02*
X41446428Y-26076580D01*
X41446428Y-26076580D02*
X41484523Y-26228961D01*
X41484523Y-26228961D02*
X41484523Y-26495628D01*
X41484523Y-26495628D02*
X41446428Y-26648009D01*
X41446428Y-26648009D02*
X41370237Y-26724200D01*
X41370237Y-26724200D02*
X41294047Y-26762295D01*
X41294047Y-26762295D02*
X41141666Y-26762295D01*
X41141666Y-26762295D02*
X41065475Y-26724200D01*
X41065475Y-26724200D02*
X40989285Y-26648009D01*
X40989285Y-26648009D02*
X40951189Y-26495628D01*
X40951189Y-26495628D02*
X40951189Y-26228961D01*
X40951189Y-26228961D02*
X40989285Y-26076580D01*
X40989285Y-26076580D02*
X41065475Y-26000390D01*
X41065475Y-26000390D02*
X41141666Y-25962295D01*
X41827380Y-25962295D02*
X41827380Y-26609914D01*
X41827380Y-26609914D02*
X41865475Y-26686104D01*
X41865475Y-26686104D02*
X41903570Y-26724200D01*
X41903570Y-26724200D02*
X41979761Y-26762295D01*
X41979761Y-26762295D02*
X42132142Y-26762295D01*
X42132142Y-26762295D02*
X42208332Y-26724200D01*
X42208332Y-26724200D02*
X42246427Y-26686104D01*
X42246427Y-26686104D02*
X42284523Y-26609914D01*
X42284523Y-26609914D02*
X42284523Y-25962295D01*
X42551189Y-25962295D02*
X43008332Y-25962295D01*
X42779760Y-26762295D02*
X42779760Y-25962295D01*
X43274999Y-26457533D02*
X43884523Y-26457533D01*
X42741666Y-29869047D02*
X42855952Y-29907142D01*
X42855952Y-29907142D02*
X42894047Y-29945238D01*
X42894047Y-29945238D02*
X42932143Y-30021428D01*
X42932143Y-30021428D02*
X42932143Y-30135714D01*
X42932143Y-30135714D02*
X42894047Y-30211904D01*
X42894047Y-30211904D02*
X42855952Y-30250000D01*
X42855952Y-30250000D02*
X42779762Y-30288095D01*
X42779762Y-30288095D02*
X42475000Y-30288095D01*
X42475000Y-30288095D02*
X42475000Y-29488095D01*
X42475000Y-29488095D02*
X42741666Y-29488095D01*
X42741666Y-29488095D02*
X42817857Y-29526190D01*
X42817857Y-29526190D02*
X42855952Y-29564285D01*
X42855952Y-29564285D02*
X42894047Y-29640476D01*
X42894047Y-29640476D02*
X42894047Y-29716666D01*
X42894047Y-29716666D02*
X42855952Y-29792857D01*
X42855952Y-29792857D02*
X42817857Y-29830952D01*
X42817857Y-29830952D02*
X42741666Y-29869047D01*
X42741666Y-29869047D02*
X42475000Y-29869047D01*
X43275000Y-29983333D02*
X43884524Y-29983333D01*
X42741666Y-37302847D02*
X42855952Y-37340942D01*
X42855952Y-37340942D02*
X42894047Y-37379038D01*
X42894047Y-37379038D02*
X42932143Y-37455228D01*
X42932143Y-37455228D02*
X42932143Y-37569514D01*
X42932143Y-37569514D02*
X42894047Y-37645704D01*
X42894047Y-37645704D02*
X42855952Y-37683800D01*
X42855952Y-37683800D02*
X42779762Y-37721895D01*
X42779762Y-37721895D02*
X42475000Y-37721895D01*
X42475000Y-37721895D02*
X42475000Y-36921895D01*
X42475000Y-36921895D02*
X42741666Y-36921895D01*
X42741666Y-36921895D02*
X42817857Y-36959990D01*
X42817857Y-36959990D02*
X42855952Y-36998085D01*
X42855952Y-36998085D02*
X42894047Y-37074276D01*
X42894047Y-37074276D02*
X42894047Y-37150466D01*
X42894047Y-37150466D02*
X42855952Y-37226657D01*
X42855952Y-37226657D02*
X42817857Y-37264752D01*
X42817857Y-37264752D02*
X42741666Y-37302847D01*
X42741666Y-37302847D02*
X42475000Y-37302847D01*
X43275000Y-37417133D02*
X43884524Y-37417133D01*
X43579762Y-37721895D02*
X43579762Y-37112371D01*
X43243810Y-32519344D02*
X43243810Y-31719344D01*
X43243810Y-31719344D02*
X43700953Y-32519344D01*
X43700953Y-32519344D02*
X43700953Y-31719344D01*
X44234286Y-31719344D02*
X44386667Y-31719344D01*
X44386667Y-31719344D02*
X44462857Y-31757439D01*
X44462857Y-31757439D02*
X44539048Y-31833629D01*
X44539048Y-31833629D02*
X44577143Y-31986010D01*
X44577143Y-31986010D02*
X44577143Y-32252677D01*
X44577143Y-32252677D02*
X44539048Y-32405058D01*
X44539048Y-32405058D02*
X44462857Y-32481249D01*
X44462857Y-32481249D02*
X44386667Y-32519344D01*
X44386667Y-32519344D02*
X44234286Y-32519344D01*
X44234286Y-32519344D02*
X44158095Y-32481249D01*
X44158095Y-32481249D02*
X44081905Y-32405058D01*
X44081905Y-32405058D02*
X44043809Y-32252677D01*
X44043809Y-32252677D02*
X44043809Y-31986010D01*
X44043809Y-31986010D02*
X44081905Y-31833629D01*
X44081905Y-31833629D02*
X44158095Y-31757439D01*
X44158095Y-31757439D02*
X44234286Y-31719344D01*
X44805714Y-31719344D02*
X45262857Y-31719344D01*
X45034285Y-32519344D02*
X45034285Y-31719344D01*
X46558095Y-31757439D02*
X46481905Y-31719344D01*
X46481905Y-31719344D02*
X46367619Y-31719344D01*
X46367619Y-31719344D02*
X46253333Y-31757439D01*
X46253333Y-31757439D02*
X46177143Y-31833629D01*
X46177143Y-31833629D02*
X46139048Y-31909820D01*
X46139048Y-31909820D02*
X46100952Y-32062201D01*
X46100952Y-32062201D02*
X46100952Y-32176487D01*
X46100952Y-32176487D02*
X46139048Y-32328868D01*
X46139048Y-32328868D02*
X46177143Y-32405058D01*
X46177143Y-32405058D02*
X46253333Y-32481249D01*
X46253333Y-32481249D02*
X46367619Y-32519344D01*
X46367619Y-32519344D02*
X46443810Y-32519344D01*
X46443810Y-32519344D02*
X46558095Y-32481249D01*
X46558095Y-32481249D02*
X46596191Y-32443153D01*
X46596191Y-32443153D02*
X46596191Y-32176487D01*
X46596191Y-32176487D02*
X46443810Y-32176487D01*
X46939048Y-32519344D02*
X46939048Y-31719344D01*
X46939048Y-31719344D02*
X47396191Y-32519344D01*
X47396191Y-32519344D02*
X47396191Y-31719344D01*
X47777143Y-32519344D02*
X47777143Y-31719344D01*
X47777143Y-31719344D02*
X47967619Y-31719344D01*
X47967619Y-31719344D02*
X48081905Y-31757439D01*
X48081905Y-31757439D02*
X48158095Y-31833629D01*
X48158095Y-31833629D02*
X48196190Y-31909820D01*
X48196190Y-31909820D02*
X48234286Y-32062201D01*
X48234286Y-32062201D02*
X48234286Y-32176487D01*
X48234286Y-32176487D02*
X48196190Y-32328868D01*
X48196190Y-32328868D02*
X48158095Y-32405058D01*
X48158095Y-32405058D02*
X48081905Y-32481249D01*
X48081905Y-32481249D02*
X47967619Y-32519344D01*
X47967619Y-32519344D02*
X47777143Y-32519344D01*
X47707857Y-40028095D02*
X47860238Y-40028095D01*
X47860238Y-40028095D02*
X47936428Y-40066190D01*
X47936428Y-40066190D02*
X48012619Y-40142380D01*
X48012619Y-40142380D02*
X48050714Y-40294761D01*
X48050714Y-40294761D02*
X48050714Y-40561428D01*
X48050714Y-40561428D02*
X48012619Y-40713809D01*
X48012619Y-40713809D02*
X47936428Y-40790000D01*
X47936428Y-40790000D02*
X47860238Y-40828095D01*
X47860238Y-40828095D02*
X47707857Y-40828095D01*
X47707857Y-40828095D02*
X47631666Y-40790000D01*
X47631666Y-40790000D02*
X47555476Y-40713809D01*
X47555476Y-40713809D02*
X47517380Y-40561428D01*
X47517380Y-40561428D02*
X47517380Y-40294761D01*
X47517380Y-40294761D02*
X47555476Y-40142380D01*
X47555476Y-40142380D02*
X47631666Y-40066190D01*
X47631666Y-40066190D02*
X47707857Y-40028095D01*
X48393571Y-40028095D02*
X48393571Y-40675714D01*
X48393571Y-40675714D02*
X48431666Y-40751904D01*
X48431666Y-40751904D02*
X48469761Y-40790000D01*
X48469761Y-40790000D02*
X48545952Y-40828095D01*
X48545952Y-40828095D02*
X48698333Y-40828095D01*
X48698333Y-40828095D02*
X48774523Y-40790000D01*
X48774523Y-40790000D02*
X48812618Y-40751904D01*
X48812618Y-40751904D02*
X48850714Y-40675714D01*
X48850714Y-40675714D02*
X48850714Y-40028095D01*
X49117380Y-40028095D02*
X49574523Y-40028095D01*
X49345951Y-40828095D02*
X49345951Y-40028095D01*
X49841190Y-40523333D02*
X50450714Y-40523333D01*
X50145952Y-40828095D02*
X50145952Y-40218571D01*
X49385714Y-43057533D02*
X49995238Y-43057533D01*
X49690476Y-43362295D02*
X49690476Y-42752771D01*
X51328571Y-43324200D02*
X51252380Y-43362295D01*
X51252380Y-43362295D02*
X51099999Y-43362295D01*
X51099999Y-43362295D02*
X51023809Y-43324200D01*
X51023809Y-43324200D02*
X50985714Y-43286104D01*
X50985714Y-43286104D02*
X50947618Y-43209914D01*
X50947618Y-43209914D02*
X50947618Y-42981342D01*
X50947618Y-42981342D02*
X50985714Y-42905152D01*
X50985714Y-42905152D02*
X51023809Y-42867057D01*
X51023809Y-42867057D02*
X51099999Y-42828961D01*
X51099999Y-42828961D02*
X51252380Y-42828961D01*
X51252380Y-42828961D02*
X51328571Y-42867057D01*
X51976190Y-43324200D02*
X51899999Y-43362295D01*
X51899999Y-43362295D02*
X51747618Y-43362295D01*
X51747618Y-43362295D02*
X51671428Y-43324200D01*
X51671428Y-43324200D02*
X51633332Y-43248009D01*
X51633332Y-43248009D02*
X51633332Y-42943247D01*
X51633332Y-42943247D02*
X51671428Y-42867057D01*
X51671428Y-42867057D02*
X51747618Y-42828961D01*
X51747618Y-42828961D02*
X51899999Y-42828961D01*
X51899999Y-42828961D02*
X51976190Y-42867057D01*
X51976190Y-42867057D02*
X52014285Y-42943247D01*
X52014285Y-42943247D02*
X52014285Y-43019438D01*
X52014285Y-43019438D02*
X51633332Y-43095628D01*
X52471427Y-43362295D02*
X52395237Y-43324200D01*
X52395237Y-43324200D02*
X52357142Y-43248009D01*
X52357142Y-43248009D02*
X52357142Y-42562295D01*
X52890475Y-43362295D02*
X52814285Y-43324200D01*
X52814285Y-43324200D02*
X52776190Y-43248009D01*
X52776190Y-43248009D02*
X52776190Y-42562295D01*
X53804762Y-43057533D02*
X54414286Y-43057533D01*
X63260953Y-26470558D02*
X63260953Y-25670558D01*
X63641905Y-26470558D02*
X63641905Y-25670558D01*
X63641905Y-25670558D02*
X64099048Y-26470558D01*
X64099048Y-26470558D02*
X64099048Y-25670558D01*
X64480000Y-26165796D02*
X65089524Y-26165796D01*
X64095238Y-29562295D02*
X64095238Y-30209914D01*
X64095238Y-30209914D02*
X64133333Y-30286104D01*
X64133333Y-30286104D02*
X64171428Y-30324200D01*
X64171428Y-30324200D02*
X64247619Y-30362295D01*
X64247619Y-30362295D02*
X64400000Y-30362295D01*
X64400000Y-30362295D02*
X64476190Y-30324200D01*
X64476190Y-30324200D02*
X64514285Y-30286104D01*
X64514285Y-30286104D02*
X64552381Y-30209914D01*
X64552381Y-30209914D02*
X64552381Y-29562295D01*
X64895237Y-30324200D02*
X65009523Y-30362295D01*
X65009523Y-30362295D02*
X65199999Y-30362295D01*
X65199999Y-30362295D02*
X65276190Y-30324200D01*
X65276190Y-30324200D02*
X65314285Y-30286104D01*
X65314285Y-30286104D02*
X65352380Y-30209914D01*
X65352380Y-30209914D02*
X65352380Y-30133723D01*
X65352380Y-30133723D02*
X65314285Y-30057533D01*
X65314285Y-30057533D02*
X65276190Y-30019438D01*
X65276190Y-30019438D02*
X65199999Y-29981342D01*
X65199999Y-29981342D02*
X65047618Y-29943247D01*
X65047618Y-29943247D02*
X64971428Y-29905152D01*
X64971428Y-29905152D02*
X64933333Y-29867057D01*
X64933333Y-29867057D02*
X64895237Y-29790866D01*
X64895237Y-29790866D02*
X64895237Y-29714676D01*
X64895237Y-29714676D02*
X64933333Y-29638485D01*
X64933333Y-29638485D02*
X64971428Y-29600390D01*
X64971428Y-29600390D02*
X65047618Y-29562295D01*
X65047618Y-29562295D02*
X65238095Y-29562295D01*
X65238095Y-29562295D02*
X65352380Y-29600390D01*
X65961904Y-29943247D02*
X66076190Y-29981342D01*
X66076190Y-29981342D02*
X66114285Y-30019438D01*
X66114285Y-30019438D02*
X66152381Y-30095628D01*
X66152381Y-30095628D02*
X66152381Y-30209914D01*
X66152381Y-30209914D02*
X66114285Y-30286104D01*
X66114285Y-30286104D02*
X66076190Y-30324200D01*
X66076190Y-30324200D02*
X66000000Y-30362295D01*
X66000000Y-30362295D02*
X65695238Y-30362295D01*
X65695238Y-30362295D02*
X65695238Y-29562295D01*
X65695238Y-29562295D02*
X65961904Y-29562295D01*
X65961904Y-29562295D02*
X66038095Y-29600390D01*
X66038095Y-29600390D02*
X66076190Y-29638485D01*
X66076190Y-29638485D02*
X66114285Y-29714676D01*
X66114285Y-29714676D02*
X66114285Y-29790866D01*
X66114285Y-29790866D02*
X66076190Y-29867057D01*
X66076190Y-29867057D02*
X66038095Y-29905152D01*
X66038095Y-29905152D02*
X65961904Y-29943247D01*
X65961904Y-29943247D02*
X65695238Y-29943247D01*
X66495238Y-30057533D02*
X67104762Y-30057533D01*
X67942857Y-30286104D02*
X67904761Y-30324200D01*
X67904761Y-30324200D02*
X67790476Y-30362295D01*
X67790476Y-30362295D02*
X67714285Y-30362295D01*
X67714285Y-30362295D02*
X67599999Y-30324200D01*
X67599999Y-30324200D02*
X67523809Y-30248009D01*
X67523809Y-30248009D02*
X67485714Y-30171819D01*
X67485714Y-30171819D02*
X67447618Y-30019438D01*
X67447618Y-30019438D02*
X67447618Y-29905152D01*
X67447618Y-29905152D02*
X67485714Y-29752771D01*
X67485714Y-29752771D02*
X67523809Y-29676580D01*
X67523809Y-29676580D02*
X67599999Y-29600390D01*
X67599999Y-29600390D02*
X67714285Y-29562295D01*
X67714285Y-29562295D02*
X67790476Y-29562295D01*
X67790476Y-29562295D02*
X67904761Y-29600390D01*
X67904761Y-29600390D02*
X67942857Y-29638485D01*
X66455715Y-37995607D02*
X66455715Y-37195607D01*
X66836667Y-37995607D02*
X66836667Y-37195607D01*
X66836667Y-37195607D02*
X67293810Y-37995607D01*
X67293810Y-37995607D02*
X67293810Y-37195607D01*
X67674762Y-37690845D02*
X68284286Y-37690845D01*
X67979524Y-37995607D02*
X67979524Y-37386083D01*
X44066045Y-47466666D02*
X43266045Y-47466666D01*
X43266045Y-47466666D02*
X43266045Y-47161904D01*
X43266045Y-47161904D02*
X43304140Y-47085714D01*
X43304140Y-47085714D02*
X43342235Y-47047619D01*
X43342235Y-47047619D02*
X43418426Y-47009523D01*
X43418426Y-47009523D02*
X43532711Y-47009523D01*
X43532711Y-47009523D02*
X43608902Y-47047619D01*
X43608902Y-47047619D02*
X43646997Y-47085714D01*
X43646997Y-47085714D02*
X43685092Y-47161904D01*
X43685092Y-47161904D02*
X43685092Y-47466666D01*
X43266045Y-46742857D02*
X44066045Y-46552381D01*
X44066045Y-46552381D02*
X43494616Y-46400000D01*
X43494616Y-46400000D02*
X44066045Y-46247619D01*
X44066045Y-46247619D02*
X43266045Y-46057143D01*
X44066045Y-45295237D02*
X43685092Y-45561904D01*
X44066045Y-45752380D02*
X43266045Y-45752380D01*
X43266045Y-45752380D02*
X43266045Y-45447618D01*
X43266045Y-45447618D02*
X43304140Y-45371428D01*
X43304140Y-45371428D02*
X43342235Y-45333333D01*
X43342235Y-45333333D02*
X43418426Y-45295237D01*
X43418426Y-45295237D02*
X43532711Y-45295237D01*
X43532711Y-45295237D02*
X43608902Y-45333333D01*
X43608902Y-45333333D02*
X43646997Y-45371428D01*
X43646997Y-45371428D02*
X43685092Y-45447618D01*
X43685092Y-45447618D02*
X43685092Y-45752380D01*
X3558839Y-20537128D02*
X3858839Y-20537128D01*
X3987411Y-21008557D02*
X3558839Y-21008557D01*
X3558839Y-21008557D02*
X3558839Y-20108557D01*
X3558839Y-20108557D02*
X3987411Y-20108557D01*
X4330268Y-20965700D02*
X4458840Y-21008557D01*
X4458840Y-21008557D02*
X4673125Y-21008557D01*
X4673125Y-21008557D02*
X4758840Y-20965700D01*
X4758840Y-20965700D02*
X4801697Y-20922842D01*
X4801697Y-20922842D02*
X4844554Y-20837128D01*
X4844554Y-20837128D02*
X4844554Y-20751414D01*
X4844554Y-20751414D02*
X4801697Y-20665700D01*
X4801697Y-20665700D02*
X4758840Y-20622842D01*
X4758840Y-20622842D02*
X4673125Y-20579985D01*
X4673125Y-20579985D02*
X4501697Y-20537128D01*
X4501697Y-20537128D02*
X4415982Y-20494271D01*
X4415982Y-20494271D02*
X4373125Y-20451414D01*
X4373125Y-20451414D02*
X4330268Y-20365700D01*
X4330268Y-20365700D02*
X4330268Y-20279985D01*
X4330268Y-20279985D02*
X4373125Y-20194271D01*
X4373125Y-20194271D02*
X4415982Y-20151414D01*
X4415982Y-20151414D02*
X4501697Y-20108557D01*
X4501697Y-20108557D02*
X4715982Y-20108557D01*
X4715982Y-20108557D02*
X4844554Y-20151414D01*
X5230268Y-21008557D02*
X5230268Y-20108557D01*
X5230268Y-20108557D02*
X5573125Y-20108557D01*
X5573125Y-20108557D02*
X5658840Y-20151414D01*
X5658840Y-20151414D02*
X5701697Y-20194271D01*
X5701697Y-20194271D02*
X5744554Y-20279985D01*
X5744554Y-20279985D02*
X5744554Y-20408557D01*
X5744554Y-20408557D02*
X5701697Y-20494271D01*
X5701697Y-20494271D02*
X5658840Y-20537128D01*
X5658840Y-20537128D02*
X5573125Y-20579985D01*
X5573125Y-20579985D02*
X5230268Y-20579985D01*
X6044554Y-20108557D02*
X6601697Y-20108557D01*
X6601697Y-20108557D02*
X6301697Y-20451414D01*
X6301697Y-20451414D02*
X6430268Y-20451414D01*
X6430268Y-20451414D02*
X6515983Y-20494271D01*
X6515983Y-20494271D02*
X6558840Y-20537128D01*
X6558840Y-20537128D02*
X6601697Y-20622842D01*
X6601697Y-20622842D02*
X6601697Y-20837128D01*
X6601697Y-20837128D02*
X6558840Y-20922842D01*
X6558840Y-20922842D02*
X6515983Y-20965700D01*
X6515983Y-20965700D02*
X6430268Y-21008557D01*
X6430268Y-21008557D02*
X6173125Y-21008557D01*
X6173125Y-21008557D02*
X6087411Y-20965700D01*
X6087411Y-20965700D02*
X6044554Y-20922842D01*
X6944554Y-20194271D02*
X6987411Y-20151414D01*
X6987411Y-20151414D02*
X7073126Y-20108557D01*
X7073126Y-20108557D02*
X7287411Y-20108557D01*
X7287411Y-20108557D02*
X7373126Y-20151414D01*
X7373126Y-20151414D02*
X7415983Y-20194271D01*
X7415983Y-20194271D02*
X7458840Y-20279985D01*
X7458840Y-20279985D02*
X7458840Y-20365700D01*
X7458840Y-20365700D02*
X7415983Y-20494271D01*
X7415983Y-20494271D02*
X6901697Y-21008557D01*
X6901697Y-21008557D02*
X7458840Y-21008557D01*
X7844554Y-20665700D02*
X8530269Y-20665700D01*
X9473126Y-20922842D02*
X9430269Y-20965700D01*
X9430269Y-20965700D02*
X9301697Y-21008557D01*
X9301697Y-21008557D02*
X9215983Y-21008557D01*
X9215983Y-21008557D02*
X9087412Y-20965700D01*
X9087412Y-20965700D02*
X9001697Y-20879985D01*
X9001697Y-20879985D02*
X8958840Y-20794271D01*
X8958840Y-20794271D02*
X8915983Y-20622842D01*
X8915983Y-20622842D02*
X8915983Y-20494271D01*
X8915983Y-20494271D02*
X8958840Y-20322842D01*
X8958840Y-20322842D02*
X9001697Y-20237128D01*
X9001697Y-20237128D02*
X9087412Y-20151414D01*
X9087412Y-20151414D02*
X9215983Y-20108557D01*
X9215983Y-20108557D02*
X9301697Y-20108557D01*
X9301697Y-20108557D02*
X9430269Y-20151414D01*
X9430269Y-20151414D02*
X9473126Y-20194271D01*
X9773126Y-20108557D02*
X10330269Y-20108557D01*
X10330269Y-20108557D02*
X10030269Y-20451414D01*
X10030269Y-20451414D02*
X10158840Y-20451414D01*
X10158840Y-20451414D02*
X10244555Y-20494271D01*
X10244555Y-20494271D02*
X10287412Y-20537128D01*
X10287412Y-20537128D02*
X10330269Y-20622842D01*
X10330269Y-20622842D02*
X10330269Y-20837128D01*
X10330269Y-20837128D02*
X10287412Y-20922842D01*
X10287412Y-20922842D02*
X10244555Y-20965700D01*
X10244555Y-20965700D02*
X10158840Y-21008557D01*
X10158840Y-21008557D02*
X9901697Y-21008557D01*
X9901697Y-21008557D02*
X9815983Y-20965700D01*
X9815983Y-20965700D02*
X9773126Y-20922842D01*
X11358840Y-20965700D02*
X11487412Y-21008557D01*
X11487412Y-21008557D02*
X11701697Y-21008557D01*
X11701697Y-21008557D02*
X11787412Y-20965700D01*
X11787412Y-20965700D02*
X11830269Y-20922842D01*
X11830269Y-20922842D02*
X11873126Y-20837128D01*
X11873126Y-20837128D02*
X11873126Y-20751414D01*
X11873126Y-20751414D02*
X11830269Y-20665700D01*
X11830269Y-20665700D02*
X11787412Y-20622842D01*
X11787412Y-20622842D02*
X11701697Y-20579985D01*
X11701697Y-20579985D02*
X11530269Y-20537128D01*
X11530269Y-20537128D02*
X11444554Y-20494271D01*
X11444554Y-20494271D02*
X11401697Y-20451414D01*
X11401697Y-20451414D02*
X11358840Y-20365700D01*
X11358840Y-20365700D02*
X11358840Y-20279985D01*
X11358840Y-20279985D02*
X11401697Y-20194271D01*
X11401697Y-20194271D02*
X11444554Y-20151414D01*
X11444554Y-20151414D02*
X11530269Y-20108557D01*
X11530269Y-20108557D02*
X11744554Y-20108557D01*
X11744554Y-20108557D02*
X11873126Y-20151414D01*
X12644555Y-20408557D02*
X12644555Y-21008557D01*
X12258840Y-20408557D02*
X12258840Y-20879985D01*
X12258840Y-20879985D02*
X12301697Y-20965700D01*
X12301697Y-20965700D02*
X12387412Y-21008557D01*
X12387412Y-21008557D02*
X12515983Y-21008557D01*
X12515983Y-21008557D02*
X12601697Y-20965700D01*
X12601697Y-20965700D02*
X12644555Y-20922842D01*
X13073126Y-20408557D02*
X13073126Y-21308557D01*
X13073126Y-20451414D02*
X13158841Y-20408557D01*
X13158841Y-20408557D02*
X13330269Y-20408557D01*
X13330269Y-20408557D02*
X13415983Y-20451414D01*
X13415983Y-20451414D02*
X13458841Y-20494271D01*
X13458841Y-20494271D02*
X13501698Y-20579985D01*
X13501698Y-20579985D02*
X13501698Y-20837128D01*
X13501698Y-20837128D02*
X13458841Y-20922842D01*
X13458841Y-20922842D02*
X13415983Y-20965700D01*
X13415983Y-20965700D02*
X13330269Y-21008557D01*
X13330269Y-21008557D02*
X13158841Y-21008557D01*
X13158841Y-21008557D02*
X13073126Y-20965700D01*
X14230269Y-20965700D02*
X14144555Y-21008557D01*
X14144555Y-21008557D02*
X13973127Y-21008557D01*
X13973127Y-21008557D02*
X13887412Y-20965700D01*
X13887412Y-20965700D02*
X13844555Y-20879985D01*
X13844555Y-20879985D02*
X13844555Y-20537128D01*
X13844555Y-20537128D02*
X13887412Y-20451414D01*
X13887412Y-20451414D02*
X13973127Y-20408557D01*
X13973127Y-20408557D02*
X14144555Y-20408557D01*
X14144555Y-20408557D02*
X14230269Y-20451414D01*
X14230269Y-20451414D02*
X14273127Y-20537128D01*
X14273127Y-20537128D02*
X14273127Y-20622842D01*
X14273127Y-20622842D02*
X13844555Y-20708557D01*
X14658841Y-21008557D02*
X14658841Y-20408557D01*
X14658841Y-20579985D02*
X14701698Y-20494271D01*
X14701698Y-20494271D02*
X14744556Y-20451414D01*
X14744556Y-20451414D02*
X14830270Y-20408557D01*
X14830270Y-20408557D02*
X14915984Y-20408557D01*
X15215984Y-21008557D02*
X15215984Y-20108557D01*
X15215984Y-20108557D02*
X15515984Y-20751414D01*
X15515984Y-20751414D02*
X15815984Y-20108557D01*
X15815984Y-20108557D02*
X15815984Y-21008557D01*
X16244555Y-21008557D02*
X16244555Y-20408557D01*
X16244555Y-20108557D02*
X16201698Y-20151414D01*
X16201698Y-20151414D02*
X16244555Y-20194271D01*
X16244555Y-20194271D02*
X16287412Y-20151414D01*
X16287412Y-20151414D02*
X16244555Y-20108557D01*
X16244555Y-20108557D02*
X16244555Y-20194271D01*
X16673126Y-20408557D02*
X16673126Y-21008557D01*
X16673126Y-20494271D02*
X16715983Y-20451414D01*
X16715983Y-20451414D02*
X16801698Y-20408557D01*
X16801698Y-20408557D02*
X16930269Y-20408557D01*
X16930269Y-20408557D02*
X17015983Y-20451414D01*
X17015983Y-20451414D02*
X17058841Y-20537128D01*
X17058841Y-20537128D02*
X17058841Y-21008557D01*
X17487412Y-21008557D02*
X17487412Y-20408557D01*
X17487412Y-20108557D02*
X17444555Y-20151414D01*
X17444555Y-20151414D02*
X17487412Y-20194271D01*
X17487412Y-20194271D02*
X17530269Y-20151414D01*
X17530269Y-20151414D02*
X17487412Y-20108557D01*
X17487412Y-20108557D02*
X17487412Y-20194271D01*
X8235715Y-6008557D02*
X8235715Y-6737128D01*
X8235715Y-6737128D02*
X8278572Y-6822842D01*
X8278572Y-6822842D02*
X8321430Y-6865700D01*
X8321430Y-6865700D02*
X8407144Y-6908557D01*
X8407144Y-6908557D02*
X8578572Y-6908557D01*
X8578572Y-6908557D02*
X8664287Y-6865700D01*
X8664287Y-6865700D02*
X8707144Y-6822842D01*
X8707144Y-6822842D02*
X8750001Y-6737128D01*
X8750001Y-6737128D02*
X8750001Y-6008557D01*
X9178572Y-6908557D02*
X9178572Y-6008557D01*
X9178572Y-6008557D02*
X9692858Y-6908557D01*
X9692858Y-6908557D02*
X9692858Y-6008557D01*
X10121429Y-6908557D02*
X10121429Y-6008557D01*
X10421429Y-6008557D02*
X10935715Y-6008557D01*
X10678572Y-6908557D02*
X10678572Y-6008557D01*
X11878571Y-6308557D02*
X12521428Y-6308557D01*
X12135714Y-5922842D02*
X11878571Y-7079985D01*
X12435714Y-6694271D02*
X11792857Y-6694271D01*
X12178571Y-7079985D02*
X12435714Y-5922842D01*
X12607143Y-6994271D02*
X13292857Y-6994271D01*
X13292857Y-6994271D02*
X13978571Y-6994271D01*
X29344852Y-19551414D02*
X29259138Y-19508557D01*
X29259138Y-19508557D02*
X29130566Y-19508557D01*
X29130566Y-19508557D02*
X29001995Y-19551414D01*
X29001995Y-19551414D02*
X28916280Y-19637128D01*
X28916280Y-19637128D02*
X28873423Y-19722842D01*
X28873423Y-19722842D02*
X28830566Y-19894271D01*
X28830566Y-19894271D02*
X28830566Y-20022842D01*
X28830566Y-20022842D02*
X28873423Y-20194271D01*
X28873423Y-20194271D02*
X28916280Y-20279985D01*
X28916280Y-20279985D02*
X29001995Y-20365700D01*
X29001995Y-20365700D02*
X29130566Y-20408557D01*
X29130566Y-20408557D02*
X29216280Y-20408557D01*
X29216280Y-20408557D02*
X29344852Y-20365700D01*
X29344852Y-20365700D02*
X29387709Y-20322842D01*
X29387709Y-20322842D02*
X29387709Y-20022842D01*
X29387709Y-20022842D02*
X29216280Y-20022842D01*
X29944852Y-19979985D02*
X29944852Y-20408557D01*
X29644852Y-19508557D02*
X29944852Y-19979985D01*
X29944852Y-19979985D02*
X30244852Y-19508557D01*
X30544852Y-20065700D02*
X31230567Y-20065700D01*
X31659138Y-20408557D02*
X31659138Y-19508557D01*
X31659138Y-19508557D02*
X32001995Y-19508557D01*
X32001995Y-19508557D02*
X32087710Y-19551414D01*
X32087710Y-19551414D02*
X32130567Y-19594271D01*
X32130567Y-19594271D02*
X32173424Y-19679985D01*
X32173424Y-19679985D02*
X32173424Y-19808557D01*
X32173424Y-19808557D02*
X32130567Y-19894271D01*
X32130567Y-19894271D02*
X32087710Y-19937128D01*
X32087710Y-19937128D02*
X32001995Y-19979985D01*
X32001995Y-19979985D02*
X31659138Y-19979985D01*
X33073424Y-20322842D02*
X33030567Y-20365700D01*
X33030567Y-20365700D02*
X32901995Y-20408557D01*
X32901995Y-20408557D02*
X32816281Y-20408557D01*
X32816281Y-20408557D02*
X32687710Y-20365700D01*
X32687710Y-20365700D02*
X32601995Y-20279985D01*
X32601995Y-20279985D02*
X32559138Y-20194271D01*
X32559138Y-20194271D02*
X32516281Y-20022842D01*
X32516281Y-20022842D02*
X32516281Y-19894271D01*
X32516281Y-19894271D02*
X32559138Y-19722842D01*
X32559138Y-19722842D02*
X32601995Y-19637128D01*
X32601995Y-19637128D02*
X32687710Y-19551414D01*
X32687710Y-19551414D02*
X32816281Y-19508557D01*
X32816281Y-19508557D02*
X32901995Y-19508557D01*
X32901995Y-19508557D02*
X33030567Y-19551414D01*
X33030567Y-19551414D02*
X33073424Y-19594271D01*
X33459138Y-20408557D02*
X33459138Y-19508557D01*
X33459138Y-19508557D02*
X33759138Y-20151414D01*
X33759138Y-20151414D02*
X34059138Y-19508557D01*
X34059138Y-19508557D02*
X34059138Y-20408557D01*
X34916281Y-19508557D02*
X34487709Y-19508557D01*
X34487709Y-19508557D02*
X34444852Y-19937128D01*
X34444852Y-19937128D02*
X34487709Y-19894271D01*
X34487709Y-19894271D02*
X34573424Y-19851414D01*
X34573424Y-19851414D02*
X34787709Y-19851414D01*
X34787709Y-19851414D02*
X34873424Y-19894271D01*
X34873424Y-19894271D02*
X34916281Y-19937128D01*
X34916281Y-19937128D02*
X34959138Y-20022842D01*
X34959138Y-20022842D02*
X34959138Y-20237128D01*
X34959138Y-20237128D02*
X34916281Y-20322842D01*
X34916281Y-20322842D02*
X34873424Y-20365700D01*
X34873424Y-20365700D02*
X34787709Y-20408557D01*
X34787709Y-20408557D02*
X34573424Y-20408557D01*
X34573424Y-20408557D02*
X34487709Y-20365700D01*
X34487709Y-20365700D02*
X34444852Y-20322842D01*
X35816281Y-20408557D02*
X35301995Y-20408557D01*
X35559138Y-20408557D02*
X35559138Y-19508557D01*
X35559138Y-19508557D02*
X35473424Y-19637128D01*
X35473424Y-19637128D02*
X35387709Y-19722842D01*
X35387709Y-19722842D02*
X35301995Y-19765700D01*
X36373424Y-19508557D02*
X36459138Y-19508557D01*
X36459138Y-19508557D02*
X36544852Y-19551414D01*
X36544852Y-19551414D02*
X36587710Y-19594271D01*
X36587710Y-19594271D02*
X36630567Y-19679985D01*
X36630567Y-19679985D02*
X36673424Y-19851414D01*
X36673424Y-19851414D02*
X36673424Y-20065700D01*
X36673424Y-20065700D02*
X36630567Y-20237128D01*
X36630567Y-20237128D02*
X36587710Y-20322842D01*
X36587710Y-20322842D02*
X36544852Y-20365700D01*
X36544852Y-20365700D02*
X36459138Y-20408557D01*
X36459138Y-20408557D02*
X36373424Y-20408557D01*
X36373424Y-20408557D02*
X36287710Y-20365700D01*
X36287710Y-20365700D02*
X36244852Y-20322842D01*
X36244852Y-20322842D02*
X36201995Y-20237128D01*
X36201995Y-20237128D02*
X36159138Y-20065700D01*
X36159138Y-20065700D02*
X36159138Y-19851414D01*
X36159138Y-19851414D02*
X36201995Y-19679985D01*
X36201995Y-19679985D02*
X36244852Y-19594271D01*
X36244852Y-19594271D02*
X36287710Y-19551414D01*
X36287710Y-19551414D02*
X36373424Y-19508557D01*
X37016281Y-19594271D02*
X37059138Y-19551414D01*
X37059138Y-19551414D02*
X37144853Y-19508557D01*
X37144853Y-19508557D02*
X37359138Y-19508557D01*
X37359138Y-19508557D02*
X37444853Y-19551414D01*
X37444853Y-19551414D02*
X37487710Y-19594271D01*
X37487710Y-19594271D02*
X37530567Y-19679985D01*
X37530567Y-19679985D02*
X37530567Y-19765700D01*
X37530567Y-19765700D02*
X37487710Y-19894271D01*
X37487710Y-19894271D02*
X36973424Y-20408557D01*
X36973424Y-20408557D02*
X37530567Y-20408557D01*
X37873424Y-20151414D02*
X38301996Y-20151414D01*
X37787710Y-20408557D02*
X38087710Y-19508557D01*
X38087710Y-19508557D02*
X38387710Y-20408557D01*
X54578571Y-33008557D02*
X55092857Y-33008557D01*
X54835714Y-33908557D02*
X54835714Y-33008557D01*
X55392856Y-33908557D02*
X55392856Y-33008557D01*
X55392856Y-33008557D02*
X55735713Y-33008557D01*
X55735713Y-33008557D02*
X55821428Y-33051414D01*
X55821428Y-33051414D02*
X55864285Y-33094271D01*
X55864285Y-33094271D02*
X55907142Y-33179985D01*
X55907142Y-33179985D02*
X55907142Y-33308557D01*
X55907142Y-33308557D02*
X55864285Y-33394271D01*
X55864285Y-33394271D02*
X55821428Y-33437128D01*
X55821428Y-33437128D02*
X55735713Y-33479985D01*
X55735713Y-33479985D02*
X55392856Y-33479985D01*
X56678571Y-33308557D02*
X56678571Y-33908557D01*
X56464285Y-32965700D02*
X56249999Y-33608557D01*
X56249999Y-33608557D02*
X56807142Y-33608557D01*
X57321428Y-33008557D02*
X57407142Y-33008557D01*
X57407142Y-33008557D02*
X57492856Y-33051414D01*
X57492856Y-33051414D02*
X57535714Y-33094271D01*
X57535714Y-33094271D02*
X57578571Y-33179985D01*
X57578571Y-33179985D02*
X57621428Y-33351414D01*
X57621428Y-33351414D02*
X57621428Y-33565700D01*
X57621428Y-33565700D02*
X57578571Y-33737128D01*
X57578571Y-33737128D02*
X57535714Y-33822842D01*
X57535714Y-33822842D02*
X57492856Y-33865700D01*
X57492856Y-33865700D02*
X57407142Y-33908557D01*
X57407142Y-33908557D02*
X57321428Y-33908557D01*
X57321428Y-33908557D02*
X57235714Y-33865700D01*
X57235714Y-33865700D02*
X57192856Y-33822842D01*
X57192856Y-33822842D02*
X57149999Y-33737128D01*
X57149999Y-33737128D02*
X57107142Y-33565700D01*
X57107142Y-33565700D02*
X57107142Y-33351414D01*
X57107142Y-33351414D02*
X57149999Y-33179985D01*
X57149999Y-33179985D02*
X57192856Y-33094271D01*
X57192856Y-33094271D02*
X57235714Y-33051414D01*
X57235714Y-33051414D02*
X57321428Y-33008557D01*
X58435714Y-33008557D02*
X58007142Y-33008557D01*
X58007142Y-33008557D02*
X57964285Y-33437128D01*
X57964285Y-33437128D02*
X58007142Y-33394271D01*
X58007142Y-33394271D02*
X58092857Y-33351414D01*
X58092857Y-33351414D02*
X58307142Y-33351414D01*
X58307142Y-33351414D02*
X58392857Y-33394271D01*
X58392857Y-33394271D02*
X58435714Y-33437128D01*
X58435714Y-33437128D02*
X58478571Y-33522842D01*
X58478571Y-33522842D02*
X58478571Y-33737128D01*
X58478571Y-33737128D02*
X58435714Y-33822842D01*
X58435714Y-33822842D02*
X58392857Y-33865700D01*
X58392857Y-33865700D02*
X58307142Y-33908557D01*
X58307142Y-33908557D02*
X58092857Y-33908557D01*
X58092857Y-33908557D02*
X58007142Y-33865700D01*
X58007142Y-33865700D02*
X57964285Y-33822842D01*
X59250000Y-33008557D02*
X59078571Y-33008557D01*
X59078571Y-33008557D02*
X58992857Y-33051414D01*
X58992857Y-33051414D02*
X58950000Y-33094271D01*
X58950000Y-33094271D02*
X58864285Y-33222842D01*
X58864285Y-33222842D02*
X58821428Y-33394271D01*
X58821428Y-33394271D02*
X58821428Y-33737128D01*
X58821428Y-33737128D02*
X58864285Y-33822842D01*
X58864285Y-33822842D02*
X58907142Y-33865700D01*
X58907142Y-33865700D02*
X58992857Y-33908557D01*
X58992857Y-33908557D02*
X59164285Y-33908557D01*
X59164285Y-33908557D02*
X59250000Y-33865700D01*
X59250000Y-33865700D02*
X59292857Y-33822842D01*
X59292857Y-33822842D02*
X59335714Y-33737128D01*
X59335714Y-33737128D02*
X59335714Y-33522842D01*
X59335714Y-33522842D02*
X59292857Y-33437128D01*
X59292857Y-33437128D02*
X59250000Y-33394271D01*
X59250000Y-33394271D02*
X59164285Y-33351414D01*
X59164285Y-33351414D02*
X58992857Y-33351414D01*
X58992857Y-33351414D02*
X58907142Y-33394271D01*
X58907142Y-33394271D02*
X58864285Y-33437128D01*
X58864285Y-33437128D02*
X58821428Y-33522842D01*
X12071667Y-39067295D02*
X11805000Y-38686342D01*
X11614524Y-39067295D02*
X11614524Y-38267295D01*
X11614524Y-38267295D02*
X11919286Y-38267295D01*
X11919286Y-38267295D02*
X11995476Y-38305390D01*
X11995476Y-38305390D02*
X12033571Y-38343485D01*
X12033571Y-38343485D02*
X12071667Y-38419676D01*
X12071667Y-38419676D02*
X12071667Y-38533961D01*
X12071667Y-38533961D02*
X12033571Y-38610152D01*
X12033571Y-38610152D02*
X11995476Y-38648247D01*
X11995476Y-38648247D02*
X11919286Y-38686342D01*
X11919286Y-38686342D02*
X11614524Y-38686342D01*
X12528809Y-38610152D02*
X12452619Y-38572057D01*
X12452619Y-38572057D02*
X12414524Y-38533961D01*
X12414524Y-38533961D02*
X12376428Y-38457771D01*
X12376428Y-38457771D02*
X12376428Y-38419676D01*
X12376428Y-38419676D02*
X12414524Y-38343485D01*
X12414524Y-38343485D02*
X12452619Y-38305390D01*
X12452619Y-38305390D02*
X12528809Y-38267295D01*
X12528809Y-38267295D02*
X12681190Y-38267295D01*
X12681190Y-38267295D02*
X12757381Y-38305390D01*
X12757381Y-38305390D02*
X12795476Y-38343485D01*
X12795476Y-38343485D02*
X12833571Y-38419676D01*
X12833571Y-38419676D02*
X12833571Y-38457771D01*
X12833571Y-38457771D02*
X12795476Y-38533961D01*
X12795476Y-38533961D02*
X12757381Y-38572057D01*
X12757381Y-38572057D02*
X12681190Y-38610152D01*
X12681190Y-38610152D02*
X12528809Y-38610152D01*
X12528809Y-38610152D02*
X12452619Y-38648247D01*
X12452619Y-38648247D02*
X12414524Y-38686342D01*
X12414524Y-38686342D02*
X12376428Y-38762533D01*
X12376428Y-38762533D02*
X12376428Y-38914914D01*
X12376428Y-38914914D02*
X12414524Y-38991104D01*
X12414524Y-38991104D02*
X12452619Y-39029200D01*
X12452619Y-39029200D02*
X12528809Y-39067295D01*
X12528809Y-39067295D02*
X12681190Y-39067295D01*
X12681190Y-39067295D02*
X12757381Y-39029200D01*
X12757381Y-39029200D02*
X12795476Y-38991104D01*
X12795476Y-38991104D02*
X12833571Y-38914914D01*
X12833571Y-38914914D02*
X12833571Y-38762533D01*
X12833571Y-38762533D02*
X12795476Y-38686342D01*
X12795476Y-38686342D02*
X12757381Y-38648247D01*
X12757381Y-38648247D02*
X12681190Y-38610152D01*
X40730714Y-33786045D02*
X40464047Y-33405092D01*
X40273571Y-33786045D02*
X40273571Y-32986045D01*
X40273571Y-32986045D02*
X40578333Y-32986045D01*
X40578333Y-32986045D02*
X40654523Y-33024140D01*
X40654523Y-33024140D02*
X40692618Y-33062235D01*
X40692618Y-33062235D02*
X40730714Y-33138426D01*
X40730714Y-33138426D02*
X40730714Y-33252711D01*
X40730714Y-33252711D02*
X40692618Y-33328902D01*
X40692618Y-33328902D02*
X40654523Y-33366997D01*
X40654523Y-33366997D02*
X40578333Y-33405092D01*
X40578333Y-33405092D02*
X40273571Y-33405092D01*
X40959285Y-32986045D02*
X41225952Y-33786045D01*
X41225952Y-33786045D02*
X41492618Y-32986045D01*
X42178332Y-33786045D02*
X41721189Y-33786045D01*
X41949761Y-33786045D02*
X41949761Y-32986045D01*
X41949761Y-32986045D02*
X41873570Y-33100330D01*
X41873570Y-33100330D02*
X41797380Y-33176521D01*
X41797380Y-33176521D02*
X41721189Y-33214616D01*
X36114285Y-38224200D02*
X36228571Y-38262295D01*
X36228571Y-38262295D02*
X36419047Y-38262295D01*
X36419047Y-38262295D02*
X36495238Y-38224200D01*
X36495238Y-38224200D02*
X36533333Y-38186104D01*
X36533333Y-38186104D02*
X36571428Y-38109914D01*
X36571428Y-38109914D02*
X36571428Y-38033723D01*
X36571428Y-38033723D02*
X36533333Y-37957533D01*
X36533333Y-37957533D02*
X36495238Y-37919438D01*
X36495238Y-37919438D02*
X36419047Y-37881342D01*
X36419047Y-37881342D02*
X36266666Y-37843247D01*
X36266666Y-37843247D02*
X36190476Y-37805152D01*
X36190476Y-37805152D02*
X36152381Y-37767057D01*
X36152381Y-37767057D02*
X36114285Y-37690866D01*
X36114285Y-37690866D02*
X36114285Y-37614676D01*
X36114285Y-37614676D02*
X36152381Y-37538485D01*
X36152381Y-37538485D02*
X36190476Y-37500390D01*
X36190476Y-37500390D02*
X36266666Y-37462295D01*
X36266666Y-37462295D02*
X36457143Y-37462295D01*
X36457143Y-37462295D02*
X36571428Y-37500390D01*
X36838095Y-37462295D02*
X37028571Y-38262295D01*
X37028571Y-38262295D02*
X37180952Y-37690866D01*
X37180952Y-37690866D02*
X37333333Y-38262295D01*
X37333333Y-38262295D02*
X37523810Y-37462295D01*
X56410714Y-9488544D02*
X56144047Y-9107591D01*
X55953571Y-9488544D02*
X55953571Y-8688544D01*
X55953571Y-8688544D02*
X56258333Y-8688544D01*
X56258333Y-8688544D02*
X56334523Y-8726639D01*
X56334523Y-8726639D02*
X56372618Y-8764734D01*
X56372618Y-8764734D02*
X56410714Y-8840925D01*
X56410714Y-8840925D02*
X56410714Y-8955210D01*
X56410714Y-8955210D02*
X56372618Y-9031401D01*
X56372618Y-9031401D02*
X56334523Y-9069496D01*
X56334523Y-9069496D02*
X56258333Y-9107591D01*
X56258333Y-9107591D02*
X55953571Y-9107591D01*
X57172618Y-9488544D02*
X56715475Y-9488544D01*
X56944047Y-9488544D02*
X56944047Y-8688544D01*
X56944047Y-8688544D02*
X56867856Y-8802829D01*
X56867856Y-8802829D02*
X56791666Y-8879020D01*
X56791666Y-8879020D02*
X56715475Y-8917115D01*
X57667857Y-8688544D02*
X57744047Y-8688544D01*
X57744047Y-8688544D02*
X57820238Y-8726639D01*
X57820238Y-8726639D02*
X57858333Y-8764734D01*
X57858333Y-8764734D02*
X57896428Y-8840925D01*
X57896428Y-8840925D02*
X57934523Y-8993306D01*
X57934523Y-8993306D02*
X57934523Y-9183782D01*
X57934523Y-9183782D02*
X57896428Y-9336163D01*
X57896428Y-9336163D02*
X57858333Y-9412353D01*
X57858333Y-9412353D02*
X57820238Y-9450449D01*
X57820238Y-9450449D02*
X57744047Y-9488544D01*
X57744047Y-9488544D02*
X57667857Y-9488544D01*
X57667857Y-9488544D02*
X57591666Y-9450449D01*
X57591666Y-9450449D02*
X57553571Y-9412353D01*
X57553571Y-9412353D02*
X57515476Y-9336163D01*
X57515476Y-9336163D02*
X57477380Y-9183782D01*
X57477380Y-9183782D02*
X57477380Y-8993306D01*
X57477380Y-8993306D02*
X57515476Y-8840925D01*
X57515476Y-8840925D02*
X57553571Y-8764734D01*
X57553571Y-8764734D02*
X57591666Y-8726639D01*
X57591666Y-8726639D02*
X57667857Y-8688544D01*
X57395714Y-15062354D02*
X57357618Y-15100450D01*
X57357618Y-15100450D02*
X57243333Y-15138545D01*
X57243333Y-15138545D02*
X57167142Y-15138545D01*
X57167142Y-15138545D02*
X57052856Y-15100450D01*
X57052856Y-15100450D02*
X56976666Y-15024259D01*
X56976666Y-15024259D02*
X56938571Y-14948069D01*
X56938571Y-14948069D02*
X56900475Y-14795688D01*
X56900475Y-14795688D02*
X56900475Y-14681402D01*
X56900475Y-14681402D02*
X56938571Y-14529021D01*
X56938571Y-14529021D02*
X56976666Y-14452830D01*
X56976666Y-14452830D02*
X57052856Y-14376640D01*
X57052856Y-14376640D02*
X57167142Y-14338545D01*
X57167142Y-14338545D02*
X57243333Y-14338545D01*
X57243333Y-14338545D02*
X57357618Y-14376640D01*
X57357618Y-14376640D02*
X57395714Y-14414735D01*
X58081428Y-14605211D02*
X58081428Y-15138545D01*
X57890952Y-14300450D02*
X57700475Y-14871878D01*
X57700475Y-14871878D02*
X58195714Y-14871878D01*
X17821667Y-31817295D02*
X17555000Y-31436342D01*
X17364524Y-31817295D02*
X17364524Y-31017295D01*
X17364524Y-31017295D02*
X17669286Y-31017295D01*
X17669286Y-31017295D02*
X17745476Y-31055390D01*
X17745476Y-31055390D02*
X17783571Y-31093485D01*
X17783571Y-31093485D02*
X17821667Y-31169676D01*
X17821667Y-31169676D02*
X17821667Y-31283961D01*
X17821667Y-31283961D02*
X17783571Y-31360152D01*
X17783571Y-31360152D02*
X17745476Y-31398247D01*
X17745476Y-31398247D02*
X17669286Y-31436342D01*
X17669286Y-31436342D02*
X17364524Y-31436342D01*
X18088333Y-31017295D02*
X18621667Y-31017295D01*
X18621667Y-31017295D02*
X18278809Y-31817295D01*
X4688571Y-41866045D02*
X4688571Y-41066045D01*
X4688571Y-41066045D02*
X4879047Y-41066045D01*
X4879047Y-41066045D02*
X4993333Y-41104140D01*
X4993333Y-41104140D02*
X5069523Y-41180330D01*
X5069523Y-41180330D02*
X5107618Y-41256521D01*
X5107618Y-41256521D02*
X5145714Y-41408902D01*
X5145714Y-41408902D02*
X5145714Y-41523188D01*
X5145714Y-41523188D02*
X5107618Y-41675569D01*
X5107618Y-41675569D02*
X5069523Y-41751759D01*
X5069523Y-41751759D02*
X4993333Y-41827950D01*
X4993333Y-41827950D02*
X4879047Y-41866045D01*
X4879047Y-41866045D02*
X4688571Y-41866045D01*
X5831428Y-41332711D02*
X5831428Y-41866045D01*
X5640952Y-41027950D02*
X5450475Y-41599378D01*
X5450475Y-41599378D02*
X5945714Y-41599378D01*
X28388332Y-40779200D02*
X28502618Y-40817295D01*
X28502618Y-40817295D02*
X28693094Y-40817295D01*
X28693094Y-40817295D02*
X28769285Y-40779200D01*
X28769285Y-40779200D02*
X28807380Y-40741104D01*
X28807380Y-40741104D02*
X28845475Y-40664914D01*
X28845475Y-40664914D02*
X28845475Y-40588723D01*
X28845475Y-40588723D02*
X28807380Y-40512533D01*
X28807380Y-40512533D02*
X28769285Y-40474438D01*
X28769285Y-40474438D02*
X28693094Y-40436342D01*
X28693094Y-40436342D02*
X28540713Y-40398247D01*
X28540713Y-40398247D02*
X28464523Y-40360152D01*
X28464523Y-40360152D02*
X28426428Y-40322057D01*
X28426428Y-40322057D02*
X28388332Y-40245866D01*
X28388332Y-40245866D02*
X28388332Y-40169676D01*
X28388332Y-40169676D02*
X28426428Y-40093485D01*
X28426428Y-40093485D02*
X28464523Y-40055390D01*
X28464523Y-40055390D02*
X28540713Y-40017295D01*
X28540713Y-40017295D02*
X28731190Y-40017295D01*
X28731190Y-40017295D02*
X28845475Y-40055390D01*
X29112142Y-40017295D02*
X29302618Y-40817295D01*
X29302618Y-40817295D02*
X29454999Y-40245866D01*
X29454999Y-40245866D02*
X29607380Y-40817295D01*
X29607380Y-40817295D02*
X29797857Y-40017295D01*
X30064523Y-40093485D02*
X30102619Y-40055390D01*
X30102619Y-40055390D02*
X30178809Y-40017295D01*
X30178809Y-40017295D02*
X30369285Y-40017295D01*
X30369285Y-40017295D02*
X30445476Y-40055390D01*
X30445476Y-40055390D02*
X30483571Y-40093485D01*
X30483571Y-40093485D02*
X30521666Y-40169676D01*
X30521666Y-40169676D02*
X30521666Y-40245866D01*
X30521666Y-40245866D02*
X30483571Y-40360152D01*
X30483571Y-40360152D02*
X30026428Y-40817295D01*
X30026428Y-40817295D02*
X30521666Y-40817295D01*
X48329047Y-34145644D02*
X48329047Y-34717072D01*
X48329047Y-34717072D02*
X48290952Y-34831358D01*
X48290952Y-34831358D02*
X48214761Y-34907549D01*
X48214761Y-34907549D02*
X48100476Y-34945644D01*
X48100476Y-34945644D02*
X48024285Y-34945644D01*
X49052857Y-34145644D02*
X48900476Y-34145644D01*
X48900476Y-34145644D02*
X48824285Y-34183739D01*
X48824285Y-34183739D02*
X48786190Y-34221834D01*
X48786190Y-34221834D02*
X48710000Y-34336120D01*
X48710000Y-34336120D02*
X48671904Y-34488501D01*
X48671904Y-34488501D02*
X48671904Y-34793263D01*
X48671904Y-34793263D02*
X48710000Y-34869453D01*
X48710000Y-34869453D02*
X48748095Y-34907549D01*
X48748095Y-34907549D02*
X48824285Y-34945644D01*
X48824285Y-34945644D02*
X48976666Y-34945644D01*
X48976666Y-34945644D02*
X49052857Y-34907549D01*
X49052857Y-34907549D02*
X49090952Y-34869453D01*
X49090952Y-34869453D02*
X49129047Y-34793263D01*
X49129047Y-34793263D02*
X49129047Y-34602787D01*
X49129047Y-34602787D02*
X49090952Y-34526596D01*
X49090952Y-34526596D02*
X49052857Y-34488501D01*
X49052857Y-34488501D02*
X48976666Y-34450406D01*
X48976666Y-34450406D02*
X48824285Y-34450406D01*
X48824285Y-34450406D02*
X48748095Y-34488501D01*
X48748095Y-34488501D02*
X48710000Y-34526596D01*
X48710000Y-34526596D02*
X48671904Y-34602787D01*
X57648571Y-19552294D02*
X57648571Y-18752294D01*
X57648571Y-18752294D02*
X57839047Y-18752294D01*
X57839047Y-18752294D02*
X57953333Y-18790389D01*
X57953333Y-18790389D02*
X58029523Y-18866579D01*
X58029523Y-18866579D02*
X58067618Y-18942770D01*
X58067618Y-18942770D02*
X58105714Y-19095151D01*
X58105714Y-19095151D02*
X58105714Y-19209437D01*
X58105714Y-19209437D02*
X58067618Y-19361818D01*
X58067618Y-19361818D02*
X58029523Y-19438008D01*
X58029523Y-19438008D02*
X57953333Y-19514199D01*
X57953333Y-19514199D02*
X57839047Y-19552294D01*
X57839047Y-19552294D02*
X57648571Y-19552294D01*
X58372380Y-18752294D02*
X58867618Y-18752294D01*
X58867618Y-18752294D02*
X58600952Y-19057056D01*
X58600952Y-19057056D02*
X58715237Y-19057056D01*
X58715237Y-19057056D02*
X58791428Y-19095151D01*
X58791428Y-19095151D02*
X58829523Y-19133246D01*
X58829523Y-19133246D02*
X58867618Y-19209437D01*
X58867618Y-19209437D02*
X58867618Y-19399913D01*
X58867618Y-19399913D02*
X58829523Y-19476103D01*
X58829523Y-19476103D02*
X58791428Y-19514199D01*
X58791428Y-19514199D02*
X58715237Y-19552294D01*
X58715237Y-19552294D02*
X58486666Y-19552294D01*
X58486666Y-19552294D02*
X58410475Y-19514199D01*
X58410475Y-19514199D02*
X58372380Y-19476103D01*
X59614819Y-23261904D02*
X58614819Y-23261904D01*
X59614819Y-22690476D02*
X59043390Y-23119047D01*
X58614819Y-22690476D02*
X59186247Y-23261904D01*
X18475738Y-39589794D02*
X18932881Y-39589794D01*
X18704309Y-40389794D02*
X18704309Y-39589794D01*
X19199548Y-40389794D02*
X19199548Y-39589794D01*
X19199548Y-39589794D02*
X19504310Y-39589794D01*
X19504310Y-39589794D02*
X19580500Y-39627889D01*
X19580500Y-39627889D02*
X19618595Y-39665984D01*
X19618595Y-39665984D02*
X19656691Y-39742175D01*
X19656691Y-39742175D02*
X19656691Y-39856460D01*
X19656691Y-39856460D02*
X19618595Y-39932651D01*
X19618595Y-39932651D02*
X19580500Y-39970746D01*
X19580500Y-39970746D02*
X19504310Y-40008841D01*
X19504310Y-40008841D02*
X19199548Y-40008841D01*
X19923357Y-39589794D02*
X20418595Y-39589794D01*
X20418595Y-39589794D02*
X20151929Y-39894556D01*
X20151929Y-39894556D02*
X20266214Y-39894556D01*
X20266214Y-39894556D02*
X20342405Y-39932651D01*
X20342405Y-39932651D02*
X20380500Y-39970746D01*
X20380500Y-39970746D02*
X20418595Y-40046937D01*
X20418595Y-40046937D02*
X20418595Y-40237413D01*
X20418595Y-40237413D02*
X20380500Y-40313603D01*
X20380500Y-40313603D02*
X20342405Y-40351699D01*
X20342405Y-40351699D02*
X20266214Y-40389794D01*
X20266214Y-40389794D02*
X20037643Y-40389794D01*
X20037643Y-40389794D02*
X19961452Y-40351699D01*
X19961452Y-40351699D02*
X19923357Y-40313603D01*
X3113258Y-18055977D02*
X3113258Y-18627405D01*
X3113258Y-18627405D02*
X3075163Y-18741691D01*
X3075163Y-18741691D02*
X2998972Y-18817882D01*
X2998972Y-18817882D02*
X2884687Y-18855977D01*
X2884687Y-18855977D02*
X2808496Y-18855977D01*
X3456115Y-18627405D02*
X3837068Y-18627405D01*
X3379925Y-18855977D02*
X3646592Y-18055977D01*
X3646592Y-18055977D02*
X3913258Y-18855977D01*
X4598972Y-18855977D02*
X4141829Y-18855977D01*
X4370401Y-18855977D02*
X4370401Y-18055977D01*
X4370401Y-18055977D02*
X4294210Y-18170262D01*
X4294210Y-18170262D02*
X4218020Y-18246453D01*
X4218020Y-18246453D02*
X4141829Y-18284548D01*
X49719524Y-20836045D02*
X49719524Y-20036045D01*
X49719524Y-20036045D02*
X49910000Y-20036045D01*
X49910000Y-20036045D02*
X50024286Y-20074140D01*
X50024286Y-20074140D02*
X50100476Y-20150330D01*
X50100476Y-20150330D02*
X50138571Y-20226521D01*
X50138571Y-20226521D02*
X50176667Y-20378902D01*
X50176667Y-20378902D02*
X50176667Y-20493188D01*
X50176667Y-20493188D02*
X50138571Y-20645569D01*
X50138571Y-20645569D02*
X50100476Y-20721759D01*
X50100476Y-20721759D02*
X50024286Y-20797950D01*
X50024286Y-20797950D02*
X49910000Y-20836045D01*
X49910000Y-20836045D02*
X49719524Y-20836045D01*
X50938571Y-20836045D02*
X50481428Y-20836045D01*
X50710000Y-20836045D02*
X50710000Y-20036045D01*
X50710000Y-20036045D02*
X50633809Y-20150330D01*
X50633809Y-20150330D02*
X50557619Y-20226521D01*
X50557619Y-20226521D02*
X50481428Y-20264616D01*
X46238095Y-21654819D02*
X46238095Y-20654819D01*
X46809523Y-21654819D02*
X46380952Y-21083390D01*
X46809523Y-20654819D02*
X46238095Y-21226247D01*
X65773332Y-17078545D02*
X65773332Y-17649973D01*
X65773332Y-17649973D02*
X65735237Y-17764259D01*
X65735237Y-17764259D02*
X65659046Y-17840450D01*
X65659046Y-17840450D02*
X65544761Y-17878545D01*
X65544761Y-17878545D02*
X65468570Y-17878545D01*
X66497142Y-17345211D02*
X66497142Y-17878545D01*
X66306666Y-17040450D02*
X66116189Y-17611878D01*
X66116189Y-17611878D02*
X66611428Y-17611878D01*
X33692970Y-27766045D02*
X34150113Y-27766045D01*
X33921541Y-28566045D02*
X33921541Y-27766045D01*
X34416780Y-28566045D02*
X34416780Y-27766045D01*
X34416780Y-27766045D02*
X34721542Y-27766045D01*
X34721542Y-27766045D02*
X34797732Y-27804140D01*
X34797732Y-27804140D02*
X34835827Y-27842235D01*
X34835827Y-27842235D02*
X34873923Y-27918426D01*
X34873923Y-27918426D02*
X34873923Y-28032711D01*
X34873923Y-28032711D02*
X34835827Y-28108902D01*
X34835827Y-28108902D02*
X34797732Y-28146997D01*
X34797732Y-28146997D02*
X34721542Y-28185092D01*
X34721542Y-28185092D02*
X34416780Y-28185092D01*
X35559637Y-28032711D02*
X35559637Y-28566045D01*
X35369161Y-27727950D02*
X35178684Y-28299378D01*
X35178684Y-28299378D02*
X35673923Y-28299378D01*
X45453333Y-33764345D02*
X45453333Y-34335773D01*
X45453333Y-34335773D02*
X45415238Y-34450059D01*
X45415238Y-34450059D02*
X45339047Y-34526250D01*
X45339047Y-34526250D02*
X45224762Y-34564345D01*
X45224762Y-34564345D02*
X45148571Y-34564345D01*
X46215238Y-33764345D02*
X45834286Y-33764345D01*
X45834286Y-33764345D02*
X45796190Y-34145297D01*
X45796190Y-34145297D02*
X45834286Y-34107202D01*
X45834286Y-34107202D02*
X45910476Y-34069107D01*
X45910476Y-34069107D02*
X46100952Y-34069107D01*
X46100952Y-34069107D02*
X46177143Y-34107202D01*
X46177143Y-34107202D02*
X46215238Y-34145297D01*
X46215238Y-34145297D02*
X46253333Y-34221488D01*
X46253333Y-34221488D02*
X46253333Y-34411964D01*
X46253333Y-34411964D02*
X46215238Y-34488154D01*
X46215238Y-34488154D02*
X46177143Y-34526250D01*
X46177143Y-34526250D02*
X46100952Y-34564345D01*
X46100952Y-34564345D02*
X45910476Y-34564345D01*
X45910476Y-34564345D02*
X45834286Y-34526250D01*
X45834286Y-34526250D02*
X45796190Y-34488154D01*
X11946667Y-14586044D02*
X11680000Y-14205091D01*
X11489524Y-14586044D02*
X11489524Y-13786044D01*
X11489524Y-13786044D02*
X11794286Y-13786044D01*
X11794286Y-13786044D02*
X11870476Y-13824139D01*
X11870476Y-13824139D02*
X11908571Y-13862234D01*
X11908571Y-13862234D02*
X11946667Y-13938425D01*
X11946667Y-13938425D02*
X11946667Y-14052710D01*
X11946667Y-14052710D02*
X11908571Y-14128901D01*
X11908571Y-14128901D02*
X11870476Y-14166996D01*
X11870476Y-14166996D02*
X11794286Y-14205091D01*
X11794286Y-14205091D02*
X11489524Y-14205091D01*
X12213333Y-13786044D02*
X12708571Y-13786044D01*
X12708571Y-13786044D02*
X12441905Y-14090806D01*
X12441905Y-14090806D02*
X12556190Y-14090806D01*
X12556190Y-14090806D02*
X12632381Y-14128901D01*
X12632381Y-14128901D02*
X12670476Y-14166996D01*
X12670476Y-14166996D02*
X12708571Y-14243187D01*
X12708571Y-14243187D02*
X12708571Y-14433663D01*
X12708571Y-14433663D02*
X12670476Y-14509853D01*
X12670476Y-14509853D02*
X12632381Y-14547949D01*
X12632381Y-14547949D02*
X12556190Y-14586044D01*
X12556190Y-14586044D02*
X12327619Y-14586044D01*
X12327619Y-14586044D02*
X12251428Y-14547949D01*
X12251428Y-14547949D02*
X12213333Y-14509853D01*
X25246667Y-5062353D02*
X25208571Y-5100449D01*
X25208571Y-5100449D02*
X25094286Y-5138544D01*
X25094286Y-5138544D02*
X25018095Y-5138544D01*
X25018095Y-5138544D02*
X24903809Y-5100449D01*
X24903809Y-5100449D02*
X24827619Y-5024258D01*
X24827619Y-5024258D02*
X24789524Y-4948068D01*
X24789524Y-4948068D02*
X24751428Y-4795687D01*
X24751428Y-4795687D02*
X24751428Y-4681401D01*
X24751428Y-4681401D02*
X24789524Y-4529020D01*
X24789524Y-4529020D02*
X24827619Y-4452829D01*
X24827619Y-4452829D02*
X24903809Y-4376639D01*
X24903809Y-4376639D02*
X25018095Y-4338544D01*
X25018095Y-4338544D02*
X25094286Y-4338544D01*
X25094286Y-4338544D02*
X25208571Y-4376639D01*
X25208571Y-4376639D02*
X25246667Y-4414734D01*
X25513333Y-4338544D02*
X26008571Y-4338544D01*
X26008571Y-4338544D02*
X25741905Y-4643306D01*
X25741905Y-4643306D02*
X25856190Y-4643306D01*
X25856190Y-4643306D02*
X25932381Y-4681401D01*
X25932381Y-4681401D02*
X25970476Y-4719496D01*
X25970476Y-4719496D02*
X26008571Y-4795687D01*
X26008571Y-4795687D02*
X26008571Y-4986163D01*
X26008571Y-4986163D02*
X25970476Y-5062353D01*
X25970476Y-5062353D02*
X25932381Y-5100449D01*
X25932381Y-5100449D02*
X25856190Y-5138544D01*
X25856190Y-5138544D02*
X25627619Y-5138544D01*
X25627619Y-5138544D02*
X25551428Y-5100449D01*
X25551428Y-5100449D02*
X25513333Y-5062353D01*
X5795714Y-39874170D02*
X5529047Y-39493217D01*
X5338571Y-39874170D02*
X5338571Y-39074170D01*
X5338571Y-39074170D02*
X5643333Y-39074170D01*
X5643333Y-39074170D02*
X5719523Y-39112265D01*
X5719523Y-39112265D02*
X5757618Y-39150360D01*
X5757618Y-39150360D02*
X5795714Y-39226551D01*
X5795714Y-39226551D02*
X5795714Y-39340836D01*
X5795714Y-39340836D02*
X5757618Y-39417027D01*
X5757618Y-39417027D02*
X5719523Y-39455122D01*
X5719523Y-39455122D02*
X5643333Y-39493217D01*
X5643333Y-39493217D02*
X5338571Y-39493217D01*
X6481428Y-39340836D02*
X6481428Y-39874170D01*
X6290952Y-39036075D02*
X6100475Y-39607503D01*
X6100475Y-39607503D02*
X6595714Y-39607503D01*
X50213809Y-31404735D02*
X50137619Y-31366640D01*
X50137619Y-31366640D02*
X50061428Y-31290450D01*
X50061428Y-31290450D02*
X49947142Y-31176164D01*
X49947142Y-31176164D02*
X49870952Y-31138069D01*
X49870952Y-31138069D02*
X49794761Y-31138069D01*
X49832857Y-31328545D02*
X49756666Y-31290450D01*
X49756666Y-31290450D02*
X49680476Y-31214259D01*
X49680476Y-31214259D02*
X49642380Y-31061878D01*
X49642380Y-31061878D02*
X49642380Y-30795211D01*
X49642380Y-30795211D02*
X49680476Y-30642830D01*
X49680476Y-30642830D02*
X49756666Y-30566640D01*
X49756666Y-30566640D02*
X49832857Y-30528545D01*
X49832857Y-30528545D02*
X49985238Y-30528545D01*
X49985238Y-30528545D02*
X50061428Y-30566640D01*
X50061428Y-30566640D02*
X50137619Y-30642830D01*
X50137619Y-30642830D02*
X50175714Y-30795211D01*
X50175714Y-30795211D02*
X50175714Y-31061878D01*
X50175714Y-31061878D02*
X50137619Y-31214259D01*
X50137619Y-31214259D02*
X50061428Y-31290450D01*
X50061428Y-31290450D02*
X49985238Y-31328545D01*
X49985238Y-31328545D02*
X49832857Y-31328545D01*
X50937618Y-31328545D02*
X50480475Y-31328545D01*
X50709047Y-31328545D02*
X50709047Y-30528545D01*
X50709047Y-30528545D02*
X50632856Y-30642830D01*
X50632856Y-30642830D02*
X50556666Y-30719021D01*
X50556666Y-30719021D02*
X50480475Y-30757116D01*
X12571667Y-2127295D02*
X12305000Y-1746342D01*
X12114524Y-2127295D02*
X12114524Y-1327295D01*
X12114524Y-1327295D02*
X12419286Y-1327295D01*
X12419286Y-1327295D02*
X12495476Y-1365390D01*
X12495476Y-1365390D02*
X12533571Y-1403485D01*
X12533571Y-1403485D02*
X12571667Y-1479676D01*
X12571667Y-1479676D02*
X12571667Y-1593961D01*
X12571667Y-1593961D02*
X12533571Y-1670152D01*
X12533571Y-1670152D02*
X12495476Y-1708247D01*
X12495476Y-1708247D02*
X12419286Y-1746342D01*
X12419286Y-1746342D02*
X12114524Y-1746342D01*
X12876428Y-1403485D02*
X12914524Y-1365390D01*
X12914524Y-1365390D02*
X12990714Y-1327295D01*
X12990714Y-1327295D02*
X13181190Y-1327295D01*
X13181190Y-1327295D02*
X13257381Y-1365390D01*
X13257381Y-1365390D02*
X13295476Y-1403485D01*
X13295476Y-1403485D02*
X13333571Y-1479676D01*
X13333571Y-1479676D02*
X13333571Y-1555866D01*
X13333571Y-1555866D02*
X13295476Y-1670152D01*
X13295476Y-1670152D02*
X12838333Y-2127295D01*
X12838333Y-2127295D02*
X13333571Y-2127295D01*
X28125238Y-4709467D02*
X28125238Y-5090420D01*
X27858571Y-4290420D02*
X28125238Y-4709467D01*
X28125238Y-4709467D02*
X28391904Y-4290420D01*
X29077618Y-5090420D02*
X28620475Y-5090420D01*
X28849047Y-5090420D02*
X28849047Y-4290420D01*
X28849047Y-4290420D02*
X28772856Y-4404705D01*
X28772856Y-4404705D02*
X28696666Y-4480896D01*
X28696666Y-4480896D02*
X28620475Y-4518991D01*
D11*
X30589560Y-2540000D02*
X31256226Y-2540000D01*
X29856226Y-3006666D02*
X30589560Y-2540000D01*
X30589560Y-2540000D02*
X29856226Y-2073333D01*
D10*
X40120390Y-2330476D02*
X40082295Y-2406666D01*
X40082295Y-2406666D02*
X40082295Y-2520952D01*
X40082295Y-2520952D02*
X40120390Y-2635238D01*
X40120390Y-2635238D02*
X40196580Y-2711428D01*
X40196580Y-2711428D02*
X40272771Y-2749523D01*
X40272771Y-2749523D02*
X40425152Y-2787619D01*
X40425152Y-2787619D02*
X40539438Y-2787619D01*
X40539438Y-2787619D02*
X40691819Y-2749523D01*
X40691819Y-2749523D02*
X40768009Y-2711428D01*
X40768009Y-2711428D02*
X40844200Y-2635238D01*
X40844200Y-2635238D02*
X40882295Y-2520952D01*
X40882295Y-2520952D02*
X40882295Y-2444761D01*
X40882295Y-2444761D02*
X40844200Y-2330476D01*
X40844200Y-2330476D02*
X40806104Y-2292380D01*
X40806104Y-2292380D02*
X40539438Y-2292380D01*
X40539438Y-2292380D02*
X40539438Y-2444761D01*
X64327618Y-39871857D02*
X64327618Y-40443285D01*
X64327618Y-40443285D02*
X64289523Y-40557571D01*
X64289523Y-40557571D02*
X64213332Y-40633762D01*
X64213332Y-40633762D02*
X64099047Y-40671857D01*
X64099047Y-40671857D02*
X64022856Y-40671857D01*
X64746666Y-40671857D02*
X64899047Y-40671857D01*
X64899047Y-40671857D02*
X64975237Y-40633762D01*
X64975237Y-40633762D02*
X65013333Y-40595666D01*
X65013333Y-40595666D02*
X65089523Y-40481381D01*
X65089523Y-40481381D02*
X65127618Y-40329000D01*
X65127618Y-40329000D02*
X65127618Y-40024238D01*
X65127618Y-40024238D02*
X65089523Y-39948047D01*
X65089523Y-39948047D02*
X65051428Y-39909952D01*
X65051428Y-39909952D02*
X64975237Y-39871857D01*
X64975237Y-39871857D02*
X64822856Y-39871857D01*
X64822856Y-39871857D02*
X64746666Y-39909952D01*
X64746666Y-39909952D02*
X64708571Y-39948047D01*
X64708571Y-39948047D02*
X64670475Y-40024238D01*
X64670475Y-40024238D02*
X64670475Y-40214714D01*
X64670475Y-40214714D02*
X64708571Y-40290904D01*
X64708571Y-40290904D02*
X64746666Y-40329000D01*
X64746666Y-40329000D02*
X64822856Y-40367095D01*
X64822856Y-40367095D02*
X64975237Y-40367095D01*
X64975237Y-40367095D02*
X65051428Y-40329000D01*
X65051428Y-40329000D02*
X65089523Y-40290904D01*
X65089523Y-40290904D02*
X65127618Y-40214714D01*
X10763333Y-11908545D02*
X10763333Y-12479973D01*
X10763333Y-12479973D02*
X10725238Y-12594259D01*
X10725238Y-12594259D02*
X10649047Y-12670450D01*
X10649047Y-12670450D02*
X10534762Y-12708545D01*
X10534762Y-12708545D02*
X10458571Y-12708545D01*
X11410952Y-12289497D02*
X11525238Y-12327592D01*
X11525238Y-12327592D02*
X11563333Y-12365688D01*
X11563333Y-12365688D02*
X11601429Y-12441878D01*
X11601429Y-12441878D02*
X11601429Y-12556164D01*
X11601429Y-12556164D02*
X11563333Y-12632354D01*
X11563333Y-12632354D02*
X11525238Y-12670450D01*
X11525238Y-12670450D02*
X11449048Y-12708545D01*
X11449048Y-12708545D02*
X11144286Y-12708545D01*
X11144286Y-12708545D02*
X11144286Y-11908545D01*
X11144286Y-11908545D02*
X11410952Y-11908545D01*
X11410952Y-11908545D02*
X11487143Y-11946640D01*
X11487143Y-11946640D02*
X11525238Y-11984735D01*
X11525238Y-11984735D02*
X11563333Y-12060926D01*
X11563333Y-12060926D02*
X11563333Y-12137116D01*
X11563333Y-12137116D02*
X11525238Y-12213307D01*
X11525238Y-12213307D02*
X11487143Y-12251402D01*
X11487143Y-12251402D02*
X11410952Y-12289497D01*
X11410952Y-12289497D02*
X11144286Y-12289497D01*
X12363333Y-12708545D02*
X11906190Y-12708545D01*
X12134762Y-12708545D02*
X12134762Y-11908545D01*
X12134762Y-11908545D02*
X12058571Y-12022830D01*
X12058571Y-12022830D02*
X11982381Y-12099021D01*
X11982381Y-12099021D02*
X11906190Y-12137116D01*
X47300714Y-4627294D02*
X47034047Y-4246341D01*
X46843571Y-4627294D02*
X46843571Y-3827294D01*
X46843571Y-3827294D02*
X47148333Y-3827294D01*
X47148333Y-3827294D02*
X47224523Y-3865389D01*
X47224523Y-3865389D02*
X47262618Y-3903484D01*
X47262618Y-3903484D02*
X47300714Y-3979675D01*
X47300714Y-3979675D02*
X47300714Y-4093960D01*
X47300714Y-4093960D02*
X47262618Y-4170151D01*
X47262618Y-4170151D02*
X47224523Y-4208246D01*
X47224523Y-4208246D02*
X47148333Y-4246341D01*
X47148333Y-4246341D02*
X46843571Y-4246341D01*
X48062618Y-4627294D02*
X47605475Y-4627294D01*
X47834047Y-4627294D02*
X47834047Y-3827294D01*
X47834047Y-3827294D02*
X47757856Y-3941579D01*
X47757856Y-3941579D02*
X47681666Y-4017770D01*
X47681666Y-4017770D02*
X47605475Y-4055865D01*
X48824523Y-4627294D02*
X48367380Y-4627294D01*
X48595952Y-4627294D02*
X48595952Y-3827294D01*
X48595952Y-3827294D02*
X48519761Y-3941579D01*
X48519761Y-3941579D02*
X48443571Y-4017770D01*
X48443571Y-4017770D02*
X48367380Y-4055865D01*
X14395714Y-27586045D02*
X14129047Y-27205092D01*
X13938571Y-27586045D02*
X13938571Y-26786045D01*
X13938571Y-26786045D02*
X14243333Y-26786045D01*
X14243333Y-26786045D02*
X14319523Y-26824140D01*
X14319523Y-26824140D02*
X14357618Y-26862235D01*
X14357618Y-26862235D02*
X14395714Y-26938426D01*
X14395714Y-26938426D02*
X14395714Y-27052711D01*
X14395714Y-27052711D02*
X14357618Y-27128902D01*
X14357618Y-27128902D02*
X14319523Y-27166997D01*
X14319523Y-27166997D02*
X14243333Y-27205092D01*
X14243333Y-27205092D02*
X13938571Y-27205092D01*
X14776666Y-27586045D02*
X14929047Y-27586045D01*
X14929047Y-27586045D02*
X15005237Y-27547950D01*
X15005237Y-27547950D02*
X15043333Y-27509854D01*
X15043333Y-27509854D02*
X15119523Y-27395569D01*
X15119523Y-27395569D02*
X15157618Y-27243188D01*
X15157618Y-27243188D02*
X15157618Y-26938426D01*
X15157618Y-26938426D02*
X15119523Y-26862235D01*
X15119523Y-26862235D02*
X15081428Y-26824140D01*
X15081428Y-26824140D02*
X15005237Y-26786045D01*
X15005237Y-26786045D02*
X14852856Y-26786045D01*
X14852856Y-26786045D02*
X14776666Y-26824140D01*
X14776666Y-26824140D02*
X14738571Y-26862235D01*
X14738571Y-26862235D02*
X14700475Y-26938426D01*
X14700475Y-26938426D02*
X14700475Y-27128902D01*
X14700475Y-27128902D02*
X14738571Y-27205092D01*
X14738571Y-27205092D02*
X14776666Y-27243188D01*
X14776666Y-27243188D02*
X14852856Y-27281283D01*
X14852856Y-27281283D02*
X15005237Y-27281283D01*
X15005237Y-27281283D02*
X15081428Y-27243188D01*
X15081428Y-27243188D02*
X15119523Y-27205092D01*
X15119523Y-27205092D02*
X15157618Y-27128902D01*
X36837619Y-25786104D02*
X36799523Y-25824200D01*
X36799523Y-25824200D02*
X36685238Y-25862295D01*
X36685238Y-25862295D02*
X36609047Y-25862295D01*
X36609047Y-25862295D02*
X36494761Y-25824200D01*
X36494761Y-25824200D02*
X36418571Y-25748009D01*
X36418571Y-25748009D02*
X36380476Y-25671819D01*
X36380476Y-25671819D02*
X36342380Y-25519438D01*
X36342380Y-25519438D02*
X36342380Y-25405152D01*
X36342380Y-25405152D02*
X36380476Y-25252771D01*
X36380476Y-25252771D02*
X36418571Y-25176580D01*
X36418571Y-25176580D02*
X36494761Y-25100390D01*
X36494761Y-25100390D02*
X36609047Y-25062295D01*
X36609047Y-25062295D02*
X36685238Y-25062295D01*
X36685238Y-25062295D02*
X36799523Y-25100390D01*
X36799523Y-25100390D02*
X36837619Y-25138485D01*
X37561428Y-25062295D02*
X37180476Y-25062295D01*
X37180476Y-25062295D02*
X37142380Y-25443247D01*
X37142380Y-25443247D02*
X37180476Y-25405152D01*
X37180476Y-25405152D02*
X37256666Y-25367057D01*
X37256666Y-25367057D02*
X37447142Y-25367057D01*
X37447142Y-25367057D02*
X37523333Y-25405152D01*
X37523333Y-25405152D02*
X37561428Y-25443247D01*
X37561428Y-25443247D02*
X37599523Y-25519438D01*
X37599523Y-25519438D02*
X37599523Y-25709914D01*
X37599523Y-25709914D02*
X37561428Y-25786104D01*
X37561428Y-25786104D02*
X37523333Y-25824200D01*
X37523333Y-25824200D02*
X37447142Y-25862295D01*
X37447142Y-25862295D02*
X37256666Y-25862295D01*
X37256666Y-25862295D02*
X37180476Y-25824200D01*
X37180476Y-25824200D02*
X37142380Y-25786104D01*
X23570476Y-47352294D02*
X23570476Y-46552294D01*
X23570476Y-46552294D02*
X23760952Y-46552294D01*
X23760952Y-46552294D02*
X23875238Y-46590389D01*
X23875238Y-46590389D02*
X23951428Y-46666579D01*
X23951428Y-46666579D02*
X23989523Y-46742770D01*
X23989523Y-46742770D02*
X24027619Y-46895151D01*
X24027619Y-46895151D02*
X24027619Y-47009437D01*
X24027619Y-47009437D02*
X23989523Y-47161818D01*
X23989523Y-47161818D02*
X23951428Y-47238008D01*
X23951428Y-47238008D02*
X23875238Y-47314199D01*
X23875238Y-47314199D02*
X23760952Y-47352294D01*
X23760952Y-47352294D02*
X23570476Y-47352294D01*
X24751428Y-46552294D02*
X24370476Y-46552294D01*
X24370476Y-46552294D02*
X24332380Y-46933246D01*
X24332380Y-46933246D02*
X24370476Y-46895151D01*
X24370476Y-46895151D02*
X24446666Y-46857056D01*
X24446666Y-46857056D02*
X24637142Y-46857056D01*
X24637142Y-46857056D02*
X24713333Y-46895151D01*
X24713333Y-46895151D02*
X24751428Y-46933246D01*
X24751428Y-46933246D02*
X24789523Y-47009437D01*
X24789523Y-47009437D02*
X24789523Y-47199913D01*
X24789523Y-47199913D02*
X24751428Y-47276103D01*
X24751428Y-47276103D02*
X24713333Y-47314199D01*
X24713333Y-47314199D02*
X24637142Y-47352294D01*
X24637142Y-47352294D02*
X24446666Y-47352294D01*
X24446666Y-47352294D02*
X24370476Y-47314199D01*
X24370476Y-47314199D02*
X24332380Y-47276103D01*
X28337618Y-7182295D02*
X28337618Y-7753723D01*
X28337618Y-7753723D02*
X28299523Y-7868009D01*
X28299523Y-7868009D02*
X28223332Y-7944200D01*
X28223332Y-7944200D02*
X28109047Y-7982295D01*
X28109047Y-7982295D02*
X28032856Y-7982295D01*
X28642380Y-7182295D02*
X29137618Y-7182295D01*
X29137618Y-7182295D02*
X28870952Y-7487057D01*
X28870952Y-7487057D02*
X28985237Y-7487057D01*
X28985237Y-7487057D02*
X29061428Y-7525152D01*
X29061428Y-7525152D02*
X29099523Y-7563247D01*
X29099523Y-7563247D02*
X29137618Y-7639438D01*
X29137618Y-7639438D02*
X29137618Y-7829914D01*
X29137618Y-7829914D02*
X29099523Y-7906104D01*
X29099523Y-7906104D02*
X29061428Y-7944200D01*
X29061428Y-7944200D02*
X28985237Y-7982295D01*
X28985237Y-7982295D02*
X28756666Y-7982295D01*
X28756666Y-7982295D02*
X28680475Y-7944200D01*
X28680475Y-7944200D02*
X28642380Y-7906104D01*
X23927619Y-45280420D02*
X23660952Y-44899467D01*
X23470476Y-45280420D02*
X23470476Y-44480420D01*
X23470476Y-44480420D02*
X23775238Y-44480420D01*
X23775238Y-44480420D02*
X23851428Y-44518515D01*
X23851428Y-44518515D02*
X23889523Y-44556610D01*
X23889523Y-44556610D02*
X23927619Y-44632801D01*
X23927619Y-44632801D02*
X23927619Y-44747086D01*
X23927619Y-44747086D02*
X23889523Y-44823277D01*
X23889523Y-44823277D02*
X23851428Y-44861372D01*
X23851428Y-44861372D02*
X23775238Y-44899467D01*
X23775238Y-44899467D02*
X23470476Y-44899467D01*
X24651428Y-44480420D02*
X24270476Y-44480420D01*
X24270476Y-44480420D02*
X24232380Y-44861372D01*
X24232380Y-44861372D02*
X24270476Y-44823277D01*
X24270476Y-44823277D02*
X24346666Y-44785182D01*
X24346666Y-44785182D02*
X24537142Y-44785182D01*
X24537142Y-44785182D02*
X24613333Y-44823277D01*
X24613333Y-44823277D02*
X24651428Y-44861372D01*
X24651428Y-44861372D02*
X24689523Y-44937563D01*
X24689523Y-44937563D02*
X24689523Y-45128039D01*
X24689523Y-45128039D02*
X24651428Y-45204229D01*
X24651428Y-45204229D02*
X24613333Y-45242325D01*
X24613333Y-45242325D02*
X24537142Y-45280420D01*
X24537142Y-45280420D02*
X24346666Y-45280420D01*
X24346666Y-45280420D02*
X24270476Y-45242325D01*
X24270476Y-45242325D02*
X24232380Y-45204229D01*
X37192970Y-32266045D02*
X37650113Y-32266045D01*
X37421541Y-33066045D02*
X37421541Y-32266045D01*
X37916780Y-33066045D02*
X37916780Y-32266045D01*
X37916780Y-32266045D02*
X38221542Y-32266045D01*
X38221542Y-32266045D02*
X38297732Y-32304140D01*
X38297732Y-32304140D02*
X38335827Y-32342235D01*
X38335827Y-32342235D02*
X38373923Y-32418426D01*
X38373923Y-32418426D02*
X38373923Y-32532711D01*
X38373923Y-32532711D02*
X38335827Y-32608902D01*
X38335827Y-32608902D02*
X38297732Y-32646997D01*
X38297732Y-32646997D02*
X38221542Y-32685092D01*
X38221542Y-32685092D02*
X37916780Y-32685092D01*
X38678684Y-32342235D02*
X38716780Y-32304140D01*
X38716780Y-32304140D02*
X38792970Y-32266045D01*
X38792970Y-32266045D02*
X38983446Y-32266045D01*
X38983446Y-32266045D02*
X39059637Y-32304140D01*
X39059637Y-32304140D02*
X39097732Y-32342235D01*
X39097732Y-32342235D02*
X39135827Y-32418426D01*
X39135827Y-32418426D02*
X39135827Y-32494616D01*
X39135827Y-32494616D02*
X39097732Y-32608902D01*
X39097732Y-32608902D02*
X38640589Y-33066045D01*
X38640589Y-33066045D02*
X39135827Y-33066045D01*
X30737618Y-28536103D02*
X30699522Y-28574199D01*
X30699522Y-28574199D02*
X30585237Y-28612294D01*
X30585237Y-28612294D02*
X30509046Y-28612294D01*
X30509046Y-28612294D02*
X30394760Y-28574199D01*
X30394760Y-28574199D02*
X30318570Y-28498008D01*
X30318570Y-28498008D02*
X30280475Y-28421818D01*
X30280475Y-28421818D02*
X30242379Y-28269437D01*
X30242379Y-28269437D02*
X30242379Y-28155151D01*
X30242379Y-28155151D02*
X30280475Y-28002770D01*
X30280475Y-28002770D02*
X30318570Y-27926579D01*
X30318570Y-27926579D02*
X30394760Y-27850389D01*
X30394760Y-27850389D02*
X30509046Y-27812294D01*
X30509046Y-27812294D02*
X30585237Y-27812294D01*
X30585237Y-27812294D02*
X30699522Y-27850389D01*
X30699522Y-27850389D02*
X30737618Y-27888484D01*
X31499522Y-28612294D02*
X31042379Y-28612294D01*
X31270951Y-28612294D02*
X31270951Y-27812294D01*
X31270951Y-27812294D02*
X31194760Y-27926579D01*
X31194760Y-27926579D02*
X31118570Y-28002770D01*
X31118570Y-28002770D02*
X31042379Y-28040865D01*
X31927619Y-31086045D02*
X31660952Y-30705092D01*
X31470476Y-31086045D02*
X31470476Y-30286045D01*
X31470476Y-30286045D02*
X31775238Y-30286045D01*
X31775238Y-30286045D02*
X31851428Y-30324140D01*
X31851428Y-30324140D02*
X31889523Y-30362235D01*
X31889523Y-30362235D02*
X31927619Y-30438426D01*
X31927619Y-30438426D02*
X31927619Y-30552711D01*
X31927619Y-30552711D02*
X31889523Y-30628902D01*
X31889523Y-30628902D02*
X31851428Y-30666997D01*
X31851428Y-30666997D02*
X31775238Y-30705092D01*
X31775238Y-30705092D02*
X31470476Y-30705092D01*
X32613333Y-30286045D02*
X32460952Y-30286045D01*
X32460952Y-30286045D02*
X32384761Y-30324140D01*
X32384761Y-30324140D02*
X32346666Y-30362235D01*
X32346666Y-30362235D02*
X32270476Y-30476521D01*
X32270476Y-30476521D02*
X32232380Y-30628902D01*
X32232380Y-30628902D02*
X32232380Y-30933664D01*
X32232380Y-30933664D02*
X32270476Y-31009854D01*
X32270476Y-31009854D02*
X32308571Y-31047950D01*
X32308571Y-31047950D02*
X32384761Y-31086045D01*
X32384761Y-31086045D02*
X32537142Y-31086045D01*
X32537142Y-31086045D02*
X32613333Y-31047950D01*
X32613333Y-31047950D02*
X32651428Y-31009854D01*
X32651428Y-31009854D02*
X32689523Y-30933664D01*
X32689523Y-30933664D02*
X32689523Y-30743188D01*
X32689523Y-30743188D02*
X32651428Y-30666997D01*
X32651428Y-30666997D02*
X32613333Y-30628902D01*
X32613333Y-30628902D02*
X32537142Y-30590807D01*
X32537142Y-30590807D02*
X32384761Y-30590807D01*
X32384761Y-30590807D02*
X32308571Y-30628902D01*
X32308571Y-30628902D02*
X32270476Y-30666997D01*
X32270476Y-30666997D02*
X32232380Y-30743188D01*
X19989222Y-5589794D02*
X20446365Y-5589794D01*
X20217793Y-6389794D02*
X20217793Y-5589794D01*
X20713032Y-6389794D02*
X20713032Y-5589794D01*
X20713032Y-5589794D02*
X21017794Y-5589794D01*
X21017794Y-5589794D02*
X21093984Y-5627889D01*
X21093984Y-5627889D02*
X21132079Y-5665984D01*
X21132079Y-5665984D02*
X21170175Y-5742175D01*
X21170175Y-5742175D02*
X21170175Y-5856460D01*
X21170175Y-5856460D02*
X21132079Y-5932651D01*
X21132079Y-5932651D02*
X21093984Y-5970746D01*
X21093984Y-5970746D02*
X21017794Y-6008841D01*
X21017794Y-6008841D02*
X20713032Y-6008841D01*
X21893984Y-5589794D02*
X21513032Y-5589794D01*
X21513032Y-5589794D02*
X21474936Y-5970746D01*
X21474936Y-5970746D02*
X21513032Y-5932651D01*
X21513032Y-5932651D02*
X21589222Y-5894556D01*
X21589222Y-5894556D02*
X21779698Y-5894556D01*
X21779698Y-5894556D02*
X21855889Y-5932651D01*
X21855889Y-5932651D02*
X21893984Y-5970746D01*
X21893984Y-5970746D02*
X21932079Y-6046937D01*
X21932079Y-6046937D02*
X21932079Y-6237413D01*
X21932079Y-6237413D02*
X21893984Y-6313603D01*
X21893984Y-6313603D02*
X21855889Y-6351699D01*
X21855889Y-6351699D02*
X21779698Y-6389794D01*
X21779698Y-6389794D02*
X21589222Y-6389794D01*
X21589222Y-6389794D02*
X21513032Y-6351699D01*
X21513032Y-6351699D02*
X21474936Y-6313603D01*
X60054285Y-5478545D02*
X60587619Y-6278545D01*
X60587619Y-5478545D02*
X60054285Y-6278545D01*
X61311428Y-6278545D02*
X60854285Y-6278545D01*
X61082857Y-6278545D02*
X61082857Y-5478545D01*
X61082857Y-5478545D02*
X61006666Y-5592830D01*
X61006666Y-5592830D02*
X60930476Y-5669021D01*
X60930476Y-5669021D02*
X60854285Y-5707116D01*
X49250390Y-2330476D02*
X49212295Y-2406666D01*
X49212295Y-2406666D02*
X49212295Y-2520952D01*
X49212295Y-2520952D02*
X49250390Y-2635238D01*
X49250390Y-2635238D02*
X49326580Y-2711428D01*
X49326580Y-2711428D02*
X49402771Y-2749523D01*
X49402771Y-2749523D02*
X49555152Y-2787619D01*
X49555152Y-2787619D02*
X49669438Y-2787619D01*
X49669438Y-2787619D02*
X49821819Y-2749523D01*
X49821819Y-2749523D02*
X49898009Y-2711428D01*
X49898009Y-2711428D02*
X49974200Y-2635238D01*
X49974200Y-2635238D02*
X50012295Y-2520952D01*
X50012295Y-2520952D02*
X50012295Y-2444761D01*
X50012295Y-2444761D02*
X49974200Y-2330476D01*
X49974200Y-2330476D02*
X49936104Y-2292380D01*
X49936104Y-2292380D02*
X49669438Y-2292380D01*
X49669438Y-2292380D02*
X49669438Y-2444761D01*
D11*
X58786226Y-3006666D02*
X60186226Y-2073332D01*
X58786226Y-2073332D02*
X60186226Y-3006666D01*
D10*
X42368332Y-44179200D02*
X42482618Y-44217295D01*
X42482618Y-44217295D02*
X42673094Y-44217295D01*
X42673094Y-44217295D02*
X42749285Y-44179200D01*
X42749285Y-44179200D02*
X42787380Y-44141104D01*
X42787380Y-44141104D02*
X42825475Y-44064914D01*
X42825475Y-44064914D02*
X42825475Y-43988723D01*
X42825475Y-43988723D02*
X42787380Y-43912533D01*
X42787380Y-43912533D02*
X42749285Y-43874438D01*
X42749285Y-43874438D02*
X42673094Y-43836342D01*
X42673094Y-43836342D02*
X42520713Y-43798247D01*
X42520713Y-43798247D02*
X42444523Y-43760152D01*
X42444523Y-43760152D02*
X42406428Y-43722057D01*
X42406428Y-43722057D02*
X42368332Y-43645866D01*
X42368332Y-43645866D02*
X42368332Y-43569676D01*
X42368332Y-43569676D02*
X42406428Y-43493485D01*
X42406428Y-43493485D02*
X42444523Y-43455390D01*
X42444523Y-43455390D02*
X42520713Y-43417295D01*
X42520713Y-43417295D02*
X42711190Y-43417295D01*
X42711190Y-43417295D02*
X42825475Y-43455390D01*
X43092142Y-43417295D02*
X43282618Y-44217295D01*
X43282618Y-44217295D02*
X43434999Y-43645866D01*
X43434999Y-43645866D02*
X43587380Y-44217295D01*
X43587380Y-44217295D02*
X43777857Y-43417295D01*
X44501666Y-44217295D02*
X44044523Y-44217295D01*
X44273095Y-44217295D02*
X44273095Y-43417295D01*
X44273095Y-43417295D02*
X44196904Y-43531580D01*
X44196904Y-43531580D02*
X44120714Y-43607771D01*
X44120714Y-43607771D02*
X44044523Y-43645866D01*
X47758571Y-43862295D02*
X47301428Y-43862295D01*
X47530000Y-43862295D02*
X47530000Y-43062295D01*
X47530000Y-43062295D02*
X47453809Y-43176580D01*
X47453809Y-43176580D02*
X47377619Y-43252771D01*
X47377619Y-43252771D02*
X47301428Y-43290866D01*
X28031818Y-14114810D02*
X28031818Y-14686238D01*
X28031818Y-14686238D02*
X27993723Y-14800524D01*
X27993723Y-14800524D02*
X27917532Y-14876715D01*
X27917532Y-14876715D02*
X27803247Y-14914810D01*
X27803247Y-14914810D02*
X27727056Y-14914810D01*
X28374675Y-14191000D02*
X28412771Y-14152905D01*
X28412771Y-14152905D02*
X28488961Y-14114810D01*
X28488961Y-14114810D02*
X28679437Y-14114810D01*
X28679437Y-14114810D02*
X28755628Y-14152905D01*
X28755628Y-14152905D02*
X28793723Y-14191000D01*
X28793723Y-14191000D02*
X28831818Y-14267191D01*
X28831818Y-14267191D02*
X28831818Y-14343381D01*
X28831818Y-14343381D02*
X28793723Y-14457667D01*
X28793723Y-14457667D02*
X28336580Y-14914810D01*
X28336580Y-14914810D02*
X28831818Y-14914810D01*
X14395714Y-30174229D02*
X14357618Y-30212325D01*
X14357618Y-30212325D02*
X14243333Y-30250420D01*
X14243333Y-30250420D02*
X14167142Y-30250420D01*
X14167142Y-30250420D02*
X14052856Y-30212325D01*
X14052856Y-30212325D02*
X13976666Y-30136134D01*
X13976666Y-30136134D02*
X13938571Y-30059944D01*
X13938571Y-30059944D02*
X13900475Y-29907563D01*
X13900475Y-29907563D02*
X13900475Y-29793277D01*
X13900475Y-29793277D02*
X13938571Y-29640896D01*
X13938571Y-29640896D02*
X13976666Y-29564705D01*
X13976666Y-29564705D02*
X14052856Y-29488515D01*
X14052856Y-29488515D02*
X14167142Y-29450420D01*
X14167142Y-29450420D02*
X14243333Y-29450420D01*
X14243333Y-29450420D02*
X14357618Y-29488515D01*
X14357618Y-29488515D02*
X14395714Y-29526610D01*
X14700475Y-29526610D02*
X14738571Y-29488515D01*
X14738571Y-29488515D02*
X14814761Y-29450420D01*
X14814761Y-29450420D02*
X15005237Y-29450420D01*
X15005237Y-29450420D02*
X15081428Y-29488515D01*
X15081428Y-29488515D02*
X15119523Y-29526610D01*
X15119523Y-29526610D02*
X15157618Y-29602801D01*
X15157618Y-29602801D02*
X15157618Y-29678991D01*
X15157618Y-29678991D02*
X15119523Y-29793277D01*
X15119523Y-29793277D02*
X14662380Y-30250420D01*
X14662380Y-30250420D02*
X15157618Y-30250420D01*
X16927619Y-6810420D02*
X16660952Y-6429467D01*
X16470476Y-6810420D02*
X16470476Y-6010420D01*
X16470476Y-6010420D02*
X16775238Y-6010420D01*
X16775238Y-6010420D02*
X16851428Y-6048515D01*
X16851428Y-6048515D02*
X16889523Y-6086610D01*
X16889523Y-6086610D02*
X16927619Y-6162801D01*
X16927619Y-6162801D02*
X16927619Y-6277086D01*
X16927619Y-6277086D02*
X16889523Y-6353277D01*
X16889523Y-6353277D02*
X16851428Y-6391372D01*
X16851428Y-6391372D02*
X16775238Y-6429467D01*
X16775238Y-6429467D02*
X16470476Y-6429467D01*
X17689523Y-6810420D02*
X17232380Y-6810420D01*
X17460952Y-6810420D02*
X17460952Y-6010420D01*
X17460952Y-6010420D02*
X17384761Y-6124705D01*
X17384761Y-6124705D02*
X17308571Y-6200896D01*
X17308571Y-6200896D02*
X17232380Y-6238991D01*
X2273333Y-34368545D02*
X2273333Y-34939973D01*
X2273333Y-34939973D02*
X2235238Y-35054259D01*
X2235238Y-35054259D02*
X2159047Y-35130450D01*
X2159047Y-35130450D02*
X2044762Y-35168545D01*
X2044762Y-35168545D02*
X1968571Y-35168545D01*
X2578095Y-34368545D02*
X3111429Y-34368545D01*
X3111429Y-34368545D02*
X2768571Y-35168545D01*
X55213332Y-30178545D02*
X55213332Y-30749973D01*
X55213332Y-30749973D02*
X55175237Y-30864259D01*
X55175237Y-30864259D02*
X55099046Y-30940450D01*
X55099046Y-30940450D02*
X54984761Y-30978545D01*
X54984761Y-30978545D02*
X54908570Y-30978545D01*
X55594285Y-30978545D02*
X55594285Y-30178545D01*
X55594285Y-30178545D02*
X55899047Y-30178545D01*
X55899047Y-30178545D02*
X55975237Y-30216640D01*
X55975237Y-30216640D02*
X56013332Y-30254735D01*
X56013332Y-30254735D02*
X56051428Y-30330926D01*
X56051428Y-30330926D02*
X56051428Y-30445211D01*
X56051428Y-30445211D02*
X56013332Y-30521402D01*
X56013332Y-30521402D02*
X55975237Y-30559497D01*
X55975237Y-30559497D02*
X55899047Y-30597592D01*
X55899047Y-30597592D02*
X55594285Y-30597592D01*
X56813332Y-30978545D02*
X56356189Y-30978545D01*
X56584761Y-30978545D02*
X56584761Y-30178545D01*
X56584761Y-30178545D02*
X56508570Y-30292830D01*
X56508570Y-30292830D02*
X56432380Y-30369021D01*
X56432380Y-30369021D02*
X56356189Y-30407116D01*
X3693808Y-37724734D02*
X3617618Y-37686639D01*
X3617618Y-37686639D02*
X3541427Y-37610449D01*
X3541427Y-37610449D02*
X3427141Y-37496163D01*
X3427141Y-37496163D02*
X3350951Y-37458068D01*
X3350951Y-37458068D02*
X3274760Y-37458068D01*
X3312856Y-37648544D02*
X3236665Y-37610449D01*
X3236665Y-37610449D02*
X3160475Y-37534258D01*
X3160475Y-37534258D02*
X3122379Y-37381877D01*
X3122379Y-37381877D02*
X3122379Y-37115210D01*
X3122379Y-37115210D02*
X3160475Y-36962829D01*
X3160475Y-36962829D02*
X3236665Y-36886639D01*
X3236665Y-36886639D02*
X3312856Y-36848544D01*
X3312856Y-36848544D02*
X3465237Y-36848544D01*
X3465237Y-36848544D02*
X3541427Y-36886639D01*
X3541427Y-36886639D02*
X3617618Y-36962829D01*
X3617618Y-36962829D02*
X3655713Y-37115210D01*
X3655713Y-37115210D02*
X3655713Y-37381877D01*
X3655713Y-37381877D02*
X3617618Y-37534258D01*
X3617618Y-37534258D02*
X3541427Y-37610449D01*
X3541427Y-37610449D02*
X3465237Y-37648544D01*
X3465237Y-37648544D02*
X3312856Y-37648544D01*
X3960474Y-36924734D02*
X3998570Y-36886639D01*
X3998570Y-36886639D02*
X4074760Y-36848544D01*
X4074760Y-36848544D02*
X4265236Y-36848544D01*
X4265236Y-36848544D02*
X4341427Y-36886639D01*
X4341427Y-36886639D02*
X4379522Y-36924734D01*
X4379522Y-36924734D02*
X4417617Y-37000925D01*
X4417617Y-37000925D02*
X4417617Y-37077115D01*
X4417617Y-37077115D02*
X4379522Y-37191401D01*
X4379522Y-37191401D02*
X3922379Y-37648544D01*
X3922379Y-37648544D02*
X4417617Y-37648544D01*
X45960476Y-16562295D02*
X45960476Y-15762295D01*
X45960476Y-15762295D02*
X46150952Y-15762295D01*
X46150952Y-15762295D02*
X46265238Y-15800390D01*
X46265238Y-15800390D02*
X46341428Y-15876580D01*
X46341428Y-15876580D02*
X46379523Y-15952771D01*
X46379523Y-15952771D02*
X46417619Y-16105152D01*
X46417619Y-16105152D02*
X46417619Y-16219438D01*
X46417619Y-16219438D02*
X46379523Y-16371819D01*
X46379523Y-16371819D02*
X46341428Y-16448009D01*
X46341428Y-16448009D02*
X46265238Y-16524200D01*
X46265238Y-16524200D02*
X46150952Y-16562295D01*
X46150952Y-16562295D02*
X45960476Y-16562295D01*
X46722380Y-15838485D02*
X46760476Y-15800390D01*
X46760476Y-15800390D02*
X46836666Y-15762295D01*
X46836666Y-15762295D02*
X47027142Y-15762295D01*
X47027142Y-15762295D02*
X47103333Y-15800390D01*
X47103333Y-15800390D02*
X47141428Y-15838485D01*
X47141428Y-15838485D02*
X47179523Y-15914676D01*
X47179523Y-15914676D02*
X47179523Y-15990866D01*
X47179523Y-15990866D02*
X47141428Y-16105152D01*
X47141428Y-16105152D02*
X46684285Y-16562295D01*
X46684285Y-16562295D02*
X47179523Y-16562295D01*
X58413333Y-38936045D02*
X58413333Y-39507473D01*
X58413333Y-39507473D02*
X58375238Y-39621759D01*
X58375238Y-39621759D02*
X58299047Y-39697950D01*
X58299047Y-39697950D02*
X58184762Y-39736045D01*
X58184762Y-39736045D02*
X58108571Y-39736045D01*
X58908571Y-39278902D02*
X58832381Y-39240807D01*
X58832381Y-39240807D02*
X58794286Y-39202711D01*
X58794286Y-39202711D02*
X58756190Y-39126521D01*
X58756190Y-39126521D02*
X58756190Y-39088426D01*
X58756190Y-39088426D02*
X58794286Y-39012235D01*
X58794286Y-39012235D02*
X58832381Y-38974140D01*
X58832381Y-38974140D02*
X58908571Y-38936045D01*
X58908571Y-38936045D02*
X59060952Y-38936045D01*
X59060952Y-38936045D02*
X59137143Y-38974140D01*
X59137143Y-38974140D02*
X59175238Y-39012235D01*
X59175238Y-39012235D02*
X59213333Y-39088426D01*
X59213333Y-39088426D02*
X59213333Y-39126521D01*
X59213333Y-39126521D02*
X59175238Y-39202711D01*
X59175238Y-39202711D02*
X59137143Y-39240807D01*
X59137143Y-39240807D02*
X59060952Y-39278902D01*
X59060952Y-39278902D02*
X58908571Y-39278902D01*
X58908571Y-39278902D02*
X58832381Y-39316997D01*
X58832381Y-39316997D02*
X58794286Y-39355092D01*
X58794286Y-39355092D02*
X58756190Y-39431283D01*
X58756190Y-39431283D02*
X58756190Y-39583664D01*
X58756190Y-39583664D02*
X58794286Y-39659854D01*
X58794286Y-39659854D02*
X58832381Y-39697950D01*
X58832381Y-39697950D02*
X58908571Y-39736045D01*
X58908571Y-39736045D02*
X59060952Y-39736045D01*
X59060952Y-39736045D02*
X59137143Y-39697950D01*
X59137143Y-39697950D02*
X59175238Y-39659854D01*
X59175238Y-39659854D02*
X59213333Y-39583664D01*
X59213333Y-39583664D02*
X59213333Y-39431283D01*
X59213333Y-39431283D02*
X59175238Y-39355092D01*
X59175238Y-39355092D02*
X59137143Y-39316997D01*
X59137143Y-39316997D02*
X59060952Y-39278902D01*
X63565713Y-22994308D02*
X63565713Y-23565736D01*
X63565713Y-23565736D02*
X63527618Y-23680022D01*
X63527618Y-23680022D02*
X63451427Y-23756213D01*
X63451427Y-23756213D02*
X63337142Y-23794308D01*
X63337142Y-23794308D02*
X63260951Y-23794308D01*
X64365713Y-23794308D02*
X63908570Y-23794308D01*
X64137142Y-23794308D02*
X64137142Y-22994308D01*
X64137142Y-22994308D02*
X64060951Y-23108593D01*
X64060951Y-23108593D02*
X63984761Y-23184784D01*
X63984761Y-23184784D02*
X63908570Y-23222879D01*
X64860952Y-22994308D02*
X64937142Y-22994308D01*
X64937142Y-22994308D02*
X65013333Y-23032403D01*
X65013333Y-23032403D02*
X65051428Y-23070498D01*
X65051428Y-23070498D02*
X65089523Y-23146689D01*
X65089523Y-23146689D02*
X65127618Y-23299070D01*
X65127618Y-23299070D02*
X65127618Y-23489546D01*
X65127618Y-23489546D02*
X65089523Y-23641927D01*
X65089523Y-23641927D02*
X65051428Y-23718117D01*
X65051428Y-23718117D02*
X65013333Y-23756213D01*
X65013333Y-23756213D02*
X64937142Y-23794308D01*
X64937142Y-23794308D02*
X64860952Y-23794308D01*
X64860952Y-23794308D02*
X64784761Y-23756213D01*
X64784761Y-23756213D02*
X64746666Y-23718117D01*
X64746666Y-23718117D02*
X64708571Y-23641927D01*
X64708571Y-23641927D02*
X64670475Y-23489546D01*
X64670475Y-23489546D02*
X64670475Y-23299070D01*
X64670475Y-23299070D02*
X64708571Y-23146689D01*
X64708571Y-23146689D02*
X64746666Y-23070498D01*
X64746666Y-23070498D02*
X64784761Y-23032403D01*
X64784761Y-23032403D02*
X64860952Y-22994308D01*
X63272255Y-19888544D02*
X63729398Y-19888544D01*
X63500826Y-20688544D02*
X63500826Y-19888544D01*
X63996065Y-20688544D02*
X63996065Y-19888544D01*
X63996065Y-19888544D02*
X64300827Y-19888544D01*
X64300827Y-19888544D02*
X64377017Y-19926639D01*
X64377017Y-19926639D02*
X64415112Y-19964734D01*
X64415112Y-19964734D02*
X64453208Y-20040925D01*
X64453208Y-20040925D02*
X64453208Y-20155210D01*
X64453208Y-20155210D02*
X64415112Y-20231401D01*
X64415112Y-20231401D02*
X64377017Y-20269496D01*
X64377017Y-20269496D02*
X64300827Y-20307591D01*
X64300827Y-20307591D02*
X63996065Y-20307591D01*
X65215112Y-20688544D02*
X64757969Y-20688544D01*
X64986541Y-20688544D02*
X64986541Y-19888544D01*
X64986541Y-19888544D02*
X64910350Y-20002829D01*
X64910350Y-20002829D02*
X64834160Y-20079020D01*
X64834160Y-20079020D02*
X64757969Y-20117115D01*
X35729166Y-31086045D02*
X35462499Y-30705092D01*
X35272023Y-31086045D02*
X35272023Y-30286045D01*
X35272023Y-30286045D02*
X35576785Y-30286045D01*
X35576785Y-30286045D02*
X35652975Y-30324140D01*
X35652975Y-30324140D02*
X35691070Y-30362235D01*
X35691070Y-30362235D02*
X35729166Y-30438426D01*
X35729166Y-30438426D02*
X35729166Y-30552711D01*
X35729166Y-30552711D02*
X35691070Y-30628902D01*
X35691070Y-30628902D02*
X35652975Y-30666997D01*
X35652975Y-30666997D02*
X35576785Y-30705092D01*
X35576785Y-30705092D02*
X35272023Y-30705092D01*
X36491070Y-31086045D02*
X36033927Y-31086045D01*
X36262499Y-31086045D02*
X36262499Y-30286045D01*
X36262499Y-30286045D02*
X36186308Y-30400330D01*
X36186308Y-30400330D02*
X36110118Y-30476521D01*
X36110118Y-30476521D02*
X36033927Y-30514616D01*
X36795832Y-30362235D02*
X36833928Y-30324140D01*
X36833928Y-30324140D02*
X36910118Y-30286045D01*
X36910118Y-30286045D02*
X37100594Y-30286045D01*
X37100594Y-30286045D02*
X37176785Y-30324140D01*
X37176785Y-30324140D02*
X37214880Y-30362235D01*
X37214880Y-30362235D02*
X37252975Y-30438426D01*
X37252975Y-30438426D02*
X37252975Y-30514616D01*
X37252975Y-30514616D02*
X37214880Y-30628902D01*
X37214880Y-30628902D02*
X36757737Y-31086045D01*
X36757737Y-31086045D02*
X37252975Y-31086045D01*
X2390475Y-38848545D02*
X2390475Y-39496164D01*
X2390475Y-39496164D02*
X2428570Y-39572354D01*
X2428570Y-39572354D02*
X2466665Y-39610450D01*
X2466665Y-39610450D02*
X2542856Y-39648545D01*
X2542856Y-39648545D02*
X2695237Y-39648545D01*
X2695237Y-39648545D02*
X2771427Y-39610450D01*
X2771427Y-39610450D02*
X2809522Y-39572354D01*
X2809522Y-39572354D02*
X2847618Y-39496164D01*
X2847618Y-39496164D02*
X2847618Y-38848545D01*
X3647617Y-39648545D02*
X3190474Y-39648545D01*
X3419046Y-39648545D02*
X3419046Y-38848545D01*
X3419046Y-38848545D02*
X3342855Y-38962830D01*
X3342855Y-38962830D02*
X3266665Y-39039021D01*
X3266665Y-39039021D02*
X3190474Y-39077116D01*
D12*
X16370000Y-37000000D02*
X16440000Y-37000000D01*
X16370000Y-37000000D02*
G75*
G02*
X13630000Y-37000000I-1370000J0D01*
G01*
X13630000Y-37000000D02*
G75*
G02*
X16370000Y-37000000I1370000J0D01*
G01*
X32050000Y-37000000D02*
X32050000Y-49600000D01*
X32050000Y-37000000D02*
X41550000Y-37000000D01*
X41550000Y-37000000D02*
X41550000Y-49600000D01*
X57250000Y-6350000D02*
X57320000Y-6350000D01*
X57250000Y-6350000D02*
G75*
G02*
X54510000Y-6350000I-1370000J0D01*
G01*
X54510000Y-6350000D02*
G75*
G02*
X57250000Y-6350000I1370000J0D01*
G01*
X59130000Y-8130000D02*
X61870000Y-8130000D01*
X59130000Y-13370000D02*
X59130000Y-8130000D01*
X61870000Y-8130000D02*
X61870000Y-13370000D01*
X61870000Y-13370000D02*
X59130000Y-13370000D01*
X16370000Y-33500000D02*
X16440000Y-33500000D01*
X16370000Y-33500000D02*
G75*
G02*
X13630000Y-33500000I-1370000J0D01*
G01*
X13630000Y-33500000D02*
G75*
G02*
X16370000Y-33500000I1370000J0D01*
G01*
X9610000Y-45754000D02*
X9610000Y-45910000D01*
X9610000Y-48070000D02*
X9610000Y-48226000D01*
X9610000Y-45754484D02*
G75*
G02*
X12841437Y-45910000I1560000J-1235516D01*
G01*
X10129039Y-45910000D02*
G75*
G02*
X12210961Y-45910000I1040961J-1080000D01*
G01*
X12210961Y-48070000D02*
G75*
G02*
X10129039Y-48070000I-1040961J1080000D01*
G01*
X12841437Y-48070000D02*
G75*
G02*
X9610000Y-48225516I-1671437J1080000D01*
G01*
X21250000Y-44500000D02*
X21250000Y-46000000D01*
X22500000Y-48500000D02*
X27000000Y-48500000D01*
X27000000Y-42000000D02*
X22500000Y-42000000D01*
X28250000Y-46000000D02*
X28250000Y-44500000D01*
X59840000Y-20470000D02*
X62080000Y-20470000D01*
X59840000Y-20590000D02*
X62080000Y-20590000D01*
X59840000Y-20710000D02*
X62080000Y-20710000D01*
X60960000Y-16420000D02*
X60960000Y-17070000D01*
X60960000Y-21960000D02*
X60960000Y-21310000D01*
X59840000Y-17070000D02*
X62080000Y-17070000D01*
X62080000Y-21310000D01*
X59840000Y-21310000D01*
X59840000Y-17070000D01*
X21950000Y-37500000D02*
G75*
G02*
X20050000Y-37500000I-950000J0D01*
G01*
X20050000Y-37500000D02*
G75*
G02*
X21950000Y-37500000I950000J0D01*
G01*
X1192068Y-23209932D02*
X1192068Y-25869932D01*
X19032068Y-23209932D02*
X1192068Y-23209932D01*
X19032068Y-23209932D02*
X19032068Y-25869932D01*
X19032068Y-25869932D02*
X1192068Y-25869932D01*
X21632068Y-24539932D02*
X21632068Y-25869932D01*
X21632068Y-25869932D02*
X20302068Y-25869932D01*
X47540000Y-23000000D02*
X48190000Y-23000000D01*
X48790000Y-21880000D02*
X48790000Y-24120000D01*
X48910000Y-21880000D02*
X48910000Y-24120000D01*
X49030000Y-21880000D02*
X49030000Y-24120000D01*
X53080000Y-23000000D02*
X52430000Y-23000000D01*
X48190000Y-21880000D02*
X52430000Y-21880000D01*
X52430000Y-24120000D01*
X48190000Y-24120000D01*
X48190000Y-21880000D01*
X64710000Y-10660000D02*
X64710000Y-15800000D01*
X64710000Y-10660000D02*
X67370000Y-10660000D01*
X64710000Y-15800000D02*
X67370000Y-15800000D01*
X66040000Y-8060000D02*
X67370000Y-8060000D01*
X67370000Y-8060000D02*
X67370000Y-9390000D01*
X67370000Y-10660000D02*
X67370000Y-15800000D01*
X38450000Y-28000000D02*
G75*
G02*
X36550000Y-28000000I-950000J0D01*
G01*
X36550000Y-28000000D02*
G75*
G02*
X38450000Y-28000000I950000J0D01*
G01*
X8040000Y-17000000D02*
X8810000Y-17000000D01*
X16120000Y-17000000D02*
X15350000Y-17000000D01*
X8810000Y-15630000D02*
X15350000Y-15630000D01*
X15350000Y-18370000D01*
X8810000Y-18370000D01*
X8810000Y-15630000D01*
X22760000Y-630000D02*
X28000000Y-630000D01*
X22760000Y-3370000D02*
X22760000Y-630000D01*
X28000000Y-630000D02*
X28000000Y-3370000D01*
X28000000Y-3370000D02*
X22760000Y-3370000D01*
X10270000Y-40900000D02*
X10340000Y-40900000D01*
X10270000Y-40900000D02*
G75*
G02*
X7530000Y-40900000I-1370000J0D01*
G01*
X7530000Y-40900000D02*
G75*
G02*
X10270000Y-40900000I1370000J0D01*
G01*
X50250000Y-26360000D02*
X49450000Y-26360000D01*
X50250000Y-26360000D02*
X51050000Y-26360000D01*
X51050000Y-26360000D02*
X51050000Y-27290000D01*
X51050000Y-29520000D02*
X49590000Y-29520000D01*
X51050000Y-29520000D02*
X51050000Y-28590000D01*
X48950000Y-26330000D02*
X48710000Y-26000000D01*
X49190000Y-26000000D01*
X48950000Y-26330000D01*
G36*
X48950000Y-26330000D02*
G01*
X48710000Y-26000000D01*
X49190000Y-26000000D01*
X48950000Y-26330000D01*
G37*
X16870000Y-3810000D02*
X16940000Y-3810000D01*
X16870000Y-3810000D02*
G75*
G02*
X14130000Y-3810000I-1370000J0D01*
G01*
X14130000Y-3810000D02*
G75*
G02*
X16870000Y-3810000I1370000J0D01*
G01*
X1210000Y-7970000D02*
X1210000Y-10630000D01*
X19050000Y-7970000D02*
X1210000Y-7970000D01*
X19050000Y-7970000D02*
X19050000Y-10630000D01*
X19050000Y-10630000D02*
X1210000Y-10630000D01*
X21650000Y-9300000D02*
X21650000Y-10630000D01*
X21650000Y-10630000D02*
X20320000Y-10630000D01*
X43080000Y-4059999D02*
X43010000Y-4059999D01*
X45820000Y-4059999D02*
G75*
G02*
X43080000Y-4059999I-1370000J0D01*
G01*
X43080000Y-4059999D02*
G75*
G02*
X45820000Y-4059999I1370000J0D01*
G01*
X22370000Y-33500000D02*
X22440000Y-33500000D01*
X22370000Y-33500000D02*
G75*
G02*
X19630000Y-33500000I-1370000J0D01*
G01*
X19630000Y-33500000D02*
G75*
G02*
X22370000Y-33500000I1370000J0D01*
G01*
X30130000Y-24130000D02*
X35370000Y-24130000D01*
X30130000Y-26870000D02*
X30130000Y-24130000D01*
X35370000Y-24130000D02*
X35370000Y-26870000D01*
X35370000Y-26870000D02*
X30130000Y-26870000D01*
X15210000Y-45754000D02*
X15210000Y-45910000D01*
X15210000Y-48070000D02*
X15210000Y-48226000D01*
X15210000Y-45754484D02*
G75*
G02*
X18441437Y-45910000I1560000J-1235516D01*
G01*
X15729039Y-45910000D02*
G75*
G02*
X17810961Y-45910000I1040961J-1080000D01*
G01*
X17810961Y-48070000D02*
G75*
G02*
X15729039Y-48070000I-1040961J1080000D01*
G01*
X18441437Y-48070000D02*
G75*
G02*
X15210000Y-48225516I-1671437J1080000D01*
G01*
X30420000Y-6290000D02*
X30420000Y-8950000D01*
X50800000Y-6290000D02*
X30420000Y-6290000D01*
X50800000Y-6290000D02*
X50800000Y-8950000D01*
X50800000Y-8950000D02*
X30420000Y-8950000D01*
X53400000Y-7620000D02*
X53400000Y-8950000D01*
X53400000Y-8950000D02*
X52070000Y-8950000D01*
X15870000Y-41280000D02*
X15940000Y-41280000D01*
X15870000Y-41280000D02*
G75*
G02*
X13130000Y-41280000I-1370000J0D01*
G01*
X13130000Y-41280000D02*
G75*
G02*
X15870000Y-41280000I1370000J0D01*
G01*
X39950000Y-30000000D02*
G75*
G02*
X38050000Y-30000000I-950000J0D01*
G01*
X38050000Y-30000000D02*
G75*
G02*
X39950000Y-30000000I950000J0D01*
G01*
X22770000Y-28210000D02*
X29230000Y-28210000D01*
X22770000Y-28250000D02*
X29230000Y-28250000D01*
X22771000Y-28170000D02*
X29229000Y-28170000D01*
X22772000Y-28130000D02*
X29228000Y-28130000D01*
X22774000Y-28090000D02*
X29226000Y-28090000D01*
X22776000Y-28050000D02*
X29224000Y-28050000D01*
X22779000Y-28010000D02*
X24960000Y-28010000D01*
X22782000Y-27970000D02*
X24960000Y-27970000D01*
X22786000Y-27930000D02*
X24960000Y-27930000D01*
X22790000Y-27890000D02*
X24960000Y-27890000D01*
X22795000Y-27850000D02*
X24960000Y-27850000D01*
X22800000Y-27810000D02*
X24960000Y-27810000D01*
X22805000Y-27770000D02*
X24960000Y-27770000D01*
X22812000Y-27730000D02*
X24960000Y-27730000D01*
X22818000Y-27690000D02*
X24960000Y-27690000D01*
X22826000Y-27650000D02*
X24960000Y-27650000D01*
X22833000Y-27610000D02*
X24960000Y-27610000D01*
X22841000Y-27570000D02*
X24960000Y-27570000D01*
X22850000Y-27530000D02*
X24960000Y-27530000D01*
X22860000Y-27490000D02*
X24960000Y-27490000D01*
X22869000Y-27450000D02*
X24960000Y-27450000D01*
X22880000Y-27410000D02*
X24960000Y-27410000D01*
X22891000Y-27370000D02*
X24960000Y-27370000D01*
X22902000Y-27330000D02*
X24960000Y-27330000D01*
X22914000Y-27290000D02*
X24960000Y-27290000D01*
X22927000Y-27250000D02*
X24960000Y-27250000D01*
X22940000Y-27210000D02*
X24960000Y-27210000D01*
X22953000Y-27170000D02*
X24960000Y-27170000D01*
X22968000Y-27130000D02*
X24960000Y-27130000D01*
X22983000Y-27090000D02*
X24960000Y-27090000D01*
X22998000Y-27050000D02*
X24960000Y-27050000D01*
X23014000Y-27010000D02*
X24960000Y-27010000D01*
X23031000Y-26970000D02*
X24960000Y-26970000D01*
X23048000Y-26930000D02*
X24960000Y-26930000D01*
X23066000Y-26890000D02*
X24960000Y-26890000D01*
X23085000Y-26850000D02*
X24960000Y-26850000D01*
X23104000Y-26810000D02*
X24960000Y-26810000D01*
X23124000Y-26770000D02*
X24960000Y-26770000D01*
X23145000Y-26730000D02*
X24960000Y-26730000D01*
X23166000Y-26690000D02*
X24960000Y-26690000D01*
X23188000Y-26650000D02*
X24960000Y-26650000D01*
X23211000Y-26610000D02*
X24960000Y-26610000D01*
X23235000Y-26570000D02*
X24960000Y-26570000D01*
X23259000Y-26530000D02*
X24960000Y-26530000D01*
X23284000Y-26490000D02*
X24960000Y-26490000D01*
X23310000Y-26450000D02*
X24960000Y-26450000D01*
X23337000Y-26410000D02*
X24960000Y-26410000D01*
X23364000Y-26370000D02*
X24960000Y-26370000D01*
X23393000Y-26330000D02*
X24960000Y-26330000D01*
X23423000Y-26290000D02*
X24960000Y-26290000D01*
X23453000Y-26250000D02*
X24960000Y-26250000D01*
X23484000Y-26210000D02*
X24960000Y-26210000D01*
X23517000Y-26170000D02*
X24960000Y-26170000D01*
X23550000Y-26130000D02*
X24960000Y-26130000D01*
X23585000Y-26090000D02*
X24960000Y-26090000D01*
X23621000Y-26050000D02*
X24960000Y-26050000D01*
X23658000Y-26010000D02*
X24960000Y-26010000D01*
X23696000Y-25970000D02*
X24960000Y-25970000D01*
X23736000Y-25930000D02*
X28264000Y-25930000D01*
X23777000Y-25890000D02*
X28223000Y-25890000D01*
X23819000Y-25850000D02*
X28181000Y-25850000D01*
X23846000Y-31435241D02*
X24476000Y-31435241D01*
X23863000Y-25810000D02*
X28137000Y-25810000D01*
X23909000Y-25770000D02*
X28091000Y-25770000D01*
X23956000Y-25730000D02*
X28044000Y-25730000D01*
X24005000Y-25690000D02*
X27995000Y-25690000D01*
X24057000Y-25650000D02*
X27943000Y-25650000D01*
X24110000Y-25610000D02*
X27890000Y-25610000D01*
X24161000Y-31750241D02*
X24161000Y-31120241D01*
X24166000Y-25570000D02*
X27834000Y-25570000D01*
X24225000Y-25530000D02*
X27775000Y-25530000D01*
X24286000Y-25490000D02*
X27714000Y-25490000D01*
X24351000Y-25450000D02*
X27649000Y-25450000D01*
X24419000Y-25410000D02*
X27581000Y-25410000D01*
X24491000Y-25370000D02*
X27509000Y-25370000D01*
X24568000Y-25330000D02*
X27432000Y-25330000D01*
X24650000Y-25290000D02*
X27350000Y-25290000D01*
X24739000Y-25250000D02*
X27261000Y-25250000D01*
X24835000Y-25210000D02*
X27165000Y-25210000D01*
X24942000Y-25170000D02*
X27058000Y-25170000D01*
X25061000Y-25130000D02*
X26939000Y-25130000D01*
X25199000Y-25090000D02*
X26801000Y-25090000D01*
X25367000Y-25050000D02*
X26633000Y-25050000D01*
X25598000Y-25010000D02*
X26402000Y-25010000D01*
X27040000Y-25970000D02*
X28304000Y-25970000D01*
X27040000Y-26010000D02*
X28342000Y-26010000D01*
X27040000Y-26050000D02*
X28379000Y-26050000D01*
X27040000Y-26090000D02*
X28415000Y-26090000D01*
X27040000Y-26130000D02*
X28450000Y-26130000D01*
X27040000Y-26170000D02*
X28483000Y-26170000D01*
X27040000Y-26210000D02*
X28516000Y-26210000D01*
X27040000Y-26250000D02*
X28547000Y-26250000D01*
X27040000Y-26290000D02*
X28577000Y-26290000D01*
X27040000Y-26330000D02*
X28607000Y-26330000D01*
X27040000Y-26370000D02*
X28636000Y-26370000D01*
X27040000Y-26410000D02*
X28663000Y-26410000D01*
X27040000Y-26450000D02*
X28690000Y-26450000D01*
X27040000Y-26490000D02*
X28716000Y-26490000D01*
X27040000Y-26530000D02*
X28741000Y-26530000D01*
X27040000Y-26570000D02*
X28765000Y-26570000D01*
X27040000Y-26610000D02*
X28789000Y-26610000D01*
X27040000Y-26650000D02*
X28812000Y-26650000D01*
X27040000Y-26690000D02*
X28834000Y-26690000D01*
X27040000Y-26730000D02*
X28855000Y-26730000D01*
X27040000Y-26770000D02*
X28876000Y-26770000D01*
X27040000Y-26810000D02*
X28896000Y-26810000D01*
X27040000Y-26850000D02*
X28915000Y-26850000D01*
X27040000Y-26890000D02*
X28934000Y-26890000D01*
X27040000Y-26930000D02*
X28952000Y-26930000D01*
X27040000Y-26970000D02*
X28969000Y-26970000D01*
X27040000Y-27010000D02*
X28986000Y-27010000D01*
X27040000Y-27050000D02*
X29002000Y-27050000D01*
X27040000Y-27090000D02*
X29017000Y-27090000D01*
X27040000Y-27130000D02*
X29032000Y-27130000D01*
X27040000Y-27170000D02*
X29047000Y-27170000D01*
X27040000Y-27210000D02*
X29060000Y-27210000D01*
X27040000Y-27250000D02*
X29073000Y-27250000D01*
X27040000Y-27290000D02*
X29086000Y-27290000D01*
X27040000Y-27330000D02*
X29098000Y-27330000D01*
X27040000Y-27370000D02*
X29109000Y-27370000D01*
X27040000Y-27410000D02*
X29120000Y-27410000D01*
X27040000Y-27450000D02*
X29131000Y-27450000D01*
X27040000Y-27490000D02*
X29140000Y-27490000D01*
X27040000Y-27530000D02*
X29150000Y-27530000D01*
X27040000Y-27570000D02*
X29159000Y-27570000D01*
X27040000Y-27610000D02*
X29167000Y-27610000D01*
X27040000Y-27650000D02*
X29174000Y-27650000D01*
X27040000Y-27690000D02*
X29182000Y-27690000D01*
X27040000Y-27730000D02*
X29188000Y-27730000D01*
X27040000Y-27770000D02*
X29195000Y-27770000D01*
X27040000Y-27810000D02*
X29200000Y-27810000D01*
X27040000Y-27850000D02*
X29205000Y-27850000D01*
X27040000Y-27890000D02*
X29210000Y-27890000D01*
X27040000Y-27930000D02*
X29214000Y-27930000D01*
X27040000Y-27970000D02*
X29218000Y-27970000D01*
X27040000Y-28010000D02*
X29221000Y-28010000D01*
X29270000Y-28250000D02*
G75*
G02*
X22730000Y-28250000I-3270000J0D01*
G01*
X22730000Y-28250000D02*
G75*
G02*
X29270000Y-28250000I3270000J0D01*
G01*
X28370000Y-33500000D02*
X28440000Y-33500000D01*
X28370000Y-33500000D02*
G75*
G02*
X25630000Y-33500000I-1370000J0D01*
G01*
X25630000Y-33500000D02*
G75*
G02*
X28370000Y-33500000I1370000J0D01*
G01*
X21950000Y-3500000D02*
G75*
G02*
X20050000Y-3500000I-950000J0D01*
G01*
X20050000Y-3500000D02*
G75*
G02*
X21950000Y-3500000I950000J0D01*
G01*
X45480000Y-44400000D02*
X54480000Y-44400000D01*
X45480000Y-48400000D02*
X45480000Y-44400000D01*
X54480000Y-44400000D02*
X54480000Y-48400000D01*
X54480000Y-48400000D02*
X45480000Y-48400000D01*
X23822771Y-9472515D02*
X23822771Y-22232515D01*
X23822771Y-9472515D02*
X26482771Y-9472515D01*
X23822771Y-22232515D02*
X26482771Y-22232515D01*
X25152771Y-6872515D02*
X26482771Y-6872515D01*
X26482771Y-6872515D02*
X26482771Y-8202515D01*
X26482771Y-9472515D02*
X26482771Y-22232515D01*
X16130000Y-27130000D02*
X21370000Y-27130000D01*
X16130000Y-29870000D02*
X16130000Y-27130000D01*
X21370000Y-27130000D02*
X21370000Y-29870000D01*
X21370000Y-29870000D02*
X16130000Y-29870000D01*
X10870000Y-3810000D02*
X10940000Y-3810000D01*
X10870000Y-3810000D02*
G75*
G02*
X8130000Y-3810000I-1370000J0D01*
G01*
X8130000Y-3810000D02*
G75*
G02*
X10870000Y-3810000I1370000J0D01*
G01*
X1160000Y-27830000D02*
X2540000Y-27830000D01*
X1160000Y-29210000D02*
X1160000Y-27830000D01*
X1160000Y-30480000D02*
X1160000Y-33130000D01*
X1160000Y-30480000D02*
X3920000Y-30480000D01*
X1160000Y-33130000D02*
X3920000Y-33130000D01*
X3920000Y-30480000D02*
X3920000Y-33130000D01*
X6740000Y-31350000D02*
X10340000Y-31350000D01*
X6183600Y-28401193D02*
G75*
G02*
X8540000Y-26900000I2356400J-1098807D01*
G01*
X6740000Y-31350000D02*
G75*
G02*
X6215816Y-30622795I1800000J1850000D01*
G01*
X8540000Y-26900000D02*
G75*
G02*
X10896400Y-28401193I0J-2600000D01*
G01*
X10864184Y-30622795D02*
G75*
G02*
X10340000Y-31350000I-2324184J1122795D01*
G01*
D13*
X41030000Y-22800000D02*
X41030000Y-19600000D01*
D12*
X55620000Y-41040000D02*
X55620000Y-48860000D01*
X55620000Y-42640000D02*
X56540000Y-42640000D01*
X55620000Y-48860000D02*
X61740000Y-48860000D01*
X56540000Y-41040000D02*
X55620000Y-41040000D01*
X56540000Y-42640000D02*
X56540000Y-41040000D01*
X56820000Y-42640000D02*
X56540000Y-42640000D01*
X56820000Y-42640000D02*
X56820000Y-41425000D01*
X56880000Y-46600000D02*
X56880000Y-48860000D01*
X57380000Y-46600000D02*
X57380000Y-48860000D01*
X58180000Y-44500000D02*
X59180000Y-44500000D01*
X58180000Y-48860000D02*
X58180000Y-44500000D01*
X59180000Y-44500000D02*
X59180000Y-48860000D01*
X60820000Y-41040000D02*
X60820000Y-42640000D01*
X60820000Y-42640000D02*
X60540000Y-42640000D01*
X61740000Y-41040000D02*
X60820000Y-41040000D01*
X61740000Y-42640000D02*
X60820000Y-42640000D01*
X61740000Y-48860000D02*
X61740000Y-41040000D01*
X56380000Y-45000000D02*
X57380000Y-45000000D01*
X57380000Y-46600000D01*
X56380000Y-46600000D01*
X56380000Y-45000000D01*
X59980000Y-45000000D02*
X60980000Y-45000000D01*
X60980000Y-46600000D01*
X59980000Y-46600000D01*
X59980000Y-45000000D01*
X68260000Y-21590000D02*
G75*
G02*
X66360000Y-21590000I-950000J0D01*
G01*
X66360000Y-21590000D02*
G75*
G02*
X68260000Y-21590000I950000J0D01*
G01*
X34370000Y-33500000D02*
X34440000Y-33500000D01*
X34370000Y-33500000D02*
G75*
G02*
X31630000Y-33500000I-1370000J0D01*
G01*
X31630000Y-33500000D02*
G75*
G02*
X34370000Y-33500000I1370000J0D01*
G01*
X6740000Y-37350000D02*
X10340000Y-37350000D01*
X6183600Y-34401193D02*
G75*
G02*
X8540000Y-32900000I2356400J-1098807D01*
G01*
X6740000Y-37350000D02*
G75*
G02*
X6215816Y-36622795I1800000J1850000D01*
G01*
X8540000Y-32900000D02*
G75*
G02*
X10896400Y-34401193I0J-2600000D01*
G01*
X10864184Y-36622795D02*
G75*
G02*
X10340000Y-37350000I-2324184J1122795D01*
G01*
M02*
