G04 #@! TF.GenerationSoftware,KiCad,Pcbnew,10.0.5-10.0.5~ubuntu24.04.1*
G04 #@! TF.CreationDate,2026-07-28T05:12:48+02:00*
G04 #@! TF.ProjectId,carrier,63617272-6965-4722-9e6b-696361645f70,rev?*
G04 #@! TF.SameCoordinates,Original*
G04 #@! TF.FileFunction,Soldermask,Bot*
G04 #@! TF.FilePolarity,Negative*
%FSLAX46Y46*%
G04 Gerber Fmt 4.6, Leading zero omitted, Abs format (unit mm)*
G04 Created by KiCad (PCBNEW 10.0.5-10.0.5~ubuntu24.04.1) date 2026-07-28 05:12:48*
%MOMM*%
%LPD*%
G01*
G04 APERTURE LIST*
G04 APERTURE END LIST*
G36*
X4167767Y-42805034D02*
G01*
X4179425Y-42805034D01*
X4260380Y-42814155D01*
X4469510Y-42834753D01*
X4503904Y-42841594D01*
X4536020Y-42845213D01*
X4630439Y-42866763D01*
X4777512Y-42896018D01*
X4834952Y-42913442D01*
X4885874Y-42925065D01*
X4968005Y-42953803D01*
X5078005Y-42987172D01*
X5157665Y-43020168D01*
X5224587Y-43043585D01*
X5288463Y-43074346D01*
X5368127Y-43107344D01*
X5469513Y-43161535D01*
X5547900Y-43199285D01*
X5592118Y-43227069D01*
X5645062Y-43255368D01*
X5769747Y-43338680D01*
X5851748Y-43390205D01*
X5877017Y-43410356D01*
X5906167Y-43429834D01*
X6068592Y-43563132D01*
X6132309Y-43613945D01*
X6140553Y-43622189D01*
X6148907Y-43629045D01*
X6370954Y-43851092D01*
X6377809Y-43859445D01*
X6386055Y-43867691D01*
X6436873Y-43931415D01*
X6570165Y-44093832D01*
X6589641Y-44122979D01*
X6609795Y-44148252D01*
X6661324Y-44230260D01*
X6744631Y-44354937D01*
X6772927Y-44407876D01*
X6800715Y-44452100D01*
X6838468Y-44530495D01*
X6892655Y-44631872D01*
X6925649Y-44711527D01*
X6956415Y-44775413D01*
X6979834Y-44842343D01*
X7012827Y-44921994D01*
X7046190Y-45031979D01*
X7074935Y-45114126D01*
X7086559Y-45165056D01*
X7103981Y-45222487D01*
X7133230Y-45369533D01*
X7154787Y-45463980D01*
X7158406Y-45496105D01*
X7165246Y-45530489D01*
X7185841Y-45739598D01*
X7194966Y-45820575D01*
X7194966Y-45832233D01*
X7196025Y-45842985D01*
X7196025Y-46157014D01*
X7194966Y-46167765D01*
X7194966Y-46179425D01*
X7185841Y-46260408D01*
X7165246Y-46469510D01*
X7158406Y-46503892D01*
X7154787Y-46536020D01*
X7133228Y-46630473D01*
X7103981Y-46777512D01*
X7086560Y-46834939D01*
X7074935Y-46885874D01*
X7046188Y-46968026D01*
X7012827Y-47078005D01*
X6979837Y-47157649D01*
X6956415Y-47224587D01*
X6925646Y-47288478D01*
X6892655Y-47368127D01*
X6838473Y-47469494D01*
X6800715Y-47547900D01*
X6772924Y-47592129D01*
X6744631Y-47645062D01*
X6661335Y-47769722D01*
X6609795Y-47851748D01*
X6589636Y-47877025D01*
X6570165Y-47906167D01*
X6436901Y-48068548D01*
X6386055Y-48132309D01*
X6377805Y-48140558D01*
X6370954Y-48148907D01*
X6148907Y-48370954D01*
X6140558Y-48377805D01*
X6132309Y-48386055D01*
X6068548Y-48436901D01*
X5906167Y-48570165D01*
X5877025Y-48589636D01*
X5851748Y-48609795D01*
X5769722Y-48661335D01*
X5645062Y-48744631D01*
X5592129Y-48772924D01*
X5547900Y-48800715D01*
X5469494Y-48838473D01*
X5368127Y-48892655D01*
X5288478Y-48925646D01*
X5224587Y-48956415D01*
X5157649Y-48979837D01*
X5078005Y-49012827D01*
X4968026Y-49046188D01*
X4885874Y-49074935D01*
X4834939Y-49086560D01*
X4777512Y-49103981D01*
X4630473Y-49133228D01*
X4536020Y-49154787D01*
X4503892Y-49158406D01*
X4469510Y-49165246D01*
X4260404Y-49185841D01*
X4179425Y-49194966D01*
X4167767Y-49194966D01*
X4157015Y-49196025D01*
X3842985Y-49196025D01*
X3832233Y-49194966D01*
X3820575Y-49194966D01*
X3739598Y-49185841D01*
X3530489Y-49165246D01*
X3496105Y-49158406D01*
X3463980Y-49154787D01*
X3369533Y-49133230D01*
X3222487Y-49103981D01*
X3165056Y-49086559D01*
X3114126Y-49074935D01*
X3031979Y-49046190D01*
X2921994Y-49012827D01*
X2842343Y-48979834D01*
X2775413Y-48956415D01*
X2711527Y-48925649D01*
X2631872Y-48892655D01*
X2530495Y-48838468D01*
X2452100Y-48800715D01*
X2407876Y-48772927D01*
X2354937Y-48744631D01*
X2230260Y-48661324D01*
X2148252Y-48609795D01*
X2122979Y-48589641D01*
X2093832Y-48570165D01*
X1931415Y-48436873D01*
X1867691Y-48386055D01*
X1859445Y-48377809D01*
X1851092Y-48370954D01*
X1629045Y-48148907D01*
X1622189Y-48140553D01*
X1613945Y-48132309D01*
X1563132Y-48068592D01*
X1429834Y-47906167D01*
X1410356Y-47877017D01*
X1390205Y-47851748D01*
X1338680Y-47769747D01*
X1255368Y-47645062D01*
X1227069Y-47592118D01*
X1199285Y-47547900D01*
X1161535Y-47469513D01*
X1107344Y-47368127D01*
X1074346Y-47288463D01*
X1043585Y-47224587D01*
X1020168Y-47157665D01*
X987172Y-47078005D01*
X953803Y-46968005D01*
X925065Y-46885874D01*
X913442Y-46834952D01*
X896018Y-46777512D01*
X866763Y-46630439D01*
X845213Y-46536020D01*
X841594Y-46503904D01*
X834753Y-46469510D01*
X814156Y-46260385D01*
X805034Y-46179425D01*
X805034Y-46167766D01*
X803975Y-46157014D01*
X803975Y-45842985D01*
X805034Y-45832232D01*
X805034Y-45820575D01*
X814155Y-45739621D01*
X834753Y-45530489D01*
X841594Y-45496093D01*
X845213Y-45463980D01*
X866762Y-45369567D01*
X896018Y-45222487D01*
X913443Y-45165043D01*
X925065Y-45114126D01*
X953801Y-45032001D01*
X987172Y-44921994D01*
X1020170Y-44842328D01*
X1043585Y-44775413D01*
X1074343Y-44711542D01*
X1107344Y-44631872D01*
X1161540Y-44530476D01*
X1199285Y-44452100D01*
X1227065Y-44407887D01*
X1255368Y-44354937D01*
X1338691Y-44230235D01*
X1390205Y-44148252D01*
X1410352Y-44122987D01*
X1429834Y-44093832D01*
X1563160Y-43931372D01*
X1613945Y-43867691D01*
X1622184Y-43859451D01*
X1629045Y-43851092D01*
X1851092Y-43629045D01*
X1859451Y-43622184D01*
X1867691Y-43613945D01*
X1931372Y-43563160D01*
X2093832Y-43429834D01*
X2122987Y-43410352D01*
X2148252Y-43390205D01*
X2230235Y-43338691D01*
X2354937Y-43255368D01*
X2407887Y-43227065D01*
X2452100Y-43199285D01*
X2530476Y-43161540D01*
X2631872Y-43107344D01*
X2711542Y-43074343D01*
X2775413Y-43043585D01*
X2842328Y-43020170D01*
X2921994Y-42987172D01*
X3032001Y-42953801D01*
X3114126Y-42925065D01*
X3165043Y-42913443D01*
X3222487Y-42896018D01*
X3369567Y-42866762D01*
X3463980Y-42845213D01*
X3496093Y-42841594D01*
X3530489Y-42834753D01*
X3739621Y-42814155D01*
X3820575Y-42805034D01*
X3832233Y-42805034D01*
X3842985Y-42803975D01*
X4157015Y-42803975D01*
X4167767Y-42805034D01*
G37*
G36*
X66167767Y-42805034D02*
G01*
X66179425Y-42805034D01*
X66260380Y-42814155D01*
X66469510Y-42834753D01*
X66503904Y-42841594D01*
X66536020Y-42845213D01*
X66630439Y-42866763D01*
X66777512Y-42896018D01*
X66834952Y-42913442D01*
X66885874Y-42925065D01*
X66968005Y-42953803D01*
X67078005Y-42987172D01*
X67157665Y-43020168D01*
X67224587Y-43043585D01*
X67288463Y-43074346D01*
X67368127Y-43107344D01*
X67469513Y-43161535D01*
X67547900Y-43199285D01*
X67592118Y-43227069D01*
X67645062Y-43255368D01*
X67769747Y-43338680D01*
X67851748Y-43390205D01*
X67877017Y-43410356D01*
X67906167Y-43429834D01*
X68068592Y-43563132D01*
X68132309Y-43613945D01*
X68140553Y-43622189D01*
X68148907Y-43629045D01*
X68370954Y-43851092D01*
X68377809Y-43859445D01*
X68386055Y-43867691D01*
X68436873Y-43931415D01*
X68570165Y-44093832D01*
X68589641Y-44122979D01*
X68609795Y-44148252D01*
X68661324Y-44230260D01*
X68744631Y-44354937D01*
X68772927Y-44407876D01*
X68800715Y-44452100D01*
X68838468Y-44530495D01*
X68892655Y-44631872D01*
X68925649Y-44711527D01*
X68956415Y-44775413D01*
X68979834Y-44842343D01*
X69012827Y-44921994D01*
X69046190Y-45031979D01*
X69074935Y-45114126D01*
X69086559Y-45165056D01*
X69103981Y-45222487D01*
X69133230Y-45369533D01*
X69154787Y-45463980D01*
X69158406Y-45496105D01*
X69165246Y-45530489D01*
X69185841Y-45739598D01*
X69194966Y-45820575D01*
X69194966Y-45832233D01*
X69196025Y-45842985D01*
X69196025Y-46157014D01*
X69194966Y-46167765D01*
X69194966Y-46179425D01*
X69185841Y-46260408D01*
X69165246Y-46469510D01*
X69158406Y-46503892D01*
X69154787Y-46536020D01*
X69133228Y-46630473D01*
X69103981Y-46777512D01*
X69086560Y-46834939D01*
X69074935Y-46885874D01*
X69046188Y-46968026D01*
X69012827Y-47078005D01*
X68979837Y-47157649D01*
X68956415Y-47224587D01*
X68925646Y-47288478D01*
X68892655Y-47368127D01*
X68838473Y-47469494D01*
X68800715Y-47547900D01*
X68772924Y-47592129D01*
X68744631Y-47645062D01*
X68661335Y-47769722D01*
X68609795Y-47851748D01*
X68589636Y-47877025D01*
X68570165Y-47906167D01*
X68436901Y-48068548D01*
X68386055Y-48132309D01*
X68377805Y-48140558D01*
X68370954Y-48148907D01*
X68148907Y-48370954D01*
X68140558Y-48377805D01*
X68132309Y-48386055D01*
X68068548Y-48436901D01*
X67906167Y-48570165D01*
X67877025Y-48589636D01*
X67851748Y-48609795D01*
X67769722Y-48661335D01*
X67645062Y-48744631D01*
X67592129Y-48772924D01*
X67547900Y-48800715D01*
X67469494Y-48838473D01*
X67368127Y-48892655D01*
X67288478Y-48925646D01*
X67224587Y-48956415D01*
X67157649Y-48979837D01*
X67078005Y-49012827D01*
X66968026Y-49046188D01*
X66885874Y-49074935D01*
X66834939Y-49086560D01*
X66777512Y-49103981D01*
X66630473Y-49133228D01*
X66536020Y-49154787D01*
X66503892Y-49158406D01*
X66469510Y-49165246D01*
X66260404Y-49185841D01*
X66179425Y-49194966D01*
X66167767Y-49194966D01*
X66157015Y-49196025D01*
X65842985Y-49196025D01*
X65832233Y-49194966D01*
X65820575Y-49194966D01*
X65739598Y-49185841D01*
X65530489Y-49165246D01*
X65496105Y-49158406D01*
X65463980Y-49154787D01*
X65369533Y-49133230D01*
X65222487Y-49103981D01*
X65165056Y-49086559D01*
X65114126Y-49074935D01*
X65031979Y-49046190D01*
X64921994Y-49012827D01*
X64842343Y-48979834D01*
X64775413Y-48956415D01*
X64711527Y-48925649D01*
X64631872Y-48892655D01*
X64530495Y-48838468D01*
X64452100Y-48800715D01*
X64407876Y-48772927D01*
X64354937Y-48744631D01*
X64230260Y-48661324D01*
X64148252Y-48609795D01*
X64122979Y-48589641D01*
X64093832Y-48570165D01*
X63931415Y-48436873D01*
X63867691Y-48386055D01*
X63859445Y-48377809D01*
X63851092Y-48370954D01*
X63629045Y-48148907D01*
X63622189Y-48140553D01*
X63613945Y-48132309D01*
X63563132Y-48068592D01*
X63429834Y-47906167D01*
X63410356Y-47877017D01*
X63390205Y-47851748D01*
X63338680Y-47769747D01*
X63255368Y-47645062D01*
X63227069Y-47592118D01*
X63199285Y-47547900D01*
X63161535Y-47469513D01*
X63107344Y-47368127D01*
X63074346Y-47288463D01*
X63043585Y-47224587D01*
X63020168Y-47157665D01*
X62987172Y-47078005D01*
X62953803Y-46968005D01*
X62925065Y-46885874D01*
X62913442Y-46834952D01*
X62896018Y-46777512D01*
X62866763Y-46630439D01*
X62845213Y-46536020D01*
X62841594Y-46503904D01*
X62834753Y-46469510D01*
X62814156Y-46260385D01*
X62805034Y-46179425D01*
X62805034Y-46167766D01*
X62803975Y-46157014D01*
X62803975Y-45842985D01*
X62805034Y-45832232D01*
X62805034Y-45820575D01*
X62814155Y-45739621D01*
X62834753Y-45530489D01*
X62841594Y-45496093D01*
X62845213Y-45463980D01*
X62866762Y-45369567D01*
X62896018Y-45222487D01*
X62913443Y-45165043D01*
X62925065Y-45114126D01*
X62953801Y-45032001D01*
X62987172Y-44921994D01*
X63020170Y-44842328D01*
X63043585Y-44775413D01*
X63074343Y-44711542D01*
X63107344Y-44631872D01*
X63161540Y-44530476D01*
X63199285Y-44452100D01*
X63227065Y-44407887D01*
X63255368Y-44354937D01*
X63338691Y-44230235D01*
X63390205Y-44148252D01*
X63410352Y-44122987D01*
X63429834Y-44093832D01*
X63563160Y-43931372D01*
X63613945Y-43867691D01*
X63622184Y-43859451D01*
X63629045Y-43851092D01*
X63851092Y-43629045D01*
X63859451Y-43622184D01*
X63867691Y-43613945D01*
X63931372Y-43563160D01*
X64093832Y-43429834D01*
X64122987Y-43410352D01*
X64148252Y-43390205D01*
X64230235Y-43338691D01*
X64354937Y-43255368D01*
X64407887Y-43227065D01*
X64452100Y-43199285D01*
X64530476Y-43161540D01*
X64631872Y-43107344D01*
X64711542Y-43074343D01*
X64775413Y-43043585D01*
X64842328Y-43020170D01*
X64921994Y-42987172D01*
X65032001Y-42953801D01*
X65114126Y-42925065D01*
X65165043Y-42913443D01*
X65222487Y-42896018D01*
X65369567Y-42866762D01*
X65463980Y-42845213D01*
X65496093Y-42841594D01*
X65530489Y-42834753D01*
X65739621Y-42814155D01*
X65820575Y-42805034D01*
X65832233Y-42805034D01*
X65842985Y-42803975D01*
X66157015Y-42803975D01*
X66167767Y-42805034D01*
G37*
G36*
X21587425Y-46504815D02*
G01*
X21598017Y-46504815D01*
X21639399Y-46513046D01*
X21733373Y-46527930D01*
X21763604Y-46537752D01*
X21790285Y-46543060D01*
X21827935Y-46558655D01*
X21882563Y-46576405D01*
X21933739Y-46602480D01*
X21971397Y-46618079D01*
X21994019Y-46633195D01*
X22022338Y-46647624D01*
X22099320Y-46703555D01*
X22134393Y-46726990D01*
X22141878Y-46734475D01*
X22149247Y-46739829D01*
X22260170Y-46850752D01*
X22265523Y-46858120D01*
X22273010Y-46865607D01*
X22296448Y-46900684D01*
X22352375Y-46977661D01*
X22366802Y-47005977D01*
X22381921Y-47028603D01*
X22397521Y-47066265D01*
X22423594Y-47117436D01*
X22441341Y-47172056D01*
X22456940Y-47209715D01*
X22462248Y-47236400D01*
X22472069Y-47266626D01*
X22486952Y-47360594D01*
X22495185Y-47401983D01*
X22495185Y-47412574D01*
X22496609Y-47421565D01*
X22496609Y-47578434D01*
X22495185Y-47587424D01*
X22495185Y-47598017D01*
X22486951Y-47639409D01*
X22472069Y-47733373D01*
X22462248Y-47763596D01*
X22456940Y-47790285D01*
X22441339Y-47827947D01*
X22423594Y-47882563D01*
X22397523Y-47933729D01*
X22381921Y-47971397D01*
X22366800Y-47994026D01*
X22352375Y-48022338D01*
X22296456Y-48099303D01*
X22273010Y-48134393D01*
X22265520Y-48141882D01*
X22260170Y-48149247D01*
X22149247Y-48260170D01*
X22141882Y-48265520D01*
X22134393Y-48273010D01*
X22099303Y-48296456D01*
X22022338Y-48352375D01*
X21994026Y-48366800D01*
X21971397Y-48381921D01*
X21933729Y-48397523D01*
X21882563Y-48423594D01*
X21827947Y-48441339D01*
X21790285Y-48456940D01*
X21763596Y-48462248D01*
X21733373Y-48472069D01*
X21639409Y-48486951D01*
X21598017Y-48495185D01*
X21587425Y-48495185D01*
X21578434Y-48496609D01*
X21421566Y-48496609D01*
X21412575Y-48495185D01*
X21401983Y-48495185D01*
X21360591Y-48486951D01*
X21266626Y-48472069D01*
X21236400Y-48462248D01*
X21209715Y-48456940D01*
X21172056Y-48441341D01*
X21117436Y-48423594D01*
X21066265Y-48397521D01*
X21028603Y-48381921D01*
X21005977Y-48366802D01*
X20977661Y-48352375D01*
X20900684Y-48296448D01*
X20865607Y-48273010D01*
X20858120Y-48265523D01*
X20850752Y-48260170D01*
X20739829Y-48149247D01*
X20734475Y-48141878D01*
X20726990Y-48134393D01*
X20703555Y-48099320D01*
X20647624Y-48022338D01*
X20633195Y-47994019D01*
X20618079Y-47971397D01*
X20602480Y-47933739D01*
X20576405Y-47882563D01*
X20558655Y-47827935D01*
X20543060Y-47790285D01*
X20537752Y-47763604D01*
X20527930Y-47733373D01*
X20513046Y-47639399D01*
X20504815Y-47598017D01*
X20504815Y-47587425D01*
X20503391Y-47578434D01*
X20503391Y-47421565D01*
X20504815Y-47412573D01*
X20504815Y-47401983D01*
X20513045Y-47360603D01*
X20527930Y-47266626D01*
X20537753Y-47236392D01*
X20543060Y-47209715D01*
X20558653Y-47172067D01*
X20576405Y-47117436D01*
X20602482Y-47066255D01*
X20618079Y-47028603D01*
X20633192Y-47005983D01*
X20647624Y-46977661D01*
X20703563Y-46900667D01*
X20726990Y-46865607D01*
X20734472Y-46858124D01*
X20739829Y-46850752D01*
X20850752Y-46739829D01*
X20858124Y-46734472D01*
X20865607Y-46726990D01*
X20900667Y-46703563D01*
X20977661Y-46647624D01*
X21005983Y-46633192D01*
X21028603Y-46618079D01*
X21066255Y-46602482D01*
X21117436Y-46576405D01*
X21172067Y-46558653D01*
X21209715Y-46543060D01*
X21236392Y-46537753D01*
X21266626Y-46527930D01*
X21360601Y-46513046D01*
X21401983Y-46504815D01*
X21412575Y-46504815D01*
X21421566Y-46503391D01*
X21578434Y-46503391D01*
X21587425Y-46504815D01*
G37*
G36*
X28087425Y-46504815D02*
G01*
X28098017Y-46504815D01*
X28139399Y-46513046D01*
X28233373Y-46527930D01*
X28263604Y-46537752D01*
X28290285Y-46543060D01*
X28327935Y-46558655D01*
X28382563Y-46576405D01*
X28433739Y-46602480D01*
X28471397Y-46618079D01*
X28494019Y-46633195D01*
X28522338Y-46647624D01*
X28599320Y-46703555D01*
X28634393Y-46726990D01*
X28641878Y-46734475D01*
X28649247Y-46739829D01*
X28760170Y-46850752D01*
X28765523Y-46858120D01*
X28773010Y-46865607D01*
X28796448Y-46900684D01*
X28852375Y-46977661D01*
X28866802Y-47005977D01*
X28881921Y-47028603D01*
X28897521Y-47066265D01*
X28923594Y-47117436D01*
X28941341Y-47172056D01*
X28956940Y-47209715D01*
X28962248Y-47236400D01*
X28972069Y-47266626D01*
X28986952Y-47360594D01*
X28995185Y-47401983D01*
X28995185Y-47412574D01*
X28996609Y-47421565D01*
X28996609Y-47578434D01*
X28995185Y-47587424D01*
X28995185Y-47598017D01*
X28986951Y-47639409D01*
X28972069Y-47733373D01*
X28962248Y-47763596D01*
X28956940Y-47790285D01*
X28941339Y-47827947D01*
X28923594Y-47882563D01*
X28897523Y-47933729D01*
X28881921Y-47971397D01*
X28866800Y-47994026D01*
X28852375Y-48022338D01*
X28796456Y-48099303D01*
X28773010Y-48134393D01*
X28765520Y-48141882D01*
X28760170Y-48149247D01*
X28649247Y-48260170D01*
X28641882Y-48265520D01*
X28634393Y-48273010D01*
X28599303Y-48296456D01*
X28522338Y-48352375D01*
X28494026Y-48366800D01*
X28471397Y-48381921D01*
X28433729Y-48397523D01*
X28382563Y-48423594D01*
X28327947Y-48441339D01*
X28290285Y-48456940D01*
X28263596Y-48462248D01*
X28233373Y-48472069D01*
X28139409Y-48486951D01*
X28098017Y-48495185D01*
X28087425Y-48495185D01*
X28078434Y-48496609D01*
X27921566Y-48496609D01*
X27912575Y-48495185D01*
X27901983Y-48495185D01*
X27860591Y-48486951D01*
X27766626Y-48472069D01*
X27736400Y-48462248D01*
X27709715Y-48456940D01*
X27672056Y-48441341D01*
X27617436Y-48423594D01*
X27566265Y-48397521D01*
X27528603Y-48381921D01*
X27505977Y-48366802D01*
X27477661Y-48352375D01*
X27400684Y-48296448D01*
X27365607Y-48273010D01*
X27358120Y-48265523D01*
X27350752Y-48260170D01*
X27239829Y-48149247D01*
X27234475Y-48141878D01*
X27226990Y-48134393D01*
X27203555Y-48099320D01*
X27147624Y-48022338D01*
X27133195Y-47994019D01*
X27118079Y-47971397D01*
X27102480Y-47933739D01*
X27076405Y-47882563D01*
X27058655Y-47827935D01*
X27043060Y-47790285D01*
X27037752Y-47763604D01*
X27027930Y-47733373D01*
X27013046Y-47639399D01*
X27004815Y-47598017D01*
X27004815Y-47587425D01*
X27003391Y-47578434D01*
X27003391Y-47421565D01*
X27004815Y-47412573D01*
X27004815Y-47401983D01*
X27013045Y-47360603D01*
X27027930Y-47266626D01*
X27037753Y-47236392D01*
X27043060Y-47209715D01*
X27058653Y-47172067D01*
X27076405Y-47117436D01*
X27102482Y-47066255D01*
X27118079Y-47028603D01*
X27133192Y-47005983D01*
X27147624Y-46977661D01*
X27203563Y-46900667D01*
X27226990Y-46865607D01*
X27234472Y-46858124D01*
X27239829Y-46850752D01*
X27350752Y-46739829D01*
X27358124Y-46734472D01*
X27365607Y-46726990D01*
X27400667Y-46703563D01*
X27477661Y-46647624D01*
X27505983Y-46633192D01*
X27528603Y-46618079D01*
X27566255Y-46602482D01*
X27617436Y-46576405D01*
X27672067Y-46558653D01*
X27709715Y-46543060D01*
X27736392Y-46537753D01*
X27766626Y-46527930D01*
X27860601Y-46513046D01*
X27901983Y-46504815D01*
X27912575Y-46504815D01*
X27921566Y-46503391D01*
X28078434Y-46503391D01*
X28087425Y-46504815D01*
G37*
G36*
X10800000Y-47890000D02*
G01*
X9000000Y-47890000D01*
X9000000Y-46090000D01*
X10800000Y-46090000D01*
X10800000Y-47890000D01*
G37*
G36*
X16400000Y-47890000D02*
G01*
X14600000Y-47890000D01*
X14600000Y-46090000D01*
X16400000Y-46090000D01*
X16400000Y-47890000D01*
G37*
G36*
X12701256Y-46128754D02*
G01*
X12864257Y-46196271D01*
X13010954Y-46294291D01*
X13135709Y-46419046D01*
X13233729Y-46565743D01*
X13301246Y-46728744D01*
X13335666Y-46901785D01*
X13335666Y-47078215D01*
X13301246Y-47251256D01*
X13233729Y-47414257D01*
X13135709Y-47560954D01*
X13010954Y-47685709D01*
X12864257Y-47783729D01*
X12701256Y-47851246D01*
X12528215Y-47885666D01*
X12351785Y-47885666D01*
X12178744Y-47851246D01*
X12015743Y-47783729D01*
X11869046Y-47685709D01*
X11744291Y-47560954D01*
X11646271Y-47414257D01*
X11578754Y-47251256D01*
X11544334Y-47078215D01*
X11544334Y-46901785D01*
X11578754Y-46728744D01*
X11646271Y-46565743D01*
X11744291Y-46419046D01*
X11869046Y-46294291D01*
X12015743Y-46196271D01*
X12178744Y-46128754D01*
X12351785Y-46094334D01*
X12528215Y-46094334D01*
X12701256Y-46128754D01*
G37*
G36*
X18301256Y-46128754D02*
G01*
X18464257Y-46196271D01*
X18610954Y-46294291D01*
X18735709Y-46419046D01*
X18833729Y-46565743D01*
X18901246Y-46728744D01*
X18935666Y-46901785D01*
X18935666Y-47078215D01*
X18901246Y-47251256D01*
X18833729Y-47414257D01*
X18735709Y-47560954D01*
X18610954Y-47685709D01*
X18464257Y-47783729D01*
X18301256Y-47851246D01*
X18128215Y-47885666D01*
X17951785Y-47885666D01*
X17778744Y-47851246D01*
X17615743Y-47783729D01*
X17469046Y-47685709D01*
X17344291Y-47560954D01*
X17246271Y-47414257D01*
X17178754Y-47251256D01*
X17144334Y-47078215D01*
X17144334Y-46901785D01*
X17178754Y-46728744D01*
X17246271Y-46565743D01*
X17344291Y-46419046D01*
X17469046Y-46294291D01*
X17615743Y-46196271D01*
X17778744Y-46128754D01*
X17951785Y-46094334D01*
X18128215Y-46094334D01*
X18301256Y-46128754D01*
G37*
G36*
X47923116Y-45454575D02*
G01*
X48105770Y-45490907D01*
X48277827Y-45562175D01*
X48432674Y-45665640D01*
X48564360Y-45797326D01*
X48667825Y-45952173D01*
X48739093Y-46124230D01*
X48775425Y-46306884D01*
X48775425Y-46493116D01*
X48739093Y-46675770D01*
X48667825Y-46847827D01*
X48564360Y-47002674D01*
X48432674Y-47134360D01*
X48277827Y-47237825D01*
X48105770Y-47309093D01*
X47923116Y-47345425D01*
X47830000Y-47350000D01*
X47827536Y-47350000D01*
X47232464Y-47350000D01*
X47230000Y-47350000D01*
X47136884Y-47345425D01*
X46954230Y-47309093D01*
X46782173Y-47237825D01*
X46627326Y-47134360D01*
X46495640Y-47002674D01*
X46392175Y-46847827D01*
X46320907Y-46675770D01*
X46284575Y-46493116D01*
X46284575Y-46306884D01*
X46320907Y-46124230D01*
X46392175Y-45952173D01*
X46495640Y-45797326D01*
X46627326Y-45665640D01*
X46782173Y-45562175D01*
X46954230Y-45490907D01*
X47136884Y-45454575D01*
X47230000Y-45450000D01*
X47830000Y-45450000D01*
X47923116Y-45454575D01*
G37*
G36*
X52823116Y-45454575D02*
G01*
X53005770Y-45490907D01*
X53177827Y-45562175D01*
X53332674Y-45665640D01*
X53464360Y-45797326D01*
X53567825Y-45952173D01*
X53639093Y-46124230D01*
X53675425Y-46306884D01*
X53675425Y-46493116D01*
X53639093Y-46675770D01*
X53567825Y-46847827D01*
X53464360Y-47002674D01*
X53332674Y-47134360D01*
X53177827Y-47237825D01*
X53005770Y-47309093D01*
X52823116Y-47345425D01*
X52730000Y-47350000D01*
X52727536Y-47350000D01*
X52132464Y-47350000D01*
X52130000Y-47350000D01*
X52036884Y-47345425D01*
X51854230Y-47309093D01*
X51682173Y-47237825D01*
X51527326Y-47134360D01*
X51395640Y-47002674D01*
X51292175Y-46847827D01*
X51220907Y-46675770D01*
X51184575Y-46493116D01*
X51184575Y-46306884D01*
X51220907Y-46124230D01*
X51292175Y-45952173D01*
X51395640Y-45797326D01*
X51527326Y-45665640D01*
X51682173Y-45562175D01*
X51854230Y-45490907D01*
X52036884Y-45454575D01*
X52130000Y-45450000D01*
X52730000Y-45450000D01*
X52823116Y-45454575D01*
G37*
G36*
X50212228Y-45634448D02*
G01*
X50357117Y-45694463D01*
X50487515Y-45781592D01*
X50598408Y-45892485D01*
X50685537Y-46022883D01*
X50745552Y-46167772D01*
X50776148Y-46321586D01*
X50776148Y-46478414D01*
X50745552Y-46632228D01*
X50685537Y-46777117D01*
X50598408Y-46907515D01*
X50487515Y-47018408D01*
X50357117Y-47105537D01*
X50212228Y-47165552D01*
X50058414Y-47196148D01*
X49901586Y-47196148D01*
X49747772Y-47165552D01*
X49602883Y-47105537D01*
X49472485Y-47018408D01*
X49361592Y-46907515D01*
X49274463Y-46777117D01*
X49214448Y-46632228D01*
X49183852Y-46478414D01*
X49183852Y-46321586D01*
X49214448Y-46167772D01*
X49274463Y-46022883D01*
X49361592Y-45892485D01*
X49472485Y-45781592D01*
X49602883Y-45694463D01*
X49747772Y-45634448D01*
X49901586Y-45603852D01*
X50058414Y-45603852D01*
X50212228Y-45634448D01*
G37*
G36*
X35300000Y-46000000D02*
G01*
X33300000Y-46000000D01*
X33300000Y-44000000D01*
X35300000Y-44000000D01*
X35300000Y-46000000D01*
G37*
G36*
X36887425Y-44004815D02*
G01*
X36898017Y-44004815D01*
X36939399Y-44013046D01*
X37033373Y-44027930D01*
X37063604Y-44037752D01*
X37090285Y-44043060D01*
X37127935Y-44058655D01*
X37182563Y-44076405D01*
X37233739Y-44102480D01*
X37271397Y-44118079D01*
X37294019Y-44133195D01*
X37322338Y-44147624D01*
X37399320Y-44203555D01*
X37434393Y-44226990D01*
X37441878Y-44234475D01*
X37449247Y-44239829D01*
X37560170Y-44350752D01*
X37565523Y-44358120D01*
X37573010Y-44365607D01*
X37596448Y-44400684D01*
X37652375Y-44477661D01*
X37666802Y-44505977D01*
X37681921Y-44528603D01*
X37697521Y-44566265D01*
X37723594Y-44617436D01*
X37741341Y-44672056D01*
X37756940Y-44709715D01*
X37762248Y-44736400D01*
X37772069Y-44766626D01*
X37786952Y-44860594D01*
X37795185Y-44901983D01*
X37795185Y-44912574D01*
X37796609Y-44921565D01*
X37796609Y-45078434D01*
X37795185Y-45087424D01*
X37795185Y-45098017D01*
X37786951Y-45139409D01*
X37772069Y-45233373D01*
X37762248Y-45263596D01*
X37756940Y-45290285D01*
X37741339Y-45327947D01*
X37723594Y-45382563D01*
X37697523Y-45433729D01*
X37681921Y-45471397D01*
X37666800Y-45494026D01*
X37652375Y-45522338D01*
X37596456Y-45599303D01*
X37573010Y-45634393D01*
X37565520Y-45641882D01*
X37560170Y-45649247D01*
X37449247Y-45760170D01*
X37441882Y-45765520D01*
X37434393Y-45773010D01*
X37399303Y-45796456D01*
X37322338Y-45852375D01*
X37294026Y-45866800D01*
X37271397Y-45881921D01*
X37233729Y-45897523D01*
X37182563Y-45923594D01*
X37127947Y-45941339D01*
X37090285Y-45956940D01*
X37063596Y-45962248D01*
X37033373Y-45972069D01*
X36939409Y-45986951D01*
X36898017Y-45995185D01*
X36887425Y-45995185D01*
X36878434Y-45996609D01*
X36721566Y-45996609D01*
X36712575Y-45995185D01*
X36701983Y-45995185D01*
X36660591Y-45986951D01*
X36566626Y-45972069D01*
X36536400Y-45962248D01*
X36509715Y-45956940D01*
X36472056Y-45941341D01*
X36417436Y-45923594D01*
X36366265Y-45897521D01*
X36328603Y-45881921D01*
X36305977Y-45866802D01*
X36277661Y-45852375D01*
X36200684Y-45796448D01*
X36165607Y-45773010D01*
X36158120Y-45765523D01*
X36150752Y-45760170D01*
X36039829Y-45649247D01*
X36034475Y-45641878D01*
X36026990Y-45634393D01*
X36003555Y-45599320D01*
X35947624Y-45522338D01*
X35933195Y-45494019D01*
X35918079Y-45471397D01*
X35902480Y-45433739D01*
X35876405Y-45382563D01*
X35858655Y-45327935D01*
X35843060Y-45290285D01*
X35837752Y-45263604D01*
X35827930Y-45233373D01*
X35813046Y-45139399D01*
X35804815Y-45098017D01*
X35804815Y-45087425D01*
X35803391Y-45078434D01*
X35803391Y-44921565D01*
X35804815Y-44912573D01*
X35804815Y-44901983D01*
X35813045Y-44860603D01*
X35827930Y-44766626D01*
X35837753Y-44736392D01*
X35843060Y-44709715D01*
X35858653Y-44672067D01*
X35876405Y-44617436D01*
X35902482Y-44566255D01*
X35918079Y-44528603D01*
X35933192Y-44505983D01*
X35947624Y-44477661D01*
X36003563Y-44400667D01*
X36026990Y-44365607D01*
X36034472Y-44358124D01*
X36039829Y-44350752D01*
X36150752Y-44239829D01*
X36158124Y-44234472D01*
X36165607Y-44226990D01*
X36200667Y-44203563D01*
X36277661Y-44147624D01*
X36305983Y-44133192D01*
X36328603Y-44118079D01*
X36366255Y-44102482D01*
X36417436Y-44076405D01*
X36472067Y-44058653D01*
X36509715Y-44043060D01*
X36536392Y-44037753D01*
X36566626Y-44027930D01*
X36660601Y-44013046D01*
X36701983Y-44004815D01*
X36712575Y-44004815D01*
X36721566Y-44003391D01*
X36878434Y-44003391D01*
X36887425Y-44004815D01*
G37*
G36*
X39387425Y-44004815D02*
G01*
X39398017Y-44004815D01*
X39439399Y-44013046D01*
X39533373Y-44027930D01*
X39563604Y-44037752D01*
X39590285Y-44043060D01*
X39627935Y-44058655D01*
X39682563Y-44076405D01*
X39733739Y-44102480D01*
X39771397Y-44118079D01*
X39794019Y-44133195D01*
X39822338Y-44147624D01*
X39899320Y-44203555D01*
X39934393Y-44226990D01*
X39941878Y-44234475D01*
X39949247Y-44239829D01*
X40060170Y-44350752D01*
X40065523Y-44358120D01*
X40073010Y-44365607D01*
X40096448Y-44400684D01*
X40152375Y-44477661D01*
X40166802Y-44505977D01*
X40181921Y-44528603D01*
X40197521Y-44566265D01*
X40223594Y-44617436D01*
X40241341Y-44672056D01*
X40256940Y-44709715D01*
X40262248Y-44736400D01*
X40272069Y-44766626D01*
X40286952Y-44860594D01*
X40295185Y-44901983D01*
X40295185Y-44912574D01*
X40296609Y-44921565D01*
X40296609Y-45078434D01*
X40295185Y-45087424D01*
X40295185Y-45098017D01*
X40286951Y-45139409D01*
X40272069Y-45233373D01*
X40262248Y-45263596D01*
X40256940Y-45290285D01*
X40241339Y-45327947D01*
X40223594Y-45382563D01*
X40197523Y-45433729D01*
X40181921Y-45471397D01*
X40166800Y-45494026D01*
X40152375Y-45522338D01*
X40096456Y-45599303D01*
X40073010Y-45634393D01*
X40065520Y-45641882D01*
X40060170Y-45649247D01*
X39949247Y-45760170D01*
X39941882Y-45765520D01*
X39934393Y-45773010D01*
X39899303Y-45796456D01*
X39822338Y-45852375D01*
X39794026Y-45866800D01*
X39771397Y-45881921D01*
X39733729Y-45897523D01*
X39682563Y-45923594D01*
X39627947Y-45941339D01*
X39590285Y-45956940D01*
X39563596Y-45962248D01*
X39533373Y-45972069D01*
X39439409Y-45986951D01*
X39398017Y-45995185D01*
X39387425Y-45995185D01*
X39378434Y-45996609D01*
X39221566Y-45996609D01*
X39212575Y-45995185D01*
X39201983Y-45995185D01*
X39160591Y-45986951D01*
X39066626Y-45972069D01*
X39036400Y-45962248D01*
X39009715Y-45956940D01*
X38972056Y-45941341D01*
X38917436Y-45923594D01*
X38866265Y-45897521D01*
X38828603Y-45881921D01*
X38805977Y-45866802D01*
X38777661Y-45852375D01*
X38700684Y-45796448D01*
X38665607Y-45773010D01*
X38658120Y-45765523D01*
X38650752Y-45760170D01*
X38539829Y-45649247D01*
X38534475Y-45641878D01*
X38526990Y-45634393D01*
X38503555Y-45599320D01*
X38447624Y-45522338D01*
X38433195Y-45494019D01*
X38418079Y-45471397D01*
X38402480Y-45433739D01*
X38376405Y-45382563D01*
X38358655Y-45327935D01*
X38343060Y-45290285D01*
X38337752Y-45263604D01*
X38327930Y-45233373D01*
X38313046Y-45139399D01*
X38304815Y-45098017D01*
X38304815Y-45087425D01*
X38303391Y-45078434D01*
X38303391Y-44921565D01*
X38304815Y-44912573D01*
X38304815Y-44901983D01*
X38313045Y-44860603D01*
X38327930Y-44766626D01*
X38337753Y-44736392D01*
X38343060Y-44709715D01*
X38358653Y-44672067D01*
X38376405Y-44617436D01*
X38402482Y-44566255D01*
X38418079Y-44528603D01*
X38433192Y-44505983D01*
X38447624Y-44477661D01*
X38503563Y-44400667D01*
X38526990Y-44365607D01*
X38534472Y-44358124D01*
X38539829Y-44350752D01*
X38650752Y-44239829D01*
X38658124Y-44234472D01*
X38665607Y-44226990D01*
X38700667Y-44203563D01*
X38777661Y-44147624D01*
X38805983Y-44133192D01*
X38828603Y-44118079D01*
X38866255Y-44102482D01*
X38917436Y-44076405D01*
X38972067Y-44058653D01*
X39009715Y-44043060D01*
X39036392Y-44037753D01*
X39066626Y-44027930D01*
X39160601Y-44013046D01*
X39201983Y-44004815D01*
X39212575Y-44004815D01*
X39221566Y-44003391D01*
X39378434Y-44003391D01*
X39387425Y-44004815D01*
G37*
G36*
X21587425Y-42004815D02*
G01*
X21598017Y-42004815D01*
X21639399Y-42013046D01*
X21733373Y-42027930D01*
X21763604Y-42037752D01*
X21790285Y-42043060D01*
X21827935Y-42058655D01*
X21882563Y-42076405D01*
X21933739Y-42102480D01*
X21971397Y-42118079D01*
X21994019Y-42133195D01*
X22022338Y-42147624D01*
X22099320Y-42203555D01*
X22134393Y-42226990D01*
X22141878Y-42234475D01*
X22149247Y-42239829D01*
X22260170Y-42350752D01*
X22265523Y-42358120D01*
X22273010Y-42365607D01*
X22296448Y-42400684D01*
X22352375Y-42477661D01*
X22366802Y-42505977D01*
X22381921Y-42528603D01*
X22397521Y-42566265D01*
X22423594Y-42617436D01*
X22441341Y-42672056D01*
X22456940Y-42709715D01*
X22462248Y-42736400D01*
X22472069Y-42766626D01*
X22486952Y-42860594D01*
X22495185Y-42901983D01*
X22495185Y-42912574D01*
X22496609Y-42921565D01*
X22496609Y-43078434D01*
X22495185Y-43087424D01*
X22495185Y-43098017D01*
X22486951Y-43139409D01*
X22472069Y-43233373D01*
X22462248Y-43263596D01*
X22456940Y-43290285D01*
X22441339Y-43327947D01*
X22423594Y-43382563D01*
X22397523Y-43433729D01*
X22381921Y-43471397D01*
X22366800Y-43494026D01*
X22352375Y-43522338D01*
X22296456Y-43599303D01*
X22273010Y-43634393D01*
X22265520Y-43641882D01*
X22260170Y-43649247D01*
X22149247Y-43760170D01*
X22141882Y-43765520D01*
X22134393Y-43773010D01*
X22099303Y-43796456D01*
X22022338Y-43852375D01*
X21994026Y-43866800D01*
X21971397Y-43881921D01*
X21933729Y-43897523D01*
X21882563Y-43923594D01*
X21827947Y-43941339D01*
X21790285Y-43956940D01*
X21763596Y-43962248D01*
X21733373Y-43972069D01*
X21639409Y-43986951D01*
X21598017Y-43995185D01*
X21587425Y-43995185D01*
X21578434Y-43996609D01*
X21421566Y-43996609D01*
X21412575Y-43995185D01*
X21401983Y-43995185D01*
X21360591Y-43986951D01*
X21266626Y-43972069D01*
X21236400Y-43962248D01*
X21209715Y-43956940D01*
X21172056Y-43941341D01*
X21117436Y-43923594D01*
X21066265Y-43897521D01*
X21028603Y-43881921D01*
X21005977Y-43866802D01*
X20977661Y-43852375D01*
X20900684Y-43796448D01*
X20865607Y-43773010D01*
X20858120Y-43765523D01*
X20850752Y-43760170D01*
X20739829Y-43649247D01*
X20734475Y-43641878D01*
X20726990Y-43634393D01*
X20703555Y-43599320D01*
X20647624Y-43522338D01*
X20633195Y-43494019D01*
X20618079Y-43471397D01*
X20602480Y-43433739D01*
X20576405Y-43382563D01*
X20558655Y-43327935D01*
X20543060Y-43290285D01*
X20537752Y-43263604D01*
X20527930Y-43233373D01*
X20513046Y-43139399D01*
X20504815Y-43098017D01*
X20504815Y-43087425D01*
X20503391Y-43078434D01*
X20503391Y-42921565D01*
X20504815Y-42912573D01*
X20504815Y-42901983D01*
X20513045Y-42860603D01*
X20527930Y-42766626D01*
X20537753Y-42736392D01*
X20543060Y-42709715D01*
X20558653Y-42672067D01*
X20576405Y-42617436D01*
X20602482Y-42566255D01*
X20618079Y-42528603D01*
X20633192Y-42505983D01*
X20647624Y-42477661D01*
X20703563Y-42400667D01*
X20726990Y-42365607D01*
X20734472Y-42358124D01*
X20739829Y-42350752D01*
X20850752Y-42239829D01*
X20858124Y-42234472D01*
X20865607Y-42226990D01*
X20900667Y-42203563D01*
X20977661Y-42147624D01*
X21005983Y-42133192D01*
X21028603Y-42118079D01*
X21066255Y-42102482D01*
X21117436Y-42076405D01*
X21172067Y-42058653D01*
X21209715Y-42043060D01*
X21236392Y-42037753D01*
X21266626Y-42027930D01*
X21360601Y-42013046D01*
X21401983Y-42004815D01*
X21412575Y-42004815D01*
X21421566Y-42003391D01*
X21578434Y-42003391D01*
X21587425Y-42004815D01*
G37*
G36*
X28087425Y-42004815D02*
G01*
X28098017Y-42004815D01*
X28139399Y-42013046D01*
X28233373Y-42027930D01*
X28263604Y-42037752D01*
X28290285Y-42043060D01*
X28327935Y-42058655D01*
X28382563Y-42076405D01*
X28433739Y-42102480D01*
X28471397Y-42118079D01*
X28494019Y-42133195D01*
X28522338Y-42147624D01*
X28599320Y-42203555D01*
X28634393Y-42226990D01*
X28641878Y-42234475D01*
X28649247Y-42239829D01*
X28760170Y-42350752D01*
X28765523Y-42358120D01*
X28773010Y-42365607D01*
X28796448Y-42400684D01*
X28852375Y-42477661D01*
X28866802Y-42505977D01*
X28881921Y-42528603D01*
X28897521Y-42566265D01*
X28923594Y-42617436D01*
X28941341Y-42672056D01*
X28956940Y-42709715D01*
X28962248Y-42736400D01*
X28972069Y-42766626D01*
X28986952Y-42860594D01*
X28995185Y-42901983D01*
X28995185Y-42912574D01*
X28996609Y-42921565D01*
X28996609Y-43078434D01*
X28995185Y-43087424D01*
X28995185Y-43098017D01*
X28986951Y-43139409D01*
X28972069Y-43233373D01*
X28962248Y-43263596D01*
X28956940Y-43290285D01*
X28941339Y-43327947D01*
X28923594Y-43382563D01*
X28897523Y-43433729D01*
X28881921Y-43471397D01*
X28866800Y-43494026D01*
X28852375Y-43522338D01*
X28796456Y-43599303D01*
X28773010Y-43634393D01*
X28765520Y-43641882D01*
X28760170Y-43649247D01*
X28649247Y-43760170D01*
X28641882Y-43765520D01*
X28634393Y-43773010D01*
X28599303Y-43796456D01*
X28522338Y-43852375D01*
X28494026Y-43866800D01*
X28471397Y-43881921D01*
X28433729Y-43897523D01*
X28382563Y-43923594D01*
X28327947Y-43941339D01*
X28290285Y-43956940D01*
X28263596Y-43962248D01*
X28233373Y-43972069D01*
X28139409Y-43986951D01*
X28098017Y-43995185D01*
X28087425Y-43995185D01*
X28078434Y-43996609D01*
X27921566Y-43996609D01*
X27912575Y-43995185D01*
X27901983Y-43995185D01*
X27860591Y-43986951D01*
X27766626Y-43972069D01*
X27736400Y-43962248D01*
X27709715Y-43956940D01*
X27672056Y-43941341D01*
X27617436Y-43923594D01*
X27566265Y-43897521D01*
X27528603Y-43881921D01*
X27505977Y-43866802D01*
X27477661Y-43852375D01*
X27400684Y-43796448D01*
X27365607Y-43773010D01*
X27358120Y-43765523D01*
X27350752Y-43760170D01*
X27239829Y-43649247D01*
X27234475Y-43641878D01*
X27226990Y-43634393D01*
X27203555Y-43599320D01*
X27147624Y-43522338D01*
X27133195Y-43494019D01*
X27118079Y-43471397D01*
X27102480Y-43433739D01*
X27076405Y-43382563D01*
X27058655Y-43327935D01*
X27043060Y-43290285D01*
X27037752Y-43263604D01*
X27027930Y-43233373D01*
X27013046Y-43139399D01*
X27004815Y-43098017D01*
X27004815Y-43087425D01*
X27003391Y-43078434D01*
X27003391Y-42921565D01*
X27004815Y-42912573D01*
X27004815Y-42901983D01*
X27013045Y-42860603D01*
X27027930Y-42766626D01*
X27037753Y-42736392D01*
X27043060Y-42709715D01*
X27058653Y-42672067D01*
X27076405Y-42617436D01*
X27102482Y-42566255D01*
X27118079Y-42528603D01*
X27133192Y-42505983D01*
X27147624Y-42477661D01*
X27203563Y-42400667D01*
X27226990Y-42365607D01*
X27234472Y-42358124D01*
X27239829Y-42350752D01*
X27350752Y-42239829D01*
X27358124Y-42234472D01*
X27365607Y-42226990D01*
X27400667Y-42203563D01*
X27477661Y-42147624D01*
X27505983Y-42133192D01*
X27528603Y-42118079D01*
X27566255Y-42102482D01*
X27617436Y-42076405D01*
X27672067Y-42058653D01*
X27709715Y-42043060D01*
X27736392Y-42037753D01*
X27766626Y-42027930D01*
X27860601Y-42013046D01*
X27901983Y-42004815D01*
X27912575Y-42004815D01*
X27921566Y-42003391D01*
X28078434Y-42003391D01*
X28087425Y-42004815D01*
G37*
G36*
X58049828Y-41628944D02*
G01*
X58099985Y-41636251D01*
X58109192Y-41640752D01*
X58125671Y-41644030D01*
X58152322Y-41661838D01*
X58174465Y-41672663D01*
X58186428Y-41684626D01*
X58206777Y-41698223D01*
X58220373Y-41718571D01*
X58232336Y-41730534D01*
X58243160Y-41752674D01*
X58260970Y-41779329D01*
X58264248Y-41795809D01*
X58268748Y-41805014D01*
X58276053Y-41855157D01*
X58280000Y-41875000D01*
X58280000Y-43125000D01*
X58276052Y-43144847D01*
X58268748Y-43194985D01*
X58264248Y-43204188D01*
X58260970Y-43220671D01*
X58243158Y-43247328D01*
X58232336Y-43269465D01*
X58220375Y-43281425D01*
X58206777Y-43301777D01*
X58186425Y-43315375D01*
X58174465Y-43327336D01*
X58152328Y-43338158D01*
X58125671Y-43355970D01*
X58109188Y-43359248D01*
X58099985Y-43363748D01*
X58049845Y-43371052D01*
X58030000Y-43375000D01*
X57330000Y-43375000D01*
X57310155Y-43371052D01*
X57260014Y-43363748D01*
X57250809Y-43359248D01*
X57234329Y-43355970D01*
X57207674Y-43338160D01*
X57185534Y-43327336D01*
X57173571Y-43315373D01*
X57153223Y-43301777D01*
X57139626Y-43281428D01*
X57127663Y-43269465D01*
X57116838Y-43247322D01*
X57099030Y-43220671D01*
X57095752Y-43204192D01*
X57091251Y-43194985D01*
X57083943Y-43144826D01*
X57080000Y-43125000D01*
X57080000Y-41875000D01*
X57083943Y-41855174D01*
X57091251Y-41805014D01*
X57095752Y-41795806D01*
X57099030Y-41779329D01*
X57116836Y-41752679D01*
X57127663Y-41730534D01*
X57139628Y-41718568D01*
X57153223Y-41698223D01*
X57173568Y-41684628D01*
X57185534Y-41672663D01*
X57207679Y-41661836D01*
X57234329Y-41644030D01*
X57250806Y-41640752D01*
X57260014Y-41636251D01*
X57310175Y-41628943D01*
X57330000Y-41625000D01*
X58030000Y-41625000D01*
X58049828Y-41628944D01*
G37*
G36*
X59747619Y-41630133D02*
G01*
X59758316Y-41630133D01*
X59789137Y-41638391D01*
X59854032Y-41651300D01*
X59884662Y-41663987D01*
X59909610Y-41670672D01*
X59931974Y-41683584D01*
X59962611Y-41696274D01*
X60017643Y-41733045D01*
X60045257Y-41748988D01*
X60052815Y-41756546D01*
X60060328Y-41761566D01*
X60143433Y-41844671D01*
X60148452Y-41852183D01*
X60156012Y-41859743D01*
X60171956Y-41887360D01*
X60208725Y-41942388D01*
X60221413Y-41973021D01*
X60234328Y-41995390D01*
X60241013Y-42020341D01*
X60253699Y-42050967D01*
X60266604Y-42115849D01*
X60274867Y-42146684D01*
X60275913Y-42162644D01*
X60277110Y-42168662D01*
X60279515Y-42217613D01*
X60280000Y-42225000D01*
X60280000Y-42775000D01*
X60279515Y-42782389D01*
X60277110Y-42831337D01*
X60275913Y-42837353D01*
X60274867Y-42853316D01*
X60266604Y-42884153D01*
X60253699Y-42949032D01*
X60241014Y-42979655D01*
X60234328Y-43004610D01*
X60221412Y-43026980D01*
X60208725Y-43057611D01*
X60171961Y-43112632D01*
X60156012Y-43140257D01*
X60148450Y-43147818D01*
X60143433Y-43155328D01*
X60060328Y-43238433D01*
X60052818Y-43243450D01*
X60045257Y-43251012D01*
X60017632Y-43266961D01*
X59962611Y-43303725D01*
X59931980Y-43316412D01*
X59909610Y-43329328D01*
X59884655Y-43336014D01*
X59854032Y-43348699D01*
X59789143Y-43361606D01*
X59758316Y-43369867D01*
X59747619Y-43369867D01*
X59738761Y-43371629D01*
X59621239Y-43371629D01*
X59612381Y-43369867D01*
X59601684Y-43369867D01*
X59570857Y-43361607D01*
X59505967Y-43348699D01*
X59475341Y-43336013D01*
X59450390Y-43329328D01*
X59428021Y-43316413D01*
X59397388Y-43303725D01*
X59342360Y-43266956D01*
X59314743Y-43251012D01*
X59307183Y-43243452D01*
X59299671Y-43238433D01*
X59216566Y-43155328D01*
X59211546Y-43147815D01*
X59203988Y-43140257D01*
X59188045Y-43112643D01*
X59151274Y-43057611D01*
X59138584Y-43026974D01*
X59125672Y-43004610D01*
X59118987Y-42979662D01*
X59106300Y-42949032D01*
X59093391Y-42884138D01*
X59085133Y-42853316D01*
X59084087Y-42837361D01*
X59082889Y-42831337D01*
X59080483Y-42782379D01*
X59080000Y-42775000D01*
X59080000Y-42225000D01*
X59080483Y-42217623D01*
X59082889Y-42168662D01*
X59084087Y-42162637D01*
X59085133Y-42146684D01*
X59093391Y-42115863D01*
X59106300Y-42050967D01*
X59118988Y-42020334D01*
X59125672Y-41995390D01*
X59138582Y-41973027D01*
X59151274Y-41942388D01*
X59188049Y-41887349D01*
X59203988Y-41859743D01*
X59211544Y-41852186D01*
X59216566Y-41844671D01*
X59299671Y-41761566D01*
X59307186Y-41756544D01*
X59314743Y-41748988D01*
X59342349Y-41733049D01*
X59397388Y-41696274D01*
X59428027Y-41683582D01*
X59450390Y-41670672D01*
X59475334Y-41663988D01*
X59505967Y-41651300D01*
X59570863Y-41638391D01*
X59601684Y-41630133D01*
X59612381Y-41630133D01*
X59621239Y-41628371D01*
X59738761Y-41628371D01*
X59747619Y-41630133D01*
G37*
G36*
X14732228Y-40514448D02*
G01*
X14877117Y-40574463D01*
X15007515Y-40661592D01*
X15118408Y-40772485D01*
X15205537Y-40902883D01*
X15265552Y-41047772D01*
X15296148Y-41201586D01*
X15296148Y-41358414D01*
X15265552Y-41512228D01*
X15205537Y-41657117D01*
X15118408Y-41787515D01*
X15007515Y-41898408D01*
X14877117Y-41985537D01*
X14732228Y-42045552D01*
X14578414Y-42076148D01*
X14421586Y-42076148D01*
X14267772Y-42045552D01*
X14122883Y-41985537D01*
X13992485Y-41898408D01*
X13881592Y-41787515D01*
X13794463Y-41657117D01*
X13734448Y-41512228D01*
X13703852Y-41358414D01*
X13703852Y-41201586D01*
X13734448Y-41047772D01*
X13794463Y-40902883D01*
X13881592Y-40772485D01*
X13992485Y-40661592D01*
X14122883Y-40574463D01*
X14267772Y-40514448D01*
X14421586Y-40483852D01*
X14578414Y-40483852D01*
X14732228Y-40514448D01*
G37*
G36*
X17272228Y-40514448D02*
G01*
X17417117Y-40574463D01*
X17547515Y-40661592D01*
X17658408Y-40772485D01*
X17745537Y-40902883D01*
X17805552Y-41047772D01*
X17836148Y-41201586D01*
X17836148Y-41358414D01*
X17805552Y-41512228D01*
X17745537Y-41657117D01*
X17658408Y-41787515D01*
X17547515Y-41898408D01*
X17417117Y-41985537D01*
X17272228Y-42045552D01*
X17118414Y-42076148D01*
X16961586Y-42076148D01*
X16807772Y-42045552D01*
X16662883Y-41985537D01*
X16532485Y-41898408D01*
X16421592Y-41787515D01*
X16334463Y-41657117D01*
X16274448Y-41512228D01*
X16243852Y-41358414D01*
X16243852Y-41201586D01*
X16274448Y-41047772D01*
X16334463Y-40902883D01*
X16421592Y-40772485D01*
X16532485Y-40661592D01*
X16662883Y-40574463D01*
X16807772Y-40514448D01*
X16961586Y-40483852D01*
X17118414Y-40483852D01*
X17272228Y-40514448D01*
G37*
G36*
X9132228Y-40134448D02*
G01*
X9277117Y-40194463D01*
X9407515Y-40281592D01*
X9518408Y-40392485D01*
X9605537Y-40522883D01*
X9665552Y-40667772D01*
X9696148Y-40821586D01*
X9696148Y-40978414D01*
X9665552Y-41132228D01*
X9605537Y-41277117D01*
X9518408Y-41407515D01*
X9407515Y-41518408D01*
X9277117Y-41605537D01*
X9132228Y-41665552D01*
X8978414Y-41696148D01*
X8821586Y-41696148D01*
X8667772Y-41665552D01*
X8522883Y-41605537D01*
X8392485Y-41518408D01*
X8281592Y-41407515D01*
X8194463Y-41277117D01*
X8134448Y-41132228D01*
X8103852Y-40978414D01*
X8103852Y-40821586D01*
X8134448Y-40667772D01*
X8194463Y-40522883D01*
X8281592Y-40392485D01*
X8392485Y-40281592D01*
X8522883Y-40194463D01*
X8667772Y-40134448D01*
X8821586Y-40103852D01*
X8978414Y-40103852D01*
X9132228Y-40134448D01*
G37*
G36*
X11672228Y-40134448D02*
G01*
X11817117Y-40194463D01*
X11947515Y-40281592D01*
X12058408Y-40392485D01*
X12145537Y-40522883D01*
X12205552Y-40667772D01*
X12236148Y-40821586D01*
X12236148Y-40978414D01*
X12205552Y-41132228D01*
X12145537Y-41277117D01*
X12058408Y-41407515D01*
X11947515Y-41518408D01*
X11817117Y-41605537D01*
X11672228Y-41665552D01*
X11518414Y-41696148D01*
X11361586Y-41696148D01*
X11207772Y-41665552D01*
X11062883Y-41605537D01*
X10932485Y-41518408D01*
X10821592Y-41407515D01*
X10734463Y-41277117D01*
X10674448Y-41132228D01*
X10643852Y-40978414D01*
X10643852Y-40821586D01*
X10674448Y-40667772D01*
X10734463Y-40522883D01*
X10821592Y-40392485D01*
X10932485Y-40281592D01*
X11062883Y-40194463D01*
X11207772Y-40134448D01*
X11361586Y-40103852D01*
X11518414Y-40103852D01*
X11672228Y-40134448D01*
G37*
G36*
X45807425Y-39470615D02*
G01*
X45818017Y-39470615D01*
X45859399Y-39478846D01*
X45953373Y-39493730D01*
X45983604Y-39503552D01*
X46010285Y-39508860D01*
X46047935Y-39524455D01*
X46102563Y-39542205D01*
X46153739Y-39568280D01*
X46191397Y-39583879D01*
X46214019Y-39598995D01*
X46242338Y-39613424D01*
X46319320Y-39669355D01*
X46354393Y-39692790D01*
X46361878Y-39700275D01*
X46369247Y-39705629D01*
X46480170Y-39816552D01*
X46485523Y-39823920D01*
X46493010Y-39831407D01*
X46516448Y-39866484D01*
X46572375Y-39943461D01*
X46586802Y-39971777D01*
X46601921Y-39994403D01*
X46617521Y-40032065D01*
X46643594Y-40083236D01*
X46661341Y-40137856D01*
X46676940Y-40175515D01*
X46682248Y-40202200D01*
X46692069Y-40232426D01*
X46706952Y-40326394D01*
X46715185Y-40367783D01*
X46715185Y-40378374D01*
X46716609Y-40387365D01*
X46716609Y-40544234D01*
X46715185Y-40553224D01*
X46715185Y-40563817D01*
X46706951Y-40605209D01*
X46692069Y-40699173D01*
X46682248Y-40729396D01*
X46676940Y-40756085D01*
X46661339Y-40793747D01*
X46643594Y-40848363D01*
X46617523Y-40899529D01*
X46601921Y-40937197D01*
X46586800Y-40959826D01*
X46572375Y-40988138D01*
X46516456Y-41065103D01*
X46493010Y-41100193D01*
X46485520Y-41107682D01*
X46480170Y-41115047D01*
X46369247Y-41225970D01*
X46361882Y-41231320D01*
X46354393Y-41238810D01*
X46319303Y-41262256D01*
X46242338Y-41318175D01*
X46214026Y-41332600D01*
X46191397Y-41347721D01*
X46153729Y-41363323D01*
X46102563Y-41389394D01*
X46047947Y-41407139D01*
X46010285Y-41422740D01*
X45983596Y-41428048D01*
X45953373Y-41437869D01*
X45859409Y-41452751D01*
X45818017Y-41460985D01*
X45807425Y-41460985D01*
X45798434Y-41462409D01*
X45641566Y-41462409D01*
X45632575Y-41460985D01*
X45621983Y-41460985D01*
X45580591Y-41452751D01*
X45486626Y-41437869D01*
X45456400Y-41428048D01*
X45429715Y-41422740D01*
X45392056Y-41407141D01*
X45337436Y-41389394D01*
X45286265Y-41363321D01*
X45248603Y-41347721D01*
X45225977Y-41332602D01*
X45197661Y-41318175D01*
X45120684Y-41262248D01*
X45085607Y-41238810D01*
X45078120Y-41231323D01*
X45070752Y-41225970D01*
X44959829Y-41115047D01*
X44954475Y-41107678D01*
X44946990Y-41100193D01*
X44923555Y-41065120D01*
X44867624Y-40988138D01*
X44853195Y-40959819D01*
X44838079Y-40937197D01*
X44822480Y-40899539D01*
X44796405Y-40848363D01*
X44778655Y-40793735D01*
X44763060Y-40756085D01*
X44757752Y-40729404D01*
X44747930Y-40699173D01*
X44733046Y-40605199D01*
X44724815Y-40563817D01*
X44724815Y-40553225D01*
X44723391Y-40544234D01*
X44723391Y-40387365D01*
X44724815Y-40378373D01*
X44724815Y-40367783D01*
X44733045Y-40326403D01*
X44747930Y-40232426D01*
X44757753Y-40202192D01*
X44763060Y-40175515D01*
X44778653Y-40137867D01*
X44796405Y-40083236D01*
X44822482Y-40032055D01*
X44838079Y-39994403D01*
X44853192Y-39971783D01*
X44867624Y-39943461D01*
X44923563Y-39866467D01*
X44946990Y-39831407D01*
X44954472Y-39823924D01*
X44959829Y-39816552D01*
X45070752Y-39705629D01*
X45078124Y-39700272D01*
X45085607Y-39692790D01*
X45120667Y-39669363D01*
X45197661Y-39613424D01*
X45225983Y-39598992D01*
X45248603Y-39583879D01*
X45286255Y-39568282D01*
X45337436Y-39542205D01*
X45392067Y-39524453D01*
X45429715Y-39508860D01*
X45456392Y-39503553D01*
X45486626Y-39493730D01*
X45580601Y-39478846D01*
X45621983Y-39470615D01*
X45632575Y-39470615D01*
X45641566Y-39469191D01*
X45798434Y-39469191D01*
X45807425Y-39470615D01*
G37*
G36*
X67626790Y-39239955D02*
G01*
X67790952Y-39293295D01*
X67944748Y-39371658D01*
X68084393Y-39473115D01*
X68206447Y-39595169D01*
X68307904Y-39734814D01*
X68386267Y-39888610D01*
X68439607Y-40052772D01*
X68466609Y-40223257D01*
X68466609Y-40395867D01*
X68439607Y-40566352D01*
X68386267Y-40730514D01*
X68307904Y-40884310D01*
X68206447Y-41023955D01*
X68084393Y-41146009D01*
X67944748Y-41247466D01*
X67790952Y-41325829D01*
X67626790Y-41379169D01*
X67456305Y-41406171D01*
X67283695Y-41406171D01*
X67113210Y-41379169D01*
X66949048Y-41325829D01*
X66795252Y-41247466D01*
X66655607Y-41146009D01*
X66533553Y-41023955D01*
X66432096Y-40884310D01*
X66353733Y-40730514D01*
X66300393Y-40566352D01*
X66273391Y-40395867D01*
X66273391Y-40223257D01*
X66300393Y-40052772D01*
X66353733Y-39888610D01*
X66432096Y-39734814D01*
X66533553Y-39595169D01*
X66655607Y-39473115D01*
X66795252Y-39371658D01*
X66949048Y-39293295D01*
X67113210Y-39239955D01*
X67283695Y-39212953D01*
X67456305Y-39212953D01*
X67626790Y-39239955D01*
G37*
G36*
X34387425Y-37754815D02*
G01*
X34398017Y-37754815D01*
X34439399Y-37763046D01*
X34533373Y-37777930D01*
X34563604Y-37787752D01*
X34590285Y-37793060D01*
X34627935Y-37808655D01*
X34682563Y-37826405D01*
X34733739Y-37852480D01*
X34771397Y-37868079D01*
X34794019Y-37883195D01*
X34822338Y-37897624D01*
X34899320Y-37953555D01*
X34934393Y-37976990D01*
X34941878Y-37984475D01*
X34949247Y-37989829D01*
X35060170Y-38100752D01*
X35065523Y-38108120D01*
X35073010Y-38115607D01*
X35096448Y-38150684D01*
X35152375Y-38227661D01*
X35166802Y-38255977D01*
X35181921Y-38278603D01*
X35197521Y-38316265D01*
X35223594Y-38367436D01*
X35241341Y-38422056D01*
X35256940Y-38459715D01*
X35262248Y-38486400D01*
X35272069Y-38516626D01*
X35286952Y-38610594D01*
X35295185Y-38651983D01*
X35295185Y-38662574D01*
X35296609Y-38671565D01*
X35296609Y-38828434D01*
X35295185Y-38837424D01*
X35295185Y-38848017D01*
X35286951Y-38889409D01*
X35272069Y-38983373D01*
X35262248Y-39013596D01*
X35256940Y-39040285D01*
X35241339Y-39077947D01*
X35223594Y-39132563D01*
X35197523Y-39183729D01*
X35181921Y-39221397D01*
X35166800Y-39244026D01*
X35152375Y-39272338D01*
X35096456Y-39349303D01*
X35073010Y-39384393D01*
X35065520Y-39391882D01*
X35060170Y-39399247D01*
X34949247Y-39510170D01*
X34941882Y-39515520D01*
X34934393Y-39523010D01*
X34899303Y-39546456D01*
X34822338Y-39602375D01*
X34794026Y-39616800D01*
X34771397Y-39631921D01*
X34733729Y-39647523D01*
X34682563Y-39673594D01*
X34627947Y-39691339D01*
X34590285Y-39706940D01*
X34563596Y-39712248D01*
X34533373Y-39722069D01*
X34439409Y-39736951D01*
X34398017Y-39745185D01*
X34387425Y-39745185D01*
X34378434Y-39746609D01*
X34221566Y-39746609D01*
X34212575Y-39745185D01*
X34201983Y-39745185D01*
X34160591Y-39736951D01*
X34066626Y-39722069D01*
X34036400Y-39712248D01*
X34009715Y-39706940D01*
X33972056Y-39691341D01*
X33917436Y-39673594D01*
X33866265Y-39647521D01*
X33828603Y-39631921D01*
X33805977Y-39616802D01*
X33777661Y-39602375D01*
X33700684Y-39546448D01*
X33665607Y-39523010D01*
X33658120Y-39515523D01*
X33650752Y-39510170D01*
X33539829Y-39399247D01*
X33534475Y-39391878D01*
X33526990Y-39384393D01*
X33503555Y-39349320D01*
X33447624Y-39272338D01*
X33433195Y-39244019D01*
X33418079Y-39221397D01*
X33402480Y-39183739D01*
X33376405Y-39132563D01*
X33358655Y-39077935D01*
X33343060Y-39040285D01*
X33337752Y-39013604D01*
X33327930Y-38983373D01*
X33313046Y-38889399D01*
X33304815Y-38848017D01*
X33304815Y-38837425D01*
X33303391Y-38828434D01*
X33303391Y-38671565D01*
X33304815Y-38662573D01*
X33304815Y-38651983D01*
X33313045Y-38610603D01*
X33327930Y-38516626D01*
X33337753Y-38486392D01*
X33343060Y-38459715D01*
X33358653Y-38422067D01*
X33376405Y-38367436D01*
X33402482Y-38316255D01*
X33418079Y-38278603D01*
X33433192Y-38255983D01*
X33447624Y-38227661D01*
X33503563Y-38150667D01*
X33526990Y-38115607D01*
X33534472Y-38108124D01*
X33539829Y-38100752D01*
X33650752Y-37989829D01*
X33658124Y-37984472D01*
X33665607Y-37976990D01*
X33700667Y-37953563D01*
X33777661Y-37897624D01*
X33805983Y-37883192D01*
X33828603Y-37868079D01*
X33866255Y-37852482D01*
X33917436Y-37826405D01*
X33972067Y-37808653D01*
X34009715Y-37793060D01*
X34036392Y-37787753D01*
X34066626Y-37777930D01*
X34160601Y-37763046D01*
X34201983Y-37754815D01*
X34212575Y-37754815D01*
X34221566Y-37753391D01*
X34378434Y-37753391D01*
X34387425Y-37754815D01*
G37*
G36*
X39387425Y-37754815D02*
G01*
X39398017Y-37754815D01*
X39439399Y-37763046D01*
X39533373Y-37777930D01*
X39563604Y-37787752D01*
X39590285Y-37793060D01*
X39627935Y-37808655D01*
X39682563Y-37826405D01*
X39733739Y-37852480D01*
X39771397Y-37868079D01*
X39794019Y-37883195D01*
X39822338Y-37897624D01*
X39899320Y-37953555D01*
X39934393Y-37976990D01*
X39941878Y-37984475D01*
X39949247Y-37989829D01*
X40060170Y-38100752D01*
X40065523Y-38108120D01*
X40073010Y-38115607D01*
X40096448Y-38150684D01*
X40152375Y-38227661D01*
X40166802Y-38255977D01*
X40181921Y-38278603D01*
X40197521Y-38316265D01*
X40223594Y-38367436D01*
X40241341Y-38422056D01*
X40256940Y-38459715D01*
X40262248Y-38486400D01*
X40272069Y-38516626D01*
X40286952Y-38610594D01*
X40295185Y-38651983D01*
X40295185Y-38662574D01*
X40296609Y-38671565D01*
X40296609Y-38828434D01*
X40295185Y-38837424D01*
X40295185Y-38848017D01*
X40286951Y-38889409D01*
X40272069Y-38983373D01*
X40262248Y-39013596D01*
X40256940Y-39040285D01*
X40241339Y-39077947D01*
X40223594Y-39132563D01*
X40197523Y-39183729D01*
X40181921Y-39221397D01*
X40166800Y-39244026D01*
X40152375Y-39272338D01*
X40096456Y-39349303D01*
X40073010Y-39384393D01*
X40065520Y-39391882D01*
X40060170Y-39399247D01*
X39949247Y-39510170D01*
X39941882Y-39515520D01*
X39934393Y-39523010D01*
X39899303Y-39546456D01*
X39822338Y-39602375D01*
X39794026Y-39616800D01*
X39771397Y-39631921D01*
X39733729Y-39647523D01*
X39682563Y-39673594D01*
X39627947Y-39691339D01*
X39590285Y-39706940D01*
X39563596Y-39712248D01*
X39533373Y-39722069D01*
X39439409Y-39736951D01*
X39398017Y-39745185D01*
X39387425Y-39745185D01*
X39378434Y-39746609D01*
X39221566Y-39746609D01*
X39212575Y-39745185D01*
X39201983Y-39745185D01*
X39160591Y-39736951D01*
X39066626Y-39722069D01*
X39036400Y-39712248D01*
X39009715Y-39706940D01*
X38972056Y-39691341D01*
X38917436Y-39673594D01*
X38866265Y-39647521D01*
X38828603Y-39631921D01*
X38805977Y-39616802D01*
X38777661Y-39602375D01*
X38700684Y-39546448D01*
X38665607Y-39523010D01*
X38658120Y-39515523D01*
X38650752Y-39510170D01*
X38539829Y-39399247D01*
X38534475Y-39391878D01*
X38526990Y-39384393D01*
X38503555Y-39349320D01*
X38447624Y-39272338D01*
X38433195Y-39244019D01*
X38418079Y-39221397D01*
X38402480Y-39183739D01*
X38376405Y-39132563D01*
X38358655Y-39077935D01*
X38343060Y-39040285D01*
X38337752Y-39013604D01*
X38327930Y-38983373D01*
X38313046Y-38889399D01*
X38304815Y-38848017D01*
X38304815Y-38837425D01*
X38303391Y-38828434D01*
X38303391Y-38671565D01*
X38304815Y-38662573D01*
X38304815Y-38651983D01*
X38313045Y-38610603D01*
X38327930Y-38516626D01*
X38337753Y-38486392D01*
X38343060Y-38459715D01*
X38358653Y-38422067D01*
X38376405Y-38367436D01*
X38402482Y-38316255D01*
X38418079Y-38278603D01*
X38433192Y-38255983D01*
X38447624Y-38227661D01*
X38503563Y-38150667D01*
X38526990Y-38115607D01*
X38534472Y-38108124D01*
X38539829Y-38100752D01*
X38650752Y-37989829D01*
X38658124Y-37984472D01*
X38665607Y-37976990D01*
X38700667Y-37953563D01*
X38777661Y-37897624D01*
X38805983Y-37883192D01*
X38828603Y-37868079D01*
X38866255Y-37852482D01*
X38917436Y-37826405D01*
X38972067Y-37808653D01*
X39009715Y-37793060D01*
X39036392Y-37787753D01*
X39066626Y-37777930D01*
X39160601Y-37763046D01*
X39201983Y-37754815D01*
X39212575Y-37754815D01*
X39221566Y-37753391D01*
X39378434Y-37753391D01*
X39387425Y-37754815D01*
G37*
G36*
X46720000Y-38359600D02*
G01*
X44720000Y-38359600D01*
X44720000Y-36359600D01*
X46720000Y-36359600D01*
X46720000Y-38359600D01*
G37*
G36*
X15232228Y-36234448D02*
G01*
X15377117Y-36294463D01*
X15507515Y-36381592D01*
X15618408Y-36492485D01*
X15705537Y-36622883D01*
X15765552Y-36767772D01*
X15796148Y-36921586D01*
X15796148Y-37078414D01*
X15765552Y-37232228D01*
X15705537Y-37377117D01*
X15618408Y-37507515D01*
X15507515Y-37618408D01*
X15377117Y-37705537D01*
X15232228Y-37765552D01*
X15078414Y-37796148D01*
X14921586Y-37796148D01*
X14767772Y-37765552D01*
X14622883Y-37705537D01*
X14492485Y-37618408D01*
X14381592Y-37507515D01*
X14294463Y-37377117D01*
X14234448Y-37232228D01*
X14203852Y-37078414D01*
X14203852Y-36921586D01*
X14234448Y-36767772D01*
X14294463Y-36622883D01*
X14381592Y-36492485D01*
X14492485Y-36381592D01*
X14622883Y-36294463D01*
X14767772Y-36234448D01*
X14921586Y-36203852D01*
X15078414Y-36203852D01*
X15232228Y-36234448D01*
G37*
G36*
X17772228Y-36234448D02*
G01*
X17917117Y-36294463D01*
X18047515Y-36381592D01*
X18158408Y-36492485D01*
X18245537Y-36622883D01*
X18305552Y-36767772D01*
X18336148Y-36921586D01*
X18336148Y-37078414D01*
X18305552Y-37232228D01*
X18245537Y-37377117D01*
X18158408Y-37507515D01*
X18047515Y-37618408D01*
X17917117Y-37705537D01*
X17772228Y-37765552D01*
X17618414Y-37796148D01*
X17461586Y-37796148D01*
X17307772Y-37765552D01*
X17162883Y-37705537D01*
X17032485Y-37618408D01*
X16921592Y-37507515D01*
X16834463Y-37377117D01*
X16774448Y-37232228D01*
X16743852Y-37078414D01*
X16743852Y-36921586D01*
X16774448Y-36767772D01*
X16834463Y-36622883D01*
X16921592Y-36492485D01*
X17032485Y-36381592D01*
X17162883Y-36294463D01*
X17307772Y-36234448D01*
X17461586Y-36203852D01*
X17618414Y-36203852D01*
X17772228Y-36234448D01*
G37*
G36*
X6750000Y-36250000D02*
G01*
X5250000Y-36250000D01*
X5250000Y-34750000D01*
X6750000Y-34750000D01*
X6750000Y-36250000D01*
G37*
G36*
X8757714Y-34782295D02*
G01*
X8893548Y-34838559D01*
X9015795Y-34920242D01*
X9119758Y-35024205D01*
X9201441Y-35146452D01*
X9257705Y-35282286D01*
X9286389Y-35426487D01*
X9286389Y-35573513D01*
X9257705Y-35717714D01*
X9201441Y-35853548D01*
X9119758Y-35975795D01*
X9015795Y-36079758D01*
X8893548Y-36161441D01*
X8757714Y-36217705D01*
X8613513Y-36246389D01*
X8466487Y-36246389D01*
X8322286Y-36217705D01*
X8186452Y-36161441D01*
X8064205Y-36079758D01*
X7960242Y-35975795D01*
X7878559Y-35853548D01*
X7822295Y-35717714D01*
X7793611Y-35573513D01*
X7793611Y-35426487D01*
X7822295Y-35282286D01*
X7878559Y-35146452D01*
X7960242Y-35024205D01*
X8064205Y-34920242D01*
X8186452Y-34838559D01*
X8322286Y-34782295D01*
X8466487Y-34753611D01*
X8613513Y-34753611D01*
X8757714Y-34782295D01*
G37*
G36*
X11297714Y-34782295D02*
G01*
X11433548Y-34838559D01*
X11555795Y-34920242D01*
X11659758Y-35024205D01*
X11741441Y-35146452D01*
X11797705Y-35282286D01*
X11826389Y-35426487D01*
X11826389Y-35573513D01*
X11797705Y-35717714D01*
X11741441Y-35853548D01*
X11659758Y-35975795D01*
X11555795Y-36079758D01*
X11433548Y-36161441D01*
X11297714Y-36217705D01*
X11153513Y-36246389D01*
X11006487Y-36246389D01*
X10862286Y-36217705D01*
X10726452Y-36161441D01*
X10604205Y-36079758D01*
X10500242Y-35975795D01*
X10418559Y-35853548D01*
X10362295Y-35717714D01*
X10333611Y-35573513D01*
X10333611Y-35426487D01*
X10362295Y-35282286D01*
X10418559Y-35146452D01*
X10500242Y-35024205D01*
X10604205Y-34920242D01*
X10726452Y-34838559D01*
X10862286Y-34782295D01*
X11006487Y-34753611D01*
X11153513Y-34753611D01*
X11297714Y-34782295D01*
G37*
G36*
X15232228Y-32734448D02*
G01*
X15377117Y-32794463D01*
X15507515Y-32881592D01*
X15618408Y-32992485D01*
X15705537Y-33122883D01*
X15765552Y-33267772D01*
X15796148Y-33421586D01*
X15796148Y-33578414D01*
X15765552Y-33732228D01*
X15705537Y-33877117D01*
X15618408Y-34007515D01*
X15507515Y-34118408D01*
X15377117Y-34205537D01*
X15232228Y-34265552D01*
X15078414Y-34296148D01*
X14921586Y-34296148D01*
X14767772Y-34265552D01*
X14622883Y-34205537D01*
X14492485Y-34118408D01*
X14381592Y-34007515D01*
X14294463Y-33877117D01*
X14234448Y-33732228D01*
X14203852Y-33578414D01*
X14203852Y-33421586D01*
X14234448Y-33267772D01*
X14294463Y-33122883D01*
X14381592Y-32992485D01*
X14492485Y-32881592D01*
X14622883Y-32794463D01*
X14767772Y-32734448D01*
X14921586Y-32703852D01*
X15078414Y-32703852D01*
X15232228Y-32734448D01*
G37*
G36*
X17772228Y-32734448D02*
G01*
X17917117Y-32794463D01*
X18047515Y-32881592D01*
X18158408Y-32992485D01*
X18245537Y-33122883D01*
X18305552Y-33267772D01*
X18336148Y-33421586D01*
X18336148Y-33578414D01*
X18305552Y-33732228D01*
X18245537Y-33877117D01*
X18158408Y-34007515D01*
X18047515Y-34118408D01*
X17917117Y-34205537D01*
X17772228Y-34265552D01*
X17618414Y-34296148D01*
X17461586Y-34296148D01*
X17307772Y-34265552D01*
X17162883Y-34205537D01*
X17032485Y-34118408D01*
X16921592Y-34007515D01*
X16834463Y-33877117D01*
X16774448Y-33732228D01*
X16743852Y-33578414D01*
X16743852Y-33421586D01*
X16774448Y-33267772D01*
X16834463Y-33122883D01*
X16921592Y-32992485D01*
X17032485Y-32881592D01*
X17162883Y-32794463D01*
X17307772Y-32734448D01*
X17461586Y-32703852D01*
X17618414Y-32703852D01*
X17772228Y-32734448D01*
G37*
G36*
X21232228Y-32734448D02*
G01*
X21377117Y-32794463D01*
X21507515Y-32881592D01*
X21618408Y-32992485D01*
X21705537Y-33122883D01*
X21765552Y-33267772D01*
X21796148Y-33421586D01*
X21796148Y-33578414D01*
X21765552Y-33732228D01*
X21705537Y-33877117D01*
X21618408Y-34007515D01*
X21507515Y-34118408D01*
X21377117Y-34205537D01*
X21232228Y-34265552D01*
X21078414Y-34296148D01*
X20921586Y-34296148D01*
X20767772Y-34265552D01*
X20622883Y-34205537D01*
X20492485Y-34118408D01*
X20381592Y-34007515D01*
X20294463Y-33877117D01*
X20234448Y-33732228D01*
X20203852Y-33578414D01*
X20203852Y-33421586D01*
X20234448Y-33267772D01*
X20294463Y-33122883D01*
X20381592Y-32992485D01*
X20492485Y-32881592D01*
X20622883Y-32794463D01*
X20767772Y-32734448D01*
X20921586Y-32703852D01*
X21078414Y-32703852D01*
X21232228Y-32734448D01*
G37*
G36*
X23772228Y-32734448D02*
G01*
X23917117Y-32794463D01*
X24047515Y-32881592D01*
X24158408Y-32992485D01*
X24245537Y-33122883D01*
X24305552Y-33267772D01*
X24336148Y-33421586D01*
X24336148Y-33578414D01*
X24305552Y-33732228D01*
X24245537Y-33877117D01*
X24158408Y-34007515D01*
X24047515Y-34118408D01*
X23917117Y-34205537D01*
X23772228Y-34265552D01*
X23618414Y-34296148D01*
X23461586Y-34296148D01*
X23307772Y-34265552D01*
X23162883Y-34205537D01*
X23032485Y-34118408D01*
X22921592Y-34007515D01*
X22834463Y-33877117D01*
X22774448Y-33732228D01*
X22743852Y-33578414D01*
X22743852Y-33421586D01*
X22774448Y-33267772D01*
X22834463Y-33122883D01*
X22921592Y-32992485D01*
X23032485Y-32881592D01*
X23162883Y-32794463D01*
X23307772Y-32734448D01*
X23461586Y-32703852D01*
X23618414Y-32703852D01*
X23772228Y-32734448D01*
G37*
G36*
X27232228Y-32734448D02*
G01*
X27377117Y-32794463D01*
X27507515Y-32881592D01*
X27618408Y-32992485D01*
X27705537Y-33122883D01*
X27765552Y-33267772D01*
X27796148Y-33421586D01*
X27796148Y-33578414D01*
X27765552Y-33732228D01*
X27705537Y-33877117D01*
X27618408Y-34007515D01*
X27507515Y-34118408D01*
X27377117Y-34205537D01*
X27232228Y-34265552D01*
X27078414Y-34296148D01*
X26921586Y-34296148D01*
X26767772Y-34265552D01*
X26622883Y-34205537D01*
X26492485Y-34118408D01*
X26381592Y-34007515D01*
X26294463Y-33877117D01*
X26234448Y-33732228D01*
X26203852Y-33578414D01*
X26203852Y-33421586D01*
X26234448Y-33267772D01*
X26294463Y-33122883D01*
X26381592Y-32992485D01*
X26492485Y-32881592D01*
X26622883Y-32794463D01*
X26767772Y-32734448D01*
X26921586Y-32703852D01*
X27078414Y-32703852D01*
X27232228Y-32734448D01*
G37*
G36*
X29772228Y-32734448D02*
G01*
X29917117Y-32794463D01*
X30047515Y-32881592D01*
X30158408Y-32992485D01*
X30245537Y-33122883D01*
X30305552Y-33267772D01*
X30336148Y-33421586D01*
X30336148Y-33578414D01*
X30305552Y-33732228D01*
X30245537Y-33877117D01*
X30158408Y-34007515D01*
X30047515Y-34118408D01*
X29917117Y-34205537D01*
X29772228Y-34265552D01*
X29618414Y-34296148D01*
X29461586Y-34296148D01*
X29307772Y-34265552D01*
X29162883Y-34205537D01*
X29032485Y-34118408D01*
X28921592Y-34007515D01*
X28834463Y-33877117D01*
X28774448Y-33732228D01*
X28743852Y-33578414D01*
X28743852Y-33421586D01*
X28774448Y-33267772D01*
X28834463Y-33122883D01*
X28921592Y-32992485D01*
X29032485Y-32881592D01*
X29162883Y-32794463D01*
X29307772Y-32734448D01*
X29461586Y-32703852D01*
X29618414Y-32703852D01*
X29772228Y-32734448D01*
G37*
G36*
X33232228Y-32734448D02*
G01*
X33377117Y-32794463D01*
X33507515Y-32881592D01*
X33618408Y-32992485D01*
X33705537Y-33122883D01*
X33765552Y-33267772D01*
X33796148Y-33421586D01*
X33796148Y-33578414D01*
X33765552Y-33732228D01*
X33705537Y-33877117D01*
X33618408Y-34007515D01*
X33507515Y-34118408D01*
X33377117Y-34205537D01*
X33232228Y-34265552D01*
X33078414Y-34296148D01*
X32921586Y-34296148D01*
X32767772Y-34265552D01*
X32622883Y-34205537D01*
X32492485Y-34118408D01*
X32381592Y-34007515D01*
X32294463Y-33877117D01*
X32234448Y-33732228D01*
X32203852Y-33578414D01*
X32203852Y-33421586D01*
X32234448Y-33267772D01*
X32294463Y-33122883D01*
X32381592Y-32992485D01*
X32492485Y-32881592D01*
X32622883Y-32794463D01*
X32767772Y-32734448D01*
X32921586Y-32703852D01*
X33078414Y-32703852D01*
X33232228Y-32734448D01*
G37*
G36*
X35772228Y-32734448D02*
G01*
X35917117Y-32794463D01*
X36047515Y-32881592D01*
X36158408Y-32992485D01*
X36245537Y-33122883D01*
X36305552Y-33267772D01*
X36336148Y-33421586D01*
X36336148Y-33578414D01*
X36305552Y-33732228D01*
X36245537Y-33877117D01*
X36158408Y-34007515D01*
X36047515Y-34118408D01*
X35917117Y-34205537D01*
X35772228Y-34265552D01*
X35618414Y-34296148D01*
X35461586Y-34296148D01*
X35307772Y-34265552D01*
X35162883Y-34205537D01*
X35032485Y-34118408D01*
X34921592Y-34007515D01*
X34834463Y-33877117D01*
X34774448Y-33732228D01*
X34743852Y-33578414D01*
X34743852Y-33421586D01*
X34774448Y-33267772D01*
X34834463Y-33122883D01*
X34921592Y-32992485D01*
X35032485Y-32881592D01*
X35162883Y-32794463D01*
X35307772Y-32734448D01*
X35461586Y-32703852D01*
X35618414Y-32703852D01*
X35772228Y-32734448D01*
G37*
G36*
X2786742Y-30936601D02*
G01*
X2940687Y-31000367D01*
X3079234Y-31092941D01*
X3197059Y-31210766D01*
X3289633Y-31349313D01*
X3353399Y-31503258D01*
X3385907Y-31666685D01*
X3385907Y-31833315D01*
X3353399Y-31996742D01*
X3289633Y-32150687D01*
X3197059Y-32289234D01*
X3079234Y-32407059D01*
X2940687Y-32499633D01*
X2786742Y-32563399D01*
X2623315Y-32595907D01*
X2456685Y-32595907D01*
X2293258Y-32563399D01*
X2139313Y-32499633D01*
X2000766Y-32407059D01*
X1882941Y-32289234D01*
X1790367Y-32150687D01*
X1726601Y-31996742D01*
X1694093Y-31833315D01*
X1694093Y-31666685D01*
X1726601Y-31503258D01*
X1790367Y-31349313D01*
X1882941Y-31210766D01*
X2000766Y-31092941D01*
X2139313Y-31000367D01*
X2293258Y-30936601D01*
X2456685Y-30904093D01*
X2623315Y-30904093D01*
X2786742Y-30936601D01*
G37*
G36*
X45807425Y-28930615D02*
G01*
X45818017Y-28930615D01*
X45859399Y-28938846D01*
X45953373Y-28953730D01*
X45983604Y-28963552D01*
X46010285Y-28968860D01*
X46047935Y-28984455D01*
X46102563Y-29002205D01*
X46153739Y-29028280D01*
X46191397Y-29043879D01*
X46214019Y-29058995D01*
X46242338Y-29073424D01*
X46319320Y-29129355D01*
X46354393Y-29152790D01*
X46361878Y-29160275D01*
X46369247Y-29165629D01*
X46480170Y-29276552D01*
X46485523Y-29283920D01*
X46493010Y-29291407D01*
X46516448Y-29326484D01*
X46572375Y-29403461D01*
X46586802Y-29431777D01*
X46601921Y-29454403D01*
X46617521Y-29492065D01*
X46643594Y-29543236D01*
X46661341Y-29597856D01*
X46676940Y-29635515D01*
X46682248Y-29662200D01*
X46692069Y-29692426D01*
X46706952Y-29786394D01*
X46715185Y-29827783D01*
X46715185Y-29838374D01*
X46716609Y-29847365D01*
X46716609Y-30004234D01*
X46715185Y-30013224D01*
X46715185Y-30023817D01*
X46706951Y-30065209D01*
X46692069Y-30159173D01*
X46682248Y-30189396D01*
X46676940Y-30216085D01*
X46661339Y-30253747D01*
X46643594Y-30308363D01*
X46617523Y-30359529D01*
X46601921Y-30397197D01*
X46586800Y-30419826D01*
X46572375Y-30448138D01*
X46516456Y-30525103D01*
X46493010Y-30560193D01*
X46485520Y-30567682D01*
X46480170Y-30575047D01*
X46369247Y-30685970D01*
X46361882Y-30691320D01*
X46354393Y-30698810D01*
X46319303Y-30722256D01*
X46242338Y-30778175D01*
X46214026Y-30792600D01*
X46191397Y-30807721D01*
X46153729Y-30823323D01*
X46102563Y-30849394D01*
X46047947Y-30867139D01*
X46010285Y-30882740D01*
X45983596Y-30888048D01*
X45953373Y-30897869D01*
X45859409Y-30912751D01*
X45818017Y-30920985D01*
X45807425Y-30920985D01*
X45798434Y-30922409D01*
X45641566Y-30922409D01*
X45632575Y-30920985D01*
X45621983Y-30920985D01*
X45580591Y-30912751D01*
X45486626Y-30897869D01*
X45456400Y-30888048D01*
X45429715Y-30882740D01*
X45392056Y-30867141D01*
X45337436Y-30849394D01*
X45286265Y-30823321D01*
X45248603Y-30807721D01*
X45225977Y-30792602D01*
X45197661Y-30778175D01*
X45120684Y-30722248D01*
X45085607Y-30698810D01*
X45078120Y-30691323D01*
X45070752Y-30685970D01*
X44959829Y-30575047D01*
X44954475Y-30567678D01*
X44946990Y-30560193D01*
X44923555Y-30525120D01*
X44867624Y-30448138D01*
X44853195Y-30419819D01*
X44838079Y-30397197D01*
X44822480Y-30359539D01*
X44796405Y-30308363D01*
X44778655Y-30253735D01*
X44763060Y-30216085D01*
X44757752Y-30189404D01*
X44747930Y-30159173D01*
X44733046Y-30065199D01*
X44724815Y-30023817D01*
X44724815Y-30013225D01*
X44723391Y-30004234D01*
X44723391Y-29847365D01*
X44724815Y-29838373D01*
X44724815Y-29827783D01*
X44733045Y-29786403D01*
X44747930Y-29692426D01*
X44757753Y-29662192D01*
X44763060Y-29635515D01*
X44778653Y-29597867D01*
X44796405Y-29543236D01*
X44822482Y-29492055D01*
X44838079Y-29454403D01*
X44853192Y-29431783D01*
X44867624Y-29403461D01*
X44923563Y-29326467D01*
X44946990Y-29291407D01*
X44954472Y-29283924D01*
X44959829Y-29276552D01*
X45070752Y-29165629D01*
X45078124Y-29160272D01*
X45085607Y-29152790D01*
X45120667Y-29129363D01*
X45197661Y-29073424D01*
X45225983Y-29058992D01*
X45248603Y-29043879D01*
X45286255Y-29028282D01*
X45337436Y-29002205D01*
X45392067Y-28984453D01*
X45429715Y-28968860D01*
X45456392Y-28963553D01*
X45486626Y-28953730D01*
X45580601Y-28938846D01*
X45621983Y-28930615D01*
X45632575Y-28930615D01*
X45641566Y-28929191D01*
X45798434Y-28929191D01*
X45807425Y-28930615D01*
G37*
G36*
X26569828Y-28703944D02*
G01*
X26619985Y-28711251D01*
X26629192Y-28715752D01*
X26645671Y-28719030D01*
X26672322Y-28736838D01*
X26694465Y-28747663D01*
X26706428Y-28759626D01*
X26726777Y-28773223D01*
X26740373Y-28793571D01*
X26752336Y-28805534D01*
X26763160Y-28827674D01*
X26780970Y-28854329D01*
X26784248Y-28870809D01*
X26788748Y-28880014D01*
X26796052Y-28930151D01*
X26800000Y-28950000D01*
X26800000Y-30050000D01*
X26796052Y-30069847D01*
X26788748Y-30119985D01*
X26784248Y-30129188D01*
X26780970Y-30145671D01*
X26763158Y-30172328D01*
X26752336Y-30194465D01*
X26740375Y-30206425D01*
X26726777Y-30226777D01*
X26706425Y-30240375D01*
X26694465Y-30252336D01*
X26672328Y-30263158D01*
X26645671Y-30280970D01*
X26629188Y-30284248D01*
X26619985Y-30288748D01*
X26569845Y-30296052D01*
X26550000Y-30300000D01*
X25450000Y-30300000D01*
X25430155Y-30296052D01*
X25380014Y-30288748D01*
X25370809Y-30284248D01*
X25354329Y-30280970D01*
X25327674Y-30263160D01*
X25305534Y-30252336D01*
X25293571Y-30240373D01*
X25273223Y-30226777D01*
X25259626Y-30206428D01*
X25247663Y-30194465D01*
X25236838Y-30172322D01*
X25219030Y-30145671D01*
X25215752Y-30129192D01*
X25211251Y-30119985D01*
X25203943Y-30069826D01*
X25200000Y-30050000D01*
X25200000Y-28950000D01*
X25203943Y-28930174D01*
X25211251Y-28880014D01*
X25215752Y-28870806D01*
X25219030Y-28854329D01*
X25236836Y-28827679D01*
X25247663Y-28805534D01*
X25259628Y-28793568D01*
X25273223Y-28773223D01*
X25293568Y-28759628D01*
X25305534Y-28747663D01*
X25327679Y-28736836D01*
X25354329Y-28719030D01*
X25370806Y-28715752D01*
X25380014Y-28711251D01*
X25430175Y-28703943D01*
X25450000Y-28700000D01*
X26550000Y-28700000D01*
X26569828Y-28703944D01*
G37*
G36*
X6750000Y-30250000D02*
G01*
X5250000Y-30250000D01*
X5250000Y-28750000D01*
X6750000Y-28750000D01*
X6750000Y-30250000D01*
G37*
G36*
X8757714Y-28782295D02*
G01*
X8893548Y-28838559D01*
X9015795Y-28920242D01*
X9119758Y-29024205D01*
X9201441Y-29146452D01*
X9257705Y-29282286D01*
X9286389Y-29426487D01*
X9286389Y-29573513D01*
X9257705Y-29717714D01*
X9201441Y-29853548D01*
X9119758Y-29975795D01*
X9015795Y-30079758D01*
X8893548Y-30161441D01*
X8757714Y-30217705D01*
X8613513Y-30246389D01*
X8466487Y-30246389D01*
X8322286Y-30217705D01*
X8186452Y-30161441D01*
X8064205Y-30079758D01*
X7960242Y-29975795D01*
X7878559Y-29853548D01*
X7822295Y-29717714D01*
X7793611Y-29573513D01*
X7793611Y-29426487D01*
X7822295Y-29282286D01*
X7878559Y-29146452D01*
X7960242Y-29024205D01*
X8064205Y-28920242D01*
X8186452Y-28838559D01*
X8322286Y-28782295D01*
X8466487Y-28753611D01*
X8613513Y-28753611D01*
X8757714Y-28782295D01*
G37*
G36*
X11297714Y-28782295D02*
G01*
X11433548Y-28838559D01*
X11555795Y-28920242D01*
X11659758Y-29024205D01*
X11741441Y-29146452D01*
X11797705Y-29282286D01*
X11826389Y-29426487D01*
X11826389Y-29573513D01*
X11797705Y-29717714D01*
X11741441Y-29853548D01*
X11659758Y-29975795D01*
X11555795Y-30079758D01*
X11433548Y-30161441D01*
X11297714Y-30217705D01*
X11153513Y-30246389D01*
X11006487Y-30246389D01*
X10862286Y-30217705D01*
X10726452Y-30161441D01*
X10604205Y-30079758D01*
X10500242Y-29975795D01*
X10418559Y-29853548D01*
X10362295Y-29717714D01*
X10333611Y-29573513D01*
X10333611Y-29426487D01*
X10362295Y-29282286D01*
X10418559Y-29146452D01*
X10500242Y-29024205D01*
X10604205Y-28920242D01*
X10726452Y-28838559D01*
X10862286Y-28782295D01*
X11006487Y-28753611D01*
X11153513Y-28753611D01*
X11297714Y-28782295D01*
G37*
G36*
X3390000Y-30060000D02*
G01*
X1690000Y-30060000D01*
X1690000Y-28360000D01*
X3390000Y-28360000D01*
X3390000Y-30060000D01*
G37*
G36*
X17732228Y-27734448D02*
G01*
X17877117Y-27794463D01*
X18007515Y-27881592D01*
X18118408Y-27992485D01*
X18205537Y-28122883D01*
X18265552Y-28267772D01*
X18296148Y-28421586D01*
X18296148Y-28578414D01*
X18265552Y-28732228D01*
X18205537Y-28877117D01*
X18118408Y-29007515D01*
X18007515Y-29118408D01*
X17877117Y-29205537D01*
X17732228Y-29265552D01*
X17578414Y-29296148D01*
X17421586Y-29296148D01*
X17267772Y-29265552D01*
X17122883Y-29205537D01*
X16992485Y-29118408D01*
X16881592Y-29007515D01*
X16794463Y-28877117D01*
X16734448Y-28732228D01*
X16703852Y-28578414D01*
X16703852Y-28421586D01*
X16734448Y-28267772D01*
X16794463Y-28122883D01*
X16881592Y-27992485D01*
X16992485Y-27881592D01*
X17122883Y-27794463D01*
X17267772Y-27734448D01*
X17421586Y-27703852D01*
X17578414Y-27703852D01*
X17732228Y-27734448D01*
G37*
G36*
X20232228Y-27734448D02*
G01*
X20377117Y-27794463D01*
X20507515Y-27881592D01*
X20618408Y-27992485D01*
X20705537Y-28122883D01*
X20765552Y-28267772D01*
X20796148Y-28421586D01*
X20796148Y-28578414D01*
X20765552Y-28732228D01*
X20705537Y-28877117D01*
X20618408Y-29007515D01*
X20507515Y-29118408D01*
X20377117Y-29205537D01*
X20232228Y-29265552D01*
X20078414Y-29296148D01*
X19921586Y-29296148D01*
X19767772Y-29265552D01*
X19622883Y-29205537D01*
X19492485Y-29118408D01*
X19381592Y-29007515D01*
X19294463Y-28877117D01*
X19234448Y-28732228D01*
X19203852Y-28578414D01*
X19203852Y-28421586D01*
X19234448Y-28267772D01*
X19294463Y-28122883D01*
X19381592Y-27992485D01*
X19492485Y-27881592D01*
X19622883Y-27794463D01*
X19767772Y-27734448D01*
X19921586Y-27703852D01*
X20078414Y-27703852D01*
X20232228Y-27734448D01*
G37*
G36*
X55610000Y-28940000D02*
G01*
X53610000Y-28940000D01*
X53610000Y-26940000D01*
X55610000Y-26940000D01*
X55610000Y-28940000D01*
G37*
G36*
X57237425Y-26944815D02*
G01*
X57248017Y-26944815D01*
X57289399Y-26953046D01*
X57383373Y-26967930D01*
X57413604Y-26977752D01*
X57440285Y-26983060D01*
X57477935Y-26998655D01*
X57532563Y-27016405D01*
X57583739Y-27042480D01*
X57621397Y-27058079D01*
X57644019Y-27073195D01*
X57672338Y-27087624D01*
X57749320Y-27143555D01*
X57784393Y-27166990D01*
X57791878Y-27174475D01*
X57799247Y-27179829D01*
X57910170Y-27290752D01*
X57915523Y-27298120D01*
X57923010Y-27305607D01*
X57946448Y-27340684D01*
X58002375Y-27417661D01*
X58016802Y-27445977D01*
X58031921Y-27468603D01*
X58047521Y-27506265D01*
X58073594Y-27557436D01*
X58091341Y-27612056D01*
X58106940Y-27649715D01*
X58112248Y-27676400D01*
X58122069Y-27706626D01*
X58136952Y-27800594D01*
X58145185Y-27841983D01*
X58145185Y-27852574D01*
X58146609Y-27861565D01*
X58146609Y-28018434D01*
X58145185Y-28027424D01*
X58145185Y-28038017D01*
X58136951Y-28079409D01*
X58122069Y-28173373D01*
X58112248Y-28203596D01*
X58106940Y-28230285D01*
X58091339Y-28267947D01*
X58073594Y-28322563D01*
X58047523Y-28373729D01*
X58031921Y-28411397D01*
X58016800Y-28434026D01*
X58002375Y-28462338D01*
X57946456Y-28539303D01*
X57923010Y-28574393D01*
X57915520Y-28581882D01*
X57910170Y-28589247D01*
X57799247Y-28700170D01*
X57791882Y-28705520D01*
X57784393Y-28713010D01*
X57749303Y-28736456D01*
X57672338Y-28792375D01*
X57644026Y-28806800D01*
X57621397Y-28821921D01*
X57583729Y-28837523D01*
X57532563Y-28863594D01*
X57477947Y-28881339D01*
X57440285Y-28896940D01*
X57413596Y-28902248D01*
X57383373Y-28912069D01*
X57289409Y-28926951D01*
X57248017Y-28935185D01*
X57237425Y-28935185D01*
X57228434Y-28936609D01*
X57071566Y-28936609D01*
X57062575Y-28935185D01*
X57051983Y-28935185D01*
X57010591Y-28926951D01*
X56916626Y-28912069D01*
X56886400Y-28902248D01*
X56859715Y-28896940D01*
X56822056Y-28881341D01*
X56767436Y-28863594D01*
X56716265Y-28837521D01*
X56678603Y-28821921D01*
X56655977Y-28806802D01*
X56627661Y-28792375D01*
X56550684Y-28736448D01*
X56515607Y-28713010D01*
X56508120Y-28705523D01*
X56500752Y-28700170D01*
X56389829Y-28589247D01*
X56384475Y-28581878D01*
X56376990Y-28574393D01*
X56353555Y-28539320D01*
X56297624Y-28462338D01*
X56283195Y-28434019D01*
X56268079Y-28411397D01*
X56252480Y-28373739D01*
X56226405Y-28322563D01*
X56208655Y-28267935D01*
X56193060Y-28230285D01*
X56187752Y-28203604D01*
X56177930Y-28173373D01*
X56163046Y-28079399D01*
X56154815Y-28038017D01*
X56154815Y-28027425D01*
X56153391Y-28018434D01*
X56153391Y-27861565D01*
X56154815Y-27852573D01*
X56154815Y-27841983D01*
X56163045Y-27800603D01*
X56177930Y-27706626D01*
X56187753Y-27676392D01*
X56193060Y-27649715D01*
X56208653Y-27612067D01*
X56226405Y-27557436D01*
X56252482Y-27506255D01*
X56268079Y-27468603D01*
X56283192Y-27445983D01*
X56297624Y-27417661D01*
X56353563Y-27340667D01*
X56376990Y-27305607D01*
X56384472Y-27298124D01*
X56389829Y-27290752D01*
X56500752Y-27179829D01*
X56508124Y-27174472D01*
X56515607Y-27166990D01*
X56550667Y-27143563D01*
X56627661Y-27087624D01*
X56655983Y-27073192D01*
X56678603Y-27058079D01*
X56716255Y-27042482D01*
X56767436Y-27016405D01*
X56822067Y-26998653D01*
X56859715Y-26983060D01*
X56886392Y-26977753D01*
X56916626Y-26967930D01*
X57010601Y-26953046D01*
X57051983Y-26944815D01*
X57062575Y-26944815D01*
X57071566Y-26943391D01*
X57228434Y-26943391D01*
X57237425Y-26944815D01*
G37*
G36*
X26232228Y-26234448D02*
G01*
X26377117Y-26294463D01*
X26507515Y-26381592D01*
X26618408Y-26492485D01*
X26705537Y-26622883D01*
X26765552Y-26767772D01*
X26796148Y-26921586D01*
X26796148Y-27078414D01*
X26765552Y-27232228D01*
X26705537Y-27377117D01*
X26618408Y-27507515D01*
X26507515Y-27618408D01*
X26377117Y-27705537D01*
X26232228Y-27765552D01*
X26078414Y-27796148D01*
X25921586Y-27796148D01*
X25767772Y-27765552D01*
X25622883Y-27705537D01*
X25492485Y-27618408D01*
X25381592Y-27507515D01*
X25294463Y-27377117D01*
X25234448Y-27232228D01*
X25203852Y-27078414D01*
X25203852Y-26921586D01*
X25234448Y-26767772D01*
X25294463Y-26622883D01*
X25381592Y-26492485D01*
X25492485Y-26381592D01*
X25622883Y-26294463D01*
X25767772Y-26234448D01*
X25921586Y-26203852D01*
X26078414Y-26203852D01*
X26232228Y-26234448D01*
G37*
G36*
X46720000Y-27400000D02*
G01*
X44720000Y-27400000D01*
X44720000Y-25400000D01*
X46720000Y-25400000D01*
X46720000Y-27400000D01*
G37*
G36*
X67626790Y-25038656D02*
G01*
X67790952Y-25091996D01*
X67944748Y-25170359D01*
X68084393Y-25271816D01*
X68206447Y-25393870D01*
X68307904Y-25533515D01*
X68386267Y-25687311D01*
X68439607Y-25851473D01*
X68466609Y-26021958D01*
X68466609Y-26194568D01*
X68439607Y-26365053D01*
X68386267Y-26529215D01*
X68307904Y-26683011D01*
X68206447Y-26822656D01*
X68084393Y-26944710D01*
X67944748Y-27046167D01*
X67790952Y-27124530D01*
X67626790Y-27177870D01*
X67456305Y-27204872D01*
X67283695Y-27204872D01*
X67113210Y-27177870D01*
X66949048Y-27124530D01*
X66795252Y-27046167D01*
X66655607Y-26944710D01*
X66533553Y-26822656D01*
X66432096Y-26683011D01*
X66353733Y-26529215D01*
X66300393Y-26365053D01*
X66273391Y-26194568D01*
X66273391Y-26021958D01*
X66300393Y-25851473D01*
X66353733Y-25687311D01*
X66432096Y-25533515D01*
X66533553Y-25393870D01*
X66655607Y-25271816D01*
X66795252Y-25170359D01*
X66949048Y-25091996D01*
X67113210Y-25038656D01*
X67283695Y-25011654D01*
X67456305Y-25011654D01*
X67626790Y-25038656D01*
G37*
G36*
X31732228Y-24734448D02*
G01*
X31877117Y-24794463D01*
X32007515Y-24881592D01*
X32118408Y-24992485D01*
X32205537Y-25122883D01*
X32265552Y-25267772D01*
X32296148Y-25421586D01*
X32296148Y-25578414D01*
X32265552Y-25732228D01*
X32205537Y-25877117D01*
X32118408Y-26007515D01*
X32007515Y-26118408D01*
X31877117Y-26205537D01*
X31732228Y-26265552D01*
X31578414Y-26296148D01*
X31421586Y-26296148D01*
X31267772Y-26265552D01*
X31122883Y-26205537D01*
X30992485Y-26118408D01*
X30881592Y-26007515D01*
X30794463Y-25877117D01*
X30734448Y-25732228D01*
X30703852Y-25578414D01*
X30703852Y-25421586D01*
X30734448Y-25267772D01*
X30794463Y-25122883D01*
X30881592Y-24992485D01*
X30992485Y-24881592D01*
X31122883Y-24794463D01*
X31267772Y-24734448D01*
X31421586Y-24703852D01*
X31578414Y-24703852D01*
X31732228Y-24734448D01*
G37*
G36*
X34232228Y-24734448D02*
G01*
X34377117Y-24794463D01*
X34507515Y-24881592D01*
X34618408Y-24992485D01*
X34705537Y-25122883D01*
X34765552Y-25267772D01*
X34796148Y-25421586D01*
X34796148Y-25578414D01*
X34765552Y-25732228D01*
X34705537Y-25877117D01*
X34618408Y-26007515D01*
X34507515Y-26118408D01*
X34377117Y-26205537D01*
X34232228Y-26265552D01*
X34078414Y-26296148D01*
X33921586Y-26296148D01*
X33767772Y-26265552D01*
X33622883Y-26205537D01*
X33492485Y-26118408D01*
X33381592Y-26007515D01*
X33294463Y-25877117D01*
X33234448Y-25732228D01*
X33203852Y-25578414D01*
X33203852Y-25421586D01*
X33234448Y-25267772D01*
X33294463Y-25122883D01*
X33381592Y-24992485D01*
X33492485Y-24881592D01*
X33622883Y-24794463D01*
X33767772Y-24734448D01*
X33921586Y-24703852D01*
X34078414Y-24703852D01*
X34232228Y-24734448D01*
G37*
G36*
X21152068Y-25389932D02*
G01*
X19452068Y-25389932D01*
X19452068Y-23689932D01*
X21152068Y-23689932D01*
X21152068Y-25389932D01*
G37*
G36*
X2768810Y-23726533D02*
G01*
X2922755Y-23790299D01*
X3061302Y-23882873D01*
X3179127Y-24000698D01*
X3271701Y-24139245D01*
X3335467Y-24293190D01*
X3367975Y-24456617D01*
X3367975Y-24623247D01*
X3335467Y-24786674D01*
X3271701Y-24940619D01*
X3179127Y-25079166D01*
X3061302Y-25196991D01*
X2922755Y-25289565D01*
X2768810Y-25353331D01*
X2605383Y-25385839D01*
X2438753Y-25385839D01*
X2275326Y-25353331D01*
X2121381Y-25289565D01*
X1982834Y-25196991D01*
X1865009Y-25079166D01*
X1772435Y-24940619D01*
X1708669Y-24786674D01*
X1676161Y-24623247D01*
X1676161Y-24456617D01*
X1708669Y-24293190D01*
X1772435Y-24139245D01*
X1865009Y-24000698D01*
X1982834Y-23882873D01*
X2121381Y-23790299D01*
X2275326Y-23726533D01*
X2438753Y-23694025D01*
X2605383Y-23694025D01*
X2768810Y-23726533D01*
G37*
G36*
X5308810Y-23726533D02*
G01*
X5462755Y-23790299D01*
X5601302Y-23882873D01*
X5719127Y-24000698D01*
X5811701Y-24139245D01*
X5875467Y-24293190D01*
X5907975Y-24456617D01*
X5907975Y-24623247D01*
X5875467Y-24786674D01*
X5811701Y-24940619D01*
X5719127Y-25079166D01*
X5601302Y-25196991D01*
X5462755Y-25289565D01*
X5308810Y-25353331D01*
X5145383Y-25385839D01*
X4978753Y-25385839D01*
X4815326Y-25353331D01*
X4661381Y-25289565D01*
X4522834Y-25196991D01*
X4405009Y-25079166D01*
X4312435Y-24940619D01*
X4248669Y-24786674D01*
X4216161Y-24623247D01*
X4216161Y-24456617D01*
X4248669Y-24293190D01*
X4312435Y-24139245D01*
X4405009Y-24000698D01*
X4522834Y-23882873D01*
X4661381Y-23790299D01*
X4815326Y-23726533D01*
X4978753Y-23694025D01*
X5145383Y-23694025D01*
X5308810Y-23726533D01*
G37*
G36*
X7848810Y-23726533D02*
G01*
X8002755Y-23790299D01*
X8141302Y-23882873D01*
X8259127Y-24000698D01*
X8351701Y-24139245D01*
X8415467Y-24293190D01*
X8447975Y-24456617D01*
X8447975Y-24623247D01*
X8415467Y-24786674D01*
X8351701Y-24940619D01*
X8259127Y-25079166D01*
X8141302Y-25196991D01*
X8002755Y-25289565D01*
X7848810Y-25353331D01*
X7685383Y-25385839D01*
X7518753Y-25385839D01*
X7355326Y-25353331D01*
X7201381Y-25289565D01*
X7062834Y-25196991D01*
X6945009Y-25079166D01*
X6852435Y-24940619D01*
X6788669Y-24786674D01*
X6756161Y-24623247D01*
X6756161Y-24456617D01*
X6788669Y-24293190D01*
X6852435Y-24139245D01*
X6945009Y-24000698D01*
X7062834Y-23882873D01*
X7201381Y-23790299D01*
X7355326Y-23726533D01*
X7518753Y-23694025D01*
X7685383Y-23694025D01*
X7848810Y-23726533D01*
G37*
G36*
X10388810Y-23726533D02*
G01*
X10542755Y-23790299D01*
X10681302Y-23882873D01*
X10799127Y-24000698D01*
X10891701Y-24139245D01*
X10955467Y-24293190D01*
X10987975Y-24456617D01*
X10987975Y-24623247D01*
X10955467Y-24786674D01*
X10891701Y-24940619D01*
X10799127Y-25079166D01*
X10681302Y-25196991D01*
X10542755Y-25289565D01*
X10388810Y-25353331D01*
X10225383Y-25385839D01*
X10058753Y-25385839D01*
X9895326Y-25353331D01*
X9741381Y-25289565D01*
X9602834Y-25196991D01*
X9485009Y-25079166D01*
X9392435Y-24940619D01*
X9328669Y-24786674D01*
X9296161Y-24623247D01*
X9296161Y-24456617D01*
X9328669Y-24293190D01*
X9392435Y-24139245D01*
X9485009Y-24000698D01*
X9602834Y-23882873D01*
X9741381Y-23790299D01*
X9895326Y-23726533D01*
X10058753Y-23694025D01*
X10225383Y-23694025D01*
X10388810Y-23726533D01*
G37*
G36*
X12928810Y-23726533D02*
G01*
X13082755Y-23790299D01*
X13221302Y-23882873D01*
X13339127Y-24000698D01*
X13431701Y-24139245D01*
X13495467Y-24293190D01*
X13527975Y-24456617D01*
X13527975Y-24623247D01*
X13495467Y-24786674D01*
X13431701Y-24940619D01*
X13339127Y-25079166D01*
X13221302Y-25196991D01*
X13082755Y-25289565D01*
X12928810Y-25353331D01*
X12765383Y-25385839D01*
X12598753Y-25385839D01*
X12435326Y-25353331D01*
X12281381Y-25289565D01*
X12142834Y-25196991D01*
X12025009Y-25079166D01*
X11932435Y-24940619D01*
X11868669Y-24786674D01*
X11836161Y-24623247D01*
X11836161Y-24456617D01*
X11868669Y-24293190D01*
X11932435Y-24139245D01*
X12025009Y-24000698D01*
X12142834Y-23882873D01*
X12281381Y-23790299D01*
X12435326Y-23726533D01*
X12598753Y-23694025D01*
X12765383Y-23694025D01*
X12928810Y-23726533D01*
G37*
G36*
X15468810Y-23726533D02*
G01*
X15622755Y-23790299D01*
X15761302Y-23882873D01*
X15879127Y-24000698D01*
X15971701Y-24139245D01*
X16035467Y-24293190D01*
X16067975Y-24456617D01*
X16067975Y-24623247D01*
X16035467Y-24786674D01*
X15971701Y-24940619D01*
X15879127Y-25079166D01*
X15761302Y-25196991D01*
X15622755Y-25289565D01*
X15468810Y-25353331D01*
X15305383Y-25385839D01*
X15138753Y-25385839D01*
X14975326Y-25353331D01*
X14821381Y-25289565D01*
X14682834Y-25196991D01*
X14565009Y-25079166D01*
X14472435Y-24940619D01*
X14408669Y-24786674D01*
X14376161Y-24623247D01*
X14376161Y-24456617D01*
X14408669Y-24293190D01*
X14472435Y-24139245D01*
X14565009Y-24000698D01*
X14682834Y-23882873D01*
X14821381Y-23790299D01*
X14975326Y-23726533D01*
X15138753Y-23694025D01*
X15305383Y-23694025D01*
X15468810Y-23726533D01*
G37*
G36*
X18008810Y-23726533D02*
G01*
X18162755Y-23790299D01*
X18301302Y-23882873D01*
X18419127Y-24000698D01*
X18511701Y-24139245D01*
X18575467Y-24293190D01*
X18607975Y-24456617D01*
X18607975Y-24623247D01*
X18575467Y-24786674D01*
X18511701Y-24940619D01*
X18419127Y-25079166D01*
X18301302Y-25196991D01*
X18162755Y-25289565D01*
X18008810Y-25353331D01*
X17845383Y-25385839D01*
X17678753Y-25385839D01*
X17515326Y-25353331D01*
X17361381Y-25289565D01*
X17222834Y-25196991D01*
X17105009Y-25079166D01*
X17012435Y-24940619D01*
X16948669Y-24786674D01*
X16916161Y-24623247D01*
X16916161Y-24456617D01*
X16948669Y-24293190D01*
X17012435Y-24139245D01*
X17105009Y-24000698D01*
X17222834Y-23882873D01*
X17361381Y-23790299D01*
X17515326Y-23726533D01*
X17678753Y-23694025D01*
X17845383Y-23694025D01*
X18008810Y-23726533D01*
G37*
G36*
X47069828Y-22203944D02*
G01*
X47119985Y-22211251D01*
X47129192Y-22215752D01*
X47145671Y-22219030D01*
X47172322Y-22236838D01*
X47194465Y-22247663D01*
X47206428Y-22259626D01*
X47226777Y-22273223D01*
X47240373Y-22293571D01*
X47252336Y-22305534D01*
X47263160Y-22327674D01*
X47280970Y-22354329D01*
X47284248Y-22370809D01*
X47288748Y-22380014D01*
X47296053Y-22430157D01*
X47300000Y-22450000D01*
X47300000Y-23550000D01*
X47296052Y-23569847D01*
X47288748Y-23619985D01*
X47284248Y-23629188D01*
X47280970Y-23645671D01*
X47263158Y-23672328D01*
X47252336Y-23694465D01*
X47240375Y-23706425D01*
X47226777Y-23726777D01*
X47206425Y-23740375D01*
X47194465Y-23752336D01*
X47172328Y-23763158D01*
X47145671Y-23780970D01*
X47129188Y-23784248D01*
X47119985Y-23788748D01*
X47069845Y-23796052D01*
X47050000Y-23800000D01*
X45950000Y-23800000D01*
X45930155Y-23796052D01*
X45880014Y-23788748D01*
X45870809Y-23784248D01*
X45854329Y-23780970D01*
X45827674Y-23763160D01*
X45805534Y-23752336D01*
X45793571Y-23740373D01*
X45773223Y-23726777D01*
X45759626Y-23706428D01*
X45747663Y-23694465D01*
X45736838Y-23672322D01*
X45719030Y-23645671D01*
X45715752Y-23629192D01*
X45711251Y-23619985D01*
X45703943Y-23569826D01*
X45700000Y-23550000D01*
X45700000Y-22450000D01*
X45703943Y-22430174D01*
X45711251Y-22380014D01*
X45715752Y-22370806D01*
X45719030Y-22354329D01*
X45736836Y-22327679D01*
X45747663Y-22305534D01*
X45759628Y-22293568D01*
X45773223Y-22273223D01*
X45793568Y-22259628D01*
X45805534Y-22247663D01*
X45827679Y-22236836D01*
X45854329Y-22219030D01*
X45870806Y-22215752D01*
X45880014Y-22211251D01*
X45930175Y-22203943D01*
X45950000Y-22200000D01*
X47050000Y-22200000D01*
X47069828Y-22203944D01*
G37*
G36*
X61529828Y-22203944D02*
G01*
X61579985Y-22211251D01*
X61589192Y-22215752D01*
X61605671Y-22219030D01*
X61632322Y-22236838D01*
X61654465Y-22247663D01*
X61666428Y-22259626D01*
X61686777Y-22273223D01*
X61700373Y-22293571D01*
X61712336Y-22305534D01*
X61723160Y-22327674D01*
X61740970Y-22354329D01*
X61744248Y-22370809D01*
X61748748Y-22380014D01*
X61756053Y-22430157D01*
X61760000Y-22450000D01*
X61760000Y-23550000D01*
X61756052Y-23569847D01*
X61748748Y-23619985D01*
X61744248Y-23629188D01*
X61740970Y-23645671D01*
X61723158Y-23672328D01*
X61712336Y-23694465D01*
X61700375Y-23706425D01*
X61686777Y-23726777D01*
X61666425Y-23740375D01*
X61654465Y-23752336D01*
X61632328Y-23763158D01*
X61605671Y-23780970D01*
X61589188Y-23784248D01*
X61579985Y-23788748D01*
X61529845Y-23796052D01*
X61510000Y-23800000D01*
X60410000Y-23800000D01*
X60390155Y-23796052D01*
X60340014Y-23788748D01*
X60330809Y-23784248D01*
X60314329Y-23780970D01*
X60287674Y-23763160D01*
X60265534Y-23752336D01*
X60253571Y-23740373D01*
X60233223Y-23726777D01*
X60219626Y-23706428D01*
X60207663Y-23694465D01*
X60196838Y-23672322D01*
X60179030Y-23645671D01*
X60175752Y-23629192D01*
X60171251Y-23619985D01*
X60163943Y-23569826D01*
X60160000Y-23550000D01*
X60160000Y-22450000D01*
X60163943Y-22430174D01*
X60171251Y-22380014D01*
X60175752Y-22370806D01*
X60179030Y-22354329D01*
X60196836Y-22327679D01*
X60207663Y-22305534D01*
X60219628Y-22293568D01*
X60233223Y-22273223D01*
X60253568Y-22259628D01*
X60265534Y-22247663D01*
X60287679Y-22236836D01*
X60314329Y-22219030D01*
X60330806Y-22215752D01*
X60340014Y-22211251D01*
X60390175Y-22203943D01*
X60410000Y-22200000D01*
X61510000Y-22200000D01*
X61529828Y-22203944D01*
G37*
G36*
X54352228Y-22234448D02*
G01*
X54497117Y-22294463D01*
X54627515Y-22381592D01*
X54738408Y-22492485D01*
X54825537Y-22622883D01*
X54885552Y-22767772D01*
X54916148Y-22921586D01*
X54916148Y-23078414D01*
X54885552Y-23232228D01*
X54825537Y-23377117D01*
X54738408Y-23507515D01*
X54627515Y-23618408D01*
X54497117Y-23705537D01*
X54352228Y-23765552D01*
X54198414Y-23796148D01*
X54041586Y-23796148D01*
X53887772Y-23765552D01*
X53742883Y-23705537D01*
X53612485Y-23618408D01*
X53501592Y-23507515D01*
X53414463Y-23377117D01*
X53354448Y-23232228D01*
X53323852Y-23078414D01*
X53323852Y-22921586D01*
X53354448Y-22767772D01*
X53414463Y-22622883D01*
X53501592Y-22492485D01*
X53612485Y-22381592D01*
X53742883Y-22294463D01*
X53887772Y-22234448D01*
X54041586Y-22203852D01*
X54198414Y-22203852D01*
X54352228Y-22234448D01*
G37*
G36*
X44580000Y-22680000D02*
G01*
X41780000Y-22680000D01*
X41780000Y-19880000D01*
X44580000Y-19880000D01*
X44580000Y-22680000D01*
G37*
G36*
X25399513Y-20089116D02*
G01*
X25553458Y-20152882D01*
X25692005Y-20245456D01*
X25809830Y-20363281D01*
X25902404Y-20501828D01*
X25966170Y-20655773D01*
X25998678Y-20819200D01*
X25998678Y-20985830D01*
X25966170Y-21149257D01*
X25902404Y-21303202D01*
X25809830Y-21441749D01*
X25692005Y-21559574D01*
X25553458Y-21652148D01*
X25399513Y-21715914D01*
X25236086Y-21748422D01*
X25069456Y-21748422D01*
X24906029Y-21715914D01*
X24752084Y-21652148D01*
X24613537Y-21559574D01*
X24495712Y-21441749D01*
X24403138Y-21303202D01*
X24339372Y-21149257D01*
X24306864Y-20985830D01*
X24306864Y-20819200D01*
X24339372Y-20655773D01*
X24403138Y-20501828D01*
X24495712Y-20363281D01*
X24613537Y-20245456D01*
X24752084Y-20152882D01*
X24906029Y-20089116D01*
X25069456Y-20056608D01*
X25236086Y-20056608D01*
X25399513Y-20089116D01*
G37*
G36*
X25399513Y-17549116D02*
G01*
X25553458Y-17612882D01*
X25692005Y-17705456D01*
X25809830Y-17823281D01*
X25902404Y-17961828D01*
X25966170Y-18115773D01*
X25998678Y-18279200D01*
X25998678Y-18445830D01*
X25966170Y-18609257D01*
X25902404Y-18763202D01*
X25809830Y-18901749D01*
X25692005Y-19019574D01*
X25553458Y-19112148D01*
X25399513Y-19175914D01*
X25236086Y-19208422D01*
X25069456Y-19208422D01*
X24906029Y-19175914D01*
X24752084Y-19112148D01*
X24613537Y-19019574D01*
X24495712Y-18901749D01*
X24403138Y-18763202D01*
X24339372Y-18609257D01*
X24306864Y-18445830D01*
X24306864Y-18279200D01*
X24339372Y-18115773D01*
X24403138Y-17961828D01*
X24495712Y-17823281D01*
X24613537Y-17705456D01*
X24752084Y-17612882D01*
X24906029Y-17549116D01*
X25069456Y-17516608D01*
X25236086Y-17516608D01*
X25399513Y-17549116D01*
G37*
G36*
X7232228Y-16234448D02*
G01*
X7377117Y-16294463D01*
X7507515Y-16381592D01*
X7618408Y-16492485D01*
X7705537Y-16622883D01*
X7765552Y-16767772D01*
X7796148Y-16921586D01*
X7796148Y-17078414D01*
X7765552Y-17232228D01*
X7705537Y-17377117D01*
X7618408Y-17507515D01*
X7507515Y-17618408D01*
X7377117Y-17705537D01*
X7232228Y-17765552D01*
X7078414Y-17796148D01*
X6921586Y-17796148D01*
X6767772Y-17765552D01*
X6622883Y-17705537D01*
X6492485Y-17618408D01*
X6381592Y-17507515D01*
X6294463Y-17377117D01*
X6234448Y-17232228D01*
X6203852Y-17078414D01*
X6203852Y-16921586D01*
X6234448Y-16767772D01*
X6294463Y-16622883D01*
X6381592Y-16492485D01*
X6492485Y-16381592D01*
X6622883Y-16294463D01*
X6767772Y-16234448D01*
X6921586Y-16203852D01*
X7078414Y-16203852D01*
X7232228Y-16234448D01*
G37*
G36*
X17392228Y-16234448D02*
G01*
X17537117Y-16294463D01*
X17667515Y-16381592D01*
X17778408Y-16492485D01*
X17865537Y-16622883D01*
X17925552Y-16767772D01*
X17956148Y-16921586D01*
X17956148Y-17078414D01*
X17925552Y-17232228D01*
X17865537Y-17377117D01*
X17778408Y-17507515D01*
X17667515Y-17618408D01*
X17537117Y-17705537D01*
X17392228Y-17765552D01*
X17238414Y-17796148D01*
X17081586Y-17796148D01*
X16927772Y-17765552D01*
X16782883Y-17705537D01*
X16652485Y-17618408D01*
X16541592Y-17507515D01*
X16454463Y-17377117D01*
X16394448Y-17232228D01*
X16363852Y-17078414D01*
X16363852Y-16921586D01*
X16394448Y-16767772D01*
X16454463Y-16622883D01*
X16541592Y-16492485D01*
X16652485Y-16381592D01*
X16782883Y-16294463D01*
X16927772Y-16234448D01*
X17081586Y-16203852D01*
X17238414Y-16203852D01*
X17392228Y-16234448D01*
G37*
G36*
X25399513Y-15009116D02*
G01*
X25553458Y-15072882D01*
X25692005Y-15165456D01*
X25809830Y-15283281D01*
X25902404Y-15421828D01*
X25966170Y-15575773D01*
X25998678Y-15739200D01*
X25998678Y-15905830D01*
X25966170Y-16069257D01*
X25902404Y-16223202D01*
X25809830Y-16361749D01*
X25692005Y-16479574D01*
X25553458Y-16572148D01*
X25399513Y-16635914D01*
X25236086Y-16668422D01*
X25069456Y-16668422D01*
X24906029Y-16635914D01*
X24752084Y-16572148D01*
X24613537Y-16479574D01*
X24495712Y-16361749D01*
X24403138Y-16223202D01*
X24339372Y-16069257D01*
X24306864Y-15905830D01*
X24306864Y-15739200D01*
X24339372Y-15575773D01*
X24403138Y-15421828D01*
X24495712Y-15283281D01*
X24613537Y-15165456D01*
X24752084Y-15072882D01*
X24906029Y-15009116D01*
X25069456Y-14976608D01*
X25236086Y-14976608D01*
X25399513Y-15009116D01*
G37*
G36*
X61192228Y-14614448D02*
G01*
X61337117Y-14674463D01*
X61467515Y-14761592D01*
X61578408Y-14872485D01*
X61665537Y-15002883D01*
X61725552Y-15147772D01*
X61756148Y-15301586D01*
X61756148Y-15458414D01*
X61725552Y-15612228D01*
X61665537Y-15757117D01*
X61578408Y-15887515D01*
X61467515Y-15998408D01*
X61337117Y-16085537D01*
X61192228Y-16145552D01*
X61038414Y-16176148D01*
X60881586Y-16176148D01*
X60727772Y-16145552D01*
X60582883Y-16085537D01*
X60452485Y-15998408D01*
X60341592Y-15887515D01*
X60254463Y-15757117D01*
X60194448Y-15612228D01*
X60163852Y-15458414D01*
X60163852Y-15301586D01*
X60194448Y-15147772D01*
X60254463Y-15002883D01*
X60341592Y-14872485D01*
X60452485Y-14761592D01*
X60582883Y-14674463D01*
X60727772Y-14614448D01*
X60881586Y-14583852D01*
X61038414Y-14583852D01*
X61192228Y-14614448D01*
G37*
G36*
X66286742Y-13656601D02*
G01*
X66440687Y-13720367D01*
X66579234Y-13812941D01*
X66697059Y-13930766D01*
X66789633Y-14069313D01*
X66853399Y-14223258D01*
X66885907Y-14386685D01*
X66885907Y-14553315D01*
X66853399Y-14716742D01*
X66789633Y-14870687D01*
X66697059Y-15009234D01*
X66579234Y-15127059D01*
X66440687Y-15219633D01*
X66286742Y-15283399D01*
X66123315Y-15315907D01*
X65956685Y-15315907D01*
X65793258Y-15283399D01*
X65639313Y-15219633D01*
X65500766Y-15127059D01*
X65382941Y-15009234D01*
X65290367Y-14870687D01*
X65226601Y-14716742D01*
X65194093Y-14553315D01*
X65194093Y-14386685D01*
X65226601Y-14223258D01*
X65290367Y-14069313D01*
X65382941Y-13930766D01*
X65500766Y-13812941D01*
X65639313Y-13720367D01*
X65793258Y-13656601D01*
X65956685Y-13624093D01*
X66123315Y-13624093D01*
X66286742Y-13656601D01*
G37*
G36*
X25399513Y-12469116D02*
G01*
X25553458Y-12532882D01*
X25692005Y-12625456D01*
X25809830Y-12743281D01*
X25902404Y-12881828D01*
X25966170Y-13035773D01*
X25998678Y-13199200D01*
X25998678Y-13365830D01*
X25966170Y-13529257D01*
X25902404Y-13683202D01*
X25809830Y-13821749D01*
X25692005Y-13939574D01*
X25553458Y-14032148D01*
X25399513Y-14095914D01*
X25236086Y-14128422D01*
X25069456Y-14128422D01*
X24906029Y-14095914D01*
X24752084Y-14032148D01*
X24613537Y-13939574D01*
X24495712Y-13821749D01*
X24403138Y-13683202D01*
X24339372Y-13529257D01*
X24306864Y-13365830D01*
X24306864Y-13199200D01*
X24339372Y-13035773D01*
X24403138Y-12881828D01*
X24495712Y-12743281D01*
X24613537Y-12625456D01*
X24752084Y-12532882D01*
X24906029Y-12469116D01*
X25069456Y-12436608D01*
X25236086Y-12436608D01*
X25399513Y-12469116D01*
G37*
G36*
X60732228Y-11234448D02*
G01*
X60877117Y-11294463D01*
X61007515Y-11381592D01*
X61118408Y-11492485D01*
X61205537Y-11622883D01*
X61265552Y-11767772D01*
X61296148Y-11921586D01*
X61296148Y-12078414D01*
X61265552Y-12232228D01*
X61205537Y-12377117D01*
X61118408Y-12507515D01*
X61007515Y-12618408D01*
X60877117Y-12705537D01*
X60732228Y-12765552D01*
X60578414Y-12796148D01*
X60421586Y-12796148D01*
X60267772Y-12765552D01*
X60122883Y-12705537D01*
X59992485Y-12618408D01*
X59881592Y-12507515D01*
X59794463Y-12377117D01*
X59734448Y-12232228D01*
X59703852Y-12078414D01*
X59703852Y-11921586D01*
X59734448Y-11767772D01*
X59794463Y-11622883D01*
X59881592Y-11492485D01*
X59992485Y-11381592D01*
X60122883Y-11294463D01*
X60267772Y-11234448D01*
X60421586Y-11203852D01*
X60578414Y-11203852D01*
X60732228Y-11234448D01*
G37*
G36*
X66286742Y-11116601D02*
G01*
X66440687Y-11180367D01*
X66579234Y-11272941D01*
X66697059Y-11390766D01*
X66789633Y-11529313D01*
X66853399Y-11683258D01*
X66885907Y-11846685D01*
X66885907Y-12013315D01*
X66853399Y-12176742D01*
X66789633Y-12330687D01*
X66697059Y-12469234D01*
X66579234Y-12587059D01*
X66440687Y-12679633D01*
X66286742Y-12743399D01*
X66123315Y-12775907D01*
X65956685Y-12775907D01*
X65793258Y-12743399D01*
X65639313Y-12679633D01*
X65500766Y-12587059D01*
X65382941Y-12469234D01*
X65290367Y-12330687D01*
X65226601Y-12176742D01*
X65194093Y-12013315D01*
X65194093Y-11846685D01*
X65226601Y-11683258D01*
X65290367Y-11529313D01*
X65382941Y-11390766D01*
X65500766Y-11272941D01*
X65639313Y-11180367D01*
X65793258Y-11116601D01*
X65956685Y-11084093D01*
X66123315Y-11084093D01*
X66286742Y-11116601D01*
G37*
G36*
X43506824Y-9758682D02*
G01*
X43715757Y-9826569D01*
X43911498Y-9926304D01*
X44089227Y-10055432D01*
X44244568Y-10210773D01*
X44373696Y-10388502D01*
X44473431Y-10584243D01*
X44541318Y-10793176D01*
X44575684Y-11010157D01*
X44575684Y-11229843D01*
X44541318Y-11446824D01*
X44473431Y-11655757D01*
X44373696Y-11851498D01*
X44244568Y-12029227D01*
X44089227Y-12184568D01*
X43911498Y-12313696D01*
X43715757Y-12413431D01*
X43506824Y-12481318D01*
X43289843Y-12515684D01*
X43070157Y-12515684D01*
X42853176Y-12481318D01*
X42644243Y-12413431D01*
X42448502Y-12313696D01*
X42270773Y-12184568D01*
X42115432Y-12029227D01*
X41986304Y-11851498D01*
X41886569Y-11655757D01*
X41818682Y-11446824D01*
X41784316Y-11229843D01*
X41784316Y-11010157D01*
X41818682Y-10793176D01*
X41886569Y-10584243D01*
X41986304Y-10388502D01*
X42115432Y-10210773D01*
X42270773Y-10055432D01*
X42448502Y-9926304D01*
X42644243Y-9826569D01*
X42853176Y-9758682D01*
X43070157Y-9724316D01*
X43289843Y-9724316D01*
X43506824Y-9758682D01*
G37*
G36*
X25399513Y-9929116D02*
G01*
X25553458Y-9992882D01*
X25692005Y-10085456D01*
X25809830Y-10203281D01*
X25902404Y-10341828D01*
X25966170Y-10495773D01*
X25998678Y-10659200D01*
X25998678Y-10825830D01*
X25966170Y-10989257D01*
X25902404Y-11143202D01*
X25809830Y-11281749D01*
X25692005Y-11399574D01*
X25553458Y-11492148D01*
X25399513Y-11555914D01*
X25236086Y-11588422D01*
X25069456Y-11588422D01*
X24906029Y-11555914D01*
X24752084Y-11492148D01*
X24613537Y-11399574D01*
X24495712Y-11281749D01*
X24403138Y-11143202D01*
X24339372Y-10989257D01*
X24306864Y-10825830D01*
X24306864Y-10659200D01*
X24339372Y-10495773D01*
X24403138Y-10341828D01*
X24495712Y-10203281D01*
X24613537Y-10085456D01*
X24752084Y-9992882D01*
X24906029Y-9929116D01*
X25069456Y-9896608D01*
X25236086Y-9896608D01*
X25399513Y-9929116D01*
G37*
G36*
X60732228Y-8734448D02*
G01*
X60877117Y-8794463D01*
X61007515Y-8881592D01*
X61118408Y-8992485D01*
X61205537Y-9122883D01*
X61265552Y-9267772D01*
X61296148Y-9421586D01*
X61296148Y-9578414D01*
X61265552Y-9732228D01*
X61205537Y-9877117D01*
X61118408Y-10007515D01*
X61007515Y-10118408D01*
X60877117Y-10205537D01*
X60732228Y-10265552D01*
X60578414Y-10296148D01*
X60421586Y-10296148D01*
X60267772Y-10265552D01*
X60122883Y-10205537D01*
X59992485Y-10118408D01*
X59881592Y-10007515D01*
X59794463Y-9877117D01*
X59734448Y-9732228D01*
X59703852Y-9578414D01*
X59703852Y-9421586D01*
X59734448Y-9267772D01*
X59794463Y-9122883D01*
X59881592Y-8992485D01*
X59992485Y-8881592D01*
X60122883Y-8794463D01*
X60267772Y-8734448D01*
X60421586Y-8703852D01*
X60578414Y-8703852D01*
X60732228Y-8734448D01*
G37*
G36*
X66890000Y-10240000D02*
G01*
X65190000Y-10240000D01*
X65190000Y-8540000D01*
X66890000Y-8540000D01*
X66890000Y-10240000D01*
G37*
G36*
X21170000Y-10150000D02*
G01*
X19470000Y-10150000D01*
X19470000Y-8450000D01*
X21170000Y-8450000D01*
X21170000Y-10150000D01*
G37*
G36*
X2786742Y-8486601D02*
G01*
X2940687Y-8550367D01*
X3079234Y-8642941D01*
X3197059Y-8760766D01*
X3289633Y-8899313D01*
X3353399Y-9053258D01*
X3385907Y-9216685D01*
X3385907Y-9383315D01*
X3353399Y-9546742D01*
X3289633Y-9700687D01*
X3197059Y-9839234D01*
X3079234Y-9957059D01*
X2940687Y-10049633D01*
X2786742Y-10113399D01*
X2623315Y-10145907D01*
X2456685Y-10145907D01*
X2293258Y-10113399D01*
X2139313Y-10049633D01*
X2000766Y-9957059D01*
X1882941Y-9839234D01*
X1790367Y-9700687D01*
X1726601Y-9546742D01*
X1694093Y-9383315D01*
X1694093Y-9216685D01*
X1726601Y-9053258D01*
X1790367Y-8899313D01*
X1882941Y-8760766D01*
X2000766Y-8642941D01*
X2139313Y-8550367D01*
X2293258Y-8486601D01*
X2456685Y-8454093D01*
X2623315Y-8454093D01*
X2786742Y-8486601D01*
G37*
G36*
X5326742Y-8486601D02*
G01*
X5480687Y-8550367D01*
X5619234Y-8642941D01*
X5737059Y-8760766D01*
X5829633Y-8899313D01*
X5893399Y-9053258D01*
X5925907Y-9216685D01*
X5925907Y-9383315D01*
X5893399Y-9546742D01*
X5829633Y-9700687D01*
X5737059Y-9839234D01*
X5619234Y-9957059D01*
X5480687Y-10049633D01*
X5326742Y-10113399D01*
X5163315Y-10145907D01*
X4996685Y-10145907D01*
X4833258Y-10113399D01*
X4679313Y-10049633D01*
X4540766Y-9957059D01*
X4422941Y-9839234D01*
X4330367Y-9700687D01*
X4266601Y-9546742D01*
X4234093Y-9383315D01*
X4234093Y-9216685D01*
X4266601Y-9053258D01*
X4330367Y-8899313D01*
X4422941Y-8760766D01*
X4540766Y-8642941D01*
X4679313Y-8550367D01*
X4833258Y-8486601D01*
X4996685Y-8454093D01*
X5163315Y-8454093D01*
X5326742Y-8486601D01*
G37*
G36*
X7866742Y-8486601D02*
G01*
X8020687Y-8550367D01*
X8159234Y-8642941D01*
X8277059Y-8760766D01*
X8369633Y-8899313D01*
X8433399Y-9053258D01*
X8465907Y-9216685D01*
X8465907Y-9383315D01*
X8433399Y-9546742D01*
X8369633Y-9700687D01*
X8277059Y-9839234D01*
X8159234Y-9957059D01*
X8020687Y-10049633D01*
X7866742Y-10113399D01*
X7703315Y-10145907D01*
X7536685Y-10145907D01*
X7373258Y-10113399D01*
X7219313Y-10049633D01*
X7080766Y-9957059D01*
X6962941Y-9839234D01*
X6870367Y-9700687D01*
X6806601Y-9546742D01*
X6774093Y-9383315D01*
X6774093Y-9216685D01*
X6806601Y-9053258D01*
X6870367Y-8899313D01*
X6962941Y-8760766D01*
X7080766Y-8642941D01*
X7219313Y-8550367D01*
X7373258Y-8486601D01*
X7536685Y-8454093D01*
X7703315Y-8454093D01*
X7866742Y-8486601D01*
G37*
G36*
X10406742Y-8486601D02*
G01*
X10560687Y-8550367D01*
X10699234Y-8642941D01*
X10817059Y-8760766D01*
X10909633Y-8899313D01*
X10973399Y-9053258D01*
X11005907Y-9216685D01*
X11005907Y-9383315D01*
X10973399Y-9546742D01*
X10909633Y-9700687D01*
X10817059Y-9839234D01*
X10699234Y-9957059D01*
X10560687Y-10049633D01*
X10406742Y-10113399D01*
X10243315Y-10145907D01*
X10076685Y-10145907D01*
X9913258Y-10113399D01*
X9759313Y-10049633D01*
X9620766Y-9957059D01*
X9502941Y-9839234D01*
X9410367Y-9700687D01*
X9346601Y-9546742D01*
X9314093Y-9383315D01*
X9314093Y-9216685D01*
X9346601Y-9053258D01*
X9410367Y-8899313D01*
X9502941Y-8760766D01*
X9620766Y-8642941D01*
X9759313Y-8550367D01*
X9913258Y-8486601D01*
X10076685Y-8454093D01*
X10243315Y-8454093D01*
X10406742Y-8486601D01*
G37*
G36*
X12946742Y-8486601D02*
G01*
X13100687Y-8550367D01*
X13239234Y-8642941D01*
X13357059Y-8760766D01*
X13449633Y-8899313D01*
X13513399Y-9053258D01*
X13545907Y-9216685D01*
X13545907Y-9383315D01*
X13513399Y-9546742D01*
X13449633Y-9700687D01*
X13357059Y-9839234D01*
X13239234Y-9957059D01*
X13100687Y-10049633D01*
X12946742Y-10113399D01*
X12783315Y-10145907D01*
X12616685Y-10145907D01*
X12453258Y-10113399D01*
X12299313Y-10049633D01*
X12160766Y-9957059D01*
X12042941Y-9839234D01*
X11950367Y-9700687D01*
X11886601Y-9546742D01*
X11854093Y-9383315D01*
X11854093Y-9216685D01*
X11886601Y-9053258D01*
X11950367Y-8899313D01*
X12042941Y-8760766D01*
X12160766Y-8642941D01*
X12299313Y-8550367D01*
X12453258Y-8486601D01*
X12616685Y-8454093D01*
X12783315Y-8454093D01*
X12946742Y-8486601D01*
G37*
G36*
X15486742Y-8486601D02*
G01*
X15640687Y-8550367D01*
X15779234Y-8642941D01*
X15897059Y-8760766D01*
X15989633Y-8899313D01*
X16053399Y-9053258D01*
X16085907Y-9216685D01*
X16085907Y-9383315D01*
X16053399Y-9546742D01*
X15989633Y-9700687D01*
X15897059Y-9839234D01*
X15779234Y-9957059D01*
X15640687Y-10049633D01*
X15486742Y-10113399D01*
X15323315Y-10145907D01*
X15156685Y-10145907D01*
X14993258Y-10113399D01*
X14839313Y-10049633D01*
X14700766Y-9957059D01*
X14582941Y-9839234D01*
X14490367Y-9700687D01*
X14426601Y-9546742D01*
X14394093Y-9383315D01*
X14394093Y-9216685D01*
X14426601Y-9053258D01*
X14490367Y-8899313D01*
X14582941Y-8760766D01*
X14700766Y-8642941D01*
X14839313Y-8550367D01*
X14993258Y-8486601D01*
X15156685Y-8454093D01*
X15323315Y-8454093D01*
X15486742Y-8486601D01*
G37*
G36*
X18026742Y-8486601D02*
G01*
X18180687Y-8550367D01*
X18319234Y-8642941D01*
X18437059Y-8760766D01*
X18529633Y-8899313D01*
X18593399Y-9053258D01*
X18625907Y-9216685D01*
X18625907Y-9383315D01*
X18593399Y-9546742D01*
X18529633Y-9700687D01*
X18437059Y-9839234D01*
X18319234Y-9957059D01*
X18180687Y-10049633D01*
X18026742Y-10113399D01*
X17863315Y-10145907D01*
X17696685Y-10145907D01*
X17533258Y-10113399D01*
X17379313Y-10049633D01*
X17240766Y-9957059D01*
X17122941Y-9839234D01*
X17030367Y-9700687D01*
X16966601Y-9546742D01*
X16934093Y-9383315D01*
X16934093Y-9216685D01*
X16966601Y-9053258D01*
X17030367Y-8899313D01*
X17122941Y-8760766D01*
X17240766Y-8642941D01*
X17379313Y-8550367D01*
X17533258Y-8486601D01*
X17696685Y-8454093D01*
X17863315Y-8454093D01*
X18026742Y-8486601D01*
G37*
G36*
X26002771Y-9052515D02*
G01*
X24302771Y-9052515D01*
X24302771Y-7352515D01*
X26002771Y-7352515D01*
X26002771Y-9052515D01*
G37*
G36*
X52920000Y-8470000D02*
G01*
X51220000Y-8470000D01*
X51220000Y-6770000D01*
X52920000Y-6770000D01*
X52920000Y-8470000D01*
G37*
G36*
X31996742Y-6806601D02*
G01*
X32150687Y-6870367D01*
X32289234Y-6962941D01*
X32407059Y-7080766D01*
X32499633Y-7219313D01*
X32563399Y-7373258D01*
X32595907Y-7536685D01*
X32595907Y-7703315D01*
X32563399Y-7866742D01*
X32499633Y-8020687D01*
X32407059Y-8159234D01*
X32289234Y-8277059D01*
X32150687Y-8369633D01*
X31996742Y-8433399D01*
X31833315Y-8465907D01*
X31666685Y-8465907D01*
X31503258Y-8433399D01*
X31349313Y-8369633D01*
X31210766Y-8277059D01*
X31092941Y-8159234D01*
X31000367Y-8020687D01*
X30936601Y-7866742D01*
X30904093Y-7703315D01*
X30904093Y-7536685D01*
X30936601Y-7373258D01*
X31000367Y-7219313D01*
X31092941Y-7080766D01*
X31210766Y-6962941D01*
X31349313Y-6870367D01*
X31503258Y-6806601D01*
X31666685Y-6774093D01*
X31833315Y-6774093D01*
X31996742Y-6806601D01*
G37*
G36*
X34536742Y-6806601D02*
G01*
X34690687Y-6870367D01*
X34829234Y-6962941D01*
X34947059Y-7080766D01*
X35039633Y-7219313D01*
X35103399Y-7373258D01*
X35135907Y-7536685D01*
X35135907Y-7703315D01*
X35103399Y-7866742D01*
X35039633Y-8020687D01*
X34947059Y-8159234D01*
X34829234Y-8277059D01*
X34690687Y-8369633D01*
X34536742Y-8433399D01*
X34373315Y-8465907D01*
X34206685Y-8465907D01*
X34043258Y-8433399D01*
X33889313Y-8369633D01*
X33750766Y-8277059D01*
X33632941Y-8159234D01*
X33540367Y-8020687D01*
X33476601Y-7866742D01*
X33444093Y-7703315D01*
X33444093Y-7536685D01*
X33476601Y-7373258D01*
X33540367Y-7219313D01*
X33632941Y-7080766D01*
X33750766Y-6962941D01*
X33889313Y-6870367D01*
X34043258Y-6806601D01*
X34206685Y-6774093D01*
X34373315Y-6774093D01*
X34536742Y-6806601D01*
G37*
G36*
X37076742Y-6806601D02*
G01*
X37230687Y-6870367D01*
X37369234Y-6962941D01*
X37487059Y-7080766D01*
X37579633Y-7219313D01*
X37643399Y-7373258D01*
X37675907Y-7536685D01*
X37675907Y-7703315D01*
X37643399Y-7866742D01*
X37579633Y-8020687D01*
X37487059Y-8159234D01*
X37369234Y-8277059D01*
X37230687Y-8369633D01*
X37076742Y-8433399D01*
X36913315Y-8465907D01*
X36746685Y-8465907D01*
X36583258Y-8433399D01*
X36429313Y-8369633D01*
X36290766Y-8277059D01*
X36172941Y-8159234D01*
X36080367Y-8020687D01*
X36016601Y-7866742D01*
X35984093Y-7703315D01*
X35984093Y-7536685D01*
X36016601Y-7373258D01*
X36080367Y-7219313D01*
X36172941Y-7080766D01*
X36290766Y-6962941D01*
X36429313Y-6870367D01*
X36583258Y-6806601D01*
X36746685Y-6774093D01*
X36913315Y-6774093D01*
X37076742Y-6806601D01*
G37*
G36*
X39616742Y-6806601D02*
G01*
X39770687Y-6870367D01*
X39909234Y-6962941D01*
X40027059Y-7080766D01*
X40119633Y-7219313D01*
X40183399Y-7373258D01*
X40215907Y-7536685D01*
X40215907Y-7703315D01*
X40183399Y-7866742D01*
X40119633Y-8020687D01*
X40027059Y-8159234D01*
X39909234Y-8277059D01*
X39770687Y-8369633D01*
X39616742Y-8433399D01*
X39453315Y-8465907D01*
X39286685Y-8465907D01*
X39123258Y-8433399D01*
X38969313Y-8369633D01*
X38830766Y-8277059D01*
X38712941Y-8159234D01*
X38620367Y-8020687D01*
X38556601Y-7866742D01*
X38524093Y-7703315D01*
X38524093Y-7536685D01*
X38556601Y-7373258D01*
X38620367Y-7219313D01*
X38712941Y-7080766D01*
X38830766Y-6962941D01*
X38969313Y-6870367D01*
X39123258Y-6806601D01*
X39286685Y-6774093D01*
X39453315Y-6774093D01*
X39616742Y-6806601D01*
G37*
G36*
X42156742Y-6806601D02*
G01*
X42310687Y-6870367D01*
X42449234Y-6962941D01*
X42567059Y-7080766D01*
X42659633Y-7219313D01*
X42723399Y-7373258D01*
X42755907Y-7536685D01*
X42755907Y-7703315D01*
X42723399Y-7866742D01*
X42659633Y-8020687D01*
X42567059Y-8159234D01*
X42449234Y-8277059D01*
X42310687Y-8369633D01*
X42156742Y-8433399D01*
X41993315Y-8465907D01*
X41826685Y-8465907D01*
X41663258Y-8433399D01*
X41509313Y-8369633D01*
X41370766Y-8277059D01*
X41252941Y-8159234D01*
X41160367Y-8020687D01*
X41096601Y-7866742D01*
X41064093Y-7703315D01*
X41064093Y-7536685D01*
X41096601Y-7373258D01*
X41160367Y-7219313D01*
X41252941Y-7080766D01*
X41370766Y-6962941D01*
X41509313Y-6870367D01*
X41663258Y-6806601D01*
X41826685Y-6774093D01*
X41993315Y-6774093D01*
X42156742Y-6806601D01*
G37*
G36*
X44696742Y-6806601D02*
G01*
X44850687Y-6870367D01*
X44989234Y-6962941D01*
X45107059Y-7080766D01*
X45199633Y-7219313D01*
X45263399Y-7373258D01*
X45295907Y-7536685D01*
X45295907Y-7703315D01*
X45263399Y-7866742D01*
X45199633Y-8020687D01*
X45107059Y-8159234D01*
X44989234Y-8277059D01*
X44850687Y-8369633D01*
X44696742Y-8433399D01*
X44533315Y-8465907D01*
X44366685Y-8465907D01*
X44203258Y-8433399D01*
X44049313Y-8369633D01*
X43910766Y-8277059D01*
X43792941Y-8159234D01*
X43700367Y-8020687D01*
X43636601Y-7866742D01*
X43604093Y-7703315D01*
X43604093Y-7536685D01*
X43636601Y-7373258D01*
X43700367Y-7219313D01*
X43792941Y-7080766D01*
X43910766Y-6962941D01*
X44049313Y-6870367D01*
X44203258Y-6806601D01*
X44366685Y-6774093D01*
X44533315Y-6774093D01*
X44696742Y-6806601D01*
G37*
G36*
X47236742Y-6806601D02*
G01*
X47390687Y-6870367D01*
X47529234Y-6962941D01*
X47647059Y-7080766D01*
X47739633Y-7219313D01*
X47803399Y-7373258D01*
X47835907Y-7536685D01*
X47835907Y-7703315D01*
X47803399Y-7866742D01*
X47739633Y-8020687D01*
X47647059Y-8159234D01*
X47529234Y-8277059D01*
X47390687Y-8369633D01*
X47236742Y-8433399D01*
X47073315Y-8465907D01*
X46906685Y-8465907D01*
X46743258Y-8433399D01*
X46589313Y-8369633D01*
X46450766Y-8277059D01*
X46332941Y-8159234D01*
X46240367Y-8020687D01*
X46176601Y-7866742D01*
X46144093Y-7703315D01*
X46144093Y-7536685D01*
X46176601Y-7373258D01*
X46240367Y-7219313D01*
X46332941Y-7080766D01*
X46450766Y-6962941D01*
X46589313Y-6870367D01*
X46743258Y-6806601D01*
X46906685Y-6774093D01*
X47073315Y-6774093D01*
X47236742Y-6806601D01*
G37*
G36*
X49776742Y-6806601D02*
G01*
X49930687Y-6870367D01*
X50069234Y-6962941D01*
X50187059Y-7080766D01*
X50279633Y-7219313D01*
X50343399Y-7373258D01*
X50375907Y-7536685D01*
X50375907Y-7703315D01*
X50343399Y-7866742D01*
X50279633Y-8020687D01*
X50187059Y-8159234D01*
X50069234Y-8277059D01*
X49930687Y-8369633D01*
X49776742Y-8433399D01*
X49613315Y-8465907D01*
X49446685Y-8465907D01*
X49283258Y-8433399D01*
X49129313Y-8369633D01*
X48990766Y-8277059D01*
X48872941Y-8159234D01*
X48780367Y-8020687D01*
X48716601Y-7866742D01*
X48684093Y-7703315D01*
X48684093Y-7536685D01*
X48716601Y-7373258D01*
X48780367Y-7219313D01*
X48872941Y-7080766D01*
X48990766Y-6962941D01*
X49129313Y-6870367D01*
X49283258Y-6806601D01*
X49446685Y-6774093D01*
X49613315Y-6774093D01*
X49776742Y-6806601D01*
G37*
G36*
X4167767Y-805034D02*
G01*
X4179425Y-805034D01*
X4260380Y-814155D01*
X4469510Y-834753D01*
X4503904Y-841594D01*
X4536020Y-845213D01*
X4630439Y-866763D01*
X4777512Y-896018D01*
X4834952Y-913442D01*
X4885874Y-925065D01*
X4968005Y-953803D01*
X5078005Y-987172D01*
X5157665Y-1020168D01*
X5224587Y-1043585D01*
X5288463Y-1074346D01*
X5368127Y-1107344D01*
X5469513Y-1161535D01*
X5547900Y-1199285D01*
X5592118Y-1227069D01*
X5645062Y-1255368D01*
X5769747Y-1338680D01*
X5851748Y-1390205D01*
X5877017Y-1410356D01*
X5906167Y-1429834D01*
X6068592Y-1563132D01*
X6132309Y-1613945D01*
X6140553Y-1622189D01*
X6148907Y-1629045D01*
X6370954Y-1851092D01*
X6377809Y-1859445D01*
X6386055Y-1867691D01*
X6436873Y-1931415D01*
X6570165Y-2093832D01*
X6589641Y-2122979D01*
X6609795Y-2148252D01*
X6661324Y-2230260D01*
X6744631Y-2354937D01*
X6772927Y-2407876D01*
X6800715Y-2452100D01*
X6838468Y-2530495D01*
X6892655Y-2631872D01*
X6925649Y-2711527D01*
X6956415Y-2775413D01*
X6979834Y-2842343D01*
X7012827Y-2921994D01*
X7046190Y-3031979D01*
X7074935Y-3114126D01*
X7086559Y-3165056D01*
X7103981Y-3222487D01*
X7133230Y-3369533D01*
X7154787Y-3463980D01*
X7158406Y-3496105D01*
X7165246Y-3530489D01*
X7185841Y-3739598D01*
X7194966Y-3820575D01*
X7194966Y-3832233D01*
X7196025Y-3842985D01*
X7196025Y-4157014D01*
X7194966Y-4167765D01*
X7194966Y-4179425D01*
X7185841Y-4260408D01*
X7165246Y-4469510D01*
X7158406Y-4503892D01*
X7154787Y-4536020D01*
X7133228Y-4630473D01*
X7103981Y-4777512D01*
X7086560Y-4834939D01*
X7074935Y-4885874D01*
X7046188Y-4968026D01*
X7012827Y-5078005D01*
X6979837Y-5157649D01*
X6956415Y-5224587D01*
X6925646Y-5288478D01*
X6892655Y-5368127D01*
X6838473Y-5469494D01*
X6800715Y-5547900D01*
X6772924Y-5592129D01*
X6744631Y-5645062D01*
X6661335Y-5769722D01*
X6609795Y-5851748D01*
X6589636Y-5877025D01*
X6570165Y-5906167D01*
X6436901Y-6068548D01*
X6386055Y-6132309D01*
X6377805Y-6140558D01*
X6370954Y-6148907D01*
X6148907Y-6370954D01*
X6140558Y-6377805D01*
X6132309Y-6386055D01*
X6068548Y-6436901D01*
X5906167Y-6570165D01*
X5877025Y-6589636D01*
X5851748Y-6609795D01*
X5769722Y-6661335D01*
X5645062Y-6744631D01*
X5592129Y-6772924D01*
X5547900Y-6800715D01*
X5469494Y-6838473D01*
X5368127Y-6892655D01*
X5288478Y-6925646D01*
X5224587Y-6956415D01*
X5157649Y-6979837D01*
X5078005Y-7012827D01*
X4968026Y-7046188D01*
X4885874Y-7074935D01*
X4834939Y-7086560D01*
X4777512Y-7103981D01*
X4630473Y-7133228D01*
X4536020Y-7154787D01*
X4503892Y-7158406D01*
X4469510Y-7165246D01*
X4260404Y-7185841D01*
X4179425Y-7194966D01*
X4167767Y-7194966D01*
X4157015Y-7196025D01*
X3842985Y-7196025D01*
X3832233Y-7194966D01*
X3820575Y-7194966D01*
X3739598Y-7185841D01*
X3530489Y-7165246D01*
X3496105Y-7158406D01*
X3463980Y-7154787D01*
X3369533Y-7133230D01*
X3222487Y-7103981D01*
X3165056Y-7086559D01*
X3114126Y-7074935D01*
X3031979Y-7046190D01*
X2921994Y-7012827D01*
X2842343Y-6979834D01*
X2775413Y-6956415D01*
X2711527Y-6925649D01*
X2631872Y-6892655D01*
X2530495Y-6838468D01*
X2452100Y-6800715D01*
X2407876Y-6772927D01*
X2354937Y-6744631D01*
X2230260Y-6661324D01*
X2148252Y-6609795D01*
X2122979Y-6589641D01*
X2093832Y-6570165D01*
X1931415Y-6436873D01*
X1867691Y-6386055D01*
X1859445Y-6377809D01*
X1851092Y-6370954D01*
X1629045Y-6148907D01*
X1622189Y-6140553D01*
X1613945Y-6132309D01*
X1563132Y-6068592D01*
X1429834Y-5906167D01*
X1410356Y-5877017D01*
X1390205Y-5851748D01*
X1338680Y-5769747D01*
X1255368Y-5645062D01*
X1227069Y-5592118D01*
X1199285Y-5547900D01*
X1161535Y-5469513D01*
X1107344Y-5368127D01*
X1074346Y-5288463D01*
X1043585Y-5224587D01*
X1020168Y-5157665D01*
X987172Y-5078005D01*
X953803Y-4968005D01*
X925065Y-4885874D01*
X913442Y-4834952D01*
X896018Y-4777512D01*
X866763Y-4630439D01*
X845213Y-4536020D01*
X841594Y-4503904D01*
X834753Y-4469510D01*
X814156Y-4260385D01*
X805034Y-4179425D01*
X805034Y-4167766D01*
X803975Y-4157014D01*
X803975Y-3842985D01*
X805034Y-3832232D01*
X805034Y-3820575D01*
X814155Y-3739621D01*
X834753Y-3530489D01*
X841594Y-3496093D01*
X845213Y-3463980D01*
X866762Y-3369567D01*
X896018Y-3222487D01*
X913443Y-3165043D01*
X925065Y-3114126D01*
X953801Y-3032001D01*
X987172Y-2921994D01*
X1020170Y-2842328D01*
X1043585Y-2775413D01*
X1074343Y-2711542D01*
X1107344Y-2631872D01*
X1161540Y-2530476D01*
X1199285Y-2452100D01*
X1227065Y-2407887D01*
X1255368Y-2354937D01*
X1338691Y-2230235D01*
X1390205Y-2148252D01*
X1410352Y-2122987D01*
X1429834Y-2093832D01*
X1563160Y-1931372D01*
X1613945Y-1867691D01*
X1622184Y-1859451D01*
X1629045Y-1851092D01*
X1851092Y-1629045D01*
X1859451Y-1622184D01*
X1867691Y-1613945D01*
X1931372Y-1563160D01*
X2093832Y-1429834D01*
X2122987Y-1410352D01*
X2148252Y-1390205D01*
X2230235Y-1338691D01*
X2354937Y-1255368D01*
X2407887Y-1227065D01*
X2452100Y-1199285D01*
X2530476Y-1161540D01*
X2631872Y-1107344D01*
X2711542Y-1074343D01*
X2775413Y-1043585D01*
X2842328Y-1020170D01*
X2921994Y-987172D01*
X3032001Y-953801D01*
X3114126Y-925065D01*
X3165043Y-913443D01*
X3222487Y-896018D01*
X3369567Y-866762D01*
X3463980Y-845213D01*
X3496093Y-841594D01*
X3530489Y-834753D01*
X3739621Y-814155D01*
X3820575Y-805034D01*
X3832233Y-805034D01*
X3842985Y-803975D01*
X4157015Y-803975D01*
X4167767Y-805034D01*
G37*
G36*
X66167767Y-805034D02*
G01*
X66179425Y-805034D01*
X66260380Y-814155D01*
X66469510Y-834753D01*
X66503904Y-841594D01*
X66536020Y-845213D01*
X66630439Y-866763D01*
X66777512Y-896018D01*
X66834952Y-913442D01*
X66885874Y-925065D01*
X66968005Y-953803D01*
X67078005Y-987172D01*
X67157665Y-1020168D01*
X67224587Y-1043585D01*
X67288463Y-1074346D01*
X67368127Y-1107344D01*
X67469513Y-1161535D01*
X67547900Y-1199285D01*
X67592118Y-1227069D01*
X67645062Y-1255368D01*
X67769747Y-1338680D01*
X67851748Y-1390205D01*
X67877017Y-1410356D01*
X67906167Y-1429834D01*
X68068592Y-1563132D01*
X68132309Y-1613945D01*
X68140553Y-1622189D01*
X68148907Y-1629045D01*
X68370954Y-1851092D01*
X68377809Y-1859445D01*
X68386055Y-1867691D01*
X68436873Y-1931415D01*
X68570165Y-2093832D01*
X68589641Y-2122979D01*
X68609795Y-2148252D01*
X68661324Y-2230260D01*
X68744631Y-2354937D01*
X68772927Y-2407876D01*
X68800715Y-2452100D01*
X68838468Y-2530495D01*
X68892655Y-2631872D01*
X68925649Y-2711527D01*
X68956415Y-2775413D01*
X68979834Y-2842343D01*
X69012827Y-2921994D01*
X69046190Y-3031979D01*
X69074935Y-3114126D01*
X69086559Y-3165056D01*
X69103981Y-3222487D01*
X69133230Y-3369533D01*
X69154787Y-3463980D01*
X69158406Y-3496105D01*
X69165246Y-3530489D01*
X69185841Y-3739598D01*
X69194966Y-3820575D01*
X69194966Y-3832233D01*
X69196025Y-3842985D01*
X69196025Y-4157014D01*
X69194966Y-4167765D01*
X69194966Y-4179425D01*
X69185841Y-4260408D01*
X69165246Y-4469510D01*
X69158406Y-4503892D01*
X69154787Y-4536020D01*
X69133228Y-4630473D01*
X69103981Y-4777512D01*
X69086560Y-4834939D01*
X69074935Y-4885874D01*
X69046188Y-4968026D01*
X69012827Y-5078005D01*
X68979837Y-5157649D01*
X68956415Y-5224587D01*
X68925646Y-5288478D01*
X68892655Y-5368127D01*
X68838473Y-5469494D01*
X68800715Y-5547900D01*
X68772924Y-5592129D01*
X68744631Y-5645062D01*
X68661335Y-5769722D01*
X68609795Y-5851748D01*
X68589636Y-5877025D01*
X68570165Y-5906167D01*
X68436901Y-6068548D01*
X68386055Y-6132309D01*
X68377805Y-6140558D01*
X68370954Y-6148907D01*
X68148907Y-6370954D01*
X68140558Y-6377805D01*
X68132309Y-6386055D01*
X68068548Y-6436901D01*
X67906167Y-6570165D01*
X67877025Y-6589636D01*
X67851748Y-6609795D01*
X67769722Y-6661335D01*
X67645062Y-6744631D01*
X67592129Y-6772924D01*
X67547900Y-6800715D01*
X67469494Y-6838473D01*
X67368127Y-6892655D01*
X67288478Y-6925646D01*
X67224587Y-6956415D01*
X67157649Y-6979837D01*
X67078005Y-7012827D01*
X66968026Y-7046188D01*
X66885874Y-7074935D01*
X66834939Y-7086560D01*
X66777512Y-7103981D01*
X66630473Y-7133228D01*
X66536020Y-7154787D01*
X66503892Y-7158406D01*
X66469510Y-7165246D01*
X66260404Y-7185841D01*
X66179425Y-7194966D01*
X66167767Y-7194966D01*
X66157015Y-7196025D01*
X65842985Y-7196025D01*
X65832233Y-7194966D01*
X65820575Y-7194966D01*
X65739598Y-7185841D01*
X65530489Y-7165246D01*
X65496105Y-7158406D01*
X65463980Y-7154787D01*
X65369533Y-7133230D01*
X65222487Y-7103981D01*
X65165056Y-7086559D01*
X65114126Y-7074935D01*
X65031979Y-7046190D01*
X64921994Y-7012827D01*
X64842343Y-6979834D01*
X64775413Y-6956415D01*
X64711527Y-6925649D01*
X64631872Y-6892655D01*
X64530495Y-6838468D01*
X64452100Y-6800715D01*
X64407876Y-6772927D01*
X64354937Y-6744631D01*
X64230260Y-6661324D01*
X64148252Y-6609795D01*
X64122979Y-6589641D01*
X64093832Y-6570165D01*
X63931415Y-6436873D01*
X63867691Y-6386055D01*
X63859445Y-6377809D01*
X63851092Y-6370954D01*
X63629045Y-6148907D01*
X63622189Y-6140553D01*
X63613945Y-6132309D01*
X63563132Y-6068592D01*
X63429834Y-5906167D01*
X63410356Y-5877017D01*
X63390205Y-5851748D01*
X63338680Y-5769747D01*
X63255368Y-5645062D01*
X63227069Y-5592118D01*
X63199285Y-5547900D01*
X63161535Y-5469513D01*
X63107344Y-5368127D01*
X63074346Y-5288463D01*
X63043585Y-5224587D01*
X63020168Y-5157665D01*
X62987172Y-5078005D01*
X62953803Y-4968005D01*
X62925065Y-4885874D01*
X62913442Y-4834952D01*
X62896018Y-4777512D01*
X62866763Y-4630439D01*
X62845213Y-4536020D01*
X62841594Y-4503904D01*
X62834753Y-4469510D01*
X62814156Y-4260385D01*
X62805034Y-4179425D01*
X62805034Y-4167766D01*
X62803975Y-4157014D01*
X62803975Y-3842985D01*
X62805034Y-3832232D01*
X62805034Y-3820575D01*
X62814155Y-3739621D01*
X62834753Y-3530489D01*
X62841594Y-3496093D01*
X62845213Y-3463980D01*
X62866762Y-3369567D01*
X62896018Y-3222487D01*
X62913443Y-3165043D01*
X62925065Y-3114126D01*
X62953801Y-3032001D01*
X62987172Y-2921994D01*
X63020170Y-2842328D01*
X63043585Y-2775413D01*
X63074343Y-2711542D01*
X63107344Y-2631872D01*
X63161540Y-2530476D01*
X63199285Y-2452100D01*
X63227065Y-2407887D01*
X63255368Y-2354937D01*
X63338691Y-2230235D01*
X63390205Y-2148252D01*
X63410352Y-2122987D01*
X63429834Y-2093832D01*
X63563160Y-1931372D01*
X63613945Y-1867691D01*
X63622184Y-1859451D01*
X63629045Y-1851092D01*
X63851092Y-1629045D01*
X63859451Y-1622184D01*
X63867691Y-1613945D01*
X63931372Y-1563160D01*
X64093832Y-1429834D01*
X64122987Y-1410352D01*
X64148252Y-1390205D01*
X64230235Y-1338691D01*
X64354937Y-1255368D01*
X64407887Y-1227065D01*
X64452100Y-1199285D01*
X64530476Y-1161540D01*
X64631872Y-1107344D01*
X64711542Y-1074343D01*
X64775413Y-1043585D01*
X64842328Y-1020170D01*
X64921994Y-987172D01*
X65032001Y-953801D01*
X65114126Y-925065D01*
X65165043Y-913443D01*
X65222487Y-896018D01*
X65369567Y-866762D01*
X65463980Y-845213D01*
X65496093Y-841594D01*
X65530489Y-834753D01*
X65739621Y-814155D01*
X65820575Y-805034D01*
X65832233Y-805034D01*
X65842985Y-803975D01*
X66157015Y-803975D01*
X66167767Y-805034D01*
G37*
G36*
X56112228Y-5584448D02*
G01*
X56257117Y-5644463D01*
X56387515Y-5731592D01*
X56498408Y-5842485D01*
X56585537Y-5972883D01*
X56645552Y-6117772D01*
X56676148Y-6271586D01*
X56676148Y-6428414D01*
X56645552Y-6582228D01*
X56585537Y-6727117D01*
X56498408Y-6857515D01*
X56387515Y-6968408D01*
X56257117Y-7055537D01*
X56112228Y-7115552D01*
X55958414Y-7146148D01*
X55801586Y-7146148D01*
X55647772Y-7115552D01*
X55502883Y-7055537D01*
X55372485Y-6968408D01*
X55261592Y-6857515D01*
X55174463Y-6727117D01*
X55114448Y-6582228D01*
X55083852Y-6428414D01*
X55083852Y-6271586D01*
X55114448Y-6117772D01*
X55174463Y-5972883D01*
X55261592Y-5842485D01*
X55372485Y-5731592D01*
X55502883Y-5644463D01*
X55647772Y-5584448D01*
X55801586Y-5553852D01*
X55958414Y-5553852D01*
X56112228Y-5584448D01*
G37*
G36*
X58652228Y-5584448D02*
G01*
X58797117Y-5644463D01*
X58927515Y-5731592D01*
X59038408Y-5842485D01*
X59125537Y-5972883D01*
X59185552Y-6117772D01*
X59216148Y-6271586D01*
X59216148Y-6428414D01*
X59185552Y-6582228D01*
X59125537Y-6727117D01*
X59038408Y-6857515D01*
X58927515Y-6968408D01*
X58797117Y-7055537D01*
X58652228Y-7115552D01*
X58498414Y-7146148D01*
X58341586Y-7146148D01*
X58187772Y-7115552D01*
X58042883Y-7055537D01*
X57912485Y-6968408D01*
X57801592Y-6857515D01*
X57714463Y-6727117D01*
X57654448Y-6582228D01*
X57623852Y-6428414D01*
X57623852Y-6271586D01*
X57654448Y-6117772D01*
X57714463Y-5972883D01*
X57801592Y-5842485D01*
X57912485Y-5731592D01*
X58042883Y-5644463D01*
X58187772Y-5584448D01*
X58341586Y-5553852D01*
X58498414Y-5553852D01*
X58652228Y-5584448D01*
G37*
G36*
X42142228Y-3294447D02*
G01*
X42287117Y-3354462D01*
X42417515Y-3441591D01*
X42528408Y-3552484D01*
X42615537Y-3682882D01*
X42675552Y-3827771D01*
X42706148Y-3981585D01*
X42706148Y-4138413D01*
X42675552Y-4292227D01*
X42615537Y-4437116D01*
X42528408Y-4567514D01*
X42417515Y-4678407D01*
X42287117Y-4765536D01*
X42142228Y-4825551D01*
X41988414Y-4856147D01*
X41831586Y-4856147D01*
X41677772Y-4825551D01*
X41532883Y-4765536D01*
X41402485Y-4678407D01*
X41291592Y-4567514D01*
X41204463Y-4437116D01*
X41144448Y-4292227D01*
X41113852Y-4138413D01*
X41113852Y-3981585D01*
X41144448Y-3827771D01*
X41204463Y-3682882D01*
X41291592Y-3552484D01*
X41402485Y-3441591D01*
X41532883Y-3354462D01*
X41677772Y-3294447D01*
X41831586Y-3263851D01*
X41988414Y-3263851D01*
X42142228Y-3294447D01*
G37*
G36*
X44682228Y-3294447D02*
G01*
X44827117Y-3354462D01*
X44957515Y-3441591D01*
X45068408Y-3552484D01*
X45155537Y-3682882D01*
X45215552Y-3827771D01*
X45246148Y-3981585D01*
X45246148Y-4138413D01*
X45215552Y-4292227D01*
X45155537Y-4437116D01*
X45068408Y-4567514D01*
X44957515Y-4678407D01*
X44827117Y-4765536D01*
X44682228Y-4825551D01*
X44528414Y-4856147D01*
X44371586Y-4856147D01*
X44217772Y-4825551D01*
X44072883Y-4765536D01*
X43942485Y-4678407D01*
X43831592Y-4567514D01*
X43744463Y-4437116D01*
X43684448Y-4292227D01*
X43653852Y-4138413D01*
X43653852Y-3981585D01*
X43684448Y-3827771D01*
X43744463Y-3682882D01*
X43831592Y-3552484D01*
X43942485Y-3441591D01*
X44072883Y-3354462D01*
X44217772Y-3294447D01*
X44371586Y-3263851D01*
X44528414Y-3263851D01*
X44682228Y-3294447D01*
G37*
G36*
X9732228Y-3044448D02*
G01*
X9877117Y-3104463D01*
X10007515Y-3191592D01*
X10118408Y-3302485D01*
X10205537Y-3432883D01*
X10265552Y-3577772D01*
X10296148Y-3731586D01*
X10296148Y-3888414D01*
X10265552Y-4042228D01*
X10205537Y-4187117D01*
X10118408Y-4317515D01*
X10007515Y-4428408D01*
X9877117Y-4515537D01*
X9732228Y-4575552D01*
X9578414Y-4606148D01*
X9421586Y-4606148D01*
X9267772Y-4575552D01*
X9122883Y-4515537D01*
X8992485Y-4428408D01*
X8881592Y-4317515D01*
X8794463Y-4187117D01*
X8734448Y-4042228D01*
X8703852Y-3888414D01*
X8703852Y-3731586D01*
X8734448Y-3577772D01*
X8794463Y-3432883D01*
X8881592Y-3302485D01*
X8992485Y-3191592D01*
X9122883Y-3104463D01*
X9267772Y-3044448D01*
X9421586Y-3013852D01*
X9578414Y-3013852D01*
X9732228Y-3044448D01*
G37*
G36*
X12272228Y-3044448D02*
G01*
X12417117Y-3104463D01*
X12547515Y-3191592D01*
X12658408Y-3302485D01*
X12745537Y-3432883D01*
X12805552Y-3577772D01*
X12836148Y-3731586D01*
X12836148Y-3888414D01*
X12805552Y-4042228D01*
X12745537Y-4187117D01*
X12658408Y-4317515D01*
X12547515Y-4428408D01*
X12417117Y-4515537D01*
X12272228Y-4575552D01*
X12118414Y-4606148D01*
X11961586Y-4606148D01*
X11807772Y-4575552D01*
X11662883Y-4515537D01*
X11532485Y-4428408D01*
X11421592Y-4317515D01*
X11334463Y-4187117D01*
X11274448Y-4042228D01*
X11243852Y-3888414D01*
X11243852Y-3731586D01*
X11274448Y-3577772D01*
X11334463Y-3432883D01*
X11421592Y-3302485D01*
X11532485Y-3191592D01*
X11662883Y-3104463D01*
X11807772Y-3044448D01*
X11961586Y-3013852D01*
X12118414Y-3013852D01*
X12272228Y-3044448D01*
G37*
G36*
X15732228Y-3044448D02*
G01*
X15877117Y-3104463D01*
X16007515Y-3191592D01*
X16118408Y-3302485D01*
X16205537Y-3432883D01*
X16265552Y-3577772D01*
X16296148Y-3731586D01*
X16296148Y-3888414D01*
X16265552Y-4042228D01*
X16205537Y-4187117D01*
X16118408Y-4317515D01*
X16007515Y-4428408D01*
X15877117Y-4515537D01*
X15732228Y-4575552D01*
X15578414Y-4606148D01*
X15421586Y-4606148D01*
X15267772Y-4575552D01*
X15122883Y-4515537D01*
X14992485Y-4428408D01*
X14881592Y-4317515D01*
X14794463Y-4187117D01*
X14734448Y-4042228D01*
X14703852Y-3888414D01*
X14703852Y-3731586D01*
X14734448Y-3577772D01*
X14794463Y-3432883D01*
X14881592Y-3302485D01*
X14992485Y-3191592D01*
X15122883Y-3104463D01*
X15267772Y-3044448D01*
X15421586Y-3013852D01*
X15578414Y-3013852D01*
X15732228Y-3044448D01*
G37*
G36*
X18272228Y-3044448D02*
G01*
X18417117Y-3104463D01*
X18547515Y-3191592D01*
X18658408Y-3302485D01*
X18745537Y-3432883D01*
X18805552Y-3577772D01*
X18836148Y-3731586D01*
X18836148Y-3888414D01*
X18805552Y-4042228D01*
X18745537Y-4187117D01*
X18658408Y-4317515D01*
X18547515Y-4428408D01*
X18417117Y-4515537D01*
X18272228Y-4575552D01*
X18118414Y-4606148D01*
X17961586Y-4606148D01*
X17807772Y-4575552D01*
X17662883Y-4515537D01*
X17532485Y-4428408D01*
X17421592Y-4317515D01*
X17334463Y-4187117D01*
X17274448Y-4042228D01*
X17243852Y-3888414D01*
X17243852Y-3731586D01*
X17274448Y-3577772D01*
X17334463Y-3432883D01*
X17421592Y-3302485D01*
X17532485Y-3191592D01*
X17662883Y-3104463D01*
X17807772Y-3044448D01*
X17961586Y-3013852D01*
X18118414Y-3013852D01*
X18272228Y-3044448D01*
G37*
G36*
X38451163Y-774586D02*
G01*
X38678591Y-835526D01*
X38896120Y-925629D01*
X39100026Y-1043355D01*
X39286822Y-1186688D01*
X39453312Y-1353178D01*
X39596645Y-1539974D01*
X39714371Y-1743880D01*
X39804474Y-1961409D01*
X39865414Y-2188837D01*
X39896146Y-2422274D01*
X39896146Y-2657726D01*
X39865414Y-2891163D01*
X39804474Y-3118591D01*
X39714371Y-3336120D01*
X39596645Y-3540026D01*
X39453312Y-3726822D01*
X39286822Y-3893312D01*
X39100026Y-4036645D01*
X38896120Y-4154371D01*
X38678591Y-4244474D01*
X38451163Y-4305414D01*
X38217726Y-4336146D01*
X37982274Y-4336146D01*
X37748837Y-4305414D01*
X37521409Y-4244474D01*
X37303880Y-4154371D01*
X37099974Y-4036645D01*
X36913178Y-3893312D01*
X36746688Y-3726822D01*
X36603355Y-3540026D01*
X36485629Y-3336120D01*
X36395526Y-3118591D01*
X36334586Y-2891163D01*
X36303854Y-2657726D01*
X36303854Y-2422274D01*
X36334586Y-2188837D01*
X36395526Y-1961409D01*
X36485629Y-1743880D01*
X36603355Y-1539974D01*
X36746688Y-1353178D01*
X36913178Y-1186688D01*
X37099974Y-1043355D01*
X37303880Y-925629D01*
X37521409Y-835526D01*
X37748837Y-774586D01*
X37982274Y-743854D01*
X38217726Y-743854D01*
X38451163Y-774586D01*
G37*
G36*
X52421163Y-774586D02*
G01*
X52648591Y-835526D01*
X52866120Y-925629D01*
X53070026Y-1043355D01*
X53256822Y-1186688D01*
X53423312Y-1353178D01*
X53566645Y-1539974D01*
X53684371Y-1743880D01*
X53774474Y-1961409D01*
X53835414Y-2188837D01*
X53866146Y-2422274D01*
X53866146Y-2657726D01*
X53835414Y-2891163D01*
X53774474Y-3118591D01*
X53684371Y-3336120D01*
X53566645Y-3540026D01*
X53423312Y-3726822D01*
X53256822Y-3893312D01*
X53070026Y-4036645D01*
X52866120Y-4154371D01*
X52648591Y-4244474D01*
X52421163Y-4305414D01*
X52187726Y-4336146D01*
X51952274Y-4336146D01*
X51718837Y-4305414D01*
X51491409Y-4244474D01*
X51273880Y-4154371D01*
X51069974Y-4036645D01*
X50883178Y-3893312D01*
X50716688Y-3726822D01*
X50573355Y-3540026D01*
X50455629Y-3336120D01*
X50365526Y-3118591D01*
X50304586Y-2891163D01*
X50273854Y-2657726D01*
X50273854Y-2422274D01*
X50304586Y-2188837D01*
X50365526Y-1961409D01*
X50455629Y-1743880D01*
X50573355Y-1539974D01*
X50716688Y-1353178D01*
X50883178Y-1186688D01*
X51069974Y-1043355D01*
X51273880Y-925629D01*
X51491409Y-835526D01*
X51718837Y-774586D01*
X51952274Y-743854D01*
X52187726Y-743854D01*
X52421163Y-774586D01*
G37*
G36*
X33370168Y-1081445D02*
G01*
X33594025Y-1154181D01*
X33803748Y-1261040D01*
X33994172Y-1399391D01*
X34160609Y-1565828D01*
X34298960Y-1756252D01*
X34405819Y-1965975D01*
X34478555Y-2189832D01*
X34515376Y-2422311D01*
X34515376Y-2657689D01*
X34478555Y-2890168D01*
X34405819Y-3114025D01*
X34298960Y-3323748D01*
X34160609Y-3514172D01*
X33994172Y-3680609D01*
X33803748Y-3818960D01*
X33594025Y-3925819D01*
X33370168Y-3998555D01*
X33137689Y-4035376D01*
X32902311Y-4035376D01*
X32669832Y-3998555D01*
X32445975Y-3925819D01*
X32236252Y-3818960D01*
X32045828Y-3680609D01*
X31879391Y-3514172D01*
X31741040Y-3323748D01*
X31634181Y-3114025D01*
X31561445Y-2890168D01*
X31524624Y-2657689D01*
X31524624Y-2422311D01*
X31561445Y-2189832D01*
X31634181Y-1965975D01*
X31741040Y-1756252D01*
X31879391Y-1565828D01*
X32045828Y-1399391D01*
X32236252Y-1261040D01*
X32445975Y-1154181D01*
X32669832Y-1081445D01*
X32902311Y-1044624D01*
X33137689Y-1044624D01*
X33370168Y-1081445D01*
G37*
G36*
X57500168Y-1081445D02*
G01*
X57724025Y-1154181D01*
X57933748Y-1261040D01*
X58124172Y-1399391D01*
X58290609Y-1565828D01*
X58428960Y-1756252D01*
X58535819Y-1965975D01*
X58608555Y-2189832D01*
X58645376Y-2422311D01*
X58645376Y-2657689D01*
X58608555Y-2890168D01*
X58535819Y-3114025D01*
X58428960Y-3323748D01*
X58290609Y-3514172D01*
X58124172Y-3680609D01*
X57933748Y-3818960D01*
X57724025Y-3925819D01*
X57500168Y-3998555D01*
X57267689Y-4035376D01*
X57032311Y-4035376D01*
X56799832Y-3998555D01*
X56575975Y-3925819D01*
X56366252Y-3818960D01*
X56175828Y-3680609D01*
X56009391Y-3514172D01*
X55871040Y-3323748D01*
X55764181Y-3114025D01*
X55691445Y-2890168D01*
X55654624Y-2657689D01*
X55654624Y-2422311D01*
X55691445Y-2189832D01*
X55764181Y-1965975D01*
X55871040Y-1756252D01*
X56009391Y-1565828D01*
X56175828Y-1399391D01*
X56366252Y-1261040D01*
X56575975Y-1154181D01*
X56799832Y-1081445D01*
X57032311Y-1044624D01*
X57267689Y-1044624D01*
X57500168Y-1081445D01*
G37*
G36*
X24362228Y-1234448D02*
G01*
X24507117Y-1294463D01*
X24637515Y-1381592D01*
X24748408Y-1492485D01*
X24835537Y-1622883D01*
X24895552Y-1767772D01*
X24926148Y-1921586D01*
X24926148Y-2078414D01*
X24895552Y-2232228D01*
X24835537Y-2377117D01*
X24748408Y-2507515D01*
X24637515Y-2618408D01*
X24507117Y-2705537D01*
X24362228Y-2765552D01*
X24208414Y-2796148D01*
X24051586Y-2796148D01*
X23897772Y-2765552D01*
X23752883Y-2705537D01*
X23622485Y-2618408D01*
X23511592Y-2507515D01*
X23424463Y-2377117D01*
X23364448Y-2232228D01*
X23333852Y-2078414D01*
X23333852Y-1921586D01*
X23364448Y-1767772D01*
X23424463Y-1622883D01*
X23511592Y-1492485D01*
X23622485Y-1381592D01*
X23752883Y-1294463D01*
X23897772Y-1234448D01*
X24051586Y-1203852D01*
X24208414Y-1203852D01*
X24362228Y-1234448D01*
G37*
G36*
X26862228Y-1234448D02*
G01*
X27007117Y-1294463D01*
X27137515Y-1381592D01*
X27248408Y-1492485D01*
X27335537Y-1622883D01*
X27395552Y-1767772D01*
X27426148Y-1921586D01*
X27426148Y-2078414D01*
X27395552Y-2232228D01*
X27335537Y-2377117D01*
X27248408Y-2507515D01*
X27137515Y-2618408D01*
X27007117Y-2705537D01*
X26862228Y-2765552D01*
X26708414Y-2796148D01*
X26551586Y-2796148D01*
X26397772Y-2765552D01*
X26252883Y-2705537D01*
X26122485Y-2618408D01*
X26011592Y-2507515D01*
X25924463Y-2377117D01*
X25864448Y-2232228D01*
X25833852Y-2078414D01*
X25833852Y-1921586D01*
X25864448Y-1767772D01*
X25924463Y-1622883D01*
X26011592Y-1492485D01*
X26122485Y-1381592D01*
X26252883Y-1294463D01*
X26397772Y-1234448D01*
X26551586Y-1203852D01*
X26708414Y-1203852D01*
X26862228Y-1234448D01*
G37*
M02*
