M48
; DRILL file KiCad 10.0.5-1.fc44 date 2026-07-28T04:37:06
; FORMAT={-:-/ absolute / metric / decimal}
; #@! TF.CreationDate,2026-07-28T04:37:06+02:00
; #@! TF.GenerationSoftware,Kicad,Pcbnew,10.0.5-1.fc44
; #@! TF.FileFunction,MixedPlating,1,2
FMAT,2
METRIC
; #@! TA.AperFunction,Plated,PTH,ViaDrill
T1C0.400
; #@! TA.AperFunction,Plated,PTH,ComponentDrill
T2C0.750
; #@! TA.AperFunction,Plated,PTH,ComponentDrill
T3C0.800
; #@! TA.AperFunction,Plated,PTH,ComponentDrill
T4C0.900
; #@! TA.AperFunction,Plated,PTH,ComponentDrill
T5C1.000
; #@! TA.AperFunction,Plated,PTH,ComponentDrill
T6C1.100
; #@! TA.AperFunction,Plated,PTH,ComponentDrill
T7C1.500
; #@! TA.AperFunction,Plated,PTH,ComponentDrill
T8C2.000
; #@! TA.AperFunction,Plated,PTH,ComponentDrill
T9C3.200
%
G90
G05
T1
X2.413Y-27.305
X3.0Y-39.0
X4.699Y-27.559
X4.953Y-31.369
X5.0Y-33.0
X5.0Y-40.0
X8.128Y-25.781
X9.652Y-32.893
X11.43Y-38.227
X12.0Y-12.0
X12.0Y-19.0
X12.0Y-33.0
X13.843Y-33.401
X14.732Y-1.905
X17.018Y-6.35
X19.0Y-12.0
X19.0Y-19.0
X19.0Y-40.0
X20.447Y-34.544
X20.955Y-37.465
X21.844Y-21.082
X23.114Y-15.113
X23.114Y-16.637
X26.0Y-5.0
X26.0Y-40.0
X26.0Y-47.0
X26.035Y-36.195
X26.162Y-32.639
X27.305Y-19.05
X27.94Y-27.94
X30.734Y-21.971
X31.496Y-34.29
X31.623Y-44.196
X32.512Y-42.672
X33.0Y-5.0
X33.0Y-12.0
X33.0Y-19.0
X33.0Y-47.0
X33.02Y-10.5
X33.02Y-13.0
X33.02Y-16.5
X33.02Y-35.433
X36.068Y-20.32
X36.195Y-30.099
X37.465Y-27.94
X37.592Y-36.449
X38.354Y-25.781
X38.989Y-29.972
X40.0Y-12.0
X40.0Y-19.0
X40.0Y-26.0
X40.0Y-33.0
X40.0Y-47.0
X41.402Y-28.575
X44.323Y-22.352
X45.466Y-33.782
X46.101Y-34.544
X47.0Y-5.0
X47.0Y-12.0
X47.0Y-19.0
X47.0Y-33.0
X47.879Y-26.035
X48.641Y-18.034
X48.768Y-27.051
X48.768Y-28.829
X50.038Y-36.195
X50.419Y-35.306
X51.689Y-20.574
X52.451Y-30.861
X54.0Y-12.0
X54.0Y-19.0
X54.0Y-26.0
X54.0Y-33.0
X54.0Y-40.0
X54.864Y-41.529
X55.0Y-47.0
X56.261Y-37.846
X56.769Y-15.494
X57.404Y-25.527
X59.0Y-35.0
X59.0Y-47.0
X60.833Y-24.257
X61.0Y-5.0
X61.0Y-19.0
X61.0Y-26.0
X61.0Y-33.0
X61.0Y-40.0
X61.0Y-47.0
X62.865Y-16.129
X62.865Y-21.463
X63.0Y-19.0
X63.0Y-27.0
X63.0Y-31.0
X63.0Y-35.0
X63.0Y-39.0
X67.0Y-19.0
T2
X57.68Y-42.5
X59.68Y-42.5
T3
X6.0Y-29.5
X6.0Y-35.5
X7.0Y-17.0
X8.54Y-29.5
X8.54Y-35.5
X8.9Y-40.9
X9.5Y-3.81
X11.08Y-29.5
X11.08Y-35.5
X11.44Y-40.9
X12.04Y-3.81
X14.5Y-41.28
X15.0Y-33.5
X15.0Y-37.0
X15.5Y-3.81
X17.04Y-41.28
X17.16Y-17.0
X17.5Y-28.5
X17.54Y-33.5
X17.54Y-37.0
X18.04Y-3.81
X20.0Y-28.5
X21.0Y-33.5
X23.54Y-33.5
X24.13Y-2.0
X26.0Y-27.0
X26.0Y-29.5
X26.63Y-2.0
X27.0Y-33.5
X29.54Y-33.5
X31.5Y-25.5
X33.0Y-33.5
X34.0Y-25.5
X35.54Y-33.5
X41.91Y-4.06
X44.45Y-4.06
X46.5Y-23.0
X54.12Y-23.0
X55.88Y-6.35
X58.42Y-6.35
X60.5Y-9.5
X60.5Y-12.0
X60.96Y-15.38
X60.96Y-23.0
T4
X9.9Y-46.99
X12.44Y-46.99
X15.5Y-46.99
X18.04Y-46.99
X49.98Y-46.4
T5
X2.522Y-24.54
X2.54Y-9.3
X2.54Y-29.21
X2.54Y-31.75
X5.062Y-24.54
X5.08Y-9.3
X7.602Y-24.54
X7.62Y-9.3
X10.142Y-24.54
X10.16Y-9.3
X12.682Y-24.54
X12.7Y-9.3
X15.222Y-24.54
X15.24Y-9.3
X17.762Y-24.54
X17.78Y-9.3
X20.302Y-24.54
X20.32Y-9.3
X25.153Y-8.203
X25.153Y-10.743
X25.153Y-13.283
X25.153Y-15.823
X25.153Y-18.363
X25.153Y-20.903
X31.75Y-7.62
X34.29Y-7.62
X34.3Y-38.75
X34.3Y-45.0
X36.8Y-45.0
X36.83Y-7.62
X39.3Y-38.75
X39.3Y-45.0
X39.37Y-7.62
X41.91Y-7.62
X44.45Y-7.62
X45.72Y-26.4
X45.72Y-29.926
X45.72Y-37.36
X45.72Y-40.466
X46.99Y-7.62
X49.53Y-7.62
X52.07Y-7.62
X54.61Y-27.94
X57.15Y-27.94
X66.04Y-9.39
X66.04Y-11.93
X66.04Y-14.47
X67.37Y-26.108
X67.37Y-40.31
T6
X21.5Y-43.0
X21.5Y-47.5
X28.0Y-43.0
X28.0Y-47.5
T7
X33.02Y-2.54
X43.18Y-11.12
X43.18Y-21.28
X57.15Y-2.54
T8
X38.1Y-2.54
X52.07Y-2.54
T9
X4.0Y-4.0
X4.0Y-46.0
X66.0Y-4.0
X66.0Y-46.0
T4
G00X47.08Y-46.4
M15
G01X47.98Y-46.4
M16
G05
G00X51.98Y-46.4
M15
G01X52.88Y-46.4
M16
G05
M30
