G04 #@! TF.GenerationSoftware,KiCad,Pcbnew,10.0.5-1.fc44*
G04 #@! TF.CreationDate,2026-07-28T04:37:05+02:00*
G04 #@! TF.ProjectId,carrier,63617272-6965-4722-9e6b-696361645f70,rev?*
G04 #@! TF.SameCoordinates,Original*
G04 #@! TF.FileFunction,Copper,L2,Bot*
G04 #@! TF.FilePolarity,Positive*
%FSLAX46Y46*%
G04 Gerber Fmt 4.6, Leading zero omitted, Abs format (unit mm)*
G04 Created by KiCad (PCBNEW 10.0.5-1.fc44) date 2026-07-28 04:37:05*
%MOMM*%
%LPD*%
G01*
G04 APERTURE LIST*
G04 Aperture macros list*
%AMRoundRect*
0 Rectangle with rounded corners*
0 $1 Rounding radius*
0 $2 $3 $4 $5 $6 $7 $8 $9 X,Y pos of 4 corners*
0 Add a 4 corners polygon primitive as box body*
4,1,4,$2,$3,$4,$5,$6,$7,$8,$9,$2,$3,0*
0 Add four circle primitives for the rounded corners*
1,1,$1+$1,$2,$3*
1,1,$1+$1,$4,$5*
1,1,$1+$1,$6,$7*
1,1,$1+$1,$8,$9*
0 Add four rect primitives between the rounded corners*
20,1,$1+$1,$2,$3,$4,$5,0*
20,1,$1+$1,$4,$5,$6,$7,0*
20,1,$1+$1,$6,$7,$8,$9,0*
20,1,$1+$1,$8,$9,$2,$3,0*%
G04 Aperture macros list end*
G04 #@! TA.AperFunction,ComponentPad*
%ADD10C,1.600000*%
G04 #@! TD*
G04 #@! TA.AperFunction,ComponentPad*
%ADD11R,1.700000X1.700000*%
G04 #@! TD*
G04 #@! TA.AperFunction,ComponentPad*
%ADD12C,1.700000*%
G04 #@! TD*
G04 #@! TA.AperFunction,ComponentPad*
%ADD13O,2.500000X1.900000*%
G04 #@! TD*
G04 #@! TA.AperFunction,ComponentPad*
%ADD14R,1.500000X1.500000*%
G04 #@! TD*
G04 #@! TA.AperFunction,ComponentPad*
%ADD15C,1.500000*%
G04 #@! TD*
G04 #@! TA.AperFunction,ComponentPad*
%ADD16R,2.000000X2.000000*%
G04 #@! TD*
G04 #@! TA.AperFunction,ComponentPad*
%ADD17C,2.000000*%
G04 #@! TD*
G04 #@! TA.AperFunction,ComponentPad*
%ADD18RoundRect,0.250000X0.550000X-0.550000X0.550000X0.550000X-0.550000X0.550000X-0.550000X-0.550000X0*%
G04 #@! TD*
G04 #@! TA.AperFunction,ComponentPad*
%ADD19C,6.400000*%
G04 #@! TD*
G04 #@! TA.AperFunction,ComponentPad*
%ADD20C,2.200000*%
G04 #@! TD*
G04 #@! TA.AperFunction,ComponentPad*
%ADD21C,3.000000*%
G04 #@! TD*
G04 #@! TA.AperFunction,ComponentPad*
%ADD22C,3.600000*%
G04 #@! TD*
G04 #@! TA.AperFunction,ComponentPad*
%ADD23R,2.800000X2.800000*%
G04 #@! TD*
G04 #@! TA.AperFunction,ComponentPad*
%ADD24C,2.800000*%
G04 #@! TD*
G04 #@! TA.AperFunction,ComponentPad*
%ADD25R,1.800000X1.800000*%
G04 #@! TD*
G04 #@! TA.AperFunction,ComponentPad*
%ADD26C,1.800000*%
G04 #@! TD*
G04 #@! TA.AperFunction,ComponentPad*
%ADD27RoundRect,0.250000X-0.350000X-0.625000X0.350000X-0.625000X0.350000X0.625000X-0.350000X0.625000X0*%
G04 #@! TD*
G04 #@! TA.AperFunction,ComponentPad*
%ADD28O,1.200000X1.750000*%
G04 #@! TD*
G04 #@! TA.AperFunction,ComponentPad*
%ADD29RoundRect,0.250000X-0.550000X-0.550000X0.550000X-0.550000X0.550000X0.550000X-0.550000X0.550000X0*%
G04 #@! TD*
G04 #@! TA.AperFunction,ViaPad*
%ADD30C,0.800000*%
G04 #@! TD*
G04 #@! TA.AperFunction,Conductor*
%ADD31C,1.000000*%
G04 #@! TD*
G04 #@! TA.AperFunction,Conductor*
%ADD32C,0.300000*%
G04 #@! TD*
G04 #@! TA.AperFunction,Conductor*
%ADD33C,0.600000*%
G04 #@! TD*
G04 #@! TA.AperFunction,Conductor*
%ADD34C,0.800000*%
G04 #@! TD*
G04 APERTURE END LIST*
D10*
X15000000Y-37000000D03*
X17540000Y-37000000D03*
X27000000Y-33500000D03*
X29540000Y-33500000D03*
D11*
X25152771Y-8202515D03*
D12*
X25152771Y-10742515D03*
X25152771Y-13282515D03*
X25152771Y-15822515D03*
X25152771Y-18362515D03*
X25152771Y-20902515D03*
D13*
X47530000Y-46400000D03*
D10*
X49980000Y-46400000D03*
D13*
X52430000Y-46400000D03*
D14*
X6000000Y-35500000D03*
D15*
X8540000Y-35500000D03*
X11080000Y-35500000D03*
D16*
X54610000Y-27940000D03*
D17*
X57150000Y-27940000D03*
D18*
X26000000Y-29500000D03*
D10*
X26000000Y-27000000D03*
X15000000Y-33500000D03*
X17540000Y-33500000D03*
D19*
X66000000Y-46000000D03*
X4000000Y-4000000D03*
D16*
X34300000Y-45000000D03*
D17*
X36800000Y-45000000D03*
X39300000Y-45000000D03*
X34300000Y-38750000D03*
X39300000Y-38750000D03*
D10*
X21000000Y-33500000D03*
X23540000Y-33500000D03*
D11*
X66040000Y-9390000D03*
D12*
X66040000Y-11930000D03*
X66040000Y-14470000D03*
D10*
X17500000Y-28500000D03*
X20000000Y-28500000D03*
D20*
X67370000Y-40309562D03*
D21*
X57150000Y-2540000D03*
D22*
X52070000Y-2540000D03*
D10*
X31500000Y-25500000D03*
X34000000Y-25500000D03*
D17*
X21500000Y-43000000D03*
X28000000Y-43000000D03*
X21500000Y-47500000D03*
X28000000Y-47500000D03*
D10*
X33000000Y-33500000D03*
X35540000Y-33500000D03*
D14*
X6000000Y-29500000D03*
D15*
X8540000Y-29500000D03*
X11080000Y-29500000D03*
D11*
X52070000Y-7620000D03*
D12*
X49530000Y-7620000D03*
X46990000Y-7620000D03*
X44450000Y-7620000D03*
X41910000Y-7620000D03*
X39370000Y-7620000D03*
X36830000Y-7620000D03*
X34290000Y-7620000D03*
X31750000Y-7620000D03*
D11*
X20302068Y-24539932D03*
D12*
X17762068Y-24539932D03*
X15222068Y-24539932D03*
X12682068Y-24539932D03*
X10142068Y-24539932D03*
X7602068Y-24539932D03*
X5062068Y-24539932D03*
X2522068Y-24539932D03*
D23*
X43180000Y-21280000D03*
D24*
X43180000Y-11120000D03*
D16*
X45720000Y-26400000D03*
D17*
X45720000Y-29925800D03*
D19*
X4000000Y-46000000D03*
X66000000Y-4000000D03*
D10*
X55880000Y-6350000D03*
X58420000Y-6350000D03*
X24130000Y-2000000D03*
X26630000Y-2000000D03*
X44450000Y-4059999D03*
X41910000Y-4059999D03*
D11*
X20320000Y-9300000D03*
D12*
X17780000Y-9300000D03*
X15240000Y-9300000D03*
X12700000Y-9300000D03*
X10160000Y-9300000D03*
X7620000Y-9300000D03*
X5080000Y-9300000D03*
X2540000Y-9300000D03*
D25*
X15500000Y-46990000D03*
D26*
X18040000Y-46990000D03*
D10*
X8900000Y-40900000D03*
X11440000Y-40900000D03*
X14500000Y-41280000D03*
X17040000Y-41280000D03*
D27*
X57680000Y-42500000D03*
D28*
X59680000Y-42500000D03*
D21*
X33020000Y-2540000D03*
D22*
X38100000Y-2540000D03*
D20*
X67370000Y-26108263D03*
D16*
X45720000Y-37359600D03*
D17*
X45720000Y-40465800D03*
D11*
X2540000Y-29210000D03*
D12*
X2540000Y-31750000D03*
D18*
X60960000Y-23000000D03*
D10*
X60960000Y-15380000D03*
X9500000Y-3810000D03*
X12040000Y-3810000D03*
D25*
X9900000Y-46990000D03*
D26*
X12440000Y-46990000D03*
D10*
X17160000Y-17000000D03*
X7000000Y-17000000D03*
X60500000Y-9500000D03*
X60500000Y-12000000D03*
D29*
X46500000Y-23000000D03*
D10*
X54120000Y-23000000D03*
X15500000Y-3810000D03*
X18040000Y-3810000D03*
D30*
X40000000Y-19000000D03*
X33020000Y-16500000D03*
X40000000Y-33000000D03*
X61000000Y-40000000D03*
X12000000Y-33000000D03*
X19000000Y-19000000D03*
X40000000Y-12000000D03*
X54000000Y-12000000D03*
X12000000Y-19000000D03*
X61000000Y-19000000D03*
X3000000Y-39000000D03*
X26000000Y-40000000D03*
X33000000Y-12000000D03*
X61000000Y-33000000D03*
X5000000Y-33000000D03*
X47000000Y-33000000D03*
X54000000Y-33000000D03*
X33020000Y-13000000D03*
X19000000Y-12000000D03*
X63000000Y-31000000D03*
X5000000Y-40000000D03*
X54000000Y-19000000D03*
X67000000Y-19000000D03*
X33020000Y-10500000D03*
X47000000Y-5000000D03*
X55000000Y-47000000D03*
X47000000Y-12000000D03*
X26000000Y-5000000D03*
X33000000Y-19000000D03*
X40000000Y-26000000D03*
X54000000Y-26000000D03*
X33000000Y-47000000D03*
X26000000Y-47000000D03*
X40000000Y-47000000D03*
X33000000Y-5000000D03*
X59000000Y-35000000D03*
X63000000Y-39000000D03*
X47000000Y-19000000D03*
X12000000Y-12000000D03*
X63000000Y-35000000D03*
X63000000Y-19000000D03*
X63000000Y-27000000D03*
X61000000Y-47000000D03*
X59000000Y-47000000D03*
X54000000Y-40000000D03*
X19000000Y-40000000D03*
X61000000Y-26000000D03*
X61000000Y-5000000D03*
X38354000Y-25781000D03*
X60833000Y-24257000D03*
X47879000Y-26035000D03*
X26162000Y-32639000D03*
X48768000Y-27051000D03*
X20955000Y-37465000D03*
X23114000Y-15113000D03*
X23114000Y-16637000D03*
X37592000Y-36449000D03*
X37465000Y-27940000D03*
X45466000Y-33782000D03*
X9652000Y-32893000D03*
X46101000Y-34544000D03*
X52451000Y-30861000D03*
X13843000Y-33401000D03*
X50419000Y-35306000D03*
X33020000Y-35433000D03*
X4699000Y-27559000D03*
X48768000Y-28829000D03*
X44323000Y-22352000D03*
X38989000Y-29972000D03*
X4953000Y-31369000D03*
X31623000Y-44196000D03*
X36195000Y-30099000D03*
X50038000Y-36195000D03*
X20447000Y-34544000D03*
X31496000Y-34290000D03*
X26035000Y-36195000D03*
X62865000Y-16129000D03*
X51689000Y-20574000D03*
X48641000Y-18034000D03*
X62865000Y-21463000D03*
X56769000Y-15494000D03*
X57404000Y-25527000D03*
X32512000Y-42672000D03*
X14732000Y-1905000D03*
X30734000Y-21971000D03*
X27305000Y-19050000D03*
X8128000Y-25781000D03*
X56261000Y-37846000D03*
X11430000Y-38227000D03*
X21844000Y-21082000D03*
X27940000Y-27940000D03*
X2413000Y-27305000D03*
X36068000Y-20320000D03*
X41402000Y-28575000D03*
X54864000Y-41529000D03*
X17018000Y-6350000D03*
D31*
X33020000Y-8900000D02*
X33020000Y-17500000D01*
D32*
X51943000Y-25654000D02*
X51816000Y-25654000D01*
X46482000Y-23114000D02*
X46482000Y-22987000D01*
X46736000Y-23495000D02*
X46609000Y-23368000D01*
X47244000Y-24765000D02*
X47244000Y-24638000D01*
X49784000Y-26543000D02*
X49657000Y-26670000D01*
X53848000Y-24765000D02*
X53721000Y-24765000D01*
X55372000Y-24384000D02*
X54610000Y-24384000D01*
X21082000Y-37465000D02*
X20955000Y-37465000D01*
X47625000Y-25527000D02*
X47625000Y-25400000D01*
X21590000Y-37211000D02*
X21463000Y-37211000D01*
X23114000Y-36449000D02*
X22987000Y-36576000D01*
X37211000Y-26924000D02*
X36576000Y-26924000D01*
X53340000Y-25019000D02*
X53086000Y-25019000D01*
X21971000Y-36957000D02*
X21844000Y-37084000D01*
X50038000Y-26416000D02*
X49911000Y-26543000D01*
X47879000Y-26035000D02*
X47752000Y-25908000D01*
X21336000Y-37338000D02*
X21209000Y-37338000D01*
X32384999Y-31115000D02*
X32258000Y-31115000D01*
X52324000Y-25400000D02*
X52197000Y-25527000D01*
X51308000Y-25908000D02*
X51181000Y-25908000D01*
X48895000Y-27051000D02*
X48768000Y-27051000D01*
X52578000Y-25273000D02*
X52451000Y-25400000D01*
X26162000Y-32639000D02*
X24892000Y-33909000D01*
X46609000Y-23368000D02*
X46609000Y-23241000D01*
X32258000Y-31115000D02*
X32131000Y-31242000D01*
X51181000Y-25908000D02*
X51054000Y-26035000D01*
X21463000Y-37211000D02*
X21336000Y-37338000D01*
X47371000Y-25019000D02*
X47371000Y-24892000D01*
X52070000Y-25527000D02*
X51943000Y-25654000D01*
X21844000Y-37084000D02*
X21717000Y-37084000D01*
X21717000Y-37084000D02*
X21590000Y-37211000D01*
X49403000Y-26797000D02*
X49276000Y-26797000D01*
X49657000Y-26670000D02*
X49530000Y-26670000D01*
X46990000Y-24130000D02*
X46990000Y-24003000D01*
X50546000Y-26289000D02*
X50419000Y-26289000D01*
X50673000Y-26162000D02*
X50546000Y-26289000D01*
X54102000Y-24638000D02*
X53975000Y-24638000D01*
X32131000Y-31242000D02*
X32003999Y-31242000D01*
X22606000Y-36703000D02*
X22479000Y-36830000D01*
X30353000Y-32003999D02*
X30226000Y-32131000D01*
X51054000Y-26035000D02*
X50927000Y-26035000D01*
X52705000Y-25273000D02*
X52578000Y-25273000D01*
X51435000Y-25781000D02*
X51308000Y-25908000D01*
X30988000Y-31750000D02*
X30861000Y-31750000D01*
X22479000Y-36830000D02*
X22225000Y-36830000D01*
X54483000Y-24511000D02*
X54229000Y-24511000D01*
X28321000Y-32131000D02*
X27051000Y-33401000D01*
X47625000Y-25400000D02*
X47498000Y-25273000D01*
X60833000Y-24257000D02*
X55499000Y-24257000D01*
X52959000Y-25146000D02*
X52832000Y-25146000D01*
X31623000Y-31496000D02*
X31496000Y-31496000D01*
X22860000Y-36576000D02*
X22733000Y-36703000D01*
X49149000Y-26924000D02*
X49022000Y-26924000D01*
X47498000Y-25146000D02*
X47371000Y-25019000D01*
X31496000Y-31496000D02*
X31369000Y-31623000D01*
X47117000Y-24511000D02*
X47117000Y-24257000D01*
X47752000Y-25654000D02*
X47625000Y-25527000D01*
X31877000Y-31369000D02*
X31750000Y-31369000D01*
X30480000Y-32003999D02*
X30353000Y-32003999D01*
X53594000Y-24892000D02*
X53467000Y-24892000D01*
X46736000Y-23622000D02*
X46736000Y-23495000D01*
X53086000Y-25019000D02*
X52959000Y-25146000D01*
X51816000Y-25654000D02*
X51689000Y-25781000D01*
X55499000Y-24257000D02*
X55372000Y-24384000D01*
X51689000Y-25781000D02*
X51435000Y-25781000D01*
X22225000Y-36830000D02*
X22098000Y-36957000D01*
X46609000Y-23241000D02*
X46482000Y-23114000D01*
X24892000Y-33909000D02*
X24892000Y-34798000D01*
X30226000Y-32131000D02*
X28321000Y-32131000D01*
X36576000Y-26924000D02*
X32384999Y-31115000D01*
X49276000Y-26797000D02*
X49149000Y-26924000D01*
X24892000Y-34798000D02*
X23241000Y-36449000D01*
X47371000Y-24892000D02*
X47244000Y-24765000D01*
X50292000Y-26416000D02*
X50038000Y-26416000D01*
X47117000Y-24257000D02*
X46990000Y-24130000D01*
X30861000Y-31750000D02*
X30734000Y-31877000D01*
X52451000Y-25400000D02*
X52324000Y-25400000D01*
X47498000Y-25273000D02*
X47498000Y-25146000D01*
X52197000Y-25527000D02*
X52070000Y-25527000D01*
X50927000Y-26035000D02*
X50800000Y-26162000D01*
X31750000Y-31369000D02*
X31623000Y-31496000D01*
X50800000Y-26162000D02*
X50673000Y-26162000D01*
X23241000Y-36449000D02*
X23114000Y-36449000D01*
X46863000Y-23876000D02*
X46863000Y-23749000D01*
X30607000Y-31877000D02*
X30480000Y-32003999D01*
X32003999Y-31242000D02*
X31877000Y-31369000D01*
X46863000Y-23749000D02*
X46736000Y-23622000D01*
X38354000Y-25781000D02*
X37211000Y-26924000D01*
X50419000Y-26289000D02*
X50292000Y-26416000D01*
X22733000Y-36703000D02*
X22606000Y-36703000D01*
X31115000Y-31623000D02*
X30988000Y-31750000D01*
X53467000Y-24892000D02*
X53340000Y-25019000D01*
X46990000Y-24003000D02*
X46863000Y-23876000D01*
X54229000Y-24511000D02*
X54102000Y-24638000D01*
X49911000Y-26543000D02*
X49784000Y-26543000D01*
X49022000Y-26924000D02*
X48895000Y-27051000D01*
X53721000Y-24765000D02*
X53594000Y-24892000D01*
X47752000Y-25908000D02*
X47752000Y-25654000D01*
X49530000Y-26670000D02*
X49403000Y-26797000D01*
X47244000Y-24638000D02*
X47117000Y-24511000D01*
X22987000Y-36576000D02*
X22860000Y-36576000D01*
X22098000Y-36957000D02*
X21971000Y-36957000D01*
X54610000Y-24384000D02*
X54483000Y-24511000D01*
X30734000Y-31877000D02*
X30607000Y-31877000D01*
X31369000Y-31623000D02*
X31115000Y-31623000D01*
X52832000Y-25146000D02*
X52705000Y-25273000D01*
X27051000Y-33401000D02*
X27051000Y-33528000D01*
X53975000Y-24638000D02*
X53848000Y-24765000D01*
X21209000Y-37338000D02*
X21082000Y-37465000D01*
X23114000Y-15113000D02*
X19939000Y-11938000D01*
X19939000Y-11176000D02*
X19558000Y-10795000D01*
X19939000Y-11938000D02*
X19939000Y-11176000D01*
X17907000Y-9525000D02*
X17780000Y-9398000D01*
X19050000Y-10795000D02*
X17907000Y-9652000D01*
X19558000Y-10795000D02*
X19050000Y-10795000D01*
X17907000Y-9652000D02*
X17907000Y-9525000D01*
X17780000Y-9398000D02*
X17780000Y-9271000D01*
X25400000Y-14732000D02*
X26416000Y-14732000D01*
X21844000Y-8636000D02*
X21590000Y-8636000D01*
X20574000Y-9144000D02*
X20447000Y-9271000D01*
X21336000Y-8763000D02*
X21209000Y-8890000D01*
X26543000Y-6858000D02*
X26416000Y-6731000D01*
X21082000Y-8890000D02*
X20955000Y-9017000D01*
X22098000Y-8509000D02*
X21971000Y-8509000D01*
X20447000Y-9271000D02*
X20320000Y-9271000D01*
X21209000Y-8890000D02*
X21082000Y-8890000D01*
X24003000Y-16129000D02*
X25400000Y-14732000D01*
X23876000Y-6731000D02*
X22098000Y-8509000D01*
X23114000Y-16637000D02*
X23622000Y-16129000D01*
X21590000Y-8636000D02*
X21463000Y-8763000D01*
X21971000Y-8509000D02*
X21844000Y-8636000D01*
X26416000Y-14732000D02*
X26543000Y-14605000D01*
X23622000Y-16129000D02*
X24003000Y-16129000D01*
X20955000Y-9017000D02*
X20828000Y-9017000D01*
X21463000Y-8763000D02*
X21336000Y-8763000D01*
X26416000Y-6731000D02*
X23876000Y-6731000D01*
X20828000Y-9017000D02*
X20701000Y-9144000D01*
X26543000Y-14605000D02*
X26543000Y-6858000D01*
X20701000Y-9144000D02*
X20574000Y-9144000D01*
D33*
X37592000Y-28194000D02*
X37465000Y-28067000D01*
X37592000Y-36449000D02*
X37592000Y-28194000D01*
X37465000Y-28067000D02*
X37465000Y-27940000D01*
D31*
X43815000Y-22606000D02*
X43688000Y-22479000D01*
X35560000Y-33401000D02*
X35560000Y-33528000D01*
X45720000Y-34290000D02*
X45593000Y-34163000D01*
D32*
X21844000Y-38481000D02*
X13081000Y-38481000D01*
D34*
X41021000Y-40640000D02*
X43815000Y-37846000D01*
X43815000Y-35687000D02*
X45466000Y-34036000D01*
D31*
X36068000Y-32512000D02*
X35941000Y-32639000D01*
X35814000Y-33020000D02*
X35687000Y-33147000D01*
X35941000Y-32639000D02*
X35941000Y-32766000D01*
X45593000Y-34163000D02*
X45593000Y-33528000D01*
D32*
X4699000Y-38100000D02*
X3937000Y-37338000D01*
D31*
X44323000Y-22352000D02*
X42799000Y-23876000D01*
D32*
X23241000Y-37465000D02*
X23114000Y-37592000D01*
D33*
X13843000Y-33401000D02*
X13208000Y-32766000D01*
D31*
X43434000Y-21971000D02*
X43434000Y-21844000D01*
D33*
X10795000Y-28956000D02*
X10922000Y-29083000D01*
D34*
X50038000Y-36195000D02*
X48387000Y-34544000D01*
D32*
X23749000Y-37211000D02*
X23622000Y-37338000D01*
D31*
X36195000Y-30099000D02*
X36195000Y-32258000D01*
X45593000Y-33528000D02*
X43815000Y-31750000D01*
X43307000Y-21590000D02*
X43180000Y-21463000D01*
X43688000Y-22479000D02*
X43688000Y-22352000D01*
D32*
X23114000Y-37592000D02*
X22860000Y-37592000D01*
X12319000Y-39243000D02*
X10541000Y-39243000D01*
D31*
X48768000Y-28829000D02*
X50419000Y-28829000D01*
D32*
X31750000Y-35433000D02*
X31496000Y-35687000D01*
D31*
X35941000Y-32766000D02*
X35814000Y-32893000D01*
X36195000Y-32258000D02*
X36068000Y-32384999D01*
D33*
X10668000Y-31877000D02*
X9652000Y-32893000D01*
D34*
X31623000Y-44196000D02*
X31242000Y-43815000D01*
D33*
X9906000Y-27940000D02*
X10795000Y-28829000D01*
X4953000Y-31369000D02*
X4445000Y-30861000D01*
D34*
X48387000Y-34544000D02*
X46101000Y-34544000D01*
D33*
X13208000Y-32766000D02*
X13208000Y-32003999D01*
D31*
X35687000Y-33274000D02*
X35560000Y-33401000D01*
X43180000Y-21463000D02*
X43180000Y-21336000D01*
D32*
X4699000Y-31369000D02*
X4699000Y-27559000D01*
D31*
X42799000Y-29845000D02*
X42672000Y-29972000D01*
D32*
X23368000Y-37465000D02*
X23241000Y-37465000D01*
X23622000Y-37338000D02*
X23495000Y-37338000D01*
X22606000Y-37719000D02*
X21844000Y-38481000D01*
D31*
X43688000Y-22352000D02*
X43561000Y-22225000D01*
X42672000Y-29972000D02*
X38989000Y-29972000D01*
D32*
X31496000Y-35687000D02*
X28448000Y-35687000D01*
D33*
X4445000Y-28067000D02*
X4572000Y-27940000D01*
D31*
X35687000Y-33147000D02*
X35687000Y-33274000D01*
D32*
X22733000Y-37719000D02*
X22606000Y-37719000D01*
D31*
X43307000Y-21717000D02*
X43307000Y-21590000D01*
X43561000Y-22098000D02*
X43434000Y-21971000D01*
D33*
X10795000Y-28829000D02*
X10795000Y-28956000D01*
D32*
X3937000Y-32131000D02*
X4699000Y-31369000D01*
X13081000Y-38481000D02*
X12319000Y-39243000D01*
X33020000Y-35433000D02*
X31750000Y-35433000D01*
D31*
X49403000Y-34290000D02*
X45720000Y-34290000D01*
X50419000Y-28829000D02*
X52451000Y-30861000D01*
D32*
X28448000Y-35687000D02*
X26924000Y-37211000D01*
X26924000Y-37211000D02*
X23749000Y-37211000D01*
X22860000Y-37592000D02*
X22733000Y-37719000D01*
D31*
X43561000Y-22225000D02*
X43561000Y-22098000D01*
D33*
X11049000Y-29337000D02*
X11049000Y-29464000D01*
D32*
X23495000Y-37338000D02*
X23368000Y-37465000D01*
X3937000Y-37338000D02*
X3937000Y-32131000D01*
D31*
X42799000Y-23876000D02*
X42799000Y-29845000D01*
D34*
X31242000Y-41529000D02*
X32131000Y-40640000D01*
X31242000Y-43815000D02*
X31242000Y-41529000D01*
D32*
X10541000Y-39243000D02*
X9398000Y-38100000D01*
D33*
X4445000Y-30861000D02*
X4445000Y-28067000D01*
D32*
X9398000Y-38100000D02*
X4699000Y-38100000D01*
D33*
X13081000Y-31877000D02*
X10668000Y-31877000D01*
X10922000Y-29083000D02*
X10922000Y-29210000D01*
D31*
X36068000Y-32384999D02*
X36068000Y-32512000D01*
X43815000Y-31750000D02*
X43815000Y-22606000D01*
X50419000Y-35306000D02*
X49403000Y-34290000D01*
D33*
X13208000Y-32003999D02*
X13081000Y-31877000D01*
D34*
X32131000Y-40640000D02*
X41021000Y-40640000D01*
D33*
X10922000Y-29210000D02*
X11049000Y-29337000D01*
D34*
X43815000Y-37846000D02*
X43815000Y-35687000D01*
X45466000Y-34036000D02*
X45466000Y-33782000D01*
D31*
X43434000Y-21844000D02*
X43307000Y-21717000D01*
X35814000Y-32893000D02*
X35814000Y-33020000D01*
D33*
X4572000Y-27940000D02*
X9906000Y-27940000D01*
D32*
X12192000Y-35052000D02*
X12065000Y-35052000D01*
X12319000Y-34925000D02*
X12192000Y-35052000D01*
X19177000Y-34544000D02*
X18796000Y-34925000D01*
X20447000Y-34544000D02*
X19177000Y-34544000D01*
X11938000Y-35179000D02*
X11811000Y-35179000D01*
X11557000Y-35306000D02*
X11430000Y-35433000D01*
X11811000Y-35179000D02*
X11684000Y-35306000D01*
X12065000Y-35052000D02*
X11938000Y-35179000D01*
X11176000Y-35560000D02*
X11049000Y-35560000D01*
X11430000Y-35433000D02*
X11303000Y-35433000D01*
X11684000Y-35306000D02*
X11557000Y-35306000D01*
X11303000Y-35433000D02*
X11176000Y-35560000D01*
X18796000Y-34925000D02*
X12319000Y-34925000D01*
X30861000Y-34925000D02*
X27305000Y-34925000D01*
X27305000Y-34925000D02*
X26035000Y-36195000D01*
X31496000Y-34290000D02*
X30861000Y-34925000D01*
X6477000Y-22733000D02*
X6350000Y-22733000D01*
X7239000Y-22352000D02*
X7112000Y-22479000D01*
X6858000Y-22606000D02*
X6604000Y-22606000D01*
X33909000Y-19939000D02*
X28829000Y-19939000D01*
X6350000Y-22733000D02*
X6223000Y-22860000D01*
X62230000Y-16764000D02*
X37084000Y-16764000D01*
X5969000Y-22987000D02*
X5842000Y-22987000D01*
X6096000Y-22860000D02*
X5969000Y-22987000D01*
X6223000Y-22860000D02*
X6096000Y-22860000D01*
X28829000Y-19939000D02*
X26416000Y-22352000D01*
X62865000Y-16129000D02*
X62230000Y-16764000D01*
X26416000Y-22352000D02*
X7239000Y-22352000D01*
X7112000Y-22479000D02*
X6985000Y-22479000D01*
X6985000Y-22479000D02*
X6858000Y-22606000D01*
X5715000Y-23114000D02*
X3683000Y-23114000D01*
X5842000Y-22987000D02*
X5715000Y-23114000D01*
X2540000Y-24384000D02*
X2540000Y-24511000D01*
X2667000Y-24130000D02*
X2667000Y-24257000D01*
X6604000Y-22606000D02*
X6477000Y-22733000D01*
X3683000Y-23114000D02*
X2667000Y-24130000D01*
X37084000Y-16764000D02*
X33909000Y-19939000D01*
X2667000Y-24257000D02*
X2540000Y-24384000D01*
D31*
X51689000Y-20574000D02*
X49149000Y-18034000D01*
X56515000Y-21844000D02*
X56388000Y-21971000D01*
X54229000Y-22987000D02*
X54102000Y-22987000D01*
X55118000Y-22479000D02*
X54991000Y-22606000D01*
X55372000Y-22352000D02*
X55245000Y-22479000D01*
X56642000Y-21844000D02*
X56515000Y-21844000D01*
X54737000Y-22733000D02*
X54610000Y-22733000D01*
X49149000Y-18034000D02*
X48641000Y-18034000D01*
X62611000Y-21209000D02*
X57912000Y-21209000D01*
X57785000Y-21336000D02*
X57658000Y-21336000D01*
X62865000Y-21463000D02*
X62611000Y-21209000D01*
X57023000Y-21717000D02*
X56769000Y-21717000D01*
X55626000Y-22352000D02*
X55372000Y-22352000D01*
X56134000Y-22098000D02*
X56007000Y-22098000D01*
X57150000Y-21590000D02*
X57023000Y-21717000D01*
X54356000Y-22860000D02*
X54229000Y-22987000D01*
X56261000Y-21971000D02*
X56134000Y-22098000D01*
X56007000Y-22098000D02*
X55880000Y-22225000D01*
X57912000Y-21209000D02*
X57785000Y-21336000D01*
X54864000Y-22606000D02*
X54737000Y-22733000D01*
X57277000Y-21590000D02*
X57150000Y-21590000D01*
X57658000Y-21336000D02*
X57531000Y-21463000D01*
X54991000Y-22606000D02*
X54864000Y-22606000D01*
X56388000Y-21971000D02*
X56261000Y-21971000D01*
X54483000Y-22860000D02*
X54356000Y-22860000D01*
X55753000Y-22225000D02*
X55626000Y-22352000D01*
X56769000Y-21717000D02*
X56642000Y-21844000D01*
X57404000Y-21463000D02*
X57277000Y-21590000D01*
X55880000Y-22225000D02*
X55753000Y-22225000D01*
X54610000Y-22733000D02*
X54483000Y-22860000D01*
X55245000Y-22479000D02*
X55118000Y-22479000D01*
X57531000Y-21463000D02*
X57404000Y-21463000D01*
D32*
X57404000Y-30861000D02*
X58801000Y-29464000D01*
X26924000Y-3937000D02*
X20828000Y-3937000D01*
X54991000Y-11176000D02*
X53467000Y-9652000D01*
X58801000Y-29464000D02*
X58801000Y-26416000D01*
X58801000Y-26416000D02*
X58674000Y-26289000D01*
X55880000Y-42672000D02*
X56007000Y-42545000D01*
X53340000Y-6223000D02*
X29210000Y-6223000D01*
X57404000Y-38862000D02*
X57404000Y-30861000D01*
X20828000Y-3937000D02*
X19304000Y-2413000D01*
X58674000Y-26289000D02*
X58166000Y-26289000D01*
X56007000Y-40259000D02*
X57404000Y-38862000D01*
X29210000Y-6223000D02*
X26924000Y-3937000D01*
X56769000Y-15494000D02*
X54991000Y-13716000D01*
X53467000Y-6350000D02*
X53340000Y-6223000D01*
X54991000Y-13716000D02*
X54991000Y-11176000D01*
X56007000Y-42545000D02*
X56007000Y-40259000D01*
X53467000Y-9652000D02*
X53467000Y-6350000D01*
X32512000Y-42672000D02*
X55880000Y-42672000D01*
X15240000Y-2413000D02*
X14732000Y-1905000D01*
X58166000Y-26289000D02*
X57404000Y-25527000D01*
X19304000Y-2413000D02*
X15240000Y-2413000D01*
X6858000Y-16764000D02*
X6985000Y-16891000D01*
X6731000Y-16510000D02*
X6858000Y-16637000D01*
X27305000Y-6223000D02*
X27051000Y-5969000D01*
X8763000Y-26035000D02*
X21590000Y-26035000D01*
X23241000Y-5969000D02*
X21463000Y-7747000D01*
X1270000Y-7874000D02*
X1143000Y-8000999D01*
X1143000Y-8000999D02*
X1143000Y-10668000D01*
X6604000Y-16129000D02*
X6604000Y-16256000D01*
X8128000Y-25781000D02*
X8509000Y-25781000D01*
X6604000Y-16256000D02*
X6731000Y-16383000D01*
X6858000Y-16637000D02*
X6858000Y-16764000D01*
X21209000Y-7874000D02*
X1270000Y-7874000D01*
X27051000Y-5969000D02*
X23241000Y-5969000D01*
X21336000Y-7747000D02*
X21209000Y-7874000D01*
X27305000Y-19050000D02*
X27305000Y-6223000D01*
X6985000Y-16891000D02*
X6985000Y-17018000D01*
X21590000Y-26035000D02*
X21971000Y-25654000D01*
X8509000Y-25781000D02*
X8763000Y-26035000D01*
X21971000Y-25654000D02*
X27051000Y-25654000D01*
X27051000Y-25654000D02*
X30734000Y-21971000D01*
X1143000Y-10668000D02*
X6604000Y-16129000D01*
X21463000Y-7747000D02*
X21336000Y-7747000D01*
X6731000Y-16383000D02*
X6731000Y-16510000D01*
D31*
X48895000Y-31369000D02*
X48768000Y-31369000D01*
X48006000Y-30988000D02*
X47879000Y-30988000D01*
X46482000Y-30353000D02*
X46355000Y-30226000D01*
X48133000Y-31115000D02*
X48006000Y-30988000D01*
X48260000Y-31115000D02*
X48133000Y-31115000D01*
X47879000Y-30988000D02*
X47752000Y-30861000D01*
X50038000Y-31877000D02*
X49784000Y-31877000D01*
X50546000Y-32131000D02*
X50419000Y-32131000D01*
X47244000Y-30607000D02*
X46990000Y-30607000D01*
X46101000Y-30099000D02*
X45974000Y-30099000D01*
X46863000Y-30480000D02*
X46736000Y-30480000D01*
X50165000Y-32003999D02*
X50038000Y-31877000D01*
X56261000Y-37846000D02*
X50546000Y-32131000D01*
X46228000Y-30226000D02*
X46101000Y-30099000D01*
X46355000Y-30226000D02*
X46228000Y-30226000D01*
X46736000Y-30480000D02*
X46609000Y-30353000D01*
X48641000Y-31242000D02*
X48387000Y-31242000D01*
X48387000Y-31242000D02*
X48260000Y-31115000D01*
X45847000Y-29972000D02*
X45720000Y-29972000D01*
X47371000Y-30734000D02*
X47244000Y-30607000D01*
X45974000Y-30099000D02*
X45847000Y-29972000D01*
X46990000Y-30607000D02*
X46863000Y-30480000D01*
X49276000Y-31623000D02*
X49149000Y-31496000D01*
X49022000Y-31496000D02*
X48895000Y-31369000D01*
X49657000Y-31750000D02*
X49530000Y-31750000D01*
X48768000Y-31369000D02*
X48641000Y-31242000D01*
X47752000Y-30861000D02*
X47625000Y-30861000D01*
X49149000Y-31496000D02*
X49022000Y-31496000D01*
X46609000Y-30353000D02*
X46482000Y-30353000D01*
X47498000Y-30734000D02*
X47371000Y-30734000D01*
X50292000Y-32003999D02*
X50165000Y-32003999D01*
X49530000Y-31750000D02*
X49403000Y-31623000D01*
X47625000Y-30861000D02*
X47498000Y-30734000D01*
X49403000Y-31623000D02*
X49276000Y-31623000D01*
X49784000Y-31877000D02*
X49657000Y-31750000D01*
X50419000Y-32131000D02*
X50292000Y-32003999D01*
D32*
X9017000Y-30861000D02*
X27305000Y-30861000D01*
X4699000Y-34290000D02*
X4953000Y-34036000D01*
X20701000Y-19939000D02*
X18161000Y-19939000D01*
X18161000Y-19939000D02*
X16637000Y-18415000D01*
X6350000Y-10795000D02*
X6096000Y-10541000D01*
X27432000Y-30734000D02*
X27432000Y-28448000D01*
X6096000Y-10541000D02*
X6096000Y-10287000D01*
X4699000Y-36703000D02*
X4699000Y-34290000D01*
X4953000Y-34036000D02*
X5842000Y-34036000D01*
X15875000Y-18415000D02*
X8255000Y-10795000D01*
X16637000Y-18415000D02*
X15875000Y-18415000D01*
X27305000Y-30861000D02*
X27432000Y-30734000D01*
X27432000Y-28448000D02*
X27940000Y-27940000D01*
X4826000Y-36830000D02*
X4699000Y-36703000D01*
X21844000Y-21082000D02*
X20701000Y-19939000D01*
X8255000Y-10795000D02*
X6350000Y-10795000D01*
X10033000Y-36830000D02*
X4826000Y-36830000D01*
X6096000Y-10287000D02*
X5080000Y-9271000D01*
X5842000Y-34036000D02*
X9017000Y-30861000D01*
X11430000Y-38227000D02*
X10033000Y-36830000D01*
X2413000Y-27305000D02*
X1016000Y-25908000D01*
X8382000Y-18288000D02*
X8382000Y-15748000D01*
X6096000Y-13462000D02*
X6096000Y-13081000D01*
X5842000Y-18415000D02*
X8255000Y-18415000D01*
X8255000Y-18415000D02*
X8382000Y-18288000D01*
X1016000Y-23241000D02*
X5842000Y-18415000D01*
X2540000Y-9398000D02*
X2540000Y-9271000D01*
X2667000Y-9652000D02*
X2667000Y-9525000D01*
X1016000Y-25908000D02*
X1016000Y-23241000D01*
X6096000Y-13081000D02*
X2667000Y-9652000D01*
X2667000Y-9525000D02*
X2540000Y-9398000D01*
X8382000Y-15748000D02*
X6096000Y-13462000D01*
D31*
X50800000Y-39624000D02*
X50673000Y-39624000D01*
X41402000Y-28575000D02*
X41402000Y-24765000D01*
X51308000Y-39878000D02*
X51181000Y-39878000D01*
X48260000Y-38481000D02*
X48133000Y-38481000D01*
X14986000Y-6350000D02*
X14859000Y-6223000D01*
X36957000Y-20320000D02*
X36068000Y-20320000D01*
X46101000Y-37465000D02*
X45974000Y-37465000D01*
X50292000Y-39370000D02*
X50165000Y-39370000D01*
X49657000Y-39116000D02*
X49530000Y-39116000D01*
X48895000Y-38735000D02*
X48768000Y-38735000D01*
X48641000Y-38608000D02*
X48387000Y-38608000D01*
X49022000Y-38862000D02*
X48895000Y-38735000D01*
X47879000Y-38354000D02*
X47752000Y-38227000D01*
X9779000Y-4318000D02*
X9652000Y-4191000D01*
X41402000Y-24765000D02*
X36957000Y-20320000D01*
X46990000Y-37973000D02*
X46863000Y-37846000D01*
X14224000Y-5969000D02*
X14097000Y-5842000D01*
X46736000Y-37846000D02*
X46609000Y-37719000D01*
X45847000Y-37338000D02*
X45720000Y-37338000D01*
X50673000Y-39624000D02*
X50546000Y-39497000D01*
X51181000Y-39878000D02*
X51054000Y-39751000D01*
X13970000Y-5842000D02*
X13843000Y-5715000D01*
X17018000Y-6350000D02*
X14986000Y-6350000D01*
X14478000Y-6096000D02*
X14351000Y-5969000D01*
X48387000Y-38608000D02*
X48260000Y-38481000D01*
X48006000Y-38354000D02*
X47879000Y-38354000D01*
X10160000Y-5334000D02*
X10160000Y-5080000D01*
X14351000Y-5969000D02*
X14224000Y-5969000D01*
X49530000Y-39116000D02*
X49403000Y-38989000D01*
X50927000Y-39751000D02*
X50800000Y-39624000D01*
X14097000Y-5842000D02*
X13970000Y-5842000D01*
X45974000Y-37465000D02*
X45847000Y-37338000D01*
X9779000Y-4445000D02*
X9779000Y-4318000D01*
X47498000Y-38100000D02*
X47371000Y-38100000D01*
X47371000Y-38100000D02*
X47244000Y-37973000D01*
X46863000Y-37846000D02*
X46736000Y-37846000D01*
X10160000Y-5080000D02*
X10033000Y-4953000D01*
X46482000Y-37719000D02*
X46355000Y-37592000D01*
X54737000Y-41402000D02*
X52832000Y-41402000D01*
X51054000Y-39751000D02*
X50927000Y-39751000D01*
X9525000Y-3937000D02*
X9525000Y-3810000D01*
X48133000Y-38481000D02*
X48006000Y-38354000D01*
X50165000Y-39370000D02*
X50038000Y-39243000D01*
X14605000Y-6096000D02*
X14478000Y-6096000D01*
X10033000Y-4953000D02*
X10033000Y-4826000D01*
X47244000Y-37973000D02*
X46990000Y-37973000D01*
X10033000Y-4826000D02*
X9906000Y-4699000D01*
X13589000Y-5715000D02*
X13462000Y-5588000D01*
X50546000Y-39497000D02*
X50419000Y-39497000D01*
X49403000Y-38989000D02*
X49276000Y-38989000D01*
X54864000Y-41529000D02*
X54737000Y-41402000D01*
X49276000Y-38989000D02*
X49149000Y-38862000D01*
X49149000Y-38862000D02*
X49022000Y-38862000D01*
X13462000Y-5588000D02*
X10414000Y-5588000D01*
X49784000Y-39243000D02*
X49657000Y-39116000D01*
X47625000Y-38227000D02*
X47498000Y-38100000D01*
X9652000Y-4191000D02*
X9652000Y-4064000D01*
X9906000Y-4699000D02*
X9906000Y-4572000D01*
X46609000Y-37719000D02*
X46482000Y-37719000D01*
X52832000Y-41402000D02*
X51308000Y-39878000D01*
X50038000Y-39243000D02*
X49784000Y-39243000D01*
X46228000Y-37592000D02*
X46101000Y-37465000D01*
X48768000Y-38735000D02*
X48641000Y-38608000D01*
X14732000Y-6223000D02*
X14605000Y-6096000D01*
X10414000Y-5588000D02*
X10160000Y-5334000D01*
X13843000Y-5715000D02*
X13589000Y-5715000D01*
X46355000Y-37592000D02*
X46228000Y-37592000D01*
X14859000Y-6223000D02*
X14732000Y-6223000D01*
X9652000Y-4064000D02*
X9525000Y-3937000D01*
X47752000Y-38227000D02*
X47625000Y-38227000D01*
X9906000Y-4572000D02*
X9779000Y-4445000D01*
X50419000Y-39497000D02*
X50292000Y-39370000D01*
G04 #@! TA.AperFunction,Conductor*
G36*
X69477826Y-16021674D02*
G01*
X69499500Y-16074000D01*
X69499500Y-49425500D01*
X69477826Y-49477826D01*
X69425500Y-49499500D01*
X574500Y-49499500D01*
X522174Y-49477826D01*
X500500Y-49425500D01*
X500500Y-46879776D01*
X11039500Y-46879776D01*
X11039500Y-47100223D01*
X11073984Y-47317948D01*
X11073987Y-47317961D01*
X11142103Y-47527602D01*
X11142104Y-47527605D01*
X11142105Y-47527606D01*
X11199668Y-47640579D01*
X11242186Y-47724023D01*
X11242186Y-47724024D01*
X11256869Y-47744233D01*
X11371758Y-47902365D01*
X11527635Y-48058242D01*
X11705978Y-48187815D01*
X11902394Y-48287895D01*
X11902397Y-48287896D01*
X11902396Y-48287896D01*
X12112038Y-48356012D01*
X12112044Y-48356013D01*
X12112049Y-48356015D01*
X12220913Y-48373257D01*
X12329776Y-48390500D01*
X12329778Y-48390500D01*
X12550224Y-48390500D01*
X12637313Y-48376706D01*
X12767951Y-48356015D01*
X12767958Y-48356012D01*
X12767961Y-48356012D01*
X12863133Y-48325088D01*
X12977606Y-48287895D01*
X13174022Y-48187815D01*
X13352365Y-48058242D01*
X13508242Y-47902365D01*
X13637815Y-47724022D01*
X13737895Y-47527606D01*
X13797247Y-47344937D01*
X13806012Y-47317961D01*
X13806012Y-47317958D01*
X13806015Y-47317951D01*
X13840500Y-47100222D01*
X13840500Y-46879778D01*
X13840500Y-46879776D01*
X16639500Y-46879776D01*
X16639500Y-47100223D01*
X16673984Y-47317948D01*
X16673987Y-47317961D01*
X16742103Y-47527602D01*
X16742104Y-47527605D01*
X16742105Y-47527606D01*
X16799668Y-47640579D01*
X16842186Y-47724023D01*
X16842186Y-47724024D01*
X16856869Y-47744233D01*
X16971758Y-47902365D01*
X17127635Y-48058242D01*
X17305978Y-48187815D01*
X17502394Y-48287895D01*
X17502397Y-48287896D01*
X17502396Y-48287896D01*
X17712038Y-48356012D01*
X17712044Y-48356013D01*
X17712049Y-48356015D01*
X17820913Y-48373257D01*
X17929776Y-48390500D01*
X17929778Y-48390500D01*
X18150224Y-48390500D01*
X18237313Y-48376706D01*
X18367951Y-48356015D01*
X18367958Y-48356012D01*
X18367961Y-48356012D01*
X18463133Y-48325088D01*
X18577606Y-48287895D01*
X18774022Y-48187815D01*
X18952365Y-48058242D01*
X19108242Y-47902365D01*
X19237815Y-47724022D01*
X19337895Y-47527606D01*
X19397247Y-47344937D01*
X19406012Y-47317961D01*
X19406012Y-47317958D01*
X19406015Y-47317951D01*
X19440500Y-47100222D01*
X19440500Y-46879778D01*
X19406015Y-46662049D01*
X19406013Y-46662044D01*
X19406012Y-46662038D01*
X19337896Y-46452397D01*
X19337895Y-46452396D01*
X19337895Y-46452394D01*
X19237815Y-46255978D01*
X19108242Y-46077635D01*
X18952365Y-45921758D01*
X18829270Y-45832325D01*
X18774024Y-45792186D01*
X18577602Y-45692103D01*
X18577603Y-45692103D01*
X18367961Y-45623987D01*
X18367948Y-45623984D01*
X18150224Y-45589500D01*
X18150222Y-45589500D01*
X17929778Y-45589500D01*
X17929776Y-45589500D01*
X17712051Y-45623984D01*
X17712038Y-45623987D01*
X17502397Y-45692103D01*
X17305976Y-45792186D01*
X17305975Y-45792186D01*
X17127639Y-45921755D01*
X17127635Y-45921758D01*
X16971758Y-46077635D01*
X16971755Y-46077638D01*
X16971755Y-46077639D01*
X16842186Y-46255975D01*
X16842186Y-46255976D01*
X16742103Y-46452397D01*
X16673987Y-46662038D01*
X16673984Y-46662051D01*
X16639500Y-46879776D01*
X13840500Y-46879776D01*
X13806015Y-46662049D01*
X13806013Y-46662044D01*
X13806012Y-46662038D01*
X13737896Y-46452397D01*
X13737895Y-46452396D01*
X13737895Y-46452394D01*
X13637815Y-46255978D01*
X13508242Y-46077635D01*
X13352365Y-45921758D01*
X13229270Y-45832325D01*
X13174024Y-45792186D01*
X12977602Y-45692103D01*
X12977603Y-45692103D01*
X12767961Y-45623987D01*
X12767948Y-45623984D01*
X12550224Y-45589500D01*
X12550222Y-45589500D01*
X12329778Y-45589500D01*
X12329776Y-45589500D01*
X12112051Y-45623984D01*
X12112038Y-45623987D01*
X11902397Y-45692103D01*
X11705976Y-45792186D01*
X11705975Y-45792186D01*
X11527639Y-45921755D01*
X11527635Y-45921758D01*
X11371758Y-46077635D01*
X11371755Y-46077638D01*
X11371755Y-46077639D01*
X11242186Y-46255975D01*
X11242186Y-46255976D01*
X11142103Y-46452397D01*
X11073987Y-46662038D01*
X11073984Y-46662051D01*
X11039500Y-46879776D01*
X500500Y-46879776D01*
X500500Y-42881907D01*
X19999500Y-42881907D01*
X19999500Y-43118092D01*
X20036446Y-43351365D01*
X20036449Y-43351378D01*
X20109429Y-43575986D01*
X20216656Y-43786432D01*
X20323390Y-43933339D01*
X20355483Y-43977510D01*
X20522490Y-44144517D01*
X20713567Y-44283343D01*
X20924008Y-44390568D01*
X20924010Y-44390568D01*
X20924013Y-44390570D01*
X21148621Y-44463550D01*
X21148627Y-44463551D01*
X21148632Y-44463553D01*
X21304149Y-44488184D01*
X21381907Y-44500500D01*
X21381908Y-44500500D01*
X21618093Y-44500500D01*
X21676411Y-44491263D01*
X21851368Y-44463553D01*
X21851375Y-44463550D01*
X21851378Y-44463550D01*
X22075986Y-44390570D01*
X22075986Y-44390569D01*
X22075992Y-44390568D01*
X22286433Y-44283343D01*
X22477510Y-44144517D01*
X22644517Y-43977510D01*
X22783343Y-43786433D01*
X22890568Y-43575992D01*
X22902947Y-43537894D01*
X22963550Y-43351378D01*
X22963550Y-43351375D01*
X22963553Y-43351368D01*
X23000500Y-43118092D01*
X23000500Y-42881908D01*
X23000500Y-42881907D01*
X26499500Y-42881907D01*
X26499500Y-43118092D01*
X26536446Y-43351365D01*
X26536449Y-43351378D01*
X26609429Y-43575986D01*
X26716656Y-43786432D01*
X26823390Y-43933339D01*
X26855483Y-43977510D01*
X27022490Y-44144517D01*
X27213567Y-44283343D01*
X27424008Y-44390568D01*
X27424010Y-44390568D01*
X27424013Y-44390570D01*
X27648621Y-44463550D01*
X27648627Y-44463551D01*
X27648632Y-44463553D01*
X27804149Y-44488184D01*
X27881907Y-44500500D01*
X27881908Y-44500500D01*
X28118093Y-44500500D01*
X28176411Y-44491263D01*
X28351368Y-44463553D01*
X28351375Y-44463550D01*
X28351378Y-44463550D01*
X28575986Y-44390570D01*
X28575986Y-44390569D01*
X28575992Y-44390568D01*
X28786433Y-44283343D01*
X28977510Y-44144517D01*
X29144517Y-43977510D01*
X29283343Y-43786433D01*
X29390568Y-43575992D01*
X29402947Y-43537894D01*
X29463550Y-43351378D01*
X29463550Y-43351375D01*
X29463553Y-43351368D01*
X29500500Y-43118092D01*
X29500500Y-42881908D01*
X29463553Y-42648632D01*
X29463551Y-42648627D01*
X29463550Y-42648621D01*
X29390570Y-42424013D01*
X29390568Y-42424010D01*
X29390568Y-42424008D01*
X29283343Y-42213567D01*
X29144517Y-42022490D01*
X28977510Y-41855483D01*
X28977507Y-41855480D01*
X28977505Y-41855479D01*
X28786432Y-41716656D01*
X28575986Y-41609429D01*
X28351378Y-41536449D01*
X28351365Y-41536446D01*
X28118093Y-41499500D01*
X28118092Y-41499500D01*
X27881908Y-41499500D01*
X27881907Y-41499500D01*
X27648634Y-41536446D01*
X27648621Y-41536449D01*
X27424013Y-41609429D01*
X27213567Y-41716656D01*
X27022494Y-41855479D01*
X26855479Y-42022494D01*
X26716656Y-42213567D01*
X26609429Y-42424013D01*
X26536449Y-42648621D01*
X26536446Y-42648634D01*
X26499500Y-42881907D01*
X23000500Y-42881907D01*
X22963553Y-42648632D01*
X22963551Y-42648627D01*
X22963550Y-42648621D01*
X22890570Y-42424013D01*
X22890568Y-42424010D01*
X22890568Y-42424008D01*
X22783343Y-42213567D01*
X22644517Y-42022490D01*
X22477510Y-41855483D01*
X22477507Y-41855480D01*
X22477505Y-41855479D01*
X22286432Y-41716656D01*
X22075986Y-41609429D01*
X21851378Y-41536449D01*
X21851365Y-41536446D01*
X21618093Y-41499500D01*
X21618092Y-41499500D01*
X21381908Y-41499500D01*
X21381907Y-41499500D01*
X21148634Y-41536446D01*
X21148621Y-41536449D01*
X20924013Y-41609429D01*
X20713567Y-41716656D01*
X20522494Y-41855479D01*
X20355479Y-42022494D01*
X20216656Y-42213567D01*
X20109429Y-42424013D01*
X20036449Y-42648621D01*
X20036446Y-42648634D01*
X19999500Y-42881907D01*
X500500Y-42881907D01*
X500500Y-28074000D01*
X522174Y-28021674D01*
X574500Y-28000000D01*
X1186456Y-28000000D01*
X1238782Y-28021674D01*
X1260456Y-28074000D01*
X1247664Y-28112434D01*
X1248741Y-28113022D01*
X1246202Y-28117670D01*
X1195910Y-28252512D01*
X1195909Y-28252517D01*
X1189500Y-28312126D01*
X1189500Y-30107873D01*
X1195909Y-30167485D01*
X1246202Y-30302329D01*
X1246203Y-30302330D01*
X1246204Y-30302331D01*
X1332454Y-30417546D01*
X1432354Y-30492331D01*
X1447669Y-30503796D01*
X1447670Y-30503797D01*
X1551402Y-30542486D01*
X1582517Y-30554091D01*
X1642127Y-30560500D01*
X3437872Y-30560499D01*
X3497483Y-30554091D01*
X3528598Y-30542486D01*
X3544640Y-30536503D01*
X3601241Y-30538524D01*
X3639834Y-30579977D01*
X3644500Y-30605837D01*
X3644500Y-30782158D01*
X3644500Y-30939842D01*
X3649257Y-30963755D01*
X3675261Y-31094491D01*
X3675264Y-31094501D01*
X3735604Y-31240176D01*
X3735605Y-31240178D01*
X3735606Y-31240179D01*
X3767256Y-31287547D01*
X3770867Y-31292950D01*
X3781916Y-31348498D01*
X3761664Y-31386388D01*
X3431724Y-31716329D01*
X3431722Y-31716331D01*
X3367303Y-31812744D01*
X3367302Y-31812743D01*
X3360535Y-31822870D01*
X3311498Y-31941257D01*
X3311497Y-31941260D01*
X3293927Y-32029593D01*
X3286500Y-32066931D01*
X3286500Y-37402069D01*
X3291854Y-37428985D01*
X3305825Y-37499219D01*
X3305825Y-37499220D01*
X3311497Y-37527737D01*
X3311499Y-37527744D01*
X3360535Y-37646127D01*
X3417509Y-37731397D01*
X3431723Y-37752669D01*
X4284331Y-38605277D01*
X4382309Y-38670743D01*
X4390873Y-38676465D01*
X4509256Y-38725501D01*
X4509258Y-38725501D01*
X4509260Y-38725502D01*
X4545105Y-38732632D01*
X4634931Y-38750500D01*
X9097902Y-38750500D01*
X9150228Y-38772174D01*
X10126331Y-39748277D01*
X10187033Y-39788836D01*
X10232873Y-39819465D01*
X10351256Y-39868501D01*
X10449899Y-39888122D01*
X10496991Y-39919587D01*
X10508040Y-39975136D01*
X10487789Y-40013025D01*
X10448039Y-40052775D01*
X10448031Y-40052785D01*
X10327712Y-40218389D01*
X10261822Y-40347708D01*
X10243518Y-40383633D01*
X10235935Y-40398515D01*
X10192867Y-40435298D01*
X10136405Y-40430855D01*
X10104065Y-40398515D01*
X10096482Y-40383633D01*
X10047775Y-40288039D01*
X10012287Y-40218389D01*
X9936759Y-40114434D01*
X9891966Y-40052781D01*
X9747219Y-39908034D01*
X9659536Y-39844329D01*
X9581610Y-39787712D01*
X9399213Y-39694777D01*
X9204544Y-39631525D01*
X9204531Y-39631522D01*
X9002354Y-39599500D01*
X9002352Y-39599500D01*
X8797648Y-39599500D01*
X8797646Y-39599500D01*
X8595468Y-39631522D01*
X8595455Y-39631525D01*
X8400786Y-39694777D01*
X8218389Y-39787712D01*
X8077867Y-39889808D01*
X8052781Y-39908034D01*
X7908034Y-40052781D01*
X7908031Y-40052784D01*
X7908031Y-40052785D01*
X7787712Y-40218389D01*
X7694777Y-40400786D01*
X7631525Y-40595455D01*
X7631522Y-40595468D01*
X7599500Y-40797646D01*
X7599500Y-41002353D01*
X7631522Y-41204531D01*
X7631525Y-41204544D01*
X7694777Y-41399213D01*
X7787712Y-41581610D01*
X7858058Y-41678432D01*
X7908034Y-41747219D01*
X8052781Y-41891966D01*
X8129218Y-41947500D01*
X8218389Y-42012287D01*
X8238414Y-42022490D01*
X8400781Y-42105220D01*
X8400783Y-42105220D01*
X8400786Y-42105222D01*
X8595455Y-42168474D01*
X8595461Y-42168475D01*
X8595466Y-42168477D01*
X8696557Y-42184488D01*
X8797646Y-42200500D01*
X8797648Y-42200500D01*
X9002354Y-42200500D01*
X9083224Y-42187690D01*
X9204534Y-42168477D01*
X9204541Y-42168474D01*
X9204544Y-42168474D01*
X9399213Y-42105222D01*
X9399213Y-42105221D01*
X9399219Y-42105220D01*
X9581610Y-42012287D01*
X9747219Y-41891966D01*
X9891966Y-41747219D01*
X10012287Y-41581610D01*
X10104066Y-41401482D01*
X10147132Y-41364701D01*
X10203595Y-41369144D01*
X10235933Y-41401482D01*
X10268959Y-41466298D01*
X10327712Y-41581610D01*
X10398058Y-41678432D01*
X10448034Y-41747219D01*
X10592781Y-41891966D01*
X10669218Y-41947500D01*
X10758389Y-42012287D01*
X10778414Y-42022490D01*
X10940781Y-42105220D01*
X10940783Y-42105220D01*
X10940786Y-42105222D01*
X11135455Y-42168474D01*
X11135461Y-42168475D01*
X11135466Y-42168477D01*
X11236557Y-42184488D01*
X11337646Y-42200500D01*
X11337648Y-42200500D01*
X11542354Y-42200500D01*
X11623224Y-42187690D01*
X11744534Y-42168477D01*
X11744541Y-42168474D01*
X11744544Y-42168474D01*
X11939213Y-42105222D01*
X11939213Y-42105221D01*
X11939219Y-42105220D01*
X12121610Y-42012287D01*
X12287219Y-41891966D01*
X12431966Y-41747219D01*
X12552287Y-41581610D01*
X12645220Y-41399219D01*
X12692979Y-41252232D01*
X12708474Y-41204544D01*
X12708474Y-41204541D01*
X12708477Y-41204534D01*
X12712736Y-41177646D01*
X13199500Y-41177646D01*
X13199500Y-41382353D01*
X13231522Y-41584531D01*
X13231525Y-41584544D01*
X13294777Y-41779213D01*
X13387712Y-41961610D01*
X13431947Y-42022494D01*
X13508034Y-42127219D01*
X13652781Y-42271966D01*
X13744695Y-42338745D01*
X13818389Y-42392287D01*
X13906300Y-42437079D01*
X14000781Y-42485220D01*
X14000783Y-42485220D01*
X14000786Y-42485222D01*
X14195455Y-42548474D01*
X14195461Y-42548475D01*
X14195466Y-42548477D01*
X14296557Y-42564488D01*
X14397646Y-42580500D01*
X14397648Y-42580500D01*
X14602354Y-42580500D01*
X14683224Y-42567690D01*
X14804534Y-42548477D01*
X14804541Y-42548474D01*
X14804544Y-42548474D01*
X14999213Y-42485222D01*
X14999213Y-42485221D01*
X14999219Y-42485220D01*
X15181610Y-42392287D01*
X15347219Y-42271966D01*
X15491966Y-42127219D01*
X15612287Y-41961610D01*
X15704066Y-41781482D01*
X15747132Y-41744701D01*
X15803595Y-41749144D01*
X15835933Y-41781482D01*
X15879987Y-41867944D01*
X15927712Y-41961610D01*
X15971947Y-42022494D01*
X16048034Y-42127219D01*
X16192781Y-42271966D01*
X16284695Y-42338745D01*
X16358389Y-42392287D01*
X16446300Y-42437079D01*
X16540781Y-42485220D01*
X16540783Y-42485220D01*
X16540786Y-42485222D01*
X16735455Y-42548474D01*
X16735461Y-42548475D01*
X16735466Y-42548477D01*
X16836557Y-42564488D01*
X16937646Y-42580500D01*
X16937648Y-42580500D01*
X17142354Y-42580500D01*
X17223224Y-42567690D01*
X17344534Y-42548477D01*
X17344541Y-42548474D01*
X17344544Y-42548474D01*
X17539213Y-42485222D01*
X17539213Y-42485221D01*
X17539219Y-42485220D01*
X17721610Y-42392287D01*
X17887219Y-42271966D01*
X18031966Y-42127219D01*
X18152287Y-41961610D01*
X18245220Y-41779219D01*
X18255616Y-41747224D01*
X18308474Y-41584544D01*
X18308474Y-41584541D01*
X18308477Y-41584534D01*
X18336700Y-41406344D01*
X18340500Y-41382353D01*
X18340500Y-41177646D01*
X18318981Y-41041786D01*
X18308477Y-40975466D01*
X18308475Y-40975461D01*
X18308474Y-40975455D01*
X18245222Y-40780786D01*
X18245220Y-40780783D01*
X18245220Y-40780781D01*
X18172282Y-40637632D01*
X18152287Y-40598389D01*
X18088528Y-40510633D01*
X18031966Y-40432781D01*
X17887219Y-40288034D01*
X17816501Y-40236655D01*
X17721610Y-40167712D01*
X17539213Y-40074777D01*
X17344544Y-40011525D01*
X17344531Y-40011522D01*
X17142354Y-39979500D01*
X17142352Y-39979500D01*
X16937648Y-39979500D01*
X16937646Y-39979500D01*
X16735468Y-40011522D01*
X16735455Y-40011525D01*
X16540786Y-40074777D01*
X16358389Y-40167712D01*
X16236002Y-40256632D01*
X16192781Y-40288034D01*
X16048034Y-40432781D01*
X16048031Y-40432784D01*
X16048031Y-40432785D01*
X15927712Y-40598389D01*
X15872219Y-40707302D01*
X15843009Y-40764632D01*
X15835935Y-40778515D01*
X15792867Y-40815298D01*
X15736405Y-40810855D01*
X15704065Y-40778515D01*
X15696991Y-40764632D01*
X15662947Y-40697816D01*
X15612287Y-40598389D01*
X15548528Y-40510633D01*
X15491966Y-40432781D01*
X15347219Y-40288034D01*
X15276501Y-40236655D01*
X15181610Y-40167712D01*
X14999213Y-40074777D01*
X14804544Y-40011525D01*
X14804531Y-40011522D01*
X14602354Y-39979500D01*
X14602352Y-39979500D01*
X14397648Y-39979500D01*
X14397646Y-39979500D01*
X14195468Y-40011522D01*
X14195455Y-40011525D01*
X14000786Y-40074777D01*
X13818389Y-40167712D01*
X13696002Y-40256632D01*
X13652781Y-40288034D01*
X13508034Y-40432781D01*
X13508031Y-40432784D01*
X13508031Y-40432785D01*
X13387712Y-40598389D01*
X13294777Y-40780786D01*
X13231525Y-40975455D01*
X13231522Y-40975468D01*
X13199500Y-41177646D01*
X12712736Y-41177646D01*
X12740500Y-41002352D01*
X12740500Y-40797648D01*
X12737829Y-40780786D01*
X12720863Y-40673669D01*
X12708477Y-40595466D01*
X12708475Y-40595461D01*
X12708474Y-40595455D01*
X12645222Y-40400786D01*
X12645220Y-40400783D01*
X12645220Y-40400781D01*
X12587775Y-40288039D01*
X12552287Y-40218389D01*
X12476759Y-40114434D01*
X12431966Y-40052781D01*
X12388893Y-40009708D01*
X12367219Y-39957382D01*
X12388893Y-39905056D01*
X12426781Y-39884804D01*
X12508744Y-39868501D01*
X12627127Y-39819465D01*
X12672967Y-39788836D01*
X12733669Y-39748277D01*
X13328772Y-39153174D01*
X13381098Y-39131500D01*
X21908067Y-39131500D01*
X21908069Y-39131500D01*
X22033744Y-39106501D01*
X22152127Y-39057465D01*
X22197967Y-39026836D01*
X22258669Y-38986277D01*
X22879036Y-38365908D01*
X22916927Y-38345657D01*
X22922744Y-38344501D01*
X23041127Y-38295465D01*
X23049689Y-38289744D01*
X23101731Y-38254970D01*
X23142843Y-38242500D01*
X23178067Y-38242500D01*
X23178069Y-38242500D01*
X23303744Y-38217501D01*
X23422127Y-38168465D01*
X23518551Y-38104037D01*
X23545221Y-38092991D01*
X23557744Y-38090501D01*
X23676127Y-38041465D01*
X23684409Y-38035931D01*
X23772550Y-37977037D01*
X23799221Y-37965991D01*
X23811744Y-37963501D01*
X23930127Y-37914465D01*
X23938691Y-37908743D01*
X23990732Y-37873970D01*
X24031843Y-37861500D01*
X26988067Y-37861500D01*
X26988069Y-37861500D01*
X27113744Y-37836501D01*
X27232127Y-37787465D01*
X27247779Y-37777007D01*
X27338669Y-37716277D01*
X28695772Y-36359174D01*
X28748098Y-36337500D01*
X31560067Y-36337500D01*
X31560069Y-36337500D01*
X31685744Y-36312501D01*
X31804127Y-36263465D01*
X31810706Y-36259069D01*
X31910669Y-36192277D01*
X31997772Y-36105174D01*
X32050098Y-36083500D01*
X32366349Y-36083500D01*
X32418674Y-36105173D01*
X32445965Y-36132464D01*
X32593453Y-36231013D01*
X32593454Y-36231013D01*
X32593455Y-36231014D01*
X32720625Y-36283689D01*
X32757334Y-36298894D01*
X32931309Y-36333500D01*
X32931311Y-36333500D01*
X33108689Y-36333500D01*
X33108691Y-36333500D01*
X33282666Y-36298894D01*
X33446547Y-36231013D01*
X33594035Y-36132464D01*
X33719464Y-36007035D01*
X33818013Y-35859547D01*
X33885894Y-35695666D01*
X33920500Y-35521691D01*
X33920500Y-35344309D01*
X33885894Y-35170334D01*
X33862131Y-35112964D01*
X33818014Y-35006455D01*
X33746859Y-34899965D01*
X33719464Y-34858965D01*
X33615291Y-34754792D01*
X33593618Y-34702468D01*
X33615292Y-34650142D01*
X33634024Y-34636533D01*
X33635916Y-34635568D01*
X33681610Y-34612287D01*
X33847219Y-34491966D01*
X33991966Y-34347219D01*
X34112287Y-34181610D01*
X34204066Y-34001482D01*
X34247132Y-33964701D01*
X34303595Y-33969144D01*
X34335933Y-34001482D01*
X34379987Y-34087944D01*
X34427712Y-34181610D01*
X34489341Y-34266435D01*
X34548034Y-34347219D01*
X34692781Y-34491966D01*
X34767384Y-34546168D01*
X34858389Y-34612287D01*
X34946300Y-34657079D01*
X35040781Y-34705220D01*
X35040783Y-34705220D01*
X35040786Y-34705222D01*
X35235455Y-34768474D01*
X35235461Y-34768475D01*
X35235466Y-34768477D01*
X35336557Y-34784488D01*
X35437646Y-34800500D01*
X35437648Y-34800500D01*
X35642354Y-34800500D01*
X35723224Y-34787690D01*
X35844534Y-34768477D01*
X35844541Y-34768474D01*
X35844544Y-34768474D01*
X36039213Y-34705222D01*
X36039213Y-34705221D01*
X36039219Y-34705220D01*
X36221610Y-34612287D01*
X36387219Y-34491966D01*
X36531966Y-34347219D01*
X36652287Y-34181610D01*
X36652290Y-34181604D01*
X36653811Y-34179124D01*
X36655166Y-34179954D01*
X36694624Y-34146247D01*
X36751087Y-34150683D01*
X36787875Y-34193746D01*
X36791500Y-34216622D01*
X36791500Y-36013738D01*
X36785867Y-36042056D01*
X36726107Y-36186329D01*
X36726104Y-36186339D01*
X36703716Y-36298894D01*
X36691500Y-36360309D01*
X36691500Y-36537691D01*
X36702930Y-36595156D01*
X36726104Y-36711660D01*
X36726107Y-36711670D01*
X36793985Y-36875544D01*
X36870909Y-36990669D01*
X36892536Y-37023035D01*
X37017965Y-37148464D01*
X37165453Y-37247013D01*
X37165454Y-37247013D01*
X37165455Y-37247014D01*
X37305027Y-37304826D01*
X37329334Y-37314894D01*
X37503309Y-37349500D01*
X37503311Y-37349500D01*
X37680689Y-37349500D01*
X37680691Y-37349500D01*
X37854666Y-37314894D01*
X38018547Y-37247013D01*
X38166035Y-37148464D01*
X38291464Y-37023035D01*
X38390013Y-36875547D01*
X38457894Y-36711666D01*
X38492500Y-36537691D01*
X38492500Y-36360309D01*
X38457894Y-36186334D01*
X38449898Y-36167029D01*
X38398133Y-36042056D01*
X38392500Y-36013738D01*
X38392500Y-30915166D01*
X38414174Y-30862840D01*
X38466500Y-30841166D01*
X38507612Y-30853638D01*
X38515086Y-30858632D01*
X38651572Y-30915166D01*
X38672281Y-30923744D01*
X38697165Y-30934051D01*
X38890459Y-30972500D01*
X38890461Y-30972500D01*
X42740500Y-30972500D01*
X42792826Y-30994174D01*
X42814500Y-31046500D01*
X42814500Y-31848540D01*
X42819690Y-31874632D01*
X42852947Y-32041830D01*
X42852949Y-32041836D01*
X42862529Y-32064965D01*
X42863267Y-32066745D01*
X42863267Y-32066746D01*
X42928365Y-32223909D01*
X42928367Y-32223912D01*
X42928368Y-32223914D01*
X42944797Y-32248502D01*
X43037860Y-32387781D01*
X43181433Y-32531354D01*
X43181439Y-32531359D01*
X44386964Y-33736884D01*
X44408638Y-33789210D01*
X44386964Y-33841536D01*
X43115537Y-35112963D01*
X43115535Y-35112964D01*
X43081769Y-35163500D01*
X43016986Y-35260453D01*
X42988550Y-35329106D01*
X42949105Y-35424333D01*
X42949103Y-35424340D01*
X42919037Y-35575499D01*
X42914500Y-35598309D01*
X42914500Y-37442348D01*
X42892826Y-37494674D01*
X40669674Y-39717826D01*
X40617348Y-39739500D01*
X32219692Y-39739500D01*
X32042308Y-39739500D01*
X32007892Y-39746345D01*
X31868340Y-39774103D01*
X31868333Y-39774105D01*
X31704453Y-39841986D01*
X31556964Y-39940535D01*
X31556963Y-39940537D01*
X30542537Y-40954963D01*
X30542535Y-40954964D01*
X30522543Y-40984886D01*
X30443986Y-41102453D01*
X30423631Y-41151597D01*
X30423631Y-41151598D01*
X30376105Y-41266333D01*
X30376103Y-41266340D01*
X30341500Y-41440308D01*
X30341500Y-43903691D01*
X30376103Y-44077659D01*
X30376104Y-44077663D01*
X30376105Y-44077666D01*
X30388384Y-44107309D01*
X30443987Y-44241547D01*
X30503063Y-44329959D01*
X30542536Y-44389036D01*
X30923536Y-44770035D01*
X31048965Y-44895464D01*
X31196453Y-44994013D01*
X31345547Y-45055769D01*
X31360334Y-45061894D01*
X31534308Y-45096500D01*
X31534309Y-45096500D01*
X31534310Y-45096500D01*
X31711689Y-45096500D01*
X31711691Y-45096500D01*
X31885666Y-45061894D01*
X32049547Y-44994013D01*
X32197035Y-44895464D01*
X32210592Y-44881907D01*
X35299500Y-44881907D01*
X35299500Y-45118092D01*
X35336446Y-45351365D01*
X35336449Y-45351378D01*
X35409429Y-45575986D01*
X35516656Y-45786432D01*
X35614976Y-45921758D01*
X35655483Y-45977510D01*
X35822490Y-46144517D01*
X36013567Y-46283343D01*
X36224008Y-46390568D01*
X36224010Y-46390568D01*
X36224013Y-46390570D01*
X36448621Y-46463550D01*
X36448627Y-46463551D01*
X36448632Y-46463553D01*
X36604149Y-46488184D01*
X36681907Y-46500500D01*
X36681908Y-46500500D01*
X36918093Y-46500500D01*
X36976411Y-46491263D01*
X37151368Y-46463553D01*
X37151375Y-46463550D01*
X37151378Y-46463550D01*
X37375986Y-46390570D01*
X37375986Y-46390569D01*
X37375992Y-46390568D01*
X37586433Y-46283343D01*
X37777510Y-46144517D01*
X37944517Y-45977510D01*
X37990134Y-45914723D01*
X38038423Y-45885131D01*
X38093496Y-45898353D01*
X38109864Y-45914721D01*
X38155483Y-45977510D01*
X38322490Y-46144517D01*
X38513567Y-46283343D01*
X38724008Y-46390568D01*
X38724010Y-46390568D01*
X38724013Y-46390570D01*
X38948621Y-46463550D01*
X38948627Y-46463551D01*
X38948632Y-46463553D01*
X39104149Y-46488184D01*
X39181907Y-46500500D01*
X39181908Y-46500500D01*
X39418093Y-46500500D01*
X39476411Y-46491263D01*
X39651368Y-46463553D01*
X39651375Y-46463550D01*
X39651378Y-46463550D01*
X39875986Y-46390570D01*
X39875986Y-46390569D01*
X39875992Y-46390568D01*
X40081528Y-46285842D01*
X45779500Y-46285842D01*
X45779500Y-46514157D01*
X45815215Y-46739657D01*
X45815218Y-46739670D01*
X45885766Y-46956793D01*
X45989420Y-47160227D01*
X46111692Y-47328519D01*
X46123621Y-47344937D01*
X46285063Y-47506379D01*
X46285066Y-47506381D01*
X46285067Y-47506382D01*
X46314274Y-47527602D01*
X46469772Y-47640579D01*
X46673201Y-47744231D01*
X46673203Y-47744231D01*
X46673206Y-47744233D01*
X46890329Y-47814781D01*
X46890335Y-47814782D01*
X46890340Y-47814784D01*
X47040675Y-47838594D01*
X47115842Y-47850500D01*
X47115843Y-47850500D01*
X47944158Y-47850500D01*
X48000532Y-47841571D01*
X48169660Y-47814784D01*
X48169667Y-47814781D01*
X48169670Y-47814781D01*
X48386793Y-47744233D01*
X48386793Y-47744232D01*
X48386799Y-47744231D01*
X48590228Y-47640579D01*
X48774937Y-47506379D01*
X48936379Y-47344937D01*
X48948308Y-47328517D01*
X48996595Y-47298924D01*
X49051668Y-47312143D01*
X49060500Y-47319685D01*
X49132781Y-47391966D01*
X49224695Y-47458745D01*
X49298389Y-47512287D01*
X49328447Y-47527602D01*
X49480781Y-47605220D01*
X49480783Y-47605220D01*
X49480786Y-47605222D01*
X49675455Y-47668474D01*
X49675461Y-47668475D01*
X49675466Y-47668477D01*
X49776557Y-47684488D01*
X49877646Y-47700500D01*
X49877648Y-47700500D01*
X50082354Y-47700500D01*
X50163224Y-47687690D01*
X50284534Y-47668477D01*
X50284541Y-47668474D01*
X50284544Y-47668474D01*
X50479213Y-47605222D01*
X50479213Y-47605221D01*
X50479219Y-47605220D01*
X50661610Y-47512287D01*
X50827219Y-47391966D01*
X50899498Y-47319685D01*
X50951822Y-47298012D01*
X51004148Y-47319685D01*
X51011689Y-47328515D01*
X51023615Y-47344929D01*
X51023621Y-47344937D01*
X51185063Y-47506379D01*
X51185066Y-47506381D01*
X51185067Y-47506382D01*
X51214274Y-47527602D01*
X51369772Y-47640579D01*
X51573201Y-47744231D01*
X51573203Y-47744231D01*
X51573206Y-47744233D01*
X51790329Y-47814781D01*
X51790335Y-47814782D01*
X51790340Y-47814784D01*
X51940675Y-47838594D01*
X52015842Y-47850500D01*
X52015843Y-47850500D01*
X52844158Y-47850500D01*
X52900532Y-47841571D01*
X53069660Y-47814784D01*
X53069667Y-47814781D01*
X53069670Y-47814781D01*
X53286793Y-47744233D01*
X53286793Y-47744232D01*
X53286799Y-47744231D01*
X53490228Y-47640579D01*
X53674937Y-47506379D01*
X53836379Y-47344937D01*
X53970579Y-47160228D01*
X54074231Y-46956799D01*
X54099257Y-46879778D01*
X54144781Y-46739670D01*
X54144781Y-46739667D01*
X54144784Y-46739660D01*
X54180500Y-46514157D01*
X54180500Y-46285843D01*
X54144784Y-46060340D01*
X54144782Y-46060335D01*
X54144781Y-46060329D01*
X54074233Y-45843206D01*
X54074231Y-45843203D01*
X54074231Y-45843201D01*
X53970579Y-45639772D01*
X53836379Y-45455063D01*
X53674937Y-45293621D01*
X53674934Y-45293618D01*
X53674932Y-45293617D01*
X53490227Y-45159420D01*
X53286793Y-45055766D01*
X53069670Y-44985218D01*
X53069657Y-44985215D01*
X52844158Y-44949500D01*
X52844157Y-44949500D01*
X52015843Y-44949500D01*
X52015842Y-44949500D01*
X51790342Y-44985215D01*
X51790329Y-44985218D01*
X51573206Y-45055766D01*
X51369772Y-45159420D01*
X51185067Y-45293617D01*
X51185058Y-45293626D01*
X51023619Y-45455064D01*
X51011688Y-45471485D01*
X50963396Y-45501075D01*
X50908324Y-45487851D01*
X50899497Y-45480312D01*
X50827224Y-45408039D01*
X50827219Y-45408034D01*
X50749220Y-45351365D01*
X50661610Y-45287712D01*
X50479213Y-45194777D01*
X50284544Y-45131525D01*
X50284531Y-45131522D01*
X50082354Y-45099500D01*
X50082352Y-45099500D01*
X49877648Y-45099500D01*
X49877646Y-45099500D01*
X49675468Y-45131522D01*
X49675455Y-45131525D01*
X49480786Y-45194777D01*
X49298389Y-45287712D01*
X49132785Y-45408031D01*
X49132775Y-45408039D01*
X49060500Y-45480313D01*
X49008174Y-45501986D01*
X48955848Y-45480311D01*
X48948308Y-45471482D01*
X48936382Y-45455067D01*
X48936381Y-45455066D01*
X48936379Y-45455063D01*
X48774937Y-45293621D01*
X48774934Y-45293618D01*
X48774932Y-45293617D01*
X48590227Y-45159420D01*
X48386793Y-45055766D01*
X48169670Y-44985218D01*
X48169657Y-44985215D01*
X47944158Y-44949500D01*
X47944157Y-44949500D01*
X47115843Y-44949500D01*
X47115842Y-44949500D01*
X46890342Y-44985215D01*
X46890329Y-44985218D01*
X46673206Y-45055766D01*
X46469772Y-45159420D01*
X46285067Y-45293617D01*
X46123617Y-45455067D01*
X45989420Y-45639772D01*
X45885766Y-45843206D01*
X45815218Y-46060329D01*
X45815215Y-46060342D01*
X45779500Y-46285842D01*
X40081528Y-46285842D01*
X40086433Y-46283343D01*
X40277510Y-46144517D01*
X40444517Y-45977510D01*
X40583343Y-45786433D01*
X40690568Y-45575992D01*
X40721656Y-45480313D01*
X40763550Y-45351378D01*
X40763550Y-45351375D01*
X40763553Y-45351368D01*
X40800500Y-45118092D01*
X40800500Y-44881908D01*
X40763553Y-44648632D01*
X40763551Y-44648627D01*
X40763550Y-44648621D01*
X40690570Y-44424013D01*
X40690568Y-44424010D01*
X40690568Y-44424008D01*
X40583343Y-44213567D01*
X40444517Y-44022490D01*
X40277510Y-43855483D01*
X40277507Y-43855480D01*
X40277505Y-43855479D01*
X40086432Y-43716656D01*
X39875986Y-43609429D01*
X39651378Y-43536449D01*
X39651365Y-43536446D01*
X39418093Y-43499500D01*
X39418092Y-43499500D01*
X39181908Y-43499500D01*
X39181907Y-43499500D01*
X38948634Y-43536446D01*
X38948621Y-43536449D01*
X38724013Y-43609429D01*
X38513567Y-43716656D01*
X38322494Y-43855479D01*
X38155488Y-44022485D01*
X38155484Y-44022488D01*
X38109867Y-44085275D01*
X38061575Y-44114867D01*
X38006503Y-44101645D01*
X37990133Y-44085275D01*
X37984600Y-44077659D01*
X37944517Y-44022490D01*
X37777510Y-43855483D01*
X37777507Y-43855480D01*
X37777505Y-43855479D01*
X37586432Y-43716656D01*
X37375986Y-43609429D01*
X37151378Y-43536449D01*
X37151365Y-43536446D01*
X36918093Y-43499500D01*
X36918092Y-43499500D01*
X36681908Y-43499500D01*
X36681907Y-43499500D01*
X36448634Y-43536446D01*
X36448621Y-43536449D01*
X36224013Y-43609429D01*
X36013567Y-43716656D01*
X35822494Y-43855479D01*
X35655479Y-44022494D01*
X35516656Y-44213567D01*
X35409429Y-44424013D01*
X35336449Y-44648621D01*
X35336446Y-44648634D01*
X35299500Y-44881907D01*
X32210592Y-44881907D01*
X32322464Y-44770035D01*
X32421013Y-44622547D01*
X32488894Y-44458666D01*
X32523500Y-44284691D01*
X32523500Y-44107309D01*
X32488894Y-43933334D01*
X32460589Y-43864998D01*
X32421014Y-43769455D01*
X32386440Y-43717712D01*
X32366327Y-43687611D01*
X32355279Y-43632064D01*
X32386745Y-43584971D01*
X32427857Y-43572500D01*
X32600689Y-43572500D01*
X32600691Y-43572500D01*
X32774666Y-43537894D01*
X32938547Y-43470013D01*
X33086035Y-43371464D01*
X33113326Y-43344173D01*
X33165651Y-43322500D01*
X55944067Y-43322500D01*
X55944069Y-43322500D01*
X56069744Y-43297501D01*
X56188127Y-43248465D01*
X56236544Y-43216114D01*
X56294669Y-43177277D01*
X56453176Y-43018769D01*
X56505500Y-42997096D01*
X56557826Y-43018770D01*
X56579500Y-43071095D01*
X56579500Y-43175000D01*
X56579500Y-43175005D01*
X56579501Y-43175008D01*
X56590001Y-43277797D01*
X56645186Y-43444334D01*
X56737288Y-43593656D01*
X56861344Y-43717712D01*
X57010666Y-43809814D01*
X57177203Y-43864999D01*
X57279991Y-43875500D01*
X58080008Y-43875499D01*
X58182797Y-43864999D01*
X58349334Y-43809814D01*
X58498656Y-43717712D01*
X58622712Y-43593656D01*
X58698729Y-43470411D01*
X58744644Y-43437256D01*
X58800558Y-43446278D01*
X58821576Y-43465763D01*
X58840586Y-43491928D01*
X58963072Y-43614414D01*
X58963075Y-43614416D01*
X58963076Y-43614417D01*
X59103212Y-43716232D01*
X59257553Y-43794872D01*
X59257557Y-43794874D01*
X59422288Y-43848399D01*
X59422294Y-43848400D01*
X59422299Y-43848402D01*
X59527082Y-43864998D01*
X59593388Y-43875500D01*
X59593389Y-43875500D01*
X59766612Y-43875500D01*
X59809383Y-43868725D01*
X59937701Y-43848402D01*
X59937708Y-43848399D01*
X59937711Y-43848399D01*
X60102442Y-43794874D01*
X60102442Y-43794873D01*
X60102445Y-43794873D01*
X60256788Y-43716232D01*
X60396928Y-43614414D01*
X60519414Y-43491928D01*
X60621232Y-43351788D01*
X60699873Y-43197445D01*
X60753402Y-43032701D01*
X60780500Y-42861611D01*
X60780500Y-42138389D01*
X60753402Y-41967299D01*
X60753400Y-41967294D01*
X60753399Y-41967288D01*
X60699874Y-41802557D01*
X60699872Y-41802553D01*
X60621232Y-41648212D01*
X60519417Y-41508076D01*
X60519416Y-41508075D01*
X60519414Y-41508072D01*
X60396928Y-41385586D01*
X60396925Y-41385583D01*
X60396923Y-41385582D01*
X60256787Y-41283767D01*
X60102446Y-41205127D01*
X60102442Y-41205125D01*
X59937711Y-41151600D01*
X59937698Y-41151597D01*
X59766612Y-41124500D01*
X59766611Y-41124500D01*
X59593389Y-41124500D01*
X59593388Y-41124500D01*
X59422301Y-41151597D01*
X59422288Y-41151600D01*
X59257557Y-41205125D01*
X59257553Y-41205127D01*
X59103212Y-41283767D01*
X58963076Y-41385582D01*
X58963067Y-41385591D01*
X58840586Y-41508071D01*
X58821577Y-41534235D01*
X58773285Y-41563827D01*
X58718213Y-41550605D01*
X58698729Y-41529588D01*
X58622712Y-41406344D01*
X58498656Y-41282288D01*
X58349334Y-41190186D01*
X58266065Y-41162593D01*
X58182798Y-41135001D01*
X58165665Y-41133250D01*
X58080009Y-41124500D01*
X58080004Y-41124500D01*
X57279999Y-41124500D01*
X57279993Y-41124500D01*
X57279992Y-41124501D01*
X57228597Y-41129751D01*
X57177202Y-41135001D01*
X57010666Y-41190186D01*
X56861344Y-41282288D01*
X56783826Y-41359806D01*
X56731500Y-41381480D01*
X56679174Y-41359806D01*
X56657500Y-41307480D01*
X56657500Y-40559098D01*
X56679174Y-40506772D01*
X57002348Y-40183598D01*
X65769500Y-40183598D01*
X65769500Y-40435525D01*
X65808909Y-40684344D01*
X65808912Y-40684357D01*
X65886756Y-40923935D01*
X66001129Y-41148407D01*
X66149203Y-41352213D01*
X66149207Y-41352218D01*
X66327344Y-41530355D01*
X66327347Y-41530357D01*
X66327348Y-41530358D01*
X66531154Y-41678432D01*
X66606174Y-41716656D01*
X66755621Y-41792803D01*
X66755623Y-41792803D01*
X66755626Y-41792805D01*
X66995204Y-41870649D01*
X66995210Y-41870650D01*
X66995215Y-41870652D01*
X67119626Y-41890357D01*
X67244036Y-41910062D01*
X67244038Y-41910062D01*
X67495964Y-41910062D01*
X67610202Y-41891968D01*
X67744785Y-41870652D01*
X67744792Y-41870649D01*
X67744795Y-41870649D01*
X67984373Y-41792805D01*
X67984373Y-41792804D01*
X67984379Y-41792803D01*
X68208845Y-41678432D01*
X68412656Y-41530355D01*
X68590793Y-41352218D01*
X68738870Y-41148407D01*
X68853241Y-40923941D01*
X68884936Y-40826394D01*
X68931087Y-40684357D01*
X68931087Y-40684354D01*
X68931090Y-40684347D01*
X68969799Y-40439949D01*
X68970500Y-40435525D01*
X68970500Y-40183598D01*
X68932757Y-39945302D01*
X68931090Y-39934777D01*
X68931088Y-39934772D01*
X68931087Y-39934766D01*
X68853243Y-39695188D01*
X68853241Y-39695185D01*
X68853241Y-39695183D01*
X68771540Y-39534835D01*
X68738870Y-39470716D01*
X68590796Y-39266910D01*
X68590795Y-39266909D01*
X68590793Y-39266906D01*
X68412656Y-39088769D01*
X68412653Y-39088766D01*
X68412651Y-39088765D01*
X68208845Y-38940691D01*
X67984373Y-38826318D01*
X67744795Y-38748474D01*
X67744782Y-38748471D01*
X67495964Y-38709062D01*
X67495962Y-38709062D01*
X67244038Y-38709062D01*
X67244036Y-38709062D01*
X66995217Y-38748471D01*
X66995204Y-38748474D01*
X66755626Y-38826318D01*
X66531154Y-38940691D01*
X66327348Y-39088765D01*
X66149203Y-39266910D01*
X66001129Y-39470716D01*
X65886756Y-39695188D01*
X65808912Y-39934766D01*
X65808909Y-39934779D01*
X65769500Y-40183598D01*
X57002348Y-40183598D01*
X57909275Y-39276671D01*
X57909276Y-39276670D01*
X57980465Y-39170127D01*
X58029501Y-39051744D01*
X58054500Y-38926069D01*
X58054500Y-31161098D01*
X58076174Y-31108772D01*
X59306275Y-29878671D01*
X59306276Y-29878670D01*
X59377465Y-29772127D01*
X59426501Y-29653744D01*
X59430435Y-29633965D01*
X59451500Y-29528069D01*
X59451500Y-26351931D01*
X59438194Y-26285038D01*
X59426502Y-26226260D01*
X59426501Y-26226257D01*
X59411406Y-26189815D01*
X59377465Y-26107873D01*
X59306276Y-26001331D01*
X59287244Y-25982299D01*
X65769500Y-25982299D01*
X65769500Y-26234226D01*
X65808909Y-26483045D01*
X65808912Y-26483058D01*
X65886756Y-26722636D01*
X66001129Y-26947108D01*
X66148948Y-27150563D01*
X66149207Y-27150919D01*
X66327344Y-27329056D01*
X66327347Y-27329058D01*
X66327348Y-27329059D01*
X66531154Y-27477133D01*
X66602437Y-27513453D01*
X66755621Y-27591504D01*
X66755623Y-27591504D01*
X66755626Y-27591506D01*
X66995204Y-27669350D01*
X66995210Y-27669351D01*
X66995215Y-27669353D01*
X67119626Y-27689058D01*
X67244036Y-27708763D01*
X67244038Y-27708763D01*
X67495964Y-27708763D01*
X67595491Y-27692999D01*
X67744785Y-27669353D01*
X67744792Y-27669350D01*
X67744795Y-27669350D01*
X67984373Y-27591506D01*
X67984373Y-27591505D01*
X67984379Y-27591504D01*
X68208845Y-27477133D01*
X68412656Y-27329056D01*
X68590793Y-27150919D01*
X68738870Y-26947108D01*
X68853241Y-26722642D01*
X68877853Y-26646894D01*
X68931087Y-26483058D01*
X68931087Y-26483055D01*
X68931090Y-26483048D01*
X68970500Y-26234225D01*
X68970500Y-25982301D01*
X68965945Y-25953544D01*
X68939988Y-25789660D01*
X68931090Y-25733478D01*
X68931088Y-25733473D01*
X68931087Y-25733467D01*
X68853243Y-25493889D01*
X68853241Y-25493886D01*
X68853241Y-25493884D01*
X68786464Y-25362826D01*
X68738870Y-25269417D01*
X68590796Y-25065611D01*
X68590795Y-25065610D01*
X68590793Y-25065607D01*
X68412656Y-24887470D01*
X68412653Y-24887467D01*
X68412651Y-24887466D01*
X68208845Y-24739392D01*
X67984373Y-24625019D01*
X67744795Y-24547175D01*
X67744782Y-24547172D01*
X67495964Y-24507763D01*
X67495962Y-24507763D01*
X67244038Y-24507763D01*
X67244036Y-24507763D01*
X66995217Y-24547172D01*
X66995204Y-24547175D01*
X66755626Y-24625019D01*
X66531154Y-24739392D01*
X66327348Y-24887466D01*
X66149203Y-25065611D01*
X66001129Y-25269417D01*
X65886756Y-25493889D01*
X65808912Y-25733467D01*
X65808909Y-25733480D01*
X65769500Y-25982299D01*
X59287244Y-25982299D01*
X59249297Y-25944352D01*
X59249288Y-25944342D01*
X59088668Y-25783722D01*
X58982127Y-25712535D01*
X58863742Y-25663498D01*
X58863739Y-25663497D01*
X58768237Y-25644501D01*
X58738069Y-25638500D01*
X58738067Y-25638500D01*
X58466098Y-25638500D01*
X58413772Y-25616826D01*
X58326174Y-25529228D01*
X58304500Y-25476902D01*
X58304500Y-25438310D01*
X58296411Y-25397646D01*
X58269894Y-25264334D01*
X58249481Y-25215052D01*
X58202014Y-25100455D01*
X58196282Y-25091877D01*
X58150001Y-25022612D01*
X58138952Y-24967063D01*
X58170418Y-24919971D01*
X58211530Y-24907500D01*
X60179349Y-24907500D01*
X60231674Y-24929173D01*
X60258965Y-24956464D01*
X60406453Y-25055013D01*
X60406454Y-25055013D01*
X60406455Y-25055014D01*
X60516156Y-25100453D01*
X60570334Y-25122894D01*
X60744309Y-25157500D01*
X60744311Y-25157500D01*
X60921689Y-25157500D01*
X60921691Y-25157500D01*
X61095666Y-25122894D01*
X61259547Y-25055013D01*
X61407035Y-24956464D01*
X61532464Y-24831035D01*
X61631013Y-24683547D01*
X61698894Y-24519666D01*
X61733500Y-24345691D01*
X61733500Y-24320005D01*
X61755174Y-24267679D01*
X61784220Y-24249762D01*
X61829334Y-24234814D01*
X61978656Y-24142712D01*
X62102712Y-24018656D01*
X62194814Y-23869334D01*
X62249999Y-23702797D01*
X62260500Y-23600009D01*
X62260499Y-22400818D01*
X62282173Y-22348493D01*
X62334499Y-22326819D01*
X62375609Y-22339289D01*
X62391086Y-22349631D01*
X62573164Y-22425051D01*
X62766460Y-22463500D01*
X62766462Y-22463500D01*
X62963538Y-22463500D01*
X62963540Y-22463500D01*
X63156836Y-22425051D01*
X63338914Y-22349631D01*
X63502781Y-22240139D01*
X63642139Y-22100781D01*
X63751631Y-21936914D01*
X63827051Y-21754836D01*
X63865500Y-21561540D01*
X63865500Y-21364460D01*
X63827051Y-21171164D01*
X63751631Y-20989086D01*
X63642139Y-20825219D01*
X63390727Y-20573807D01*
X63390723Y-20573802D01*
X63248781Y-20431860D01*
X63184622Y-20388991D01*
X63084914Y-20322368D01*
X63084910Y-20322366D01*
X63084908Y-20322365D01*
X63084909Y-20322365D01*
X62945770Y-20264733D01*
X62945769Y-20264732D01*
X62902838Y-20246949D01*
X62902831Y-20246947D01*
X62806188Y-20227724D01*
X62806188Y-20227723D01*
X62725574Y-20211689D01*
X62709541Y-20208500D01*
X57813459Y-20208500D01*
X57799706Y-20211235D01*
X57716811Y-20227723D01*
X57716812Y-20227724D01*
X57620168Y-20246947D01*
X57620161Y-20246949D01*
X57577229Y-20264733D01*
X57438084Y-20322368D01*
X57438083Y-20322368D01*
X57358341Y-20375649D01*
X57345555Y-20382485D01*
X57342018Y-20383950D01*
X57329845Y-20388993D01*
X57184086Y-20449367D01*
X57104344Y-20502649D01*
X57091553Y-20509486D01*
X57077120Y-20515465D01*
X57077117Y-20515466D01*
X56930084Y-20576368D01*
X56930083Y-20576368D01*
X56850341Y-20629649D01*
X56837555Y-20636485D01*
X56834018Y-20637950D01*
X56821845Y-20642993D01*
X56676086Y-20703367D01*
X56676079Y-20703371D01*
X56662722Y-20712296D01*
X56636051Y-20723343D01*
X56577022Y-20735086D01*
X56577021Y-20735086D01*
X56477169Y-20754947D01*
X56477159Y-20754950D01*
X56431477Y-20773873D01*
X56295084Y-20830368D01*
X56215343Y-20883648D01*
X56202552Y-20890486D01*
X56195695Y-20893326D01*
X56169834Y-20904038D01*
X56120043Y-20924662D01*
X56041082Y-20957369D01*
X55961343Y-21010648D01*
X55948552Y-21017486D01*
X55941695Y-21020326D01*
X55915834Y-21031038D01*
X55866043Y-21051662D01*
X55787082Y-21084369D01*
X55707341Y-21137649D01*
X55694555Y-21144485D01*
X55691018Y-21145950D01*
X55678845Y-21150993D01*
X55533086Y-21211367D01*
X55453345Y-21264648D01*
X55440560Y-21271482D01*
X55435784Y-21273461D01*
X55435776Y-21273465D01*
X55279083Y-21338369D01*
X55279079Y-21338371D01*
X55265722Y-21347296D01*
X55239051Y-21358343D01*
X55180022Y-21370086D01*
X55180021Y-21370086D01*
X55080164Y-21389948D01*
X55080158Y-21389950D01*
X55026834Y-21412037D01*
X55026834Y-21412038D01*
X54977043Y-21432662D01*
X54898082Y-21465369D01*
X54818341Y-21518649D01*
X54805555Y-21525485D01*
X54802018Y-21526950D01*
X54789845Y-21531993D01*
X54644086Y-21592367D01*
X54564344Y-21645649D01*
X54551553Y-21652486D01*
X54537120Y-21658465D01*
X54537117Y-21658466D01*
X54397669Y-21716227D01*
X54357775Y-21720949D01*
X54222354Y-21699500D01*
X54222352Y-21699500D01*
X54017648Y-21699500D01*
X54017646Y-21699500D01*
X53815468Y-21731522D01*
X53815455Y-21731525D01*
X53620786Y-21794777D01*
X53438389Y-21887712D01*
X53272785Y-22008031D01*
X53272781Y-22008034D01*
X53128034Y-22152781D01*
X53128031Y-22152784D01*
X53128031Y-22152785D01*
X53007712Y-22318389D01*
X52914777Y-22500786D01*
X52851525Y-22695455D01*
X52851523Y-22695466D01*
X52819500Y-22897646D01*
X52819500Y-23102353D01*
X52851522Y-23304531D01*
X52851525Y-23304544D01*
X52914777Y-23499213D01*
X53007712Y-23681610D01*
X53058637Y-23751702D01*
X53128034Y-23847219D01*
X53272781Y-23991966D01*
X53394936Y-24080716D01*
X53424529Y-24129007D01*
X53411307Y-24184079D01*
X53392552Y-24202112D01*
X53316457Y-24252957D01*
X53289790Y-24264004D01*
X53277263Y-24266497D01*
X53277255Y-24266499D01*
X53158876Y-24315533D01*
X53158873Y-24315534D01*
X53158873Y-24315535D01*
X53098268Y-24356029D01*
X53057158Y-24368500D01*
X53021931Y-24368500D01*
X52990726Y-24374707D01*
X52896260Y-24393497D01*
X52896257Y-24393498D01*
X52777876Y-24442533D01*
X52681458Y-24506957D01*
X52654790Y-24518005D01*
X52646449Y-24519665D01*
X52646444Y-24519666D01*
X52642258Y-24520498D01*
X52642255Y-24520499D01*
X52523876Y-24569533D01*
X52427458Y-24633957D01*
X52400790Y-24645005D01*
X52394695Y-24646218D01*
X52394691Y-24646218D01*
X52388266Y-24647496D01*
X52388255Y-24647499D01*
X52269874Y-24696534D01*
X52269872Y-24696535D01*
X52173456Y-24760957D01*
X52146790Y-24772004D01*
X52134263Y-24774497D01*
X52134255Y-24774499D01*
X52015874Y-24823534D01*
X52015872Y-24823535D01*
X51919456Y-24887957D01*
X51892790Y-24899004D01*
X51880263Y-24901497D01*
X51880255Y-24901499D01*
X51761874Y-24950534D01*
X51761872Y-24950535D01*
X51665456Y-25014957D01*
X51638790Y-25026004D01*
X51626263Y-25028497D01*
X51626255Y-25028499D01*
X51507876Y-25077533D01*
X51507873Y-25077534D01*
X51507873Y-25077535D01*
X51447268Y-25118029D01*
X51406158Y-25130500D01*
X51370931Y-25130500D01*
X51340763Y-25136501D01*
X51245260Y-25155497D01*
X51245257Y-25155498D01*
X51126874Y-25204534D01*
X51126872Y-25204535D01*
X51030456Y-25268957D01*
X51003790Y-25280004D01*
X50991263Y-25282497D01*
X50991255Y-25282499D01*
X50872874Y-25331534D01*
X50872872Y-25331535D01*
X50776456Y-25395957D01*
X50749790Y-25407004D01*
X50737263Y-25409497D01*
X50737255Y-25409499D01*
X50618874Y-25458534D01*
X50618872Y-25458535D01*
X50522456Y-25522957D01*
X50495790Y-25534004D01*
X50483263Y-25536497D01*
X50483255Y-25536499D01*
X50364874Y-25585534D01*
X50364872Y-25585535D01*
X50268456Y-25649957D01*
X50241790Y-25661004D01*
X50229263Y-25663497D01*
X50229255Y-25663499D01*
X50110876Y-25712533D01*
X50110873Y-25712534D01*
X50110873Y-25712535D01*
X50050268Y-25753029D01*
X50009158Y-25765500D01*
X49973931Y-25765500D01*
X49852444Y-25789666D01*
X49852442Y-25789666D01*
X49848264Y-25790496D01*
X49848255Y-25790499D01*
X49729874Y-25839534D01*
X49729872Y-25839535D01*
X49633456Y-25903957D01*
X49606790Y-25915004D01*
X49594263Y-25917497D01*
X49594255Y-25917499D01*
X49475876Y-25966533D01*
X49379458Y-26030957D01*
X49352790Y-26042005D01*
X49344449Y-26043665D01*
X49344444Y-26043666D01*
X49340258Y-26044498D01*
X49340255Y-26044499D01*
X49221874Y-26093534D01*
X49221872Y-26093535D01*
X49125456Y-26157957D01*
X49098790Y-26169004D01*
X49086263Y-26171497D01*
X49086252Y-26171500D01*
X49066764Y-26179572D01*
X49024011Y-26183782D01*
X48928199Y-26164724D01*
X48856691Y-26150500D01*
X48856689Y-26150500D01*
X48853500Y-26150500D01*
X48801174Y-26128826D01*
X48779500Y-26076500D01*
X48779500Y-25946310D01*
X48771075Y-25903957D01*
X48744894Y-25772334D01*
X48728800Y-25733480D01*
X48677014Y-25608455D01*
X48668334Y-25595465D01*
X48578464Y-25460965D01*
X48453035Y-25335536D01*
X48447047Y-25331535D01*
X48305547Y-25236987D01*
X48280782Y-25226729D01*
X48240735Y-25186680D01*
X48230305Y-25161500D01*
X48212299Y-25118029D01*
X48201467Y-25091877D01*
X48201466Y-25091875D01*
X48201465Y-25091873D01*
X48137040Y-24995454D01*
X48125992Y-24968783D01*
X48123501Y-24956256D01*
X48074465Y-24837873D01*
X48010040Y-24741454D01*
X47998992Y-24714783D01*
X47996501Y-24702256D01*
X47947465Y-24583873D01*
X47883040Y-24487454D01*
X47871992Y-24460783D01*
X47869501Y-24448256D01*
X47820465Y-24329873D01*
X47797015Y-24294777D01*
X47779971Y-24269268D01*
X47767500Y-24228157D01*
X47767500Y-24192932D01*
X47766625Y-24188535D01*
X47754784Y-24129007D01*
X47742502Y-24067260D01*
X47742500Y-24067253D01*
X47704848Y-23976352D01*
X47704848Y-23919715D01*
X47710233Y-23909185D01*
X47734814Y-23869334D01*
X47789999Y-23702797D01*
X47800500Y-23600009D01*
X47800499Y-22399992D01*
X47789999Y-22297203D01*
X47734814Y-22130666D01*
X47642712Y-21981344D01*
X47518656Y-21857288D01*
X47369334Y-21765186D01*
X47250071Y-21725666D01*
X47202798Y-21710001D01*
X47185665Y-21708250D01*
X47100009Y-21699500D01*
X47100004Y-21699500D01*
X45899999Y-21699500D01*
X45899993Y-21699500D01*
X45899992Y-21699501D01*
X45848597Y-21704751D01*
X45797202Y-21710001D01*
X45630666Y-21765186D01*
X45481344Y-21857288D01*
X45481340Y-21857291D01*
X45361433Y-21977198D01*
X45309107Y-21998872D01*
X45256781Y-21977198D01*
X45240740Y-21953190D01*
X45240062Y-21951554D01*
X45213619Y-21887713D01*
X45209633Y-21878090D01*
X45209632Y-21878088D01*
X45209631Y-21878086D01*
X45100139Y-21714219D01*
X45097832Y-21711408D01*
X45099574Y-21709978D01*
X45080499Y-21663927D01*
X45080499Y-19832126D01*
X45078955Y-19817766D01*
X45074091Y-19772517D01*
X45064747Y-19747464D01*
X45023797Y-19637670D01*
X45023796Y-19637669D01*
X44937546Y-19522454D01*
X44822331Y-19436204D01*
X44822330Y-19436203D01*
X44822329Y-19436202D01*
X44687487Y-19385910D01*
X44687484Y-19385909D01*
X44687483Y-19385909D01*
X44627873Y-19379500D01*
X41732126Y-19379500D01*
X41672514Y-19385909D01*
X41537670Y-19436202D01*
X41537669Y-19436203D01*
X41422454Y-19522454D01*
X41336203Y-19637669D01*
X41336202Y-19637670D01*
X41285910Y-19772512D01*
X41285909Y-19772517D01*
X41279500Y-19832126D01*
X41279500Y-22727873D01*
X41285909Y-22787485D01*
X41336202Y-22922329D01*
X41336203Y-22922330D01*
X41396219Y-23002500D01*
X41422454Y-23037546D01*
X41450246Y-23058351D01*
X41537669Y-23123796D01*
X41537670Y-23123797D01*
X41612848Y-23151836D01*
X41672517Y-23174091D01*
X41732127Y-23180500D01*
X41921984Y-23180499D01*
X41974309Y-23202173D01*
X41995983Y-23254499D01*
X41983512Y-23295611D01*
X41912366Y-23402089D01*
X41867740Y-23509828D01*
X41836950Y-23584159D01*
X41836948Y-23584167D01*
X41830632Y-23615919D01*
X41799165Y-23663010D01*
X41743616Y-23674059D01*
X41705728Y-23653807D01*
X37738359Y-19686439D01*
X37738357Y-19686436D01*
X37594781Y-19542860D01*
X37554228Y-19515763D01*
X37430914Y-19433368D01*
X37430910Y-19433366D01*
X37430908Y-19433365D01*
X37430909Y-19433365D01*
X37259908Y-19362535D01*
X37259907Y-19362534D01*
X37248841Y-19357950D01*
X37248831Y-19357947D01*
X37152188Y-19338724D01*
X37152188Y-19338723D01*
X37071574Y-19322689D01*
X37055541Y-19319500D01*
X35969459Y-19319500D01*
X35914662Y-19330399D01*
X35776170Y-19357947D01*
X35776160Y-19357950D01*
X35594086Y-19433367D01*
X35436727Y-19538511D01*
X35381178Y-19549560D01*
X35334086Y-19518094D01*
X35323037Y-19462545D01*
X35343287Y-19424658D01*
X37331772Y-17436174D01*
X37384098Y-17414500D01*
X47713201Y-17414500D01*
X47765527Y-17436174D01*
X47787201Y-17488500D01*
X47774730Y-17529612D01*
X47754367Y-17560086D01*
X47678950Y-17742160D01*
X47678947Y-17742170D01*
X47640500Y-17935460D01*
X47640500Y-18132539D01*
X47678947Y-18325829D01*
X47678950Y-18325839D01*
X47754367Y-18507913D01*
X47831569Y-18623453D01*
X47863861Y-18671782D01*
X48003218Y-18811139D01*
X48167086Y-18920632D01*
X48349165Y-18996051D01*
X48542459Y-19034500D01*
X48703928Y-19034500D01*
X48756253Y-19056173D01*
X51051218Y-21351139D01*
X51215085Y-21460631D01*
X51397164Y-21536051D01*
X51590459Y-21574500D01*
X51590461Y-21574500D01*
X51787538Y-21574500D01*
X51787540Y-21574500D01*
X51980835Y-21536051D01*
X52162914Y-21460631D01*
X52326781Y-21351139D01*
X52466139Y-21211781D01*
X52575631Y-21047914D01*
X52651051Y-20865835D01*
X52689500Y-20672540D01*
X52689500Y-20475459D01*
X52651051Y-20282164D01*
X52575631Y-20100085D01*
X52466139Y-19936218D01*
X50070745Y-17540825D01*
X50049072Y-17488500D01*
X50070746Y-17436174D01*
X50123072Y-17414500D01*
X62294067Y-17414500D01*
X62294069Y-17414500D01*
X62419744Y-17389501D01*
X62538127Y-17340465D01*
X62644669Y-17269277D01*
X62862772Y-17051174D01*
X62915098Y-17029500D01*
X62953689Y-17029500D01*
X62953691Y-17029500D01*
X63127666Y-16994894D01*
X63291547Y-16927013D01*
X63439035Y-16828464D01*
X63564464Y-16703035D01*
X63663013Y-16555547D01*
X63730894Y-16391666D01*
X63765500Y-16217691D01*
X63765500Y-16074000D01*
X63787174Y-16021674D01*
X63839500Y-16000000D01*
X69425500Y-16000000D01*
X69477826Y-16021674D01*
G37*
G04 #@! TD.AperFunction*
G04 #@! TA.AperFunction,Conductor*
G36*
X44930847Y-31208031D02*
G01*
X44931095Y-31207628D01*
X44932775Y-31208658D01*
X44932999Y-31208730D01*
X44933567Y-31209143D01*
X45144008Y-31316368D01*
X45144010Y-31316368D01*
X45144013Y-31316370D01*
X45368621Y-31389350D01*
X45368627Y-31389351D01*
X45368632Y-31389353D01*
X45524149Y-31413984D01*
X45601907Y-31426300D01*
X45601908Y-31426300D01*
X45838093Y-31426300D01*
X45896411Y-31417063D01*
X46071368Y-31389353D01*
X46188431Y-31351316D01*
X46244891Y-31355759D01*
X46252401Y-31360160D01*
X46262086Y-31366632D01*
X46359148Y-31406836D01*
X46423565Y-31433518D01*
X46436341Y-31440347D01*
X46516086Y-31493632D01*
X46644834Y-31546961D01*
X46698164Y-31569051D01*
X46779190Y-31585168D01*
X46857050Y-31600655D01*
X46883724Y-31611704D01*
X46897086Y-31620632D01*
X46994148Y-31660836D01*
X47058565Y-31687518D01*
X47071341Y-31694347D01*
X47151086Y-31747632D01*
X47248148Y-31787836D01*
X47312565Y-31814518D01*
X47325341Y-31821347D01*
X47405086Y-31874632D01*
X47493090Y-31911084D01*
X47527065Y-31925157D01*
X47566550Y-31941512D01*
X47579345Y-31948350D01*
X47659086Y-32001632D01*
X47659087Y-32001632D01*
X47659088Y-32001633D01*
X47787834Y-32054961D01*
X47820550Y-32068512D01*
X47833345Y-32075350D01*
X47913086Y-32128632D01*
X48011751Y-32169500D01*
X48095164Y-32204051D01*
X48191812Y-32223275D01*
X48254049Y-32235655D01*
X48280724Y-32246704D01*
X48294086Y-32255632D01*
X48418557Y-32307189D01*
X48455561Y-32322516D01*
X48468341Y-32329347D01*
X48548086Y-32382632D01*
X48673723Y-32434672D01*
X48709561Y-32449516D01*
X48722341Y-32456347D01*
X48802086Y-32509632D01*
X48900290Y-32550309D01*
X48963565Y-32576518D01*
X48976341Y-32583347D01*
X49056086Y-32636632D01*
X49153136Y-32676831D01*
X49217565Y-32703518D01*
X49230341Y-32710347D01*
X49310086Y-32763632D01*
X49432068Y-32814158D01*
X49492164Y-32839051D01*
X49581827Y-32856886D01*
X49651051Y-32870655D01*
X49677725Y-32881703D01*
X49691086Y-32890631D01*
X49852552Y-32957511D01*
X49865335Y-32964344D01*
X49945082Y-33017630D01*
X49945084Y-33017631D01*
X49945086Y-33017632D01*
X49987352Y-33035139D01*
X50055466Y-33063353D01*
X50079473Y-33079393D01*
X55623219Y-38623140D01*
X55787086Y-38732632D01*
X55969165Y-38808052D01*
X56162460Y-38846501D01*
X56162462Y-38846501D01*
X56320900Y-38846501D01*
X56373226Y-38868175D01*
X56394900Y-38920501D01*
X56373226Y-38972827D01*
X55501725Y-39844328D01*
X55501723Y-39844331D01*
X55471337Y-39889808D01*
X55453946Y-39915836D01*
X55430534Y-39950873D01*
X55381498Y-40069257D01*
X55381497Y-40069260D01*
X55356500Y-40194932D01*
X55356500Y-40474200D01*
X55334826Y-40526526D01*
X55282500Y-40548200D01*
X55241389Y-40535730D01*
X55210912Y-40515366D01*
X55074952Y-40459051D01*
X55074951Y-40459050D01*
X55028840Y-40439950D01*
X55028830Y-40439947D01*
X54898915Y-40414106D01*
X54898915Y-40414105D01*
X54846054Y-40403591D01*
X54835541Y-40401500D01*
X54835540Y-40401500D01*
X53277073Y-40401500D01*
X53224747Y-40379826D01*
X52089359Y-39244439D01*
X52089357Y-39244436D01*
X51945781Y-39100860D01*
X51880835Y-39057465D01*
X51781914Y-38991368D01*
X51781910Y-38991366D01*
X51781908Y-38991365D01*
X51781909Y-38991365D01*
X51625222Y-38926464D01*
X51625219Y-38926461D01*
X51625219Y-38926463D01*
X51620442Y-38924484D01*
X51607652Y-38917647D01*
X51527913Y-38864367D01*
X51380881Y-38803465D01*
X51380880Y-38803464D01*
X51366444Y-38797484D01*
X51353652Y-38790647D01*
X51273913Y-38737367D01*
X51126881Y-38676465D01*
X51112444Y-38670485D01*
X51099654Y-38663648D01*
X51019914Y-38610368D01*
X51019910Y-38610366D01*
X51019908Y-38610365D01*
X51019909Y-38610365D01*
X50863224Y-38545465D01*
X50858446Y-38543486D01*
X50845654Y-38536648D01*
X50765914Y-38483368D01*
X50765910Y-38483366D01*
X50765908Y-38483365D01*
X50765909Y-38483365D01*
X50629952Y-38427051D01*
X50604446Y-38416486D01*
X50591653Y-38409648D01*
X50511913Y-38356367D01*
X50364880Y-38295465D01*
X50329836Y-38280949D01*
X50329830Y-38280947D01*
X50229978Y-38261086D01*
X50170948Y-38249343D01*
X50144276Y-38238295D01*
X50130914Y-38229368D01*
X49974222Y-38164464D01*
X49974219Y-38164461D01*
X49974219Y-38164463D01*
X49969442Y-38162484D01*
X49956652Y-38155647D01*
X49876913Y-38102367D01*
X49729881Y-38041465D01*
X49729880Y-38041464D01*
X49715444Y-38035484D01*
X49702652Y-38028647D01*
X49622913Y-37975367D01*
X49475881Y-37914465D01*
X49475880Y-37914464D01*
X49461444Y-37908484D01*
X49448652Y-37901647D01*
X49368913Y-37848367D01*
X49221881Y-37787465D01*
X49221880Y-37787464D01*
X49207444Y-37781484D01*
X49194652Y-37774647D01*
X49114913Y-37721367D01*
X48967880Y-37660465D01*
X48932836Y-37645949D01*
X48932830Y-37645947D01*
X48830882Y-37625669D01*
X48813862Y-37622283D01*
X48773948Y-37614343D01*
X48747276Y-37603295D01*
X48733914Y-37594368D01*
X48586881Y-37533465D01*
X48586880Y-37533464D01*
X48572444Y-37527484D01*
X48559652Y-37520647D01*
X48479913Y-37467367D01*
X48332881Y-37406465D01*
X48332880Y-37406464D01*
X48318444Y-37400484D01*
X48305652Y-37393647D01*
X48225913Y-37340367D01*
X48078881Y-37279465D01*
X48064444Y-37273485D01*
X48051654Y-37266648D01*
X47971914Y-37213368D01*
X47971910Y-37213366D01*
X47971908Y-37213365D01*
X47971909Y-37213365D01*
X47815222Y-37148464D01*
X47815219Y-37148461D01*
X47815219Y-37148463D01*
X47810442Y-37146484D01*
X47797652Y-37139647D01*
X47717913Y-37086367D01*
X47570880Y-37025465D01*
X47535836Y-37010949D01*
X47535830Y-37010947D01*
X47433882Y-36990669D01*
X47416862Y-36987283D01*
X47376948Y-36979343D01*
X47350276Y-36968295D01*
X47336916Y-36959368D01*
X47266180Y-36930068D01*
X47226132Y-36890019D01*
X47220499Y-36861701D01*
X47220499Y-36311726D01*
X47217040Y-36279554D01*
X47214091Y-36252117D01*
X47206220Y-36231013D01*
X47163797Y-36117270D01*
X47163796Y-36117269D01*
X47154741Y-36105173D01*
X47077546Y-36002054D01*
X46962331Y-35915804D01*
X46962330Y-35915803D01*
X46962329Y-35915802D01*
X46827487Y-35865510D01*
X46827484Y-35865509D01*
X46827483Y-35865509D01*
X46772003Y-35859544D01*
X46767874Y-35859100D01*
X46767873Y-35859100D01*
X45095050Y-35859100D01*
X45042724Y-35837426D01*
X45021050Y-35785100D01*
X45042724Y-35732774D01*
X45253809Y-35521689D01*
X45479671Y-35295826D01*
X45531996Y-35274153D01*
X45546430Y-35275575D01*
X45561071Y-35278487D01*
X45572708Y-35280803D01*
X45599380Y-35291851D01*
X45603345Y-35294500D01*
X45674453Y-35342013D01*
X45674454Y-35342013D01*
X45674455Y-35342014D01*
X45807173Y-35396987D01*
X45838334Y-35409894D01*
X46012309Y-35444500D01*
X47983348Y-35444500D01*
X48035674Y-35466174D01*
X48696034Y-36126533D01*
X49338536Y-36769035D01*
X49463965Y-36894464D01*
X49611453Y-36993013D01*
X49654755Y-37010949D01*
X49775334Y-37060895D01*
X49949309Y-37095500D01*
X50126691Y-37095500D01*
X50126692Y-37095500D01*
X50300666Y-37060895D01*
X50464547Y-36993013D01*
X50612036Y-36894464D01*
X50737464Y-36769036D01*
X50749850Y-36750500D01*
X50775801Y-36711660D01*
X50836013Y-36621547D01*
X50903895Y-36457666D01*
X50938500Y-36283692D01*
X50938500Y-36201725D01*
X50960174Y-36149399D01*
X50971388Y-36140196D01*
X50989090Y-36128368D01*
X51056781Y-36083139D01*
X51196139Y-35943781D01*
X51305631Y-35779914D01*
X51381051Y-35597836D01*
X51419500Y-35404540D01*
X51419500Y-35207460D01*
X51381051Y-35014164D01*
X51305631Y-34832086D01*
X51196139Y-34668219D01*
X50182727Y-33654807D01*
X50182723Y-33654802D01*
X50040781Y-33512860D01*
X49972192Y-33467031D01*
X49876914Y-33403368D01*
X49876910Y-33403366D01*
X49876908Y-33403365D01*
X49876909Y-33403365D01*
X49740947Y-33347049D01*
X49740946Y-33347048D01*
X49694838Y-33327949D01*
X49694831Y-33327947D01*
X49598188Y-33308724D01*
X49598188Y-33308723D01*
X49517574Y-33292689D01*
X49501541Y-33289500D01*
X49501540Y-33289500D01*
X46626113Y-33289500D01*
X46573787Y-33267826D01*
X46556747Y-33239397D01*
X46556443Y-33239524D01*
X46555592Y-33237471D01*
X46555300Y-33236983D01*
X46555052Y-33236166D01*
X46519883Y-33151263D01*
X46514528Y-33138334D01*
X46509431Y-33126029D01*
X46479632Y-33054086D01*
X46387437Y-32916106D01*
X46370140Y-32890219D01*
X44837174Y-31357253D01*
X44815500Y-31304927D01*
X44815500Y-31268595D01*
X44837174Y-31216269D01*
X44889500Y-31194595D01*
X44930847Y-31208031D01*
G37*
G04 #@! TD.AperFunction*
G04 #@! TA.AperFunction,Conductor*
G36*
X22303595Y-33969144D02*
G01*
X22335933Y-34001482D01*
X22379987Y-34087944D01*
X22427712Y-34181610D01*
X22489341Y-34266435D01*
X22548034Y-34347219D01*
X22692781Y-34491966D01*
X22767384Y-34546168D01*
X22858389Y-34612287D01*
X22946300Y-34657079D01*
X23040781Y-34705220D01*
X23040783Y-34705220D01*
X23040786Y-34705222D01*
X23235455Y-34768474D01*
X23235461Y-34768475D01*
X23235466Y-34768477D01*
X23336557Y-34784488D01*
X23437646Y-34800500D01*
X23437648Y-34800500D01*
X23642353Y-34800500D01*
X23662317Y-34797337D01*
X23806186Y-34774550D01*
X23861257Y-34787771D01*
X23890850Y-34836062D01*
X23877629Y-34891135D01*
X23870087Y-34899965D01*
X22967963Y-35802089D01*
X22930083Y-35822339D01*
X22924260Y-35823497D01*
X22924252Y-35823500D01*
X22805876Y-35872533D01*
X22709458Y-35936957D01*
X22682790Y-35948005D01*
X22674449Y-35949665D01*
X22674444Y-35949666D01*
X22670258Y-35950498D01*
X22670255Y-35950499D01*
X22551874Y-35999534D01*
X22551872Y-35999535D01*
X22455456Y-36063957D01*
X22428790Y-36075004D01*
X22416263Y-36077497D01*
X22416255Y-36077499D01*
X22297876Y-36126533D01*
X22297873Y-36126534D01*
X22297873Y-36126535D01*
X22237268Y-36167029D01*
X22196158Y-36179500D01*
X22160931Y-36179500D01*
X22129726Y-36185707D01*
X22035260Y-36204497D01*
X22035257Y-36204498D01*
X21916874Y-36253534D01*
X21916872Y-36253535D01*
X21820456Y-36317957D01*
X21793790Y-36329004D01*
X21781263Y-36331497D01*
X21781255Y-36331499D01*
X21662876Y-36380533D01*
X21566458Y-36444957D01*
X21539790Y-36456005D01*
X21531449Y-36457665D01*
X21531444Y-36457666D01*
X21527258Y-36458498D01*
X21527255Y-36458499D01*
X21408874Y-36507534D01*
X21408872Y-36507535D01*
X21312455Y-36571958D01*
X21285783Y-36583007D01*
X21273258Y-36585498D01*
X21273255Y-36585499D01*
X21253765Y-36593572D01*
X21211013Y-36597782D01*
X21068948Y-36569524D01*
X21043691Y-36564500D01*
X20866309Y-36564500D01*
X20816989Y-36574310D01*
X20692339Y-36599104D01*
X20692329Y-36599107D01*
X20528455Y-36666985D01*
X20380968Y-36765533D01*
X20255533Y-36890968D01*
X20156985Y-37038455D01*
X20089107Y-37202329D01*
X20089104Y-37202339D01*
X20066716Y-37314894D01*
X20057525Y-37361104D01*
X20054500Y-37376310D01*
X20054500Y-37553689D01*
X20089104Y-37727660D01*
X20089105Y-37727663D01*
X20089106Y-37727666D01*
X20089318Y-37728177D01*
X20089318Y-37728363D01*
X20090161Y-37731142D01*
X20089318Y-37731397D01*
X20089322Y-37784814D01*
X20049277Y-37824865D01*
X20020953Y-37830500D01*
X16149345Y-37830500D01*
X16097019Y-37808826D01*
X16075345Y-37756500D01*
X16089478Y-37713004D01*
X16112287Y-37681610D01*
X16205220Y-37499219D01*
X16228040Y-37428987D01*
X16268474Y-37304544D01*
X16268474Y-37304541D01*
X16268477Y-37304534D01*
X16293510Y-37146484D01*
X16300500Y-37102353D01*
X16300500Y-36897646D01*
X16284488Y-36796557D01*
X16268477Y-36695466D01*
X16268475Y-36695461D01*
X16268474Y-36695455D01*
X16205222Y-36500786D01*
X16205220Y-36500783D01*
X16205220Y-36500781D01*
X16143952Y-36380535D01*
X16112287Y-36318389D01*
X16029540Y-36204498D01*
X15991966Y-36152781D01*
X15847219Y-36008034D01*
X15766882Y-35949666D01*
X15681610Y-35887712D01*
X15499213Y-35794777D01*
X15304544Y-35731525D01*
X15304531Y-35731522D01*
X15248128Y-35722589D01*
X15199837Y-35692996D01*
X15186615Y-35637924D01*
X15216208Y-35589633D01*
X15259704Y-35575500D01*
X18860067Y-35575500D01*
X18860069Y-35575500D01*
X18985744Y-35550501D01*
X19104127Y-35501465D01*
X19112689Y-35495744D01*
X19210669Y-35430277D01*
X19424772Y-35216174D01*
X19477098Y-35194500D01*
X19793349Y-35194500D01*
X19845674Y-35216173D01*
X19872965Y-35243464D01*
X20020453Y-35342013D01*
X20020454Y-35342013D01*
X20020455Y-35342014D01*
X20153173Y-35396987D01*
X20184334Y-35409894D01*
X20358309Y-35444500D01*
X20358311Y-35444500D01*
X20535689Y-35444500D01*
X20535691Y-35444500D01*
X20709666Y-35409894D01*
X20873547Y-35342013D01*
X21021035Y-35243464D01*
X21146464Y-35118035D01*
X21245013Y-34970547D01*
X21312894Y-34806666D01*
X21313130Y-34805478D01*
X21313356Y-34805140D01*
X21313950Y-34803183D01*
X21314543Y-34803363D01*
X21344592Y-34758384D01*
X21362840Y-34749531D01*
X21499219Y-34705220D01*
X21681610Y-34612287D01*
X21847219Y-34491966D01*
X21991966Y-34347219D01*
X22112287Y-34181610D01*
X22204066Y-34001482D01*
X22247132Y-33964701D01*
X22303595Y-33969144D01*
G37*
G04 #@! TD.AperFunction*
G04 #@! TA.AperFunction,Conductor*
G36*
X45177826Y-23016746D02*
G01*
X45199500Y-23069072D01*
X45199500Y-23600000D01*
X45199500Y-23600005D01*
X45199501Y-23600008D01*
X45210001Y-23702797D01*
X45265186Y-23869334D01*
X45357288Y-24018656D01*
X45481344Y-24142712D01*
X45630666Y-24234814D01*
X45797203Y-24289999D01*
X45899991Y-24300500D01*
X46307082Y-24300499D01*
X46359408Y-24322173D01*
X46375449Y-24346180D01*
X46411677Y-24433643D01*
X46413535Y-24438127D01*
X46454029Y-24498731D01*
X46466500Y-24539842D01*
X46466500Y-24575069D01*
X46481957Y-24652776D01*
X46488078Y-24683547D01*
X46491497Y-24700739D01*
X46491498Y-24700742D01*
X46540535Y-24819127D01*
X46604959Y-24915546D01*
X46616005Y-24942209D01*
X46616785Y-24946127D01*
X46617662Y-24950534D01*
X46618499Y-24954745D01*
X46667535Y-25073127D01*
X46731959Y-25169546D01*
X46743008Y-25196221D01*
X46745497Y-25208738D01*
X46745498Y-25208742D01*
X46745499Y-25208744D01*
X46773788Y-25277040D01*
X46794535Y-25327127D01*
X46858959Y-25423546D01*
X46870008Y-25450221D01*
X46872497Y-25462738D01*
X46872498Y-25462742D01*
X46872499Y-25462744D01*
X46900788Y-25531040D01*
X46921535Y-25581127D01*
X46985959Y-25677546D01*
X46997008Y-25704221D01*
X46999497Y-25716737D01*
X46999498Y-25716740D01*
X46999499Y-25716744D01*
X47007572Y-25736233D01*
X47011782Y-25778986D01*
X46984727Y-25915004D01*
X46978500Y-25946309D01*
X46978500Y-26123691D01*
X46989930Y-26181156D01*
X47013104Y-26297660D01*
X47013107Y-26297670D01*
X47080985Y-26461544D01*
X47130728Y-26535990D01*
X47179536Y-26609035D01*
X47304965Y-26734464D01*
X47452453Y-26833013D01*
X47452454Y-26833013D01*
X47452455Y-26833014D01*
X47530800Y-26865465D01*
X47616334Y-26900894D01*
X47790309Y-26935500D01*
X47793500Y-26935500D01*
X47845826Y-26957174D01*
X47867500Y-27009500D01*
X47867500Y-27139691D01*
X47873726Y-27170990D01*
X47902104Y-27313660D01*
X47902107Y-27313670D01*
X47969985Y-27477544D01*
X47969986Y-27477545D01*
X47969987Y-27477547D01*
X48068536Y-27625035D01*
X48193965Y-27750464D01*
X48295543Y-27818337D01*
X48327009Y-27865428D01*
X48315960Y-27920977D01*
X48295543Y-27941394D01*
X48130218Y-28051860D01*
X48130217Y-28051862D01*
X47990862Y-28191217D01*
X47990860Y-28191218D01*
X47881367Y-28355086D01*
X47805950Y-28537160D01*
X47805947Y-28537170D01*
X47782293Y-28656091D01*
X47767500Y-28730459D01*
X47767500Y-28927541D01*
X47776244Y-28971500D01*
X47805947Y-29120829D01*
X47805950Y-29120839D01*
X47881367Y-29302913D01*
X47990860Y-29466781D01*
X48130218Y-29606139D01*
X48294086Y-29715632D01*
X48450658Y-29780486D01*
X48476165Y-29791051D01*
X48669459Y-29829500D01*
X49973928Y-29829500D01*
X50026254Y-29851174D01*
X51813219Y-31638139D01*
X51977086Y-31747631D01*
X52159164Y-31823051D01*
X52352460Y-31861500D01*
X52352462Y-31861500D01*
X52549538Y-31861500D01*
X52549540Y-31861500D01*
X52742836Y-31823051D01*
X52924914Y-31747631D01*
X53088781Y-31638139D01*
X53228139Y-31498781D01*
X53337631Y-31334914D01*
X53413051Y-31152836D01*
X53451500Y-30959540D01*
X53451500Y-30762460D01*
X53413051Y-30569164D01*
X53337631Y-30387086D01*
X53228139Y-30223219D01*
X51198727Y-28193807D01*
X51198723Y-28193802D01*
X51056781Y-28051860D01*
X50892913Y-27942367D01*
X50745880Y-27881465D01*
X50710834Y-27866948D01*
X50710831Y-27866947D01*
X50614188Y-27847724D01*
X50614188Y-27847723D01*
X50533574Y-27831689D01*
X50517541Y-27828500D01*
X50517540Y-27828500D01*
X49442650Y-27828500D01*
X49390324Y-27806826D01*
X49368650Y-27754500D01*
X49390323Y-27702175D01*
X49467464Y-27625035D01*
X49566013Y-27477547D01*
X49576268Y-27452786D01*
X49616310Y-27412739D01*
X49711127Y-27373465D01*
X49722352Y-27365965D01*
X49807551Y-27309037D01*
X49834221Y-27297991D01*
X49846744Y-27295501D01*
X49965127Y-27246465D01*
X49973689Y-27240744D01*
X50061550Y-27182037D01*
X50088221Y-27170991D01*
X50100744Y-27168501D01*
X50219127Y-27119465D01*
X50235144Y-27108763D01*
X50235145Y-27108763D01*
X50279733Y-27078971D01*
X50320844Y-27066500D01*
X50356067Y-27066500D01*
X50356069Y-27066500D01*
X50481744Y-27041501D01*
X50600127Y-26992465D01*
X50611352Y-26984965D01*
X50696551Y-26928037D01*
X50723221Y-26916991D01*
X50735744Y-26914501D01*
X50854127Y-26865465D01*
X50862689Y-26859744D01*
X50950550Y-26801037D01*
X50977221Y-26789991D01*
X50989744Y-26787501D01*
X51108127Y-26738465D01*
X51204551Y-26674037D01*
X51231221Y-26662991D01*
X51243744Y-26660501D01*
X51362127Y-26611465D01*
X51370689Y-26605744D01*
X51458550Y-26547037D01*
X51485221Y-26535991D01*
X51497744Y-26533501D01*
X51616127Y-26484465D01*
X51618248Y-26483048D01*
X51620501Y-26481543D01*
X51676732Y-26443971D01*
X51717844Y-26431500D01*
X51753067Y-26431500D01*
X51753069Y-26431500D01*
X51878744Y-26406501D01*
X51997127Y-26357465D01*
X52005689Y-26351744D01*
X52093550Y-26293037D01*
X52120221Y-26281991D01*
X52132744Y-26279501D01*
X52251127Y-26230465D01*
X52251130Y-26230463D01*
X52255500Y-26227544D01*
X52287779Y-26205975D01*
X52347548Y-26166038D01*
X52374221Y-26154991D01*
X52386744Y-26152501D01*
X52505127Y-26103465D01*
X52513689Y-26097744D01*
X52601550Y-26039037D01*
X52628221Y-26027991D01*
X52640744Y-26025501D01*
X52759127Y-25976465D01*
X52767689Y-25970744D01*
X52855550Y-25912037D01*
X52882221Y-25900991D01*
X52894744Y-25898501D01*
X53013127Y-25849465D01*
X53021689Y-25843744D01*
X53109550Y-25785037D01*
X53136221Y-25773991D01*
X53148744Y-25771501D01*
X53267127Y-25722465D01*
X53275689Y-25716744D01*
X53327731Y-25681970D01*
X53368843Y-25669500D01*
X53404067Y-25669500D01*
X53404069Y-25669500D01*
X53529744Y-25644501D01*
X53648127Y-25595465D01*
X53658614Y-25588458D01*
X53744552Y-25531036D01*
X53771221Y-25519991D01*
X53783744Y-25517501D01*
X53902127Y-25468465D01*
X53913352Y-25460965D01*
X53998551Y-25404037D01*
X54025221Y-25392991D01*
X54037744Y-25390501D01*
X54156127Y-25341465D01*
X54164689Y-25335744D01*
X54252550Y-25277037D01*
X54279221Y-25265991D01*
X54291744Y-25263501D01*
X54410127Y-25214465D01*
X54421352Y-25206965D01*
X54470732Y-25173970D01*
X54511843Y-25161500D01*
X54547067Y-25161500D01*
X54547069Y-25161500D01*
X54672744Y-25136501D01*
X54791127Y-25087465D01*
X54799689Y-25081744D01*
X54851731Y-25046970D01*
X54892843Y-25034500D01*
X55436067Y-25034500D01*
X55436069Y-25034500D01*
X55561744Y-25009501D01*
X55680127Y-24960465D01*
X55740732Y-24919971D01*
X55781844Y-24907500D01*
X56596470Y-24907500D01*
X56648796Y-24929174D01*
X56670470Y-24981500D01*
X56657999Y-25022612D01*
X56605985Y-25100455D01*
X56538107Y-25264329D01*
X56538104Y-25264339D01*
X56511924Y-25395957D01*
X56503500Y-25438309D01*
X56503500Y-25615691D01*
X56513010Y-25663499D01*
X56538104Y-25789660D01*
X56538106Y-25789666D01*
X56605985Y-25953544D01*
X56699524Y-26093535D01*
X56704536Y-26101035D01*
X56829965Y-26226464D01*
X56946753Y-26304500D01*
X56969192Y-26319493D01*
X57000658Y-26366586D01*
X56989609Y-26422134D01*
X56942516Y-26453600D01*
X56939656Y-26454111D01*
X56798634Y-26476446D01*
X56798621Y-26476449D01*
X56574013Y-26549429D01*
X56363566Y-26656656D01*
X56186601Y-26785230D01*
X56131529Y-26798452D01*
X56083238Y-26768859D01*
X56073771Y-26751223D01*
X56053797Y-26697670D01*
X56053796Y-26697669D01*
X56036107Y-26674040D01*
X55967546Y-26582454D01*
X55852331Y-26496204D01*
X55852330Y-26496203D01*
X55852329Y-26496202D01*
X55717487Y-26445910D01*
X55717484Y-26445909D01*
X55717483Y-26445909D01*
X55657873Y-26439500D01*
X53562126Y-26439500D01*
X53502514Y-26445909D01*
X53367670Y-26496202D01*
X53367669Y-26496203D01*
X53252454Y-26582454D01*
X53166203Y-26697669D01*
X53166202Y-26697670D01*
X53115910Y-26832512D01*
X53115909Y-26832517D01*
X53109500Y-26892126D01*
X53109500Y-28987873D01*
X53115909Y-29047485D01*
X53166202Y-29182329D01*
X53166203Y-29182330D01*
X53175354Y-29194554D01*
X53252454Y-29297546D01*
X53322267Y-29349808D01*
X53367669Y-29383796D01*
X53367670Y-29383797D01*
X53478605Y-29425172D01*
X53502517Y-29434091D01*
X53562127Y-29440500D01*
X55657872Y-29440499D01*
X55717483Y-29434091D01*
X55804644Y-29401582D01*
X55852329Y-29383797D01*
X55852329Y-29383796D01*
X55852331Y-29383796D01*
X55967546Y-29297546D01*
X56053796Y-29182331D01*
X56073771Y-29128774D01*
X56112364Y-29087324D01*
X56168965Y-29085301D01*
X56186599Y-29094768D01*
X56363567Y-29223343D01*
X56574008Y-29330568D01*
X56574010Y-29330568D01*
X56574013Y-29330570D01*
X56798621Y-29403550D01*
X56798627Y-29403551D01*
X56798632Y-29403553D01*
X56954149Y-29428184D01*
X57031907Y-29440500D01*
X57031908Y-29440500D01*
X57268093Y-29440500D01*
X57326411Y-29431263D01*
X57501368Y-29403553D01*
X57501375Y-29403550D01*
X57501378Y-29403550D01*
X57666762Y-29349813D01*
X57725992Y-29330568D01*
X57725994Y-29330567D01*
X57897890Y-29242982D01*
X57954352Y-29238538D01*
X57997419Y-29275321D01*
X58001863Y-29331783D01*
X57983811Y-29361242D01*
X56898722Y-30446331D01*
X56837115Y-30538535D01*
X56827535Y-30552872D01*
X56778498Y-30671257D01*
X56778497Y-30671260D01*
X56762736Y-30750499D01*
X56754375Y-30792535D01*
X56753500Y-30796932D01*
X56753500Y-36744927D01*
X56731826Y-36797253D01*
X56679500Y-36818927D01*
X56627174Y-36797253D01*
X51327359Y-31497439D01*
X51327357Y-31497436D01*
X51183781Y-31353860D01*
X51110547Y-31304927D01*
X51019914Y-31244368D01*
X51019910Y-31244366D01*
X51019908Y-31244365D01*
X51019909Y-31244365D01*
X50862726Y-31179259D01*
X50862719Y-31179256D01*
X50858447Y-31177486D01*
X50845660Y-31170651D01*
X50765913Y-31117366D01*
X50629532Y-31060876D01*
X50629531Y-31060875D01*
X50604442Y-31050483D01*
X50591648Y-31043645D01*
X50511911Y-30990366D01*
X50332269Y-30915957D01*
X50330300Y-30915058D01*
X50324612Y-30913716D01*
X50322683Y-30913526D01*
X50170948Y-30883343D01*
X50144273Y-30872294D01*
X50130913Y-30863367D01*
X49974222Y-30798464D01*
X49974219Y-30798461D01*
X49974219Y-30798463D01*
X49969442Y-30796484D01*
X49956652Y-30789647D01*
X49876913Y-30736367D01*
X49774139Y-30693797D01*
X49748165Y-30683038D01*
X49726784Y-30674182D01*
X49715447Y-30669486D01*
X49702654Y-30662648D01*
X49622913Y-30609367D01*
X49547494Y-30578127D01*
X49494165Y-30556038D01*
X49472784Y-30547182D01*
X49461447Y-30542486D01*
X49448654Y-30535648D01*
X49368913Y-30482367D01*
X49232522Y-30425873D01*
X49207446Y-30415486D01*
X49194653Y-30408648D01*
X49114913Y-30355367D01*
X48976105Y-30297872D01*
X48932836Y-30279949D01*
X48932830Y-30279947D01*
X48832978Y-30260086D01*
X48773948Y-30248343D01*
X48747276Y-30237295D01*
X48733914Y-30228368D01*
X48588155Y-30167993D01*
X48572446Y-30161486D01*
X48559653Y-30154648D01*
X48479913Y-30101367D01*
X48332881Y-30040465D01*
X48332880Y-30040464D01*
X48318444Y-30034484D01*
X48305652Y-30027647D01*
X48225913Y-29974367D01*
X48093194Y-29919394D01*
X48064446Y-29907486D01*
X48051653Y-29900648D01*
X48018762Y-29878671D01*
X47971914Y-29847368D01*
X47971912Y-29847367D01*
X47971909Y-29847365D01*
X47835952Y-29791051D01*
X47810446Y-29780486D01*
X47797653Y-29773648D01*
X47717913Y-29720367D01*
X47585194Y-29665394D01*
X47585193Y-29665393D01*
X47535840Y-29644950D01*
X47535830Y-29644947D01*
X47435978Y-29625086D01*
X47376948Y-29613343D01*
X47350276Y-29602295D01*
X47336914Y-29593368D01*
X47198330Y-29535965D01*
X47158281Y-29495917D01*
X47156270Y-29490465D01*
X47110570Y-29349813D01*
X47110568Y-29349810D01*
X47110568Y-29349808D01*
X47003343Y-29139367D01*
X46930038Y-29038471D01*
X46864520Y-28948294D01*
X46864519Y-28948293D01*
X46864517Y-28948290D01*
X46697510Y-28781283D01*
X46697507Y-28781280D01*
X46697505Y-28781279D01*
X46506432Y-28642456D01*
X46305348Y-28539999D01*
X46295992Y-28535232D01*
X46295991Y-28535231D01*
X46295986Y-28535229D01*
X46071378Y-28462249D01*
X46071365Y-28462246D01*
X45838093Y-28425300D01*
X45838092Y-28425300D01*
X45601908Y-28425300D01*
X45601907Y-28425300D01*
X45368634Y-28462246D01*
X45368621Y-28462249D01*
X45144013Y-28535229D01*
X44933566Y-28642457D01*
X44932987Y-28642878D01*
X44932810Y-28642920D01*
X44931095Y-28643972D01*
X44930752Y-28643413D01*
X44877913Y-28656091D01*
X44829626Y-28626491D01*
X44815500Y-28583004D01*
X44815500Y-23305072D01*
X44837174Y-23252746D01*
X44957278Y-23132642D01*
X45073175Y-23016745D01*
X45125500Y-22995072D01*
X45177826Y-23016746D01*
G37*
G04 #@! TD.AperFunction*
G04 #@! TA.AperFunction,Conductor*
G36*
X9775096Y-31533174D02*
G01*
X9796770Y-31585500D01*
X9775096Y-31637826D01*
X9393736Y-32019184D01*
X9369729Y-32035225D01*
X9225453Y-32094986D01*
X9077968Y-32193533D01*
X8952533Y-32318968D01*
X8853985Y-32466455D01*
X8786107Y-32630329D01*
X8786104Y-32630339D01*
X8762004Y-32751500D01*
X8751500Y-32804309D01*
X8751500Y-32981691D01*
X8758649Y-33017630D01*
X8786104Y-33155660D01*
X8786107Y-33155670D01*
X8853985Y-33319544D01*
X8947524Y-33459535D01*
X8952536Y-33467035D01*
X9077965Y-33592464D01*
X9225453Y-33691013D01*
X9225454Y-33691013D01*
X9225455Y-33691014D01*
X9389329Y-33758892D01*
X9389334Y-33758894D01*
X9563309Y-33793500D01*
X9563311Y-33793500D01*
X9740689Y-33793500D01*
X9740691Y-33793500D01*
X9914666Y-33758894D01*
X10078547Y-33691013D01*
X10226035Y-33592464D01*
X10351464Y-33467035D01*
X10450013Y-33319547D01*
X10509774Y-33175267D01*
X10525810Y-33151266D01*
X10977904Y-32699174D01*
X11030230Y-32677500D01*
X12333500Y-32677500D01*
X12385826Y-32699174D01*
X12407500Y-32751500D01*
X12407500Y-32844840D01*
X12438261Y-32999491D01*
X12438264Y-32999501D01*
X12498603Y-33145174D01*
X12498605Y-33145177D01*
X12498606Y-33145179D01*
X12505609Y-33155660D01*
X12586210Y-33276288D01*
X12969185Y-33659263D01*
X12985226Y-33683271D01*
X13044985Y-33827544D01*
X13139599Y-33969144D01*
X13143536Y-33975035D01*
X13268965Y-34100464D01*
X13326595Y-34138971D01*
X13358061Y-34186063D01*
X13347012Y-34241612D01*
X13299920Y-34273078D01*
X13285483Y-34274500D01*
X12254931Y-34274500D01*
X12133444Y-34298666D01*
X12133442Y-34298666D01*
X12129264Y-34299496D01*
X12129255Y-34299499D01*
X12010874Y-34348534D01*
X12010872Y-34348535D01*
X11914456Y-34412957D01*
X11887790Y-34424004D01*
X11875263Y-34426497D01*
X11875251Y-34426500D01*
X11820985Y-34448978D01*
X11764348Y-34448978D01*
X11749174Y-34440480D01*
X11735405Y-34430476D01*
X11735404Y-34430475D01*
X11735402Y-34430474D01*
X11560019Y-34341113D01*
X11372836Y-34280293D01*
X11372823Y-34280290D01*
X11178418Y-34249500D01*
X11178417Y-34249500D01*
X10981583Y-34249500D01*
X10981582Y-34249500D01*
X10787176Y-34280290D01*
X10787163Y-34280293D01*
X10599980Y-34341113D01*
X10424595Y-34430475D01*
X10265358Y-34546168D01*
X10126168Y-34685358D01*
X10010475Y-34844595D01*
X9921113Y-35019980D01*
X9860293Y-35207163D01*
X9860290Y-35207176D01*
X9829500Y-35401582D01*
X9829500Y-35598417D01*
X9860290Y-35792823D01*
X9860293Y-35792836D01*
X9921113Y-35980019D01*
X9967931Y-36071905D01*
X9972374Y-36128368D01*
X9935591Y-36171435D01*
X9901996Y-36179500D01*
X7324500Y-36179500D01*
X7272174Y-36157826D01*
X7250500Y-36105500D01*
X7250499Y-34702126D01*
X7246854Y-34668219D01*
X7244091Y-34642517D01*
X7241859Y-34636533D01*
X7193797Y-34507670D01*
X7193796Y-34507669D01*
X7161732Y-34464837D01*
X7107546Y-34392454D01*
X6992331Y-34306204D01*
X6992330Y-34306203D01*
X6992329Y-34306202D01*
X6857487Y-34255910D01*
X6857484Y-34255909D01*
X6857483Y-34255909D01*
X6827678Y-34252704D01*
X6797874Y-34249500D01*
X6797873Y-34249500D01*
X6727097Y-34249500D01*
X6674771Y-34227826D01*
X6653097Y-34175500D01*
X6674771Y-34123174D01*
X7924419Y-32873527D01*
X9264772Y-31533174D01*
X9317098Y-31511500D01*
X9722770Y-31511500D01*
X9775096Y-31533174D01*
G37*
G04 #@! TD.AperFunction*
G04 #@! TA.AperFunction,Conductor*
G36*
X36542984Y-27981612D02*
G01*
X36563587Y-28025165D01*
X36563791Y-28025125D01*
X36563952Y-28025936D01*
X36564300Y-28026671D01*
X36564498Y-28028681D01*
X36599104Y-28202660D01*
X36599107Y-28202670D01*
X36666985Y-28366544D01*
X36666986Y-28366546D01*
X36666987Y-28366547D01*
X36765536Y-28514035D01*
X36769826Y-28518325D01*
X36791500Y-28570650D01*
X36791500Y-29155832D01*
X36769826Y-29208158D01*
X36717500Y-29229832D01*
X36676391Y-29217363D01*
X36668914Y-29212367D01*
X36486839Y-29136950D01*
X36486829Y-29136947D01*
X36357388Y-29111200D01*
X36293541Y-29098500D01*
X36096459Y-29098500D01*
X36041662Y-29109399D01*
X35903170Y-29136947D01*
X35903160Y-29136950D01*
X35721086Y-29212367D01*
X35557218Y-29321860D01*
X35557217Y-29321862D01*
X35417862Y-29461217D01*
X35417860Y-29461218D01*
X35308367Y-29625086D01*
X35232950Y-29807160D01*
X35232947Y-29807170D01*
X35194500Y-30000460D01*
X35194500Y-31868983D01*
X35182756Y-31907702D01*
X35183082Y-31907877D01*
X35182206Y-31909514D01*
X35182032Y-31910091D01*
X35181368Y-31911084D01*
X35133311Y-32027105D01*
X35133310Y-32027107D01*
X35114482Y-32072558D01*
X35107645Y-32085348D01*
X35054368Y-32165084D01*
X35001936Y-32291668D01*
X35001932Y-32291679D01*
X35000354Y-32295487D01*
X34965587Y-32333092D01*
X34858388Y-32387713D01*
X34858386Y-32387715D01*
X34700395Y-32502502D01*
X34692781Y-32508034D01*
X34548034Y-32652781D01*
X34548031Y-32652784D01*
X34548031Y-32652785D01*
X34427712Y-32818389D01*
X34335935Y-32998515D01*
X34292867Y-33035298D01*
X34236405Y-33030855D01*
X34204065Y-32998515D01*
X34112287Y-32818389D01*
X34031695Y-32707464D01*
X33991966Y-32652781D01*
X33847219Y-32508034D01*
X33783040Y-32461406D01*
X33681610Y-32387712D01*
X33509074Y-32299801D01*
X33499219Y-32294780D01*
X33499218Y-32294779D01*
X33499213Y-32294777D01*
X33304544Y-32231525D01*
X33304531Y-32231522D01*
X33102354Y-32199500D01*
X33102352Y-32199500D01*
X32897648Y-32199500D01*
X32897646Y-32199500D01*
X32695468Y-32231522D01*
X32695455Y-32231525D01*
X32500786Y-32294777D01*
X32318389Y-32387712D01*
X32160395Y-32502502D01*
X32152781Y-32508034D01*
X32008034Y-32652781D01*
X32008031Y-32652784D01*
X32008031Y-32652785D01*
X31887712Y-32818389D01*
X31794777Y-33000786D01*
X31731525Y-33195455D01*
X31731523Y-33195466D01*
X31709284Y-33335872D01*
X31679691Y-33384163D01*
X31624618Y-33397384D01*
X31621759Y-33396873D01*
X31584691Y-33389500D01*
X31407309Y-33389500D01*
X31357989Y-33399310D01*
X31233339Y-33424104D01*
X31233329Y-33424107D01*
X31069455Y-33491985D01*
X30921968Y-33590533D01*
X30796533Y-33715968D01*
X30697985Y-33863455D01*
X30630107Y-34027329D01*
X30630104Y-34027339D01*
X30595499Y-34201314D01*
X30595143Y-34204930D01*
X30593722Y-34204790D01*
X30573826Y-34252826D01*
X30521500Y-34274500D01*
X28185715Y-34274500D01*
X28133389Y-34252826D01*
X28111715Y-34200500D01*
X28119780Y-34166905D01*
X28153633Y-34100464D01*
X28205220Y-33999219D01*
X28217845Y-33960363D01*
X28268474Y-33804544D01*
X28268475Y-33804540D01*
X28268477Y-33804534D01*
X28300500Y-33602352D01*
X28300500Y-33397648D01*
X28300458Y-33397384D01*
X28268476Y-33195460D01*
X28259929Y-33169159D01*
X28264370Y-33112696D01*
X28277977Y-33093966D01*
X28568771Y-32803174D01*
X28621097Y-32781500D01*
X30290067Y-32781500D01*
X30290069Y-32781500D01*
X30415744Y-32756501D01*
X30451517Y-32741683D01*
X30530777Y-32708853D01*
X30537616Y-32706406D01*
X30537634Y-32706400D01*
X30540860Y-32704676D01*
X30541060Y-32704593D01*
X30546364Y-32699288D01*
X30630548Y-32643038D01*
X30657219Y-32631991D01*
X30669741Y-32629501D01*
X30669742Y-32629500D01*
X30669744Y-32629500D01*
X30669746Y-32629498D01*
X30670460Y-32629357D01*
X30673084Y-32628116D01*
X30788127Y-32580464D01*
X30859906Y-32532503D01*
X30884548Y-32516038D01*
X30911220Y-32504991D01*
X30923744Y-32502501D01*
X31042127Y-32453465D01*
X31052614Y-32446458D01*
X31138552Y-32389036D01*
X31165221Y-32377991D01*
X31177744Y-32375501D01*
X31296127Y-32326465D01*
X31317587Y-32312126D01*
X31356731Y-32285970D01*
X31397843Y-32273500D01*
X31433067Y-32273500D01*
X31433069Y-32273500D01*
X31558744Y-32248501D01*
X31677127Y-32199465D01*
X31677127Y-32199464D01*
X31677129Y-32199464D01*
X31685695Y-32193740D01*
X31709512Y-32177826D01*
X31773550Y-32135037D01*
X31800221Y-32123991D01*
X31812744Y-32121501D01*
X31931127Y-32072465D01*
X32027551Y-32008037D01*
X32054221Y-31996991D01*
X32066744Y-31994501D01*
X32121319Y-31971895D01*
X32181777Y-31946853D01*
X32188616Y-31944406D01*
X32188634Y-31944400D01*
X32191860Y-31942676D01*
X32192060Y-31942593D01*
X32197364Y-31937288D01*
X32281546Y-31881039D01*
X32308216Y-31869992D01*
X32320744Y-31867501D01*
X32439127Y-31818465D01*
X32447689Y-31812744D01*
X32535551Y-31754037D01*
X32562224Y-31742990D01*
X32574743Y-31740501D01*
X32693126Y-31691465D01*
X32701688Y-31685744D01*
X32799668Y-31620277D01*
X36438333Y-27981611D01*
X36490658Y-27959938D01*
X36542984Y-27981612D01*
G37*
G04 #@! TD.AperFunction*
G04 #@! TA.AperFunction,Conductor*
G36*
X35277308Y-19595289D02*
G01*
X35298982Y-19647615D01*
X35286511Y-19688727D01*
X35181367Y-19846086D01*
X35105950Y-20028160D01*
X35105947Y-20028170D01*
X35091643Y-20100085D01*
X35067500Y-20221459D01*
X35067500Y-20418541D01*
X35073632Y-20449367D01*
X35105947Y-20611829D01*
X35105950Y-20611839D01*
X35181367Y-20793913D01*
X35290860Y-20957781D01*
X35430218Y-21097139D01*
X35594086Y-21206632D01*
X35743792Y-21268642D01*
X35776165Y-21282051D01*
X35969459Y-21320500D01*
X36511928Y-21320500D01*
X36564254Y-21342174D01*
X40379826Y-25157746D01*
X40401500Y-25210072D01*
X40401500Y-28673539D01*
X40439947Y-28866829D01*
X40439950Y-28866839D01*
X40440921Y-28869182D01*
X40440921Y-28870037D01*
X40441004Y-28870311D01*
X40440921Y-28870336D01*
X40440921Y-28925819D01*
X40400872Y-28965867D01*
X40372554Y-28971500D01*
X38890459Y-28971500D01*
X38835662Y-28982399D01*
X38697170Y-29009947D01*
X38697160Y-29009950D01*
X38515085Y-29085367D01*
X38507609Y-29090363D01*
X38452059Y-29101409D01*
X38404969Y-29069941D01*
X38392500Y-29028832D01*
X38392500Y-28115158D01*
X38366922Y-27986567D01*
X38365500Y-27972131D01*
X38365500Y-27851310D01*
X38345440Y-27750464D01*
X38330894Y-27677334D01*
X38295343Y-27591506D01*
X38263014Y-27513455D01*
X38238744Y-27477133D01*
X38164464Y-27365965D01*
X38039035Y-27240536D01*
X38039031Y-27240533D01*
X38039029Y-27240531D01*
X37979354Y-27200657D01*
X37947889Y-27153565D01*
X37958939Y-27098016D01*
X37968135Y-27086809D01*
X38351772Y-26703174D01*
X38404098Y-26681500D01*
X38442689Y-26681500D01*
X38442691Y-26681500D01*
X38616666Y-26646894D01*
X38780547Y-26579013D01*
X38928035Y-26480464D01*
X39053464Y-26355035D01*
X39152013Y-26207547D01*
X39219894Y-26043666D01*
X39254500Y-25869691D01*
X39254500Y-25692309D01*
X39219894Y-25518334D01*
X39208250Y-25490222D01*
X39152014Y-25354455D01*
X39143334Y-25341465D01*
X39053464Y-25206965D01*
X38928035Y-25081536D01*
X38922047Y-25077535D01*
X38780544Y-24982985D01*
X38616670Y-24915107D01*
X38616660Y-24915104D01*
X38500156Y-24891930D01*
X38442691Y-24880500D01*
X38265309Y-24880500D01*
X38215989Y-24890310D01*
X38091339Y-24915104D01*
X38091329Y-24915107D01*
X37927455Y-24982985D01*
X37779968Y-25081533D01*
X37779967Y-25081534D01*
X37779965Y-25081535D01*
X37779965Y-25081536D01*
X37654536Y-25206965D01*
X37654534Y-25206966D01*
X37654533Y-25206968D01*
X37555985Y-25354455D01*
X37488107Y-25518329D01*
X37488104Y-25518339D01*
X37453500Y-25692310D01*
X37453500Y-25730902D01*
X37431826Y-25783228D01*
X36963228Y-26251826D01*
X36910902Y-26273500D01*
X36511931Y-26273500D01*
X36481768Y-26279500D01*
X36386260Y-26298497D01*
X36386257Y-26298498D01*
X36267873Y-26347535D01*
X36225198Y-26376047D01*
X36225198Y-26376048D01*
X36179621Y-26406502D01*
X36161331Y-26418723D01*
X32111962Y-30468089D01*
X32074077Y-30488340D01*
X32068264Y-30489496D01*
X32068257Y-30489498D01*
X31949876Y-30538533D01*
X31853458Y-30602957D01*
X31826785Y-30614006D01*
X31814256Y-30616498D01*
X31814254Y-30616499D01*
X31696267Y-30665370D01*
X31695904Y-30665517D01*
X31695875Y-30665533D01*
X31695871Y-30665535D01*
X31695870Y-30665536D01*
X31599455Y-30729958D01*
X31572782Y-30741007D01*
X31560257Y-30743498D01*
X31441874Y-30792534D01*
X31441872Y-30792535D01*
X31345456Y-30856957D01*
X31318790Y-30868004D01*
X31306263Y-30870497D01*
X31306255Y-30870499D01*
X31187876Y-30919533D01*
X31187873Y-30919534D01*
X31187873Y-30919535D01*
X31127268Y-30960029D01*
X31086158Y-30972500D01*
X31050931Y-30972500D01*
X31019726Y-30978707D01*
X30925260Y-30997497D01*
X30925257Y-30997498D01*
X30806876Y-31046533D01*
X30710458Y-31110957D01*
X30683790Y-31122005D01*
X30675449Y-31123665D01*
X30675444Y-31123666D01*
X30671258Y-31124498D01*
X30671255Y-31124499D01*
X30552874Y-31173534D01*
X30552872Y-31173535D01*
X30456456Y-31237957D01*
X30429790Y-31249004D01*
X30417262Y-31251497D01*
X30417252Y-31251500D01*
X30330229Y-31287547D01*
X30300148Y-31300007D01*
X30300143Y-31300009D01*
X30298874Y-31300534D01*
X30298873Y-31300535D01*
X30284012Y-31310465D01*
X30239472Y-31340225D01*
X30202455Y-31364958D01*
X30175785Y-31376005D01*
X30163258Y-31378497D01*
X30163252Y-31378499D01*
X30047857Y-31426298D01*
X30044875Y-31427532D01*
X30044866Y-31427537D01*
X29984267Y-31468029D01*
X29943155Y-31480500D01*
X28256931Y-31480500D01*
X28226763Y-31486501D01*
X28131260Y-31505497D01*
X28131257Y-31505498D01*
X28012876Y-31554533D01*
X27906331Y-31625723D01*
X27906329Y-31625725D01*
X27327739Y-32204313D01*
X27275413Y-32225987D01*
X27263837Y-32225076D01*
X27102353Y-32199500D01*
X27102352Y-32199500D01*
X26990912Y-32199500D01*
X26938586Y-32177826D01*
X26929383Y-32166612D01*
X26861466Y-32064968D01*
X26861464Y-32064965D01*
X26736035Y-31939536D01*
X26714515Y-31925157D01*
X26588544Y-31840985D01*
X26424670Y-31773107D01*
X26424660Y-31773104D01*
X26296595Y-31747631D01*
X26250691Y-31738500D01*
X26073309Y-31738500D01*
X26027405Y-31747631D01*
X25899339Y-31773104D01*
X25899329Y-31773107D01*
X25735455Y-31840985D01*
X25587968Y-31939533D01*
X25462533Y-32064968D01*
X25363985Y-32212455D01*
X25296107Y-32376329D01*
X25296104Y-32376339D01*
X25261500Y-32550309D01*
X25261500Y-32588902D01*
X25239826Y-32641228D01*
X24862826Y-33018227D01*
X24810500Y-33039901D01*
X24758174Y-33018227D01*
X24744565Y-32999496D01*
X24744562Y-32999491D01*
X24680381Y-32873527D01*
X24652287Y-32818389D01*
X24571695Y-32707464D01*
X24531966Y-32652781D01*
X24387219Y-32508034D01*
X24323040Y-32461406D01*
X24221610Y-32387712D01*
X24049074Y-32299801D01*
X24039219Y-32294780D01*
X24039218Y-32294779D01*
X24039213Y-32294777D01*
X23844544Y-32231525D01*
X23844531Y-32231522D01*
X23642354Y-32199500D01*
X23642352Y-32199500D01*
X23437648Y-32199500D01*
X23437646Y-32199500D01*
X23235468Y-32231522D01*
X23235455Y-32231525D01*
X23040786Y-32294777D01*
X22858389Y-32387712D01*
X22700395Y-32502502D01*
X22692781Y-32508034D01*
X22548034Y-32652781D01*
X22548031Y-32652784D01*
X22548031Y-32652785D01*
X22427712Y-32818389D01*
X22335935Y-32998515D01*
X22292867Y-33035298D01*
X22236405Y-33030855D01*
X22204065Y-32998515D01*
X22112287Y-32818389D01*
X22031695Y-32707464D01*
X21991966Y-32652781D01*
X21847219Y-32508034D01*
X21783040Y-32461406D01*
X21681610Y-32387712D01*
X21509074Y-32299801D01*
X21499219Y-32294780D01*
X21499218Y-32294779D01*
X21499213Y-32294777D01*
X21304544Y-32231525D01*
X21304531Y-32231522D01*
X21102354Y-32199500D01*
X21102352Y-32199500D01*
X20897648Y-32199500D01*
X20897646Y-32199500D01*
X20695468Y-32231522D01*
X20695455Y-32231525D01*
X20500786Y-32294777D01*
X20318389Y-32387712D01*
X20160395Y-32502502D01*
X20152781Y-32508034D01*
X20008034Y-32652781D01*
X20008031Y-32652784D01*
X20008031Y-32652785D01*
X19887712Y-32818389D01*
X19794777Y-33000786D01*
X19731525Y-33195455D01*
X19731522Y-33195468D01*
X19699500Y-33397646D01*
X19699500Y-33602353D01*
X19731978Y-33807406D01*
X19730116Y-33807700D01*
X19722083Y-33858206D01*
X19676241Y-33891467D01*
X19659013Y-33893500D01*
X19112931Y-33893500D01*
X19081726Y-33899707D01*
X18987260Y-33918497D01*
X18987253Y-33918499D01*
X18886185Y-33960363D01*
X18829548Y-33960363D01*
X18789500Y-33920314D01*
X18787489Y-33869128D01*
X18808475Y-33804540D01*
X18808474Y-33804540D01*
X18808477Y-33804534D01*
X18840500Y-33602352D01*
X18840500Y-33397648D01*
X18840458Y-33397384D01*
X18808477Y-33195468D01*
X18808474Y-33195455D01*
X18745222Y-33000786D01*
X18745220Y-33000783D01*
X18745220Y-33000781D01*
X18680381Y-32873527D01*
X18652287Y-32818389D01*
X18571695Y-32707464D01*
X18531966Y-32652781D01*
X18387219Y-32508034D01*
X18323040Y-32461406D01*
X18221610Y-32387712D01*
X18049074Y-32299801D01*
X18039219Y-32294780D01*
X18039218Y-32294779D01*
X18039213Y-32294777D01*
X17844544Y-32231525D01*
X17844531Y-32231522D01*
X17642354Y-32199500D01*
X17642352Y-32199500D01*
X17437648Y-32199500D01*
X17437646Y-32199500D01*
X17235468Y-32231522D01*
X17235455Y-32231525D01*
X17040786Y-32294777D01*
X16858389Y-32387712D01*
X16700395Y-32502502D01*
X16692781Y-32508034D01*
X16548034Y-32652781D01*
X16548031Y-32652784D01*
X16548031Y-32652785D01*
X16427712Y-32818389D01*
X16335935Y-32998515D01*
X16292867Y-33035298D01*
X16236405Y-33030855D01*
X16204065Y-32998515D01*
X16112287Y-32818389D01*
X16031695Y-32707464D01*
X15991966Y-32652781D01*
X15847219Y-32508034D01*
X15783040Y-32461406D01*
X15681610Y-32387712D01*
X15509074Y-32299801D01*
X15499219Y-32294780D01*
X15499218Y-32294779D01*
X15499213Y-32294777D01*
X15304544Y-32231525D01*
X15304531Y-32231522D01*
X15102354Y-32199500D01*
X15102352Y-32199500D01*
X14897648Y-32199500D01*
X14897646Y-32199500D01*
X14695468Y-32231522D01*
X14695455Y-32231525D01*
X14500786Y-32294777D01*
X14318394Y-32387710D01*
X14162981Y-32500623D01*
X14107908Y-32513844D01*
X14067159Y-32493081D01*
X14030174Y-32456096D01*
X14008500Y-32403770D01*
X14008500Y-31925157D01*
X13977594Y-31769783D01*
X13976346Y-31767143D01*
X13968264Y-31747632D01*
X13943257Y-31687259D01*
X13917394Y-31624820D01*
X13917391Y-31624816D01*
X13915683Y-31621620D01*
X13917418Y-31620692D01*
X13907537Y-31571083D01*
X13938990Y-31523982D01*
X13980119Y-31511500D01*
X27369067Y-31511500D01*
X27369069Y-31511500D01*
X27494744Y-31486501D01*
X27613127Y-31437465D01*
X27621694Y-31431741D01*
X27719669Y-31366277D01*
X27937276Y-31148669D01*
X28008465Y-31042127D01*
X28057501Y-30923744D01*
X28061566Y-30903310D01*
X28082500Y-30798069D01*
X28082500Y-28890526D01*
X28104174Y-28838200D01*
X28142063Y-28817948D01*
X28202666Y-28805894D01*
X28366547Y-28738013D01*
X28514035Y-28639464D01*
X28639464Y-28514035D01*
X28738013Y-28366547D01*
X28805894Y-28202666D01*
X28840500Y-28028691D01*
X28840500Y-27851309D01*
X28805894Y-27677334D01*
X28770343Y-27591506D01*
X28738014Y-27513455D01*
X28713744Y-27477133D01*
X28639464Y-27365965D01*
X28514035Y-27240536D01*
X28500549Y-27231525D01*
X28366544Y-27141985D01*
X28202670Y-27074107D01*
X28202660Y-27074104D01*
X28086156Y-27050930D01*
X28028691Y-27039500D01*
X27851309Y-27039500D01*
X27801989Y-27049310D01*
X27677339Y-27074104D01*
X27677329Y-27074107D01*
X27513455Y-27141985D01*
X27365968Y-27240533D01*
X27365967Y-27240534D01*
X27365965Y-27240535D01*
X27365965Y-27240536D01*
X27240536Y-27365965D01*
X27240534Y-27365966D01*
X27240533Y-27365968D01*
X27141985Y-27513455D01*
X27074107Y-27677329D01*
X27074104Y-27677339D01*
X27039500Y-27851310D01*
X27039500Y-27889902D01*
X27017826Y-27942228D01*
X26926724Y-28033330D01*
X26926722Y-28033331D01*
X26872049Y-28115158D01*
X26855532Y-28139876D01*
X26855531Y-28139878D01*
X26837887Y-28182474D01*
X26797838Y-28222522D01*
X26746245Y-28224398D01*
X26702799Y-28210001D01*
X26673429Y-28207000D01*
X26600009Y-28199500D01*
X26600004Y-28199500D01*
X25399999Y-28199500D01*
X25399993Y-28199500D01*
X25399992Y-28199501D01*
X25348597Y-28204751D01*
X25297202Y-28210001D01*
X25130666Y-28265186D01*
X24981344Y-28357288D01*
X24857288Y-28481344D01*
X24765186Y-28630666D01*
X24710001Y-28797201D01*
X24699500Y-28899994D01*
X24699500Y-30100000D01*
X24699500Y-30100005D01*
X24699501Y-30100008D01*
X24700304Y-30107873D01*
X24702461Y-30128980D01*
X24686217Y-30183237D01*
X24636364Y-30210117D01*
X24628844Y-30210500D01*
X12242209Y-30210500D01*
X12189883Y-30188826D01*
X12168209Y-30136500D01*
X12176274Y-30102905D01*
X12208088Y-30040465D01*
X12238884Y-29980025D01*
X12258584Y-29919394D01*
X12299706Y-29792836D01*
X12299706Y-29792833D01*
X12299709Y-29792826D01*
X12330500Y-29598417D01*
X12330500Y-29401583D01*
X12321890Y-29347224D01*
X12317873Y-29321860D01*
X12299709Y-29207174D01*
X12299707Y-29207169D01*
X12299706Y-29207163D01*
X12238886Y-29019980D01*
X12238884Y-29019977D01*
X12238884Y-29019975D01*
X12149524Y-28844595D01*
X12066599Y-28730459D01*
X12033831Y-28685358D01*
X12033830Y-28685357D01*
X12033828Y-28685354D01*
X11894646Y-28546172D01*
X11894643Y-28546169D01*
X11894641Y-28546168D01*
X11805418Y-28481344D01*
X11735405Y-28430476D01*
X11670972Y-28397646D01*
X16199500Y-28397646D01*
X16199500Y-28602353D01*
X16231522Y-28804531D01*
X16231525Y-28804544D01*
X16294777Y-28999213D01*
X16387712Y-29181610D01*
X16422748Y-29229832D01*
X16508034Y-29347219D01*
X16652781Y-29491966D01*
X16702472Y-29528068D01*
X16818389Y-29612287D01*
X16899738Y-29653736D01*
X17000781Y-29705220D01*
X17000783Y-29705220D01*
X17000786Y-29705222D01*
X17195455Y-29768474D01*
X17195461Y-29768475D01*
X17195466Y-29768477D01*
X17271287Y-29780486D01*
X17397646Y-29800500D01*
X17397648Y-29800500D01*
X17602354Y-29800500D01*
X17683224Y-29787690D01*
X17804534Y-29768477D01*
X17804541Y-29768474D01*
X17804544Y-29768474D01*
X17999213Y-29705222D01*
X17999213Y-29705221D01*
X17999219Y-29705220D01*
X18181610Y-29612287D01*
X18347219Y-29491966D01*
X18491966Y-29347219D01*
X18612287Y-29181610D01*
X18705220Y-28999219D01*
X18708907Y-28987872D01*
X18768474Y-28804544D01*
X18768474Y-28804541D01*
X18768477Y-28804534D01*
X18793908Y-28643972D01*
X18800500Y-28602353D01*
X18800500Y-28397646D01*
X18768477Y-28195468D01*
X18768474Y-28195455D01*
X18705222Y-28000786D01*
X18705220Y-28000783D01*
X18705220Y-28000781D01*
X18646675Y-27885880D01*
X18612287Y-27818389D01*
X18532639Y-27708763D01*
X18491966Y-27652781D01*
X18347219Y-27508034D01*
X18283040Y-27461406D01*
X18181610Y-27387712D01*
X17999213Y-27294777D01*
X17804544Y-27231525D01*
X17804531Y-27231522D01*
X17602354Y-27199500D01*
X17602352Y-27199500D01*
X17397648Y-27199500D01*
X17397646Y-27199500D01*
X17195468Y-27231522D01*
X17195455Y-27231525D01*
X17000786Y-27294777D01*
X16818389Y-27387712D01*
X16652785Y-27508031D01*
X16652781Y-27508034D01*
X16508034Y-27652781D01*
X16508031Y-27652784D01*
X16508031Y-27652785D01*
X16387712Y-27818389D01*
X16294777Y-28000786D01*
X16231525Y-28195455D01*
X16231522Y-28195468D01*
X16199500Y-28397646D01*
X11670972Y-28397646D01*
X11560025Y-28341116D01*
X11560024Y-28341115D01*
X11560019Y-28341113D01*
X11397931Y-28288447D01*
X11368473Y-28270395D01*
X10416288Y-27318210D01*
X10381218Y-27294777D01*
X10285179Y-27230606D01*
X10285175Y-27230604D01*
X10285173Y-27230603D01*
X10285174Y-27230603D01*
X10139501Y-27170264D01*
X10139491Y-27170261D01*
X10035925Y-27149661D01*
X9984842Y-27139500D01*
X9984840Y-27139500D01*
X6074000Y-27139500D01*
X6021674Y-27117826D01*
X6000000Y-27065500D01*
X6000000Y-25542548D01*
X6021674Y-25490222D01*
X6092167Y-25419729D01*
X6092172Y-25419724D01*
X6217119Y-25247748D01*
X6266134Y-25151549D01*
X6309200Y-25114768D01*
X6365663Y-25119211D01*
X6398001Y-25151549D01*
X6409426Y-25173971D01*
X6447016Y-25247748D01*
X6507891Y-25331535D01*
X6571964Y-25419724D01*
X6722276Y-25570036D01*
X6884185Y-25687669D01*
X6894252Y-25694983D01*
X6894261Y-25694988D01*
X7083644Y-25791484D01*
X7083661Y-25791491D01*
X7179558Y-25822649D01*
X7222626Y-25859431D01*
X7229270Y-25878590D01*
X7262104Y-26043660D01*
X7262106Y-26043666D01*
X7329985Y-26207544D01*
X7426462Y-26351932D01*
X7428536Y-26355035D01*
X7553965Y-26480464D01*
X7701453Y-26579013D01*
X7701454Y-26579013D01*
X7701455Y-26579014D01*
X7773933Y-26609035D01*
X7865334Y-26646894D01*
X8039309Y-26681500D01*
X8039311Y-26681500D01*
X8216689Y-26681500D01*
X8216691Y-26681500D01*
X8390666Y-26646894D01*
X8437218Y-26627611D01*
X8493854Y-26627611D01*
X8573256Y-26660501D01*
X8573258Y-26660501D01*
X8573260Y-26660502D01*
X8607320Y-26667277D01*
X8698931Y-26685500D01*
X8698933Y-26685500D01*
X21654067Y-26685500D01*
X21654069Y-26685500D01*
X21779744Y-26660501D01*
X21898127Y-26611465D01*
X21906689Y-26605744D01*
X22004669Y-26540277D01*
X22218772Y-26326174D01*
X22271098Y-26304500D01*
X27115067Y-26304500D01*
X27115069Y-26304500D01*
X27240744Y-26279501D01*
X27359127Y-26230465D01*
X27359130Y-26230463D01*
X27363501Y-26227543D01*
X27419965Y-26189815D01*
X27465669Y-26159277D01*
X28227300Y-25397646D01*
X30199500Y-25397646D01*
X30199500Y-25602353D01*
X30231522Y-25804531D01*
X30231525Y-25804544D01*
X30294777Y-25999213D01*
X30387712Y-26181610D01*
X30425940Y-26234226D01*
X30508034Y-26347219D01*
X30652781Y-26491966D01*
X30731873Y-26549429D01*
X30818389Y-26612287D01*
X30886306Y-26646892D01*
X31000781Y-26705220D01*
X31000783Y-26705220D01*
X31000786Y-26705222D01*
X31195455Y-26768474D01*
X31195461Y-26768475D01*
X31195466Y-26768477D01*
X31296557Y-26784488D01*
X31397646Y-26800500D01*
X31397648Y-26800500D01*
X31602354Y-26800500D01*
X31698761Y-26785230D01*
X31804534Y-26768477D01*
X31804541Y-26768474D01*
X31804544Y-26768474D01*
X31999213Y-26705222D01*
X31999213Y-26705221D01*
X31999219Y-26705220D01*
X32181610Y-26612287D01*
X32347219Y-26491966D01*
X32491966Y-26347219D01*
X32612287Y-26181610D01*
X32705220Y-25999219D01*
X32723051Y-25944342D01*
X32768474Y-25804544D01*
X32768474Y-25804541D01*
X32768477Y-25804534D01*
X32798388Y-25615689D01*
X32800500Y-25602353D01*
X32800500Y-25397646D01*
X32779647Y-25265990D01*
X32768477Y-25195466D01*
X32768475Y-25195461D01*
X32768474Y-25195455D01*
X32705222Y-25000786D01*
X32705220Y-25000783D01*
X32705220Y-25000781D01*
X32653362Y-24899004D01*
X32612287Y-24818389D01*
X32527910Y-24702254D01*
X32491966Y-24652781D01*
X32347219Y-24508034D01*
X32257064Y-24442533D01*
X32181610Y-24387712D01*
X31999213Y-24294777D01*
X31804544Y-24231525D01*
X31804531Y-24231522D01*
X31602354Y-24199500D01*
X31602352Y-24199500D01*
X31397648Y-24199500D01*
X31397646Y-24199500D01*
X31195468Y-24231522D01*
X31195455Y-24231525D01*
X31000786Y-24294777D01*
X30818389Y-24387712D01*
X30696744Y-24476093D01*
X30652781Y-24508034D01*
X30508034Y-24652781D01*
X30508031Y-24652784D01*
X30508031Y-24652785D01*
X30387712Y-24818389D01*
X30294777Y-25000786D01*
X30231525Y-25195455D01*
X30231522Y-25195468D01*
X30199500Y-25397646D01*
X28227300Y-25397646D01*
X30731772Y-22893174D01*
X30784098Y-22871500D01*
X30822689Y-22871500D01*
X30822691Y-22871500D01*
X30996666Y-22836894D01*
X31160547Y-22769013D01*
X31308035Y-22670464D01*
X31433464Y-22545035D01*
X31532013Y-22397547D01*
X31599894Y-22233666D01*
X31634500Y-22059691D01*
X31634500Y-21882309D01*
X31599894Y-21708334D01*
X31559300Y-21610331D01*
X31532014Y-21544455D01*
X31526399Y-21536052D01*
X31433464Y-21396965D01*
X31308035Y-21271536D01*
X31307954Y-21271482D01*
X31160544Y-21172985D01*
X30996670Y-21105107D01*
X30996660Y-21105104D01*
X30869304Y-21079772D01*
X30822691Y-21070500D01*
X30645309Y-21070500D01*
X30598696Y-21079772D01*
X30471339Y-21105104D01*
X30471329Y-21105107D01*
X30307455Y-21172985D01*
X30159968Y-21271533D01*
X30034533Y-21396968D01*
X29935985Y-21544455D01*
X29868107Y-21708329D01*
X29868104Y-21708339D01*
X29833500Y-21882310D01*
X29833500Y-21920902D01*
X29811826Y-21973228D01*
X26803228Y-24981826D01*
X26750902Y-25003500D01*
X21906931Y-25003500D01*
X21876763Y-25009501D01*
X21781260Y-25028497D01*
X21781253Y-25028499D01*
X21754885Y-25039422D01*
X21698248Y-25039422D01*
X21658200Y-24999373D01*
X21652567Y-24971055D01*
X21652567Y-23642058D01*
X21648744Y-23606500D01*
X21646159Y-23582449D01*
X21639079Y-23563466D01*
X21595865Y-23447602D01*
X21595864Y-23447601D01*
X21509614Y-23332386D01*
X21394399Y-23246136D01*
X21394398Y-23246135D01*
X21394397Y-23246134D01*
X21259555Y-23195842D01*
X21259552Y-23195841D01*
X21259551Y-23195841D01*
X21199941Y-23189432D01*
X19404194Y-23189432D01*
X19344582Y-23195841D01*
X19209738Y-23246134D01*
X19209737Y-23246135D01*
X19094522Y-23332386D01*
X19008271Y-23447601D01*
X19008270Y-23447602D01*
X18957978Y-23582444D01*
X18957977Y-23582449D01*
X18954231Y-23617295D01*
X18951568Y-23642059D01*
X18951568Y-24508039D01*
X18951569Y-25310500D01*
X18929895Y-25362826D01*
X18877569Y-25384500D01*
X16422996Y-25384500D01*
X16370670Y-25362826D01*
X16348996Y-25310500D01*
X16363129Y-25267004D01*
X16377119Y-25247748D01*
X16394040Y-25214539D01*
X16473625Y-25058344D01*
X16492327Y-25000786D01*
X16539311Y-24856185D01*
X16539311Y-24856182D01*
X16539314Y-24856175D01*
X16572568Y-24646219D01*
X16572568Y-24433645D01*
X16566209Y-24393499D01*
X16550573Y-24294777D01*
X16539314Y-24223689D01*
X16539312Y-24223684D01*
X16539311Y-24223678D01*
X16473627Y-24021525D01*
X16473625Y-24021522D01*
X16473625Y-24021520D01*
X16416388Y-23909185D01*
X16377119Y-23832115D01*
X16318695Y-23751702D01*
X16252172Y-23660140D01*
X16101860Y-23509828D01*
X16016213Y-23447602D01*
X15929884Y-23384880D01*
X15740474Y-23288372D01*
X15538321Y-23222688D01*
X15538308Y-23222685D01*
X15328357Y-23189432D01*
X15328355Y-23189432D01*
X15115781Y-23189432D01*
X15115779Y-23189432D01*
X14905827Y-23222685D01*
X14905814Y-23222688D01*
X14703661Y-23288372D01*
X14514251Y-23384880D01*
X14342280Y-23509825D01*
X14342276Y-23509828D01*
X14191964Y-23660140D01*
X14191961Y-23660143D01*
X14191961Y-23660144D01*
X14067016Y-23832115D01*
X14018003Y-23928312D01*
X13974936Y-23965095D01*
X13918473Y-23960652D01*
X13886133Y-23928312D01*
X13876387Y-23909185D01*
X13870899Y-23898414D01*
X13837119Y-23832115D01*
X13778695Y-23751702D01*
X13712172Y-23660140D01*
X13561860Y-23509828D01*
X13476213Y-23447602D01*
X13389884Y-23384880D01*
X13200474Y-23288372D01*
X12998321Y-23222688D01*
X12998308Y-23222685D01*
X12788357Y-23189432D01*
X12788355Y-23189432D01*
X12575781Y-23189432D01*
X12575779Y-23189432D01*
X12365827Y-23222685D01*
X12365814Y-23222688D01*
X12163661Y-23288372D01*
X11974251Y-23384880D01*
X11802280Y-23509825D01*
X11802276Y-23509828D01*
X11651964Y-23660140D01*
X11651961Y-23660143D01*
X11651961Y-23660144D01*
X11527016Y-23832115D01*
X11478003Y-23928312D01*
X11434936Y-23965095D01*
X11378473Y-23960652D01*
X11346133Y-23928312D01*
X11336387Y-23909185D01*
X11330899Y-23898414D01*
X11297119Y-23832115D01*
X11238695Y-23751702D01*
X11172172Y-23660140D01*
X11021860Y-23509828D01*
X10936213Y-23447602D01*
X10849884Y-23384880D01*
X10660474Y-23288372D01*
X10458321Y-23222688D01*
X10458308Y-23222685D01*
X10248357Y-23189432D01*
X10248355Y-23189432D01*
X10035781Y-23189432D01*
X10035779Y-23189432D01*
X9825827Y-23222685D01*
X9825814Y-23222688D01*
X9623661Y-23288372D01*
X9434251Y-23384880D01*
X9262280Y-23509825D01*
X9262276Y-23509828D01*
X9111964Y-23660140D01*
X9111961Y-23660143D01*
X9111961Y-23660144D01*
X8987016Y-23832115D01*
X8938003Y-23928312D01*
X8894936Y-23965095D01*
X8838473Y-23960652D01*
X8806133Y-23928312D01*
X8796387Y-23909185D01*
X8790899Y-23898414D01*
X8757119Y-23832115D01*
X8698695Y-23751702D01*
X8632172Y-23660140D01*
X8481860Y-23509828D01*
X8396213Y-23447602D01*
X8309884Y-23384880D01*
X8120474Y-23288372D01*
X7918321Y-23222688D01*
X7918308Y-23222685D01*
X7708357Y-23189432D01*
X7708355Y-23189432D01*
X7495781Y-23189432D01*
X7495778Y-23189432D01*
X7465948Y-23194156D01*
X7410876Y-23180933D01*
X7381284Y-23132642D01*
X7394507Y-23077570D01*
X7417274Y-23057739D01*
X7417104Y-23057485D01*
X7419092Y-23056156D01*
X7419505Y-23055797D01*
X7420123Y-23055466D01*
X7420127Y-23055465D01*
X7480732Y-23014971D01*
X7521844Y-23002500D01*
X26480067Y-23002500D01*
X26480069Y-23002500D01*
X26605744Y-22977501D01*
X26724127Y-22928465D01*
X26733307Y-22922331D01*
X26830669Y-22857277D01*
X29076772Y-20611174D01*
X29129098Y-20589500D01*
X33973067Y-20589500D01*
X33973069Y-20589500D01*
X34098744Y-20564501D01*
X34217127Y-20515465D01*
X34262259Y-20485309D01*
X34323669Y-20444277D01*
X35172657Y-19595288D01*
X35224982Y-19573615D01*
X35277308Y-19595289D01*
G37*
G04 #@! TD.AperFunction*
G04 #@! TA.AperFunction,Conductor*
G36*
X7376825Y-29979582D02*
G01*
X7390434Y-29998313D01*
X7470475Y-30155404D01*
X7577224Y-30302331D01*
X7586172Y-30314646D01*
X7725354Y-30453828D01*
X7725357Y-30453830D01*
X7725358Y-30453831D01*
X7884595Y-30569524D01*
X7884594Y-30569524D01*
X8059973Y-30658883D01*
X8059977Y-30658885D01*
X8125662Y-30680227D01*
X8168729Y-30717009D01*
X8173173Y-30773472D01*
X8155121Y-30802931D01*
X5594228Y-33363826D01*
X5541902Y-33385500D01*
X4888931Y-33385500D01*
X4857726Y-33391707D01*
X4763260Y-33410497D01*
X4763253Y-33410499D01*
X4689818Y-33440917D01*
X4633181Y-33440917D01*
X4593133Y-33400868D01*
X4587500Y-33372550D01*
X4587500Y-32431097D01*
X4609173Y-32378772D01*
X4714679Y-32273266D01*
X4767003Y-32251593D01*
X4781431Y-32253014D01*
X4864309Y-32269500D01*
X4864311Y-32269500D01*
X5041689Y-32269500D01*
X5041691Y-32269500D01*
X5215666Y-32234894D01*
X5379547Y-32167013D01*
X5527035Y-32068464D01*
X5652464Y-31943035D01*
X5751013Y-31795547D01*
X5818894Y-31631666D01*
X5853500Y-31457691D01*
X5853500Y-31280309D01*
X5818894Y-31106334D01*
X5800065Y-31060876D01*
X5751015Y-30942457D01*
X5751014Y-30942455D01*
X5751013Y-30942453D01*
X5699667Y-30865609D01*
X5688619Y-30810063D01*
X5720084Y-30762970D01*
X5761197Y-30750499D01*
X6797872Y-30750499D01*
X6857483Y-30744091D01*
X6930094Y-30717009D01*
X6992329Y-30693797D01*
X6992329Y-30693796D01*
X6992331Y-30693796D01*
X7107546Y-30607546D01*
X7193796Y-30492331D01*
X7194853Y-30489499D01*
X7222457Y-30415486D01*
X7244091Y-30357483D01*
X7250500Y-30297873D01*
X7250499Y-30031905D01*
X7272173Y-29979582D01*
X7324499Y-29957908D01*
X7376825Y-29979582D01*
G37*
G04 #@! TD.AperFunction*
G04 #@! TA.AperFunction,Conductor*
G36*
X6102316Y-11396501D02*
G01*
X6160256Y-11420501D01*
X6160258Y-11420501D01*
X6160260Y-11420502D01*
X6202903Y-11428984D01*
X6285931Y-11445500D01*
X7954902Y-11445500D01*
X8007228Y-11467174D01*
X15460330Y-18920276D01*
X15521741Y-18961309D01*
X15566873Y-18991465D01*
X15685256Y-19040501D01*
X15685258Y-19040501D01*
X15685260Y-19040502D01*
X15727903Y-19048984D01*
X15810931Y-19065500D01*
X16336902Y-19065500D01*
X16389228Y-19087174D01*
X17746330Y-20444276D01*
X17807741Y-20485309D01*
X17852873Y-20515465D01*
X17971256Y-20564501D01*
X17971258Y-20564501D01*
X17971260Y-20564502D01*
X18005039Y-20571221D01*
X18096931Y-20589500D01*
X20400902Y-20589500D01*
X20453228Y-20611174D01*
X20921826Y-21079772D01*
X20943500Y-21132098D01*
X20943500Y-21170691D01*
X20943957Y-21172987D01*
X20978104Y-21344660D01*
X20978107Y-21344670D01*
X21045985Y-21508544D01*
X21097999Y-21586388D01*
X21109048Y-21641937D01*
X21077582Y-21689029D01*
X21036470Y-21701500D01*
X7174931Y-21701500D01*
X7053444Y-21725666D01*
X7053442Y-21725666D01*
X7049264Y-21726496D01*
X7049255Y-21726499D01*
X6930874Y-21775534D01*
X6930872Y-21775535D01*
X6834456Y-21839957D01*
X6807790Y-21851004D01*
X6795263Y-21853497D01*
X6795255Y-21853499D01*
X6676876Y-21902533D01*
X6676873Y-21902534D01*
X6676873Y-21902535D01*
X6616268Y-21943029D01*
X6575158Y-21955500D01*
X6539931Y-21955500D01*
X6508726Y-21961707D01*
X6414260Y-21980497D01*
X6414257Y-21980498D01*
X6295874Y-22029534D01*
X6295872Y-22029535D01*
X6199456Y-22093957D01*
X6172790Y-22105004D01*
X6160263Y-22107497D01*
X6160251Y-22107500D01*
X6102318Y-22131497D01*
X6045681Y-22131497D01*
X6005633Y-22091448D01*
X6000000Y-22063130D01*
X6000000Y-19207597D01*
X6021674Y-19155271D01*
X6089772Y-19087174D01*
X6142098Y-19065500D01*
X8319067Y-19065500D01*
X8319069Y-19065500D01*
X8444744Y-19040501D01*
X8563127Y-18991465D01*
X8608259Y-18961309D01*
X8669669Y-18920277D01*
X8887276Y-18702669D01*
X8958465Y-18596127D01*
X9007501Y-18477744D01*
X9017152Y-18429225D01*
X9032500Y-18352069D01*
X9032500Y-15683931D01*
X9020168Y-15621939D01*
X9007502Y-15558260D01*
X9007501Y-15558257D01*
X9001636Y-15544098D01*
X8958465Y-15439873D01*
X8887276Y-15333331D01*
X8796669Y-15242724D01*
X6768174Y-13214228D01*
X6746500Y-13161902D01*
X6746500Y-13016932D01*
X6740741Y-12987982D01*
X6721501Y-12891256D01*
X6672465Y-12772873D01*
X6626178Y-12703599D01*
X6601276Y-12666330D01*
X6021674Y-12086728D01*
X6000000Y-12034402D01*
X6000000Y-11464869D01*
X6021674Y-11412543D01*
X6074000Y-11390869D01*
X6102316Y-11396501D01*
G37*
G04 #@! TD.AperFunction*
G04 #@! TA.AperFunction,Conductor*
G36*
X28049618Y-5984574D02*
G01*
X28060830Y-5993775D01*
X28704724Y-6637669D01*
X28795331Y-6728276D01*
X28901873Y-6799465D01*
X29020256Y-6848501D01*
X29020258Y-6848501D01*
X29020260Y-6848502D01*
X29056105Y-6855632D01*
X29145931Y-6873500D01*
X30493902Y-6873500D01*
X30546228Y-6895174D01*
X30567902Y-6947500D01*
X30559837Y-6981095D01*
X30498440Y-7101593D01*
X30432756Y-7303746D01*
X30432753Y-7303759D01*
X30399500Y-7513711D01*
X30399500Y-7726288D01*
X30432753Y-7936240D01*
X30432756Y-7936253D01*
X30498440Y-8138406D01*
X30594948Y-8327816D01*
X30638466Y-8387713D01*
X30719896Y-8499792D01*
X30719901Y-8499797D01*
X30870209Y-8650105D01*
X30873898Y-8652785D01*
X30955857Y-8712331D01*
X30969495Y-8722239D01*
X30999089Y-8770530D01*
X31000000Y-8782107D01*
X31000000Y-13500000D01*
X32000000Y-13500000D01*
X32000000Y-10995436D01*
X41279500Y-10995436D01*
X41279500Y-11244563D01*
X41312016Y-11491558D01*
X41376497Y-11732205D01*
X41471834Y-11962369D01*
X41471835Y-11962372D01*
X41596398Y-12178123D01*
X41596402Y-12178129D01*
X41730331Y-12352668D01*
X41748062Y-12375776D01*
X41924224Y-12551938D01*
X42121873Y-12703599D01*
X42337627Y-12828164D01*
X42567793Y-12923502D01*
X42808435Y-12987982D01*
X42808441Y-12987982D01*
X42808442Y-12987983D01*
X42808441Y-12987983D01*
X42918056Y-13002413D01*
X43055435Y-13020500D01*
X43055437Y-13020500D01*
X43304563Y-13020500D01*
X43304565Y-13020500D01*
X43494867Y-12995446D01*
X43551558Y-12987983D01*
X43551558Y-12987982D01*
X43551565Y-12987982D01*
X43792207Y-12923502D01*
X44022373Y-12828164D01*
X44238127Y-12703599D01*
X44435776Y-12551938D01*
X44611938Y-12375776D01*
X44763599Y-12178127D01*
X44888164Y-11962373D01*
X44983502Y-11732207D01*
X45047982Y-11491565D01*
X45080500Y-11244565D01*
X45080500Y-10995435D01*
X45061196Y-10848805D01*
X45047983Y-10748441D01*
X45047982Y-10748439D01*
X45047982Y-10748435D01*
X44983502Y-10507793D01*
X44888164Y-10277627D01*
X44834732Y-10185080D01*
X44763601Y-10061876D01*
X44763597Y-10061870D01*
X44611937Y-9864223D01*
X44435776Y-9688062D01*
X44238129Y-9536402D01*
X44238123Y-9536398D01*
X44022372Y-9411835D01*
X44022369Y-9411834D01*
X43792205Y-9316497D01*
X43608422Y-9267252D01*
X43551565Y-9252018D01*
X43551563Y-9252017D01*
X43551557Y-9252016D01*
X43551558Y-9252016D01*
X43353033Y-9225880D01*
X43304565Y-9219500D01*
X43055435Y-9219500D01*
X43011297Y-9225310D01*
X42808441Y-9252016D01*
X42567794Y-9316497D01*
X42337630Y-9411834D01*
X42337627Y-9411835D01*
X42121876Y-9536398D01*
X42121870Y-9536402D01*
X41924223Y-9688062D01*
X41748062Y-9864223D01*
X41596402Y-10061870D01*
X41596398Y-10061876D01*
X41471835Y-10277627D01*
X41471834Y-10277630D01*
X41376497Y-10507794D01*
X41312016Y-10748441D01*
X41282690Y-10971200D01*
X41280709Y-10986256D01*
X41279500Y-10995436D01*
X32000000Y-10995436D01*
X32000000Y-9010939D01*
X32021674Y-8958613D01*
X32062427Y-8937850D01*
X32066243Y-8937246D01*
X32066248Y-8937244D01*
X32066250Y-8937244D01*
X32268406Y-8871559D01*
X32268406Y-8871558D01*
X32268412Y-8871557D01*
X32457816Y-8775051D01*
X32629792Y-8650104D01*
X32780104Y-8499792D01*
X32905051Y-8327816D01*
X32954066Y-8231617D01*
X32997132Y-8194836D01*
X33053595Y-8199279D01*
X33085933Y-8231617D01*
X33106768Y-8272508D01*
X33134948Y-8327816D01*
X33178466Y-8387713D01*
X33259896Y-8499792D01*
X33410208Y-8650104D01*
X33495854Y-8712329D01*
X33582183Y-8775051D01*
X33667240Y-8818389D01*
X33771588Y-8871557D01*
X33771590Y-8871557D01*
X33771593Y-8871559D01*
X33973746Y-8937243D01*
X33973752Y-8937244D01*
X33973757Y-8937246D01*
X34078735Y-8953873D01*
X34183711Y-8970500D01*
X34183713Y-8970500D01*
X34396289Y-8970500D01*
X34480269Y-8957198D01*
X34606243Y-8937246D01*
X34606250Y-8937243D01*
X34606253Y-8937243D01*
X34808406Y-8871559D01*
X34808406Y-8871558D01*
X34808412Y-8871557D01*
X34997816Y-8775051D01*
X35169792Y-8650104D01*
X35320104Y-8499792D01*
X35445051Y-8327816D01*
X35494066Y-8231617D01*
X35537132Y-8194836D01*
X35593595Y-8199279D01*
X35625933Y-8231617D01*
X35646768Y-8272508D01*
X35674948Y-8327816D01*
X35718466Y-8387713D01*
X35799896Y-8499792D01*
X35950208Y-8650104D01*
X36035854Y-8712329D01*
X36122183Y-8775051D01*
X36207240Y-8818389D01*
X36311588Y-8871557D01*
X36311590Y-8871557D01*
X36311593Y-8871559D01*
X36513746Y-8937243D01*
X36513752Y-8937244D01*
X36513757Y-8937246D01*
X36618735Y-8953873D01*
X36723711Y-8970500D01*
X36723713Y-8970500D01*
X36936289Y-8970500D01*
X37020269Y-8957198D01*
X37146243Y-8937246D01*
X37146250Y-8937243D01*
X37146253Y-8937243D01*
X37348406Y-8871559D01*
X37348406Y-8871558D01*
X37348412Y-8871557D01*
X37537816Y-8775051D01*
X37709792Y-8650104D01*
X37860104Y-8499792D01*
X37985051Y-8327816D01*
X38034066Y-8231617D01*
X38077132Y-8194836D01*
X38133595Y-8199279D01*
X38165933Y-8231617D01*
X38186768Y-8272508D01*
X38214948Y-8327816D01*
X38258466Y-8387713D01*
X38339896Y-8499792D01*
X38490208Y-8650104D01*
X38575854Y-8712329D01*
X38662183Y-8775051D01*
X38747240Y-8818389D01*
X38851588Y-8871557D01*
X38851590Y-8871557D01*
X38851593Y-8871559D01*
X39053746Y-8937243D01*
X39053752Y-8937244D01*
X39053757Y-8937246D01*
X39158735Y-8953873D01*
X39263711Y-8970500D01*
X39263713Y-8970500D01*
X39476289Y-8970500D01*
X39560269Y-8957198D01*
X39686243Y-8937246D01*
X39686250Y-8937243D01*
X39686253Y-8937243D01*
X39888406Y-8871559D01*
X39888406Y-8871558D01*
X39888412Y-8871557D01*
X40077816Y-8775051D01*
X40249792Y-8650104D01*
X40400104Y-8499792D01*
X40525051Y-8327816D01*
X40574066Y-8231617D01*
X40617132Y-8194836D01*
X40673595Y-8199279D01*
X40705933Y-8231617D01*
X40726768Y-8272508D01*
X40754948Y-8327816D01*
X40798466Y-8387713D01*
X40879896Y-8499792D01*
X41030208Y-8650104D01*
X41115854Y-8712329D01*
X41202183Y-8775051D01*
X41287240Y-8818389D01*
X41391588Y-8871557D01*
X41391590Y-8871557D01*
X41391593Y-8871559D01*
X41593746Y-8937243D01*
X41593752Y-8937244D01*
X41593757Y-8937246D01*
X41698735Y-8953873D01*
X41803711Y-8970500D01*
X41803713Y-8970500D01*
X42016289Y-8970500D01*
X42100269Y-8957198D01*
X42226243Y-8937246D01*
X42226250Y-8937243D01*
X42226253Y-8937243D01*
X42428406Y-8871559D01*
X42428406Y-8871558D01*
X42428412Y-8871557D01*
X42617816Y-8775051D01*
X42789792Y-8650104D01*
X42940104Y-8499792D01*
X43065051Y-8327816D01*
X43161557Y-8138412D01*
X43227246Y-7936243D01*
X43260500Y-7726287D01*
X43260500Y-7513713D01*
X43227246Y-7303757D01*
X43227244Y-7303752D01*
X43227243Y-7303746D01*
X43161559Y-7101593D01*
X43161557Y-7101590D01*
X43161557Y-7101588D01*
X43103570Y-6987781D01*
X43100163Y-6981095D01*
X43095720Y-6924632D01*
X43132503Y-6881565D01*
X43166098Y-6873500D01*
X45733902Y-6873500D01*
X45786228Y-6895174D01*
X45807902Y-6947500D01*
X45799837Y-6981095D01*
X45738440Y-7101593D01*
X45672756Y-7303746D01*
X45672753Y-7303759D01*
X45639500Y-7513711D01*
X45639500Y-7726288D01*
X45672753Y-7936240D01*
X45672756Y-7936253D01*
X45738440Y-8138406D01*
X45834948Y-8327816D01*
X45878466Y-8387713D01*
X45959896Y-8499792D01*
X46110208Y-8650104D01*
X46195854Y-8712329D01*
X46282183Y-8775051D01*
X46367240Y-8818389D01*
X46471588Y-8871557D01*
X46471590Y-8871557D01*
X46471593Y-8871559D01*
X46673746Y-8937243D01*
X46673752Y-8937244D01*
X46673757Y-8937246D01*
X46778735Y-8953873D01*
X46883711Y-8970500D01*
X46883713Y-8970500D01*
X47096289Y-8970500D01*
X47180269Y-8957198D01*
X47306243Y-8937246D01*
X47306250Y-8937243D01*
X47306253Y-8937243D01*
X47508406Y-8871559D01*
X47508406Y-8871558D01*
X47508412Y-8871557D01*
X47697816Y-8775051D01*
X47869792Y-8650104D01*
X48020104Y-8499792D01*
X48145051Y-8327816D01*
X48241557Y-8138412D01*
X48307246Y-7936243D01*
X48340500Y-7726287D01*
X48340500Y-7513713D01*
X48307246Y-7303757D01*
X48307244Y-7303752D01*
X48307243Y-7303746D01*
X48241559Y-7101593D01*
X48241557Y-7101590D01*
X48241557Y-7101588D01*
X48183570Y-6987781D01*
X48180163Y-6981095D01*
X48175720Y-6924632D01*
X48212503Y-6881565D01*
X48246098Y-6873500D01*
X50645500Y-6873500D01*
X50697826Y-6895174D01*
X50719500Y-6947500D01*
X50719500Y-8517873D01*
X50725909Y-8577485D01*
X50776202Y-8712329D01*
X50776203Y-8712330D01*
X50776204Y-8712331D01*
X50862454Y-8827546D01*
X50921248Y-8871559D01*
X50977669Y-8913796D01*
X50977670Y-8913797D01*
X51088605Y-8955172D01*
X51112517Y-8964091D01*
X51172127Y-8970500D01*
X52742500Y-8970499D01*
X52794826Y-8992173D01*
X52816500Y-9044499D01*
X52816500Y-9716068D01*
X52836858Y-9818412D01*
X52836858Y-9818413D01*
X52841497Y-9841737D01*
X52841499Y-9841744D01*
X52890535Y-9960127D01*
X52961722Y-10066668D01*
X54318826Y-11423772D01*
X54340500Y-11476098D01*
X54340500Y-13426000D01*
X54318826Y-13478326D01*
X54266500Y-13500000D01*
X35000000Y-13500000D01*
X35000000Y-14500000D01*
X54824402Y-14500000D01*
X54876728Y-14521674D01*
X55846826Y-15491772D01*
X55868500Y-15544098D01*
X55868500Y-15582689D01*
X55903104Y-15756660D01*
X55903107Y-15756670D01*
X55970985Y-15920544D01*
X56022999Y-15998388D01*
X56034048Y-16053937D01*
X56002582Y-16101029D01*
X55961470Y-16113500D01*
X37019931Y-16113500D01*
X36988726Y-16119707D01*
X36894260Y-16138497D01*
X36894257Y-16138498D01*
X36775872Y-16187535D01*
X36669331Y-16258722D01*
X36669330Y-16258724D01*
X33661228Y-19266826D01*
X33608902Y-19288500D01*
X28764931Y-19288500D01*
X28643444Y-19312666D01*
X28643442Y-19312666D01*
X28639264Y-19313496D01*
X28639255Y-19313499D01*
X28520872Y-19362535D01*
X28414330Y-19433723D01*
X26601085Y-21246968D01*
X26548759Y-21268642D01*
X26496433Y-21246968D01*
X26474759Y-21194642D01*
X26475670Y-21183066D01*
X26503271Y-21008803D01*
X26503271Y-20796226D01*
X26483680Y-20672538D01*
X26470017Y-20586272D01*
X26470015Y-20586267D01*
X26470014Y-20586261D01*
X26404330Y-20384108D01*
X26404328Y-20384105D01*
X26404328Y-20384103D01*
X26324649Y-20227723D01*
X26307822Y-20194698D01*
X26252222Y-20118171D01*
X26182875Y-20022723D01*
X26032563Y-19872411D01*
X25965917Y-19823990D01*
X25860587Y-19747463D01*
X25671177Y-19650955D01*
X25469024Y-19585271D01*
X25469011Y-19585268D01*
X25259060Y-19552015D01*
X25259058Y-19552015D01*
X25046484Y-19552015D01*
X25046482Y-19552015D01*
X24836530Y-19585268D01*
X24836517Y-19585271D01*
X24634364Y-19650955D01*
X24444954Y-19747463D01*
X24272983Y-19872408D01*
X24272979Y-19872411D01*
X24122667Y-20022723D01*
X24122664Y-20022726D01*
X24122664Y-20022727D01*
X23997719Y-20194698D01*
X23901211Y-20384108D01*
X23835527Y-20586261D01*
X23835524Y-20586274D01*
X23802271Y-20796226D01*
X23802271Y-21008803D01*
X23835524Y-21218755D01*
X23835527Y-21218768D01*
X23901211Y-21420921D01*
X23989350Y-21593905D01*
X23993793Y-21650368D01*
X23957010Y-21693435D01*
X23923415Y-21701500D01*
X22651530Y-21701500D01*
X22599204Y-21679826D01*
X22577530Y-21627500D01*
X22590001Y-21586388D01*
X22606605Y-21561538D01*
X22642013Y-21508547D01*
X22709894Y-21344666D01*
X22744500Y-21170691D01*
X22744500Y-20993309D01*
X22709894Y-20819334D01*
X22700323Y-20796228D01*
X22642014Y-20655455D01*
X22612426Y-20611174D01*
X22543464Y-20507965D01*
X22418035Y-20382536D01*
X22413786Y-20379697D01*
X22270544Y-20283985D01*
X22106670Y-20216107D01*
X22106660Y-20216104D01*
X21990156Y-20192930D01*
X21932691Y-20181500D01*
X21932689Y-20181500D01*
X21894098Y-20181500D01*
X21841772Y-20159826D01*
X21115668Y-19433722D01*
X21009127Y-19362535D01*
X20890744Y-19313499D01*
X20890742Y-19313498D01*
X20888236Y-19313000D01*
X20886558Y-19312666D01*
X20886556Y-19312665D01*
X20886556Y-19312666D01*
X20765069Y-19288500D01*
X20765067Y-19288500D01*
X18461098Y-19288500D01*
X18408772Y-19266826D01*
X17509081Y-18367135D01*
X17487407Y-18314809D01*
X17509081Y-18262483D01*
X17538540Y-18244431D01*
X17659213Y-18205222D01*
X17659213Y-18205221D01*
X17659219Y-18205220D01*
X17841610Y-18112287D01*
X18007219Y-17991966D01*
X18151966Y-17847219D01*
X18272287Y-17681610D01*
X18365220Y-17499219D01*
X18385705Y-17436174D01*
X18428474Y-17304544D01*
X18428474Y-17304541D01*
X18428477Y-17304534D01*
X18460500Y-17102352D01*
X18460500Y-16897648D01*
X18449542Y-16828466D01*
X18429561Y-16702312D01*
X18428477Y-16695466D01*
X18428475Y-16695461D01*
X18428474Y-16695455D01*
X18365222Y-16500786D01*
X18365220Y-16500783D01*
X18365220Y-16500781D01*
X18309620Y-16391660D01*
X18272287Y-16318389D01*
X18193868Y-16210455D01*
X18151966Y-16152781D01*
X18007219Y-16008034D01*
X17910186Y-15937536D01*
X17841610Y-15887712D01*
X17659213Y-15794777D01*
X17464544Y-15731525D01*
X17464531Y-15731522D01*
X17262354Y-15699500D01*
X17262352Y-15699500D01*
X17057648Y-15699500D01*
X17057646Y-15699500D01*
X16855468Y-15731522D01*
X16855455Y-15731525D01*
X16660786Y-15794777D01*
X16478389Y-15887712D01*
X16323839Y-16000000D01*
X16312781Y-16008034D01*
X16168034Y-16152781D01*
X16168031Y-16152784D01*
X16168031Y-16152785D01*
X16047712Y-16318389D01*
X15954777Y-16500786D01*
X15891525Y-16695455D01*
X15891522Y-16695468D01*
X15859500Y-16897646D01*
X15859500Y-17102353D01*
X15891522Y-17304531D01*
X15891525Y-17304544D01*
X15895924Y-17318081D01*
X15891480Y-17374544D01*
X15848413Y-17411326D01*
X15791950Y-17406882D01*
X15773220Y-17393274D01*
X8669669Y-10289723D01*
X8666674Y-10287722D01*
X8635209Y-10240629D01*
X8646260Y-10185080D01*
X8648452Y-10182186D01*
X8648395Y-10182144D01*
X8650108Y-10179787D01*
X8775051Y-10007816D01*
X8824066Y-9911617D01*
X8867132Y-9874836D01*
X8923595Y-9879279D01*
X8955933Y-9911617D01*
X8976768Y-9952508D01*
X9004948Y-10007816D01*
X9081475Y-10113146D01*
X9129896Y-10179792D01*
X9280208Y-10330104D01*
X9365854Y-10392329D01*
X9452183Y-10455051D01*
X9505720Y-10482329D01*
X9641588Y-10551557D01*
X9641590Y-10551557D01*
X9641593Y-10551559D01*
X9843746Y-10617243D01*
X9843752Y-10617244D01*
X9843757Y-10617246D01*
X9948735Y-10633873D01*
X10053711Y-10650500D01*
X10053713Y-10650500D01*
X10266289Y-10650500D01*
X10356409Y-10636226D01*
X10476243Y-10617246D01*
X10476250Y-10617243D01*
X10476253Y-10617243D01*
X10678406Y-10551559D01*
X10678406Y-10551558D01*
X10678412Y-10551557D01*
X10867816Y-10455051D01*
X11039792Y-10330104D01*
X11190104Y-10179792D01*
X11315051Y-10007816D01*
X11364066Y-9911617D01*
X11407132Y-9874836D01*
X11463595Y-9879279D01*
X11495933Y-9911617D01*
X11516768Y-9952508D01*
X11544948Y-10007816D01*
X11621475Y-10113146D01*
X11669896Y-10179792D01*
X11820208Y-10330104D01*
X11905854Y-10392329D01*
X11992183Y-10455051D01*
X12045720Y-10482329D01*
X12181588Y-10551557D01*
X12181590Y-10551557D01*
X12181593Y-10551559D01*
X12383746Y-10617243D01*
X12383752Y-10617244D01*
X12383757Y-10617246D01*
X12488735Y-10633873D01*
X12593711Y-10650500D01*
X12593713Y-10650500D01*
X12806289Y-10650500D01*
X12896409Y-10636226D01*
X13016243Y-10617246D01*
X13016250Y-10617243D01*
X13016253Y-10617243D01*
X13218406Y-10551559D01*
X13218406Y-10551558D01*
X13218412Y-10551557D01*
X13407816Y-10455051D01*
X13579792Y-10330104D01*
X13730104Y-10179792D01*
X13855051Y-10007816D01*
X13904066Y-9911617D01*
X13947132Y-9874836D01*
X14003595Y-9879279D01*
X14035933Y-9911617D01*
X14056768Y-9952508D01*
X14084948Y-10007816D01*
X14161475Y-10113146D01*
X14209896Y-10179792D01*
X14360208Y-10330104D01*
X14445854Y-10392329D01*
X14532183Y-10455051D01*
X14585720Y-10482329D01*
X14721588Y-10551557D01*
X14721590Y-10551557D01*
X14721593Y-10551559D01*
X14923746Y-10617243D01*
X14923752Y-10617244D01*
X14923757Y-10617246D01*
X15028735Y-10633873D01*
X15133711Y-10650500D01*
X15133713Y-10650500D01*
X15346289Y-10650500D01*
X15436409Y-10636226D01*
X15556243Y-10617246D01*
X15556250Y-10617243D01*
X15556253Y-10617243D01*
X15758406Y-10551559D01*
X15758406Y-10551558D01*
X15758412Y-10551557D01*
X15947816Y-10455051D01*
X16119792Y-10330104D01*
X16270104Y-10179792D01*
X16395051Y-10007816D01*
X16444066Y-9911617D01*
X16487132Y-9874836D01*
X16543595Y-9879279D01*
X16575933Y-9911617D01*
X16596768Y-9952508D01*
X16624948Y-10007816D01*
X16701475Y-10113146D01*
X16749896Y-10179792D01*
X16900208Y-10330104D01*
X16985854Y-10392329D01*
X17072183Y-10455051D01*
X17125720Y-10482329D01*
X17261588Y-10551557D01*
X17261590Y-10551557D01*
X17261593Y-10551559D01*
X17463746Y-10617243D01*
X17463752Y-10617244D01*
X17463757Y-10617246D01*
X17568735Y-10633873D01*
X17673711Y-10650500D01*
X17673713Y-10650500D01*
X17886286Y-10650500D01*
X17886287Y-10650500D01*
X17934740Y-10642825D01*
X17989811Y-10656046D01*
X17998642Y-10663588D01*
X18635331Y-11300277D01*
X18733309Y-11365743D01*
X18741873Y-11371465D01*
X18860256Y-11420501D01*
X18860258Y-11420501D01*
X18860260Y-11420502D01*
X18902903Y-11428984D01*
X18985931Y-11445500D01*
X19214500Y-11445500D01*
X19266826Y-11467174D01*
X19288500Y-11519500D01*
X19288500Y-12002068D01*
X19306591Y-12093015D01*
X19306591Y-12093016D01*
X19313497Y-12127737D01*
X19313499Y-12127744D01*
X19362535Y-12246127D01*
X19433722Y-12352668D01*
X22191826Y-15110772D01*
X22213500Y-15163098D01*
X22213500Y-15201691D01*
X22221662Y-15242724D01*
X22248104Y-15375660D01*
X22248107Y-15375670D01*
X22315985Y-15539544D01*
X22412462Y-15683932D01*
X22414536Y-15687035D01*
X22539965Y-15812464D01*
X22541474Y-15813472D01*
X22541814Y-15813981D01*
X22542780Y-15814774D01*
X22542539Y-15815066D01*
X22572938Y-15860565D01*
X22561888Y-15916114D01*
X22542778Y-15935223D01*
X22542780Y-15935226D01*
X22542757Y-15935244D01*
X22541474Y-15936528D01*
X22539967Y-15937534D01*
X22414533Y-16062968D01*
X22315985Y-16210455D01*
X22248107Y-16374329D01*
X22248104Y-16374339D01*
X22222954Y-16500781D01*
X22213500Y-16548309D01*
X22213500Y-16725691D01*
X22224203Y-16779500D01*
X22248104Y-16899660D01*
X22248107Y-16899670D01*
X22315985Y-17063544D01*
X22389131Y-17173015D01*
X22414536Y-17211035D01*
X22539965Y-17336464D01*
X22687453Y-17435013D01*
X22687454Y-17435013D01*
X22687455Y-17435014D01*
X22851329Y-17502892D01*
X22851334Y-17502894D01*
X23025309Y-17537500D01*
X23025311Y-17537500D01*
X23202689Y-17537500D01*
X23202691Y-17537500D01*
X23376666Y-17502894D01*
X23540547Y-17435013D01*
X23688035Y-17336464D01*
X23813464Y-17211035D01*
X23912013Y-17063547D01*
X23979894Y-16899666D01*
X23991949Y-16839063D01*
X24023415Y-16791971D01*
X24064527Y-16779500D01*
X24067066Y-16779500D01*
X24067069Y-16779500D01*
X24139035Y-16765184D01*
X24194581Y-16776233D01*
X24205796Y-16785436D01*
X24272979Y-16852619D01*
X24334954Y-16897646D01*
X24444954Y-16977566D01*
X24478959Y-16994892D01*
X24634359Y-17074072D01*
X24634361Y-17074072D01*
X24634364Y-17074074D01*
X24836517Y-17139758D01*
X24836523Y-17139759D01*
X24836528Y-17139761D01*
X24941506Y-17156388D01*
X25046482Y-17173015D01*
X25046484Y-17173015D01*
X25259060Y-17173015D01*
X25343040Y-17159713D01*
X25469014Y-17139761D01*
X25469021Y-17139758D01*
X25469024Y-17139758D01*
X25671177Y-17074074D01*
X25671177Y-17074073D01*
X25671183Y-17074072D01*
X25860587Y-16977566D01*
X26032563Y-16852619D01*
X26182875Y-16702307D01*
X26307822Y-16530331D01*
X26404328Y-16340927D01*
X26411651Y-16318389D01*
X26470014Y-16138768D01*
X26470014Y-16138765D01*
X26470017Y-16138758D01*
X26503271Y-15928802D01*
X26503271Y-15716228D01*
X26470017Y-15506272D01*
X26458586Y-15471091D01*
X26463029Y-15414628D01*
X26506096Y-15377845D01*
X26514520Y-15375647D01*
X26566064Y-15365394D01*
X26621612Y-15376443D01*
X26653078Y-15423536D01*
X26654500Y-15437972D01*
X26654500Y-18396349D01*
X26632827Y-18448674D01*
X26605533Y-18475968D01*
X26506985Y-18623455D01*
X26439107Y-18787329D01*
X26439104Y-18787339D01*
X26404500Y-18961309D01*
X26404500Y-19138689D01*
X26439104Y-19312660D01*
X26439107Y-19312670D01*
X26506985Y-19476544D01*
X26579634Y-19585271D01*
X26605536Y-19624035D01*
X26730965Y-19749464D01*
X26878453Y-19848013D01*
X26878454Y-19848013D01*
X26878455Y-19848014D01*
X27042329Y-19915892D01*
X27042334Y-19915894D01*
X27216309Y-19950500D01*
X27216311Y-19950500D01*
X27393689Y-19950500D01*
X27393691Y-19950500D01*
X27567666Y-19915894D01*
X27731547Y-19848013D01*
X27879035Y-19749464D01*
X28004464Y-19624035D01*
X28103013Y-19476547D01*
X28170894Y-19312666D01*
X28205500Y-19138691D01*
X28205500Y-18961309D01*
X28170894Y-18787334D01*
X28170892Y-18787329D01*
X28103014Y-18623455D01*
X28084751Y-18596123D01*
X28004464Y-18475965D01*
X27977173Y-18448674D01*
X27955500Y-18396349D01*
X27955500Y-6158932D01*
X27946506Y-6113718D01*
X27935928Y-6060539D01*
X27946977Y-6004991D01*
X27994069Y-5973525D01*
X28049618Y-5984574D01*
G37*
G04 #@! TD.AperFunction*
G04 #@! TA.AperFunction,Conductor*
G36*
X56526535Y-522174D02*
G01*
X56548209Y-574500D01*
X56526535Y-626826D01*
X56502529Y-642865D01*
X56441199Y-668269D01*
X56263305Y-741955D01*
X56263303Y-741956D01*
X56036197Y-873075D01*
X55828144Y-1032722D01*
X55642722Y-1218144D01*
X55483075Y-1426197D01*
X55351956Y-1653303D01*
X55351955Y-1653305D01*
X55251601Y-1895583D01*
X55251601Y-1895584D01*
X55183729Y-2148885D01*
X55149500Y-2408881D01*
X55149500Y-2671118D01*
X55183729Y-2931114D01*
X55232274Y-3112287D01*
X55251602Y-3184419D01*
X55263350Y-3212780D01*
X55351955Y-3426694D01*
X55351956Y-3426696D01*
X55449298Y-3595297D01*
X55483076Y-3653803D01*
X55642718Y-3861851D01*
X55828149Y-4047282D01*
X56036197Y-4206924D01*
X56263303Y-4338043D01*
X56505581Y-4438398D01*
X56758884Y-4506270D01*
X57018880Y-4540500D01*
X57018882Y-4540500D01*
X57281118Y-4540500D01*
X57281120Y-4540500D01*
X57541116Y-4506270D01*
X57794419Y-4438398D01*
X58036697Y-4338043D01*
X58263803Y-4206924D01*
X58471851Y-4047282D01*
X58657282Y-3861851D01*
X58816924Y-3653803D01*
X58948043Y-3426697D01*
X59048398Y-3184419D01*
X59116270Y-2931116D01*
X59150500Y-2671120D01*
X59150500Y-2408880D01*
X59116270Y-2148884D01*
X59048398Y-1895581D01*
X58948043Y-1653303D01*
X58816924Y-1426197D01*
X58657282Y-1218149D01*
X58471851Y-1032718D01*
X58263803Y-873076D01*
X58263804Y-873076D01*
X58263802Y-873075D01*
X58036696Y-741956D01*
X58036694Y-741955D01*
X57880675Y-677330D01*
X57797471Y-642866D01*
X57757424Y-602819D01*
X57757424Y-546181D01*
X57797472Y-506133D01*
X57825791Y-500500D01*
X69425500Y-500500D01*
X69477826Y-522174D01*
X69499500Y-574500D01*
X69499500Y-14926000D01*
X69477826Y-14978326D01*
X69425500Y-15000000D01*
X67389644Y-15000000D01*
X67337318Y-14978326D01*
X67315644Y-14926000D01*
X67319266Y-14903132D01*
X67326529Y-14880781D01*
X67357246Y-14786243D01*
X67390500Y-14576287D01*
X67390500Y-14363713D01*
X67384327Y-14324741D01*
X67363117Y-14190826D01*
X67357246Y-14153757D01*
X67357244Y-14153752D01*
X67357243Y-14153746D01*
X67291559Y-13951593D01*
X67291557Y-13951590D01*
X67291557Y-13951588D01*
X67214792Y-13800927D01*
X67195051Y-13762183D01*
X67139451Y-13685656D01*
X67070104Y-13590208D01*
X66919792Y-13439896D01*
X66849467Y-13388802D01*
X66747816Y-13314948D01*
X66558406Y-13218440D01*
X66356253Y-13152756D01*
X66356240Y-13152753D01*
X66146289Y-13119500D01*
X66146287Y-13119500D01*
X65933713Y-13119500D01*
X65933711Y-13119500D01*
X65723759Y-13152753D01*
X65723746Y-13152756D01*
X65521593Y-13218440D01*
X65332183Y-13314948D01*
X65193233Y-13415902D01*
X65160208Y-13439896D01*
X65009896Y-13590208D01*
X65009893Y-13590211D01*
X65009893Y-13590212D01*
X64884948Y-13762183D01*
X64788440Y-13951593D01*
X64722756Y-14153746D01*
X64722753Y-14153759D01*
X64689500Y-14363711D01*
X64689500Y-14576288D01*
X64722753Y-14786240D01*
X64722755Y-14786249D01*
X64760734Y-14903132D01*
X64756291Y-14959595D01*
X64713224Y-14996378D01*
X64690356Y-15000000D01*
X62257721Y-15000000D01*
X62205395Y-14978326D01*
X62187343Y-14948867D01*
X62165223Y-14880788D01*
X62165220Y-14880784D01*
X62165220Y-14880781D01*
X62116287Y-14784744D01*
X62072287Y-14698389D01*
X62002488Y-14602319D01*
X61951966Y-14532781D01*
X61807219Y-14388034D01*
X61706675Y-14314985D01*
X61641610Y-14267712D01*
X61459213Y-14174777D01*
X61264544Y-14111525D01*
X61264531Y-14111522D01*
X61062354Y-14079500D01*
X61062352Y-14079500D01*
X60857648Y-14079500D01*
X60857646Y-14079500D01*
X60655468Y-14111522D01*
X60655455Y-14111525D01*
X60460786Y-14174777D01*
X60278389Y-14267712D01*
X60117496Y-14384608D01*
X60062424Y-14397830D01*
X60014133Y-14368237D01*
X60000000Y-14324741D01*
X60000000Y-13500000D01*
X59000000Y-13500000D01*
X55725598Y-13500000D01*
X55673272Y-13478326D01*
X55663174Y-13468228D01*
X55641500Y-13415902D01*
X55641500Y-11111932D01*
X55616502Y-10986260D01*
X55616501Y-10986257D01*
X55567465Y-10867874D01*
X55567465Y-10867873D01*
X55554722Y-10848802D01*
X55496276Y-10761330D01*
X54139174Y-9404228D01*
X54136448Y-9397646D01*
X59199500Y-9397646D01*
X59199500Y-9602353D01*
X59231522Y-9804531D01*
X59231525Y-9804544D01*
X59294777Y-9999213D01*
X59387712Y-10181610D01*
X59442840Y-10257487D01*
X59508034Y-10347219D01*
X59652781Y-10491966D01*
X59744695Y-10558745D01*
X59818389Y-10612287D01*
X59893385Y-10650499D01*
X60000781Y-10705220D01*
X60000783Y-10705220D01*
X60000786Y-10705222D01*
X60195455Y-10768474D01*
X60195461Y-10768475D01*
X60195466Y-10768477D01*
X60296557Y-10784488D01*
X60397646Y-10800500D01*
X60397648Y-10800500D01*
X60602354Y-10800500D01*
X60683224Y-10787690D01*
X60804534Y-10768477D01*
X60804541Y-10768474D01*
X60804544Y-10768474D01*
X60999213Y-10705222D01*
X60999213Y-10705221D01*
X60999219Y-10705220D01*
X61181610Y-10612287D01*
X61347219Y-10491966D01*
X61491966Y-10347219D01*
X61612287Y-10181610D01*
X61705220Y-9999219D01*
X61744191Y-9879279D01*
X61768474Y-9804544D01*
X61768474Y-9804541D01*
X61768477Y-9804534D01*
X61800500Y-9602352D01*
X61800500Y-9397648D01*
X61798109Y-9382554D01*
X61777434Y-9252016D01*
X61768477Y-9195466D01*
X61768475Y-9195461D01*
X61768474Y-9195455D01*
X61705222Y-9000786D01*
X61705220Y-9000783D01*
X61705220Y-9000781D01*
X61622457Y-8838349D01*
X61612287Y-8818389D01*
X61535231Y-8712331D01*
X61491966Y-8652781D01*
X61347219Y-8508034D01*
X61325323Y-8492126D01*
X64689500Y-8492126D01*
X64689500Y-10287873D01*
X64695909Y-10347485D01*
X64746202Y-10482329D01*
X64746203Y-10482330D01*
X64746204Y-10482331D01*
X64832454Y-10597546D01*
X64910600Y-10656046D01*
X64947669Y-10683796D01*
X64947670Y-10683797D01*
X65058605Y-10725172D01*
X65082517Y-10734091D01*
X65142127Y-10740500D01*
X66937872Y-10740499D01*
X66997483Y-10734091D01*
X67074890Y-10705220D01*
X67132329Y-10683797D01*
X67132329Y-10683796D01*
X67132331Y-10683796D01*
X67247546Y-10597546D01*
X67333796Y-10482331D01*
X67384091Y-10347483D01*
X67390500Y-10287873D01*
X67390499Y-8492128D01*
X67384091Y-8432517D01*
X67367380Y-8387712D01*
X67333797Y-8297670D01*
X67333796Y-8297669D01*
X67331631Y-8294777D01*
X67247546Y-8182454D01*
X67132331Y-8096204D01*
X67132330Y-8096203D01*
X67132329Y-8096202D01*
X66997487Y-8045910D01*
X66997484Y-8045909D01*
X66997483Y-8045909D01*
X66937873Y-8039500D01*
X65142126Y-8039500D01*
X65082514Y-8045909D01*
X64947670Y-8096202D01*
X64947669Y-8096203D01*
X64832454Y-8182454D01*
X64746203Y-8297669D01*
X64746202Y-8297670D01*
X64695910Y-8432512D01*
X64695909Y-8432517D01*
X64689500Y-8492126D01*
X61325323Y-8492126D01*
X61243274Y-8432514D01*
X61181610Y-8387712D01*
X60999213Y-8294777D01*
X60804544Y-8231525D01*
X60804531Y-8231522D01*
X60602354Y-8199500D01*
X60602352Y-8199500D01*
X60397648Y-8199500D01*
X60397646Y-8199500D01*
X60195468Y-8231522D01*
X60195455Y-8231525D01*
X60000786Y-8294777D01*
X59818389Y-8387712D01*
X59664132Y-8499787D01*
X59652781Y-8508034D01*
X59508034Y-8652781D01*
X59508031Y-8652784D01*
X59508031Y-8652785D01*
X59387712Y-8818389D01*
X59294777Y-9000786D01*
X59231525Y-9195455D01*
X59231522Y-9195468D01*
X59199500Y-9397646D01*
X54136448Y-9397646D01*
X54117500Y-9351902D01*
X54117500Y-6285932D01*
X54112178Y-6259177D01*
X54109884Y-6247646D01*
X54579500Y-6247646D01*
X54579500Y-6452353D01*
X54611522Y-6654531D01*
X54611525Y-6654544D01*
X54674777Y-6849213D01*
X54767712Y-7031610D01*
X54818558Y-7101593D01*
X54888034Y-7197219D01*
X55032781Y-7341966D01*
X55117027Y-7403174D01*
X55198389Y-7462287D01*
X55286300Y-7507079D01*
X55380781Y-7555220D01*
X55380783Y-7555220D01*
X55380786Y-7555222D01*
X55575455Y-7618474D01*
X55575461Y-7618475D01*
X55575466Y-7618477D01*
X55676557Y-7634488D01*
X55777646Y-7650500D01*
X55777648Y-7650500D01*
X55982354Y-7650500D01*
X56063224Y-7637690D01*
X56184534Y-7618477D01*
X56184541Y-7618474D01*
X56184544Y-7618474D01*
X56379213Y-7555222D01*
X56379213Y-7555221D01*
X56379219Y-7555220D01*
X56561610Y-7462287D01*
X56727219Y-7341966D01*
X56871966Y-7197219D01*
X56992287Y-7031610D01*
X57084066Y-6851482D01*
X57127132Y-6814701D01*
X57183595Y-6819144D01*
X57215933Y-6851482D01*
X57252125Y-6922512D01*
X57307712Y-7031610D01*
X57358558Y-7101593D01*
X57428034Y-7197219D01*
X57572781Y-7341966D01*
X57657027Y-7403174D01*
X57738389Y-7462287D01*
X57826300Y-7507079D01*
X57920781Y-7555220D01*
X57920783Y-7555220D01*
X57920786Y-7555222D01*
X58115455Y-7618474D01*
X58115461Y-7618475D01*
X58115466Y-7618477D01*
X58216557Y-7634488D01*
X58317646Y-7650500D01*
X58317648Y-7650500D01*
X58522354Y-7650500D01*
X58603224Y-7637690D01*
X58724534Y-7618477D01*
X58724541Y-7618474D01*
X58724544Y-7618474D01*
X58919213Y-7555222D01*
X58919213Y-7555221D01*
X58919219Y-7555220D01*
X59101610Y-7462287D01*
X59267219Y-7341966D01*
X59411966Y-7197219D01*
X59532287Y-7031610D01*
X59625220Y-6849219D01*
X59674915Y-6696274D01*
X59688474Y-6654544D01*
X59688474Y-6654541D01*
X59688477Y-6654534D01*
X59720500Y-6452352D01*
X59720500Y-6247648D01*
X59716741Y-6223917D01*
X59698879Y-6111139D01*
X59688477Y-6045466D01*
X59688475Y-6045461D01*
X59688474Y-6045455D01*
X59625222Y-5850786D01*
X59625220Y-5850783D01*
X59625220Y-5850781D01*
X59577079Y-5756300D01*
X59532287Y-5668389D01*
X59478745Y-5594695D01*
X59411966Y-5502781D01*
X59267219Y-5358034D01*
X59159884Y-5280051D01*
X59101610Y-5237712D01*
X58919213Y-5144777D01*
X58724544Y-5081525D01*
X58724531Y-5081522D01*
X58522354Y-5049500D01*
X58522352Y-5049500D01*
X58317648Y-5049500D01*
X58317646Y-5049500D01*
X58115468Y-5081522D01*
X58115455Y-5081525D01*
X57920786Y-5144777D01*
X57738389Y-5237712D01*
X57584527Y-5349500D01*
X57572781Y-5358034D01*
X57428034Y-5502781D01*
X57428031Y-5502784D01*
X57428031Y-5502785D01*
X57307712Y-5668389D01*
X57236622Y-5807913D01*
X57217867Y-5844724D01*
X57215935Y-5848515D01*
X57172867Y-5885298D01*
X57116405Y-5880855D01*
X57084065Y-5848515D01*
X57082133Y-5844724D01*
X57042947Y-5767816D01*
X56992287Y-5668389D01*
X56938745Y-5594695D01*
X56871966Y-5502781D01*
X56727219Y-5358034D01*
X56619884Y-5280051D01*
X56561610Y-5237712D01*
X56379213Y-5144777D01*
X56184544Y-5081525D01*
X56184531Y-5081522D01*
X55982354Y-5049500D01*
X55982352Y-5049500D01*
X55777648Y-5049500D01*
X55777646Y-5049500D01*
X55575468Y-5081522D01*
X55575455Y-5081525D01*
X55380786Y-5144777D01*
X55198389Y-5237712D01*
X55044527Y-5349500D01*
X55032781Y-5358034D01*
X54888034Y-5502781D01*
X54888031Y-5502784D01*
X54888031Y-5502785D01*
X54767712Y-5668389D01*
X54674777Y-5850786D01*
X54611525Y-6045455D01*
X54611522Y-6045468D01*
X54579500Y-6247646D01*
X54109884Y-6247646D01*
X54092502Y-6160260D01*
X54092501Y-6160257D01*
X54091952Y-6158932D01*
X54043465Y-6041873D01*
X53972276Y-5935331D01*
X53916632Y-5879687D01*
X53916631Y-5879685D01*
X53754668Y-5717722D01*
X53648127Y-5646535D01*
X53529742Y-5597498D01*
X53529739Y-5597497D01*
X53439696Y-5579586D01*
X53404069Y-5572500D01*
X53404067Y-5572500D01*
X32074000Y-5572500D01*
X32021674Y-5550826D01*
X32000000Y-5498500D01*
X32000000Y-4389252D01*
X32021674Y-4336926D01*
X32074000Y-4315252D01*
X32110999Y-4325165D01*
X32133303Y-4338043D01*
X32375581Y-4438398D01*
X32628884Y-4506270D01*
X32888880Y-4540500D01*
X32888882Y-4540500D01*
X33151118Y-4540500D01*
X33151120Y-4540500D01*
X33411116Y-4506270D01*
X33664419Y-4438398D01*
X33906697Y-4338043D01*
X34133803Y-4206924D01*
X34341851Y-4047282D01*
X34431488Y-3957645D01*
X40609500Y-3957645D01*
X40609500Y-4162352D01*
X40641522Y-4364530D01*
X40641525Y-4364543D01*
X40704777Y-4559212D01*
X40797712Y-4741609D01*
X40871406Y-4843039D01*
X40918034Y-4907218D01*
X41062781Y-5051965D01*
X41143348Y-5110500D01*
X41228389Y-5172286D01*
X41301167Y-5209368D01*
X41410781Y-5265219D01*
X41410783Y-5265219D01*
X41410786Y-5265221D01*
X41605455Y-5328473D01*
X41605461Y-5328474D01*
X41605466Y-5328476D01*
X41700303Y-5343497D01*
X41807646Y-5360499D01*
X41807648Y-5360499D01*
X42012354Y-5360499D01*
X42093224Y-5347689D01*
X42214534Y-5328476D01*
X42214541Y-5328473D01*
X42214544Y-5328473D01*
X42409213Y-5265221D01*
X42409213Y-5265220D01*
X42409219Y-5265219D01*
X42591610Y-5172286D01*
X42757219Y-5051965D01*
X42901966Y-4907218D01*
X43022287Y-4741609D01*
X43114066Y-4561481D01*
X43157132Y-4524700D01*
X43213595Y-4529143D01*
X43245933Y-4561481D01*
X43270234Y-4609174D01*
X43337712Y-4741609D01*
X43411406Y-4843039D01*
X43458034Y-4907218D01*
X43602781Y-5051965D01*
X43683348Y-5110500D01*
X43768389Y-5172286D01*
X43841167Y-5209368D01*
X43950781Y-5265219D01*
X43950783Y-5265219D01*
X43950786Y-5265221D01*
X44145455Y-5328473D01*
X44145461Y-5328474D01*
X44145466Y-5328476D01*
X44240303Y-5343497D01*
X44347646Y-5360499D01*
X44347648Y-5360499D01*
X44552354Y-5360499D01*
X44633224Y-5347689D01*
X44754534Y-5328476D01*
X44754541Y-5328473D01*
X44754544Y-5328473D01*
X44949213Y-5265221D01*
X44949213Y-5265220D01*
X44949219Y-5265219D01*
X45131610Y-5172286D01*
X45297219Y-5051965D01*
X45441966Y-4907218D01*
X45562287Y-4741609D01*
X45655220Y-4559218D01*
X45694477Y-4438398D01*
X45718474Y-4364543D01*
X45718474Y-4364540D01*
X45718477Y-4364533D01*
X45750500Y-4162351D01*
X45750500Y-3957647D01*
X45718477Y-3755465D01*
X45718475Y-3755460D01*
X45718474Y-3755454D01*
X45655222Y-3560785D01*
X45655220Y-3560782D01*
X45655220Y-3560780D01*
X45586900Y-3426694D01*
X45562287Y-3378388D01*
X45479779Y-3264826D01*
X45441966Y-3212780D01*
X45297219Y-3068033D01*
X45192521Y-2991966D01*
X45131610Y-2947711D01*
X44949213Y-2854776D01*
X44754544Y-2791524D01*
X44754531Y-2791521D01*
X44552354Y-2759499D01*
X44552352Y-2759499D01*
X44347648Y-2759499D01*
X44347646Y-2759499D01*
X44145468Y-2791521D01*
X44145455Y-2791524D01*
X43950786Y-2854776D01*
X43768389Y-2947711D01*
X43609020Y-3063500D01*
X43602781Y-3068033D01*
X43458034Y-3212780D01*
X43458031Y-3212783D01*
X43458031Y-3212784D01*
X43337712Y-3378388D01*
X43245935Y-3558514D01*
X43202867Y-3595297D01*
X43146405Y-3590854D01*
X43114065Y-3558514D01*
X43022287Y-3378388D01*
X42939779Y-3264826D01*
X42901966Y-3212780D01*
X42757219Y-3068033D01*
X42652521Y-2991966D01*
X42591610Y-2947711D01*
X42409213Y-2854776D01*
X42214544Y-2791524D01*
X42214531Y-2791521D01*
X42012354Y-2759499D01*
X42012352Y-2759499D01*
X41807648Y-2759499D01*
X41807646Y-2759499D01*
X41605468Y-2791521D01*
X41605455Y-2791524D01*
X41410786Y-2854776D01*
X41228389Y-2947711D01*
X41069020Y-3063500D01*
X41062781Y-3068033D01*
X40918034Y-3212780D01*
X40918031Y-3212783D01*
X40918031Y-3212784D01*
X40797712Y-3378388D01*
X40704777Y-3560785D01*
X40641525Y-3755454D01*
X40641522Y-3755467D01*
X40609500Y-3957645D01*
X34431488Y-3957645D01*
X34527282Y-3861851D01*
X34686924Y-3653803D01*
X34818043Y-3426697D01*
X34918398Y-3184419D01*
X34986270Y-2931116D01*
X35020500Y-2671120D01*
X35020500Y-2408880D01*
X34986270Y-2148884D01*
X34918398Y-1895581D01*
X34818043Y-1653303D01*
X34686924Y-1426197D01*
X34527282Y-1218149D01*
X34341851Y-1032718D01*
X34133803Y-873076D01*
X34133804Y-873076D01*
X34133802Y-873075D01*
X33906696Y-741956D01*
X33906694Y-741955D01*
X33750675Y-677330D01*
X33667471Y-642866D01*
X33627424Y-602819D01*
X33627424Y-546181D01*
X33667472Y-506133D01*
X33695791Y-500500D01*
X56474209Y-500500D01*
X56526535Y-522174D01*
G37*
G04 #@! TD.AperFunction*
G04 #@! TA.AperFunction,Conductor*
G36*
X25870826Y-7403174D02*
G01*
X25892500Y-7455500D01*
X25892500Y-9482967D01*
X25870826Y-9535293D01*
X25818500Y-9556967D01*
X25784905Y-9548902D01*
X25671177Y-9490955D01*
X25469024Y-9425271D01*
X25469011Y-9425268D01*
X25259060Y-9392015D01*
X25259058Y-9392015D01*
X25046484Y-9392015D01*
X25046482Y-9392015D01*
X24836530Y-9425268D01*
X24836517Y-9425271D01*
X24634364Y-9490955D01*
X24444954Y-9587463D01*
X24272983Y-9712408D01*
X24272979Y-9712411D01*
X24122667Y-9862723D01*
X24122664Y-9862726D01*
X24122664Y-9862727D01*
X23997719Y-10034698D01*
X23901211Y-10224108D01*
X23835527Y-10426261D01*
X23835524Y-10426274D01*
X23802271Y-10636226D01*
X23802271Y-10848800D01*
X23802270Y-10848801D01*
X23835524Y-11058755D01*
X23835527Y-11058768D01*
X23901211Y-11260921D01*
X23997719Y-11450331D01*
X24047974Y-11519500D01*
X24122667Y-11622307D01*
X24272979Y-11772619D01*
X24368427Y-11841966D01*
X24444954Y-11897566D01*
X24541151Y-11946580D01*
X24577934Y-11989647D01*
X24573491Y-12046110D01*
X24541151Y-12078450D01*
X24444954Y-12127463D01*
X24281628Y-12246127D01*
X24272979Y-12252411D01*
X24122667Y-12402723D01*
X24122664Y-12402726D01*
X24122664Y-12402727D01*
X23997719Y-12574698D01*
X23901211Y-12764108D01*
X23835527Y-12966261D01*
X23835524Y-12966274D01*
X23802271Y-13176226D01*
X23802271Y-13388803D01*
X23835524Y-13598755D01*
X23835527Y-13598768D01*
X23901211Y-13800921D01*
X23997719Y-13990331D01*
X24074246Y-14095661D01*
X24122667Y-14162307D01*
X24272979Y-14312619D01*
X24349531Y-14368237D01*
X24444954Y-14437566D01*
X24484810Y-14457873D01*
X24541151Y-14486580D01*
X24577933Y-14529646D01*
X24573490Y-14586109D01*
X24541151Y-14618448D01*
X24444959Y-14667460D01*
X24444955Y-14667463D01*
X24281460Y-14786249D01*
X24272979Y-14792411D01*
X24272974Y-14792416D01*
X24122659Y-14942730D01*
X24120850Y-14944849D01*
X24070385Y-14970559D01*
X24016521Y-14953054D01*
X23992005Y-14911224D01*
X23979894Y-14850334D01*
X23955901Y-14792408D01*
X23912014Y-14686455D01*
X23873026Y-14628106D01*
X23813464Y-14538965D01*
X23688035Y-14413536D01*
X23664529Y-14397830D01*
X23540544Y-14314985D01*
X23376670Y-14247107D01*
X23376660Y-14247104D01*
X23260156Y-14223930D01*
X23202691Y-14212500D01*
X23202689Y-14212500D01*
X23164098Y-14212500D01*
X23111772Y-14190826D01*
X20611174Y-11690228D01*
X20589500Y-11637902D01*
X20589500Y-11111932D01*
X20564502Y-10986260D01*
X20564501Y-10986257D01*
X20515465Y-10867874D01*
X20515465Y-10867873D01*
X20502722Y-10848802D01*
X20447135Y-10765610D01*
X20436087Y-10710062D01*
X20467553Y-10662970D01*
X20508665Y-10650499D01*
X21217872Y-10650499D01*
X21277483Y-10644091D01*
X21402277Y-10597546D01*
X21412329Y-10593797D01*
X21412329Y-10593796D01*
X21412331Y-10593796D01*
X21527546Y-10507546D01*
X21613796Y-10392331D01*
X21664091Y-10257483D01*
X21670500Y-10197873D01*
X21670499Y-9430590D01*
X21692173Y-9378265D01*
X21716181Y-9362224D01*
X21771125Y-9339466D01*
X21771125Y-9339465D01*
X21771127Y-9339465D01*
X21779689Y-9333744D01*
X21831731Y-9298970D01*
X21872843Y-9286500D01*
X21908067Y-9286500D01*
X21908069Y-9286500D01*
X22033744Y-9261501D01*
X22152127Y-9212465D01*
X22168599Y-9201459D01*
X22248548Y-9148039D01*
X22275221Y-9136991D01*
X22287744Y-9134501D01*
X22406127Y-9085465D01*
X22414689Y-9079744D01*
X22512669Y-9014277D01*
X24123772Y-7403174D01*
X24176098Y-7381500D01*
X25818500Y-7381500D01*
X25870826Y-7403174D01*
G37*
G04 #@! TD.AperFunction*
G04 #@! TA.AperFunction,Conductor*
G36*
X30978326Y-522174D02*
G01*
X31000000Y-574500D01*
X31000000Y-5498500D01*
X30978326Y-5550826D01*
X30926000Y-5572500D01*
X29510097Y-5572500D01*
X29457771Y-5550826D01*
X28398555Y-4491610D01*
X27338669Y-3431723D01*
X27331145Y-3426696D01*
X27232127Y-3360535D01*
X27113746Y-3311500D01*
X27113747Y-3311500D01*
X27113744Y-3311499D01*
X27113737Y-3311497D01*
X27113735Y-3311497D01*
X27110135Y-3310781D01*
X27110134Y-3310780D01*
X27110134Y-3310781D01*
X26988069Y-3286500D01*
X26988067Y-3286500D01*
X24777930Y-3286500D01*
X24725604Y-3264826D01*
X24703930Y-3212500D01*
X24725604Y-3160174D01*
X24744333Y-3146566D01*
X24811610Y-3112287D01*
X24977219Y-2991966D01*
X25121966Y-2847219D01*
X25242287Y-2681610D01*
X25335220Y-2499219D01*
X25341778Y-2479035D01*
X25398474Y-2304544D01*
X25398474Y-2304541D01*
X25398477Y-2304534D01*
X25430500Y-2102352D01*
X25430500Y-1897648D01*
X25420820Y-1836535D01*
X25413054Y-1787498D01*
X25398477Y-1695466D01*
X25398475Y-1695461D01*
X25398474Y-1695455D01*
X25335222Y-1500786D01*
X25335220Y-1500783D01*
X25335220Y-1500781D01*
X25248696Y-1330968D01*
X25242287Y-1318389D01*
X25169458Y-1218149D01*
X25121966Y-1152781D01*
X24977219Y-1008034D01*
X24913040Y-961406D01*
X24811610Y-887712D01*
X24629213Y-794777D01*
X24434544Y-731525D01*
X24434531Y-731522D01*
X24232354Y-699500D01*
X24232352Y-699500D01*
X24027648Y-699500D01*
X24027646Y-699500D01*
X23825468Y-731522D01*
X23825455Y-731525D01*
X23630786Y-794777D01*
X23448389Y-887712D01*
X23287645Y-1004500D01*
X23282781Y-1008034D01*
X23138034Y-1152781D01*
X23138031Y-1152784D01*
X23138031Y-1152785D01*
X23017712Y-1318389D01*
X22924777Y-1500786D01*
X22861525Y-1695455D01*
X22861522Y-1695468D01*
X22829500Y-1897646D01*
X22829500Y-2102353D01*
X22861522Y-2304531D01*
X22861525Y-2304544D01*
X22924777Y-2499213D01*
X23017712Y-2681610D01*
X23074302Y-2759499D01*
X23138034Y-2847219D01*
X23282781Y-2991966D01*
X23374695Y-3058745D01*
X23448389Y-3112287D01*
X23479992Y-3128389D01*
X23515665Y-3146565D01*
X23552448Y-3189632D01*
X23548005Y-3246095D01*
X23504938Y-3282878D01*
X23482070Y-3286500D01*
X21128098Y-3286500D01*
X21075772Y-3264826D01*
X19718668Y-1907722D01*
X19612127Y-1836535D01*
X19493742Y-1787498D01*
X19493739Y-1787497D01*
X19403696Y-1769586D01*
X19368069Y-1762500D01*
X19368067Y-1762500D01*
X15682527Y-1762500D01*
X15630201Y-1740826D01*
X15609949Y-1702937D01*
X15597895Y-1642339D01*
X15597894Y-1642338D01*
X15597894Y-1642334D01*
X15539264Y-1500786D01*
X15530014Y-1478455D01*
X15431466Y-1330968D01*
X15431464Y-1330965D01*
X15306035Y-1205536D01*
X15158547Y-1106987D01*
X15158546Y-1106986D01*
X15158544Y-1106985D01*
X14994670Y-1039107D01*
X14994660Y-1039104D01*
X14878156Y-1015930D01*
X14820691Y-1004500D01*
X14643309Y-1004500D01*
X14593989Y-1014310D01*
X14469339Y-1039104D01*
X14469329Y-1039107D01*
X14305455Y-1106985D01*
X14157968Y-1205533D01*
X14032533Y-1330968D01*
X13933985Y-1478455D01*
X13866107Y-1642329D01*
X13866104Y-1642339D01*
X13831500Y-1816310D01*
X13831500Y-1993689D01*
X13866104Y-2167660D01*
X13866107Y-2167670D01*
X13933985Y-2331544D01*
X13985659Y-2408880D01*
X14032536Y-2479035D01*
X14157965Y-2604464D01*
X14305453Y-2703013D01*
X14469334Y-2770894D01*
X14525880Y-2782141D01*
X14572971Y-2813606D01*
X14584021Y-2869155D01*
X14563769Y-2907044D01*
X14508045Y-2962768D01*
X14508031Y-2962785D01*
X14387712Y-3128389D01*
X14294777Y-3310786D01*
X14231525Y-3505455D01*
X14231522Y-3505468D01*
X14199500Y-3707646D01*
X14199500Y-3912353D01*
X14231522Y-4114531D01*
X14231525Y-4114544D01*
X14294777Y-4309213D01*
X14387712Y-4491610D01*
X14457381Y-4587500D01*
X14508034Y-4657219D01*
X14652781Y-4801966D01*
X14689121Y-4828368D01*
X14816463Y-4920887D01*
X14846056Y-4969178D01*
X14832834Y-5024250D01*
X14784543Y-5053843D01*
X14744649Y-5049121D01*
X14688952Y-5026051D01*
X14688950Y-5026049D01*
X14688950Y-5026050D01*
X14663444Y-5015484D01*
X14650654Y-5008647D01*
X14570914Y-4955368D01*
X14570909Y-4955365D01*
X14434952Y-4899051D01*
X14409446Y-4888486D01*
X14396653Y-4881648D01*
X14316913Y-4828367D01*
X14241494Y-4797127D01*
X14188165Y-4775038D01*
X14188164Y-4775037D01*
X14134840Y-4752950D01*
X14134830Y-4752947D01*
X14038188Y-4733724D01*
X14016586Y-4729427D01*
X13975948Y-4721343D01*
X13949276Y-4710295D01*
X13935916Y-4701369D01*
X13935914Y-4701368D01*
X13807165Y-4648038D01*
X13807164Y-4648037D01*
X13753837Y-4625949D01*
X13753830Y-4625947D01*
X13653978Y-4606086D01*
X13560541Y-4587500D01*
X13560539Y-4587500D01*
X13224186Y-4587500D01*
X13171860Y-4565826D01*
X13150186Y-4513500D01*
X13158251Y-4479905D01*
X13204441Y-4389252D01*
X13245220Y-4309219D01*
X13292940Y-4162352D01*
X13308474Y-4114544D01*
X13308474Y-4114541D01*
X13308477Y-4114534D01*
X13340500Y-3912352D01*
X13340500Y-3707648D01*
X13331971Y-3653802D01*
X13308477Y-3505468D01*
X13308474Y-3505455D01*
X13245222Y-3310786D01*
X13245220Y-3310783D01*
X13245220Y-3310781D01*
X13191434Y-3205220D01*
X13152287Y-3128389D01*
X13053171Y-2991968D01*
X13031966Y-2962781D01*
X12887219Y-2818034D01*
X12806652Y-2759499D01*
X12721610Y-2697712D01*
X12539213Y-2604777D01*
X12344544Y-2541525D01*
X12344531Y-2541522D01*
X12142354Y-2509500D01*
X12142352Y-2509500D01*
X11937648Y-2509500D01*
X11937646Y-2509500D01*
X11735468Y-2541522D01*
X11735455Y-2541525D01*
X11540786Y-2604777D01*
X11358389Y-2697712D01*
X11192785Y-2818031D01*
X11192781Y-2818034D01*
X11048034Y-2962781D01*
X11048031Y-2962784D01*
X11048031Y-2962785D01*
X10927712Y-3128389D01*
X10835935Y-3308515D01*
X10792867Y-3345298D01*
X10736405Y-3340855D01*
X10704065Y-3308515D01*
X10691002Y-3282878D01*
X10651434Y-3205220D01*
X10612287Y-3128389D01*
X10513171Y-2991968D01*
X10491966Y-2962781D01*
X10347219Y-2818034D01*
X10266652Y-2759499D01*
X10181610Y-2697712D01*
X9999213Y-2604777D01*
X9804544Y-2541525D01*
X9804531Y-2541522D01*
X9602354Y-2509500D01*
X9602352Y-2509500D01*
X9397648Y-2509500D01*
X9397646Y-2509500D01*
X9195468Y-2541522D01*
X9195455Y-2541525D01*
X9000786Y-2604777D01*
X8818389Y-2697712D01*
X8652785Y-2818031D01*
X8652781Y-2818034D01*
X8508034Y-2962781D01*
X8508031Y-2962784D01*
X8508031Y-2962785D01*
X8387712Y-3128389D01*
X8294777Y-3310786D01*
X8231525Y-3505455D01*
X8231522Y-3505468D01*
X8199500Y-3707646D01*
X8199500Y-3912353D01*
X8231522Y-4114531D01*
X8231525Y-4114544D01*
X8294777Y-4309213D01*
X8387712Y-4491610D01*
X8457381Y-4587500D01*
X8508034Y-4657219D01*
X8652781Y-4801966D01*
X8689121Y-4828368D01*
X8818389Y-4922287D01*
X8863927Y-4945489D01*
X8916766Y-4972412D01*
X8944688Y-4997218D01*
X8945636Y-4998636D01*
X8952484Y-5011443D01*
X8958535Y-5026050D01*
X8958536Y-5026052D01*
X9019367Y-5172913D01*
X9072649Y-5252655D01*
X9079487Y-5265449D01*
X9146368Y-5426914D01*
X9155297Y-5440279D01*
X9166345Y-5466953D01*
X9192312Y-5597499D01*
X9197947Y-5625829D01*
X9197949Y-5625837D01*
X9273367Y-5807913D01*
X9382860Y-5971781D01*
X9524797Y-6113718D01*
X9524807Y-6113727D01*
X9634997Y-6223917D01*
X9635004Y-6223925D01*
X9636861Y-6225782D01*
X9776218Y-6365139D01*
X9940086Y-6474632D01*
X10037148Y-6514836D01*
X10122164Y-6550051D01*
X10218812Y-6569275D01*
X10315459Y-6588500D01*
X10315460Y-6588500D01*
X10512540Y-6588500D01*
X13072985Y-6588500D01*
X13111706Y-6600245D01*
X13111881Y-6599919D01*
X13113523Y-6600797D01*
X13114097Y-6600971D01*
X13115087Y-6601633D01*
X13163617Y-6621734D01*
X13212148Y-6641836D01*
X13297164Y-6677051D01*
X13393812Y-6696275D01*
X13456049Y-6708655D01*
X13482724Y-6719704D01*
X13496086Y-6728632D01*
X13583088Y-6764669D01*
X13657557Y-6795514D01*
X13670341Y-6802347D01*
X13750086Y-6855632D01*
X13845549Y-6895174D01*
X13878834Y-6908961D01*
X13911550Y-6922512D01*
X13924345Y-6929350D01*
X14004086Y-6982632D01*
X14004087Y-6982632D01*
X14004088Y-6982633D01*
X14122330Y-7031610D01*
X14165550Y-7049512D01*
X14178344Y-7056350D01*
X14225668Y-7087971D01*
X14257134Y-7135063D01*
X14246085Y-7190612D01*
X14198993Y-7222078D01*
X14184556Y-7223500D01*
X6074000Y-7223500D01*
X6021674Y-7201826D01*
X6000000Y-7149500D01*
X6000000Y-6000000D01*
X574500Y-6000000D01*
X522174Y-5978326D01*
X500500Y-5926000D01*
X500500Y-574500D01*
X522174Y-522174D01*
X574500Y-500500D01*
X30926000Y-500500D01*
X30978326Y-522174D01*
G37*
G04 #@! TD.AperFunction*
G04 #@! TA.AperFunction,Conductor*
G36*
X19056228Y-3085174D02*
G01*
X20413330Y-4442276D01*
X20509105Y-4506270D01*
X20519873Y-4513465D01*
X20638256Y-4562501D01*
X20638258Y-4562501D01*
X20638260Y-4562502D01*
X20654971Y-4565826D01*
X20763931Y-4587500D01*
X26623902Y-4587500D01*
X26676228Y-4609174D01*
X27280221Y-5213167D01*
X27301895Y-5265493D01*
X27280221Y-5317819D01*
X27227895Y-5339493D01*
X27213458Y-5338071D01*
X27165205Y-5328473D01*
X27115069Y-5318500D01*
X23176931Y-5318500D01*
X23145726Y-5324707D01*
X23051260Y-5343497D01*
X23051253Y-5343499D01*
X22991897Y-5368085D01*
X22991898Y-5368086D01*
X22932872Y-5392535D01*
X22826331Y-5463722D01*
X22826329Y-5463724D01*
X21189963Y-7100089D01*
X21152083Y-7120339D01*
X21146260Y-7121497D01*
X21146252Y-7121500D01*
X21027876Y-7170533D01*
X21027873Y-7170534D01*
X21027873Y-7170535D01*
X20967268Y-7211029D01*
X20926158Y-7223500D01*
X17738073Y-7223500D01*
X17685747Y-7201826D01*
X17664073Y-7149500D01*
X17685747Y-7097174D01*
X17795138Y-6987783D01*
X17795139Y-6987782D01*
X17904632Y-6823914D01*
X17980051Y-6641835D01*
X18018500Y-6448541D01*
X18018500Y-6251459D01*
X17980051Y-6058165D01*
X17955958Y-6000000D01*
X17904632Y-5876086D01*
X17795139Y-5712218D01*
X17655781Y-5572860D01*
X17491913Y-5463367D01*
X17309839Y-5387950D01*
X17309829Y-5387947D01*
X17171836Y-5360499D01*
X17116541Y-5349500D01*
X17116539Y-5349500D01*
X15375015Y-5349500D01*
X15336293Y-5337754D01*
X15336119Y-5338081D01*
X15334476Y-5337202D01*
X15333903Y-5337029D01*
X15332911Y-5336366D01*
X15196952Y-5280051D01*
X15196950Y-5280049D01*
X15196950Y-5280050D01*
X15171444Y-5269484D01*
X15158654Y-5262647D01*
X15078914Y-5209368D01*
X15078909Y-5209365D01*
X14922984Y-5144780D01*
X14917446Y-5142486D01*
X14904652Y-5135647D01*
X14880201Y-5119309D01*
X14848736Y-5072217D01*
X14859786Y-5016668D01*
X14906878Y-4985203D01*
X14954908Y-4991846D01*
X15000781Y-5015220D01*
X15000783Y-5015220D01*
X15000784Y-5015221D01*
X15195455Y-5078474D01*
X15195461Y-5078475D01*
X15195466Y-5078477D01*
X15296557Y-5094488D01*
X15397646Y-5110500D01*
X15397648Y-5110500D01*
X15602354Y-5110500D01*
X15683224Y-5097690D01*
X15804534Y-5078477D01*
X15804541Y-5078474D01*
X15804544Y-5078474D01*
X15999213Y-5015222D01*
X15999213Y-5015221D01*
X15999219Y-5015220D01*
X16181610Y-4922287D01*
X16347219Y-4801966D01*
X16491966Y-4657219D01*
X16612287Y-4491610D01*
X16705220Y-4309219D01*
X16752940Y-4162352D01*
X16768474Y-4114544D01*
X16768474Y-4114541D01*
X16768477Y-4114534D01*
X16800500Y-3912352D01*
X16800500Y-3707648D01*
X16791971Y-3653802D01*
X16768477Y-3505468D01*
X16768474Y-3505455D01*
X16705222Y-3310786D01*
X16705220Y-3310783D01*
X16705220Y-3310781D01*
X16634045Y-3171094D01*
X16629603Y-3114633D01*
X16666386Y-3071565D01*
X16699981Y-3063500D01*
X19003902Y-3063500D01*
X19056228Y-3085174D01*
G37*
G04 #@! TD.AperFunction*
M02*
